# This file uses centimeters as units for non-parametric coordinates.

v -2.141586 1.429873 0.188013
v -2.142181 1.408924 0.316687
v -2.240382 1.309242 0.275771
v -2.142181 1.293666 0.536737
v -2.240379 1.211887 0.461640
v -2.142181 1.114148 0.711370
v -2.240379 1.057152 0.612165
v -2.142181 0.887943 0.823491
v -2.240379 0.858903 0.710429
v -2.142181 0.637192 0.862125
v -2.240379 0.637192 0.744589
v -2.142181 0.386441 0.823491
v -2.240379 0.415480 0.710429
v -2.142181 0.160235 0.711370
v -2.240379 0.217231 0.612165
v -2.142181 -0.019282 0.536737
v -2.240379 0.062497 0.461640
v -2.142181 -0.134539 0.316687
v -2.240379 -0.034858 0.275771
v -2.132270 -0.153720 0.198882
v 2.060845 1.428103 0.198882
v 2.070752 1.408924 0.316687
v 2.168954 1.309242 0.275771
v 2.070752 1.293666 0.536737
v 2.168954 1.211887 0.461640
v 2.070756 1.114148 0.711370
v 2.168954 1.057152 0.612165
v 2.070752 0.887943 0.823491
v 2.168954 0.858903 0.710429
v 2.070752 0.637192 0.862125
v 2.168954 0.637192 0.744589
v 2.070752 0.386441 0.823491
v 2.168954 0.415480 0.710429
v 2.070756 0.160235 0.711370
v 2.168954 0.217231 0.612165
v 2.070752 -0.019282 0.536737
v 2.168954 0.062497 0.461640
v 2.070756 -0.134539 0.316687
v 2.168954 -0.034858 0.275771
v 2.070161 -0.155490 0.188013
v -2.240379 0.637192 0.177726
v -2.151843 0.637192 0.072759
v -2.240379 1.323110 0.177726
v -2.202495 1.373206 0.116957
v -2.151847 1.337958 0.072759
v -2.151847 -0.063573 0.072759
v -2.201408 -0.096069 0.118223
v -2.240379 -0.048726 0.177726
v 2.168954 0.637192 0.177726
v 2.080418 0.637192 0.072759
v 2.080418 1.337958 0.072759
v 2.129983 1.370453 0.118224
v 2.168954 1.323110 0.177726
v 2.168954 -0.048726 0.177726
v 2.131070 -0.098821 0.116957
v 2.080422 -0.063573 0.072759
vt 0.972793 0.365544
vt 0.961737 0.376299
vt 0.032737 0.004551
vt 0.059529 0.004450
vt 0.942114 0.378900
vt 0.904931 0.399133
vt 0.110579 0.004492
vt 0.875373 0.431721
vt 0.162048 0.004533
vt 0.856764 0.473029
vt 0.213932 0.004575
vt 0.851175 0.518722
vt 0.266071 0.004618
vt 0.859484 0.564002
vt 0.318211 0.004660
vt 0.880533 0.604123
vt 0.370095 0.004702
vt 0.911999 0.634844
vt 0.421564 0.004743
vt 0.950327 0.652632
vt 0.472614 0.004785
vt 0.981630 0.663611
vt 0.497141 0.006841
vt 0.970030 0.653953
vt 0.529000 0.002818
vt 0.529000 0.872585
vt 0.517383 0.882994
vt 0.966848 0.002441
vt 0.942602 0.308967
vt 0.058828 0.870243
vt 0.109878 0.870285
vt 0.905372 0.289116
vt 0.161347 0.870327
vt 0.875702 0.256764
vt 0.213231 0.870368
vt 0.856937 0.215638
vt 0.265370 0.870411
vt 0.851154 0.170096
vt 0.317510 0.870453
vt 0.859235 0.124919
vt 0.369394 0.870496
vt 0.880026 0.084790
vt 0.420863 0.870537
vt 0.911211 0.053733
vt 0.471913 0.870579
vt 0.949386 0.034651
vt 0.969339 0.032119
vt 0.959372 0.342805
vt 0.988949 0.367997
vt 0.002441 0.872208
vt 0.973207 0.321654
vt 0.962174 0.311372
vt 0.968669 0.515155
vt 0.673013 0.002819
vt 0.968497 0.172684
vt 0.673013 0.872585
vt 0.817027 0.872585
vt 0.989242 0.319891
vt 0.034301 0.868187
vt 0.960870 0.345926
vt 0.817027 0.002818
vt 0.002442 0.002442
vt 0.997559 0.660955
vt 0.968980 0.685517
vt 0.997196 0.027640
vt 0.997196 0.173491
vt 0.997559 0.514306
vt 0.982336 0.020503
vt 0.498705 0.870478
vt 0.939064 0.006527
vt 0.891548 0.030443
vt 0.853724 0.068359
vt 0.829114 0.116210
vt 0.819919 0.169344
vt 0.826446 0.222924
vt 0.848759 0.272088
vt 0.885215 0.311949
vt 0.933064 0.337601
vt 0.942392 0.681776
vt 0.893124 0.658781
vt 0.854454 0.620926
vt 0.829410 0.572956
vt 0.819919 0.519664
vt 0.826204 0.465908
vt 0.848311 0.416547
vt 0.884552 0.376459
vt 0.932117 0.350437
vn -0.637126 0.601088 -0.482456
vn -0.871155 0.048119 -0.488645
vn -0.009423 0.988686 -0.149704
vn -0.018757 0.929811 0.367560
vn -0.970574 0.220546 0.096673
vn -0.963537 0.215400 0.158746
vn -0.022054 0.800901 0.598391
vn -0.962190 0.158543 0.221484
vn -0.022935 0.576883 0.816505
vn -0.961278 0.083982 0.262473
vn -0.023593 0.301207 0.953267
vn -0.960948 0.000003 0.276728
vn -0.023832 -0.000000 0.999716
vn -0.961277 -0.083989 0.262473
vn -0.023593 -0.301207 0.953267
vn -0.962190 -0.158542 0.221485
vn -0.022935 -0.576883 0.816505
vn -0.963534 -0.215417 0.158737
vn -0.022054 -0.800903 0.598388
vn -0.970449 -0.221789 0.095068
vn -0.018874 -0.928577 0.370659
vn -0.602603 -0.661386 -0.446585
vn -0.008420 -0.990473 -0.137450
vn -0.871255 -0.053130 -0.487946
vn -0.021344 -0.077012 -0.996802
vn 0.021148 -0.072489 -0.997145
vn 0.637100 -0.601117 -0.482455
vn 0.008674 -0.988872 -0.148519
vn 0.970448 0.221796 0.095071
vn 0.018874 0.928579 0.370655
vn 0.022054 0.800901 0.598391
vn 0.963530 0.215435 0.158738
vn 0.022935 0.576882 0.816505
vn 0.962190 0.158537 0.221488
vn 0.023593 0.301207 0.953267
vn 0.961277 0.083970 0.262481
vn 0.023832 -0.000000 0.999716
vn 0.960946 0.000007 0.276738
vn 0.023592 -0.301207 0.953267
vn 0.961277 -0.083967 0.262481
vn 0.022935 -0.576883 0.816505
vn 0.962188 -0.158546 0.221488
vn 0.022054 -0.800903 0.598388
vn 0.963531 -0.215428 0.158739
vn 0.018757 -0.929810 0.367561
vn 0.970570 -0.220562 0.096677
vn 0.871159 -0.048118 -0.488637
vn 0.009184 0.990679 -0.135906
vn -0.021313 0.072800 -0.997119
vn 0.021520 0.076390 -0.996846
vn 0.602601 0.661380 -0.446597
vn 0.871251 0.053128 -0.487955
vn -0.909764 -0.000002 -0.415126
vn -0.024034 0.000000 -0.999711
vn 0.909762 0.000002 -0.415130
vn 0.024034 0.000000 -0.999711
f 44/1/1 43/2/2 1/60/3
f 2/87/4 1/60/3 3/5/5
f 1/60/3 43/2/2 3/5/5
f 2/87/4 3/5/5 5/6/6 4/86/7
f 4/86/7 5/6/6 7/8/8 6/85/9
f 6/85/9 7/8/8 9/10/10 8/84/11
f 8/84/11 9/10/10 11/12/12 10/83/13
f 10/83/13 11/12/12 13/14/14 12/82/15
f 12/82/15 13/14/14 15/16/16 14/81/17
f 14/81/17 15/16/16 17/18/18 16/80/19
f 16/80/19 17/18/18 19/20/20 18/79/21
f 47/22/22 20/64/23 48/24/24
f 18/79/21 19/20/20 20/64/23
f 19/20/20 48/24/24 20/64/23
f 47/22/22 46/63/25 20/64/23
f 46/25/25 56/26/26 20/23/23
f 55/27/27 40/69/28 56/26/26
f 20/23/23 56/26/26 40/69/28
f 23/29/29 22/78/30 24/77/31 25/32/32
f 25/32/32 24/77/31 26/76/33 27/34/34
f 27/34/34 26/76/33 28/75/35 29/36/36
f 29/36/36 28/75/35 30/74/37 31/38/38
f 31/38/38 30/74/37 32/73/39 33/40/40
f 33/40/40 32/73/39 34/72/41 35/42/42
f 35/42/42 34/72/41 36/71/43 37/44/44
f 37/44/44 36/71/43 38/70/45 39/46/46
f 55/68/27 54/47/47 40/28/28
f 38/70/45 40/28/28 39/46/46
f 39/46/46 40/28/28 54/47/47
f 1/3/3 2/4/4 22/30/30 21/59/48
f 2/4/4 4/7/7 24/31/31 22/30/30
f 4/7/7 6/9/9 26/33/33 24/31/31
f 6/9/9 8/11/11 28/35/35 26/33/33
f 8/11/11 10/13/13 30/37/37 28/35/35
f 10/13/13 12/15/15 32/39/39 30/37/37
f 12/15/15 14/17/17 34/41/41 32/39/39
f 14/17/17 16/19/19 36/43/43 34/41/41
f 16/19/19 18/21/21 38/45/45 36/43/43
f 18/21/21 20/23/23 40/69/28 38/45/45
f 44/1/1 1/60/3 45/49/49
f 45/62/49 1/3/3 51/50/50
f 52/51/51 51/58/50 21/48/48
f 1/3/3 21/59/48 51/50/50
f 52/51/51 21/48/48 53/52/52
f 22/78/30 23/29/29 21/48/48
f 53/52/52 21/48/48 23/29/29
f 41/53/53 42/67/54 46/63/25 48/24/24
f 42/67/54 41/53/53 43/2/2 45/49/49
f 49/55/55 50/66/56 51/58/50 53/52/52
f 50/66/56 49/55/55 54/47/47 56/65/26
f 3/5/5 43/2/2 41/53/53
f 5/6/6 3/5/5 41/53/53
f 7/8/8 5/6/6 41/53/53
f 9/10/10 7/8/8 41/53/53
f 11/12/12 9/10/10 41/53/53
f 13/14/14 11/12/12 41/53/53
f 15/16/16 13/14/14 41/53/53
f 17/18/18 15/16/16 41/53/53
f 19/20/20 17/18/18 41/53/53
f 41/53/53 48/24/24 19/20/20
f 49/55/55 53/52/52 23/29/29
f 23/29/29 25/32/32 49/55/55
f 25/32/32 27/34/34 49/55/55
f 27/34/34 29/36/36 49/55/55
f 29/36/36 31/38/38 49/55/55
f 31/38/38 33/40/40 49/55/55
f 33/40/40 35/42/42 49/55/55
f 35/42/42 37/44/44 49/55/55
f 37/44/44 39/46/46 49/55/55
f 39/46/46 54/47/47 49/55/55
f 42/54/54 45/61/49 51/57/50 50/56/56
f 46/25/25 42/54/54 50/56/56 56/26/26
f 43/2/2 44/1/1 45/49/49
f 46/63/25 47/22/22 48/24/24
f 51/58/50 52/51/51 53/52/52
f 54/47/47 55/68/27 56/65/26
