# This file uses centimeters as units for non-parametric coordinates.

mtllib Book_1.mtl
g default
v -5.483997 -0.410971 2.239131
v -2.390455 -0.410971 2.239131
v -2.390455 -0.416884 -2.239131
v -5.483997 -0.416884 -2.239131
v -5.483997 -1.166075 -2.239131
v -2.390455 -1.166075 -2.239131
v -2.390455 -1.166075 2.239131
v -5.483997 -1.166075 2.239131
v -5.483997 -0.416884 2.239131
v -2.390455 -0.416884 2.239131
v -2.390455 -0.416884 -2.239131
v -5.483997 -0.416884 -2.239131
v -5.483997 -1.166075 -2.239131
v -2.390455 -1.166075 -2.239131
v -2.390455 -1.166075 2.239131
v -5.483997 -1.166075 2.239131
v -5.483997 -1.244204 -2.239131
v -2.390455 -1.257179 -2.239131
v -2.390455 -1.257179 2.239131
v -5.483997 -1.244204 2.239131
v -5.483997 -0.307537 2.239131
v -2.390455 -0.301625 2.239131
v -2.390455 -0.301625 -2.239131
v -5.483997 -0.307537 -2.239131
v -5.617471 -1.166075 -2.239131
v -5.617471 -1.166075 2.239131
v -5.617471 -0.410971 2.239131
v -5.617471 -0.410971 -2.239131
v -5.370275 -1.166075 -2.239131
v -5.370275 -1.244204 -2.239131
v -5.370275 -1.244204 2.239131
v -5.370275 -1.166075 2.239131
v -5.360345 -0.410971 2.239131
v -5.360345 -0.307537 2.239131
v -5.360345 -0.307537 -2.239131
v -5.360345 -0.416884 -2.239131
v -5.511176 -1.257179 -2.239131
v -5.511176 -1.257179 -2.372190
v -5.511176 -1.166075 -2.372190
v -5.511176 -0.410971 -2.372190
v -5.511176 -0.301625 -2.372190
v -5.511176 -0.301625 -2.239131
v -5.511176 -0.301625 2.239131
v -5.511176 -0.301625 2.384192
v -5.511176 -0.410971 2.384192
v -5.511176 -1.166075 2.384192
v -5.511176 -1.257179 2.384192
v -5.511176 -1.257179 2.239131
v -5.340162 -1.257179 -2.239131
v -5.340162 -1.257179 2.239131
v -5.340162 -1.166075 2.239131
v -5.336041 -0.301625 2.239131
v -5.336041 -0.301625 -2.239131
v -5.336041 -0.416884 -2.239131
v -5.617471 -1.210074 -2.239131
v -5.570366 -1.257179 -2.239131
v -5.617471 -1.210074 2.239131
v -5.570366 -1.257179 2.239131
v -5.617471 -0.348729 2.239131
v -5.570366 -0.301625 2.239131
v -5.617471 -0.348729 -2.239131
v -5.570366 -0.301625 -2.239131
v -5.617471 -1.166075 -2.325086
v -5.570366 -1.166075 -2.372190
v -5.617471 -0.410971 -2.325086
v -5.570366 -0.410971 -2.372190
v -5.617471 -1.210074 -2.325086
v -5.570366 -1.257179 -2.372190
v -5.617471 -0.348729 -2.325086
v -5.570366 -0.301625 -2.372190
v -5.617471 -0.410971 2.337087
v -5.570366 -0.410971 2.384192
v -5.617471 -1.166075 2.337087
v -5.570366 -1.166075 2.384192
v -5.617471 -1.210074 2.337087
v -5.570366 -1.257179 2.384192
v -5.617471 -0.348729 2.337087
v -5.570366 -0.301625 2.384192
v -5.490570 -1.156238 -2.372190
v -5.483997 -1.145816 -2.372190
v -5.483997 -1.153977 -2.363192
v -5.483997 -1.162142 -2.372190
v -5.372155 -1.153993 -2.363026
v -5.372140 -1.162142 -2.372190
v -5.489480 -1.246821 -2.372190
v -5.483997 -1.235612 -2.372190
v -5.483997 -1.244204 -2.363599
v -5.368503 -1.235612 -2.372190
v -5.370275 -1.244204 -2.363599
v -5.491860 -0.415173 -2.372190
v -5.483997 -0.408292 -2.372190
v -5.483997 -0.416884 -2.363599
v -5.483997 -0.424932 -2.372190
v -5.361375 -0.408292 -2.372190
v -5.360345 -0.416884 -2.363599
v -5.489933 -0.306246 -2.372190
v -5.483997 -0.307537 -2.363599
v -5.483997 -0.316129 -2.372190
v -5.360345 -0.307537 -2.363599
v -5.359315 -0.316129 -2.372190
v -5.493110 -1.166075 2.384192
v -5.483997 -1.174667 2.384192
v -5.483997 -1.166075 2.375601
v -5.483997 -1.156962 2.384192
v -5.370275 -1.174667 2.384192
v -5.370275 -1.166075 2.375601
v -5.490072 -1.257179 2.384192
v -5.483997 -1.256377 2.375227
v -5.483997 -1.248177 2.384192
v -5.370275 -1.256377 2.375226
v -5.370275 -1.248177 2.384192
v -5.491860 -0.415173 2.384192
v -5.483997 -0.424932 2.384192
v -5.483997 -0.416884 2.375601
v -5.483997 -0.408292 2.384192
v -5.360345 -0.404733 2.384192
v -5.348194 -0.416884 2.384192
v -5.489933 -0.306246 2.384192
v -5.483997 -0.316129 2.384192
v -5.483997 -0.307537 2.375601
v -5.359315 -0.316129 2.384192
v -5.360345 -0.307537 2.375601
v -2.257464 -1.166075 -2.239131
v -2.248872 -1.174667 -2.239131
v -2.248872 -1.174667 2.239131
v -2.257464 -1.166075 2.239131
v -2.257464 -1.257179 2.239131
v -2.248872 -1.248587 2.239131
v -2.248872 -1.248587 -2.239131
v -2.257464 -1.257179 -2.239131
v -2.390455 -1.248587 -2.372190
v -2.390455 -1.257179 -2.363599
v -2.248872 -1.248587 -2.363599
v -2.257464 -1.257179 -2.363599
v -2.257464 -1.248587 -2.372190
v -2.390455 -1.166075 -2.363599
v -2.390455 -1.174667 -2.372190
v -2.248872 -1.174667 -2.363599
v -2.257464 -1.174667 -2.372190
v -2.257464 -1.166075 -2.363599
v -2.390455 -1.174667 2.384192
v -2.390455 -1.166075 2.375601
v -2.248872 -1.174667 2.375601
v -2.257464 -1.166075 2.375601
v -2.257464 -1.174667 2.384192
v -2.390455 -1.257179 2.375601
v -2.390455 -1.248587 2.384192
v -2.248872 -1.248587 2.375601
v -2.257464 -1.248587 2.384192
v -2.257464 -1.257179 2.375601
v -2.257283 -0.411323 2.239131
v -2.248872 -0.402553 2.239131
v -2.248872 -0.402553 -2.239131
v -2.257283 -0.411323 -2.239131
v -2.257464 -0.301625 -2.239131
v -2.248872 -0.310216 -2.239131
v -2.248872 -0.310216 2.239131
v -2.257464 -0.301625 2.239131
v -2.390455 -0.402564 -2.372190
v -2.390455 -0.411345 -2.363792
v -2.248872 -0.402380 -2.363599
v -2.257464 -0.410971 -2.363599
v -2.257464 -0.402380 -2.372190
v -2.390455 -0.301625 -2.363599
v -2.390455 -0.310216 -2.372190
v -2.248872 -0.310216 -2.363599
v -2.257464 -0.310216 -2.372190
v -2.257464 -0.301625 -2.363599
v -2.390455 -0.310216 2.384192
v -2.390455 -0.301625 2.375601
v -2.248872 -0.310216 2.375601
v -2.257464 -0.301625 2.375601
v -2.257464 -0.310216 2.384192
v -2.390455 -0.416884 2.375601
v -2.390636 -0.408292 2.384192
v -2.248872 -0.402553 2.375774
v -2.257464 -0.402731 2.384192
v -2.257283 -0.411323 2.375774
v -5.341577 -1.166075 -2.363459
v -5.341992 -1.174947 -2.372190
v -5.338389 -1.248587 -2.372190
v -5.340162 -1.257179 -2.363599
v -5.340162 -1.257179 2.375601
v -5.340162 -1.248587 2.384192
v -5.340162 -1.174667 2.384192
v -5.340162 -1.166075 2.375601
v -5.335013 -0.310216 2.384192
v -5.336041 -0.301625 2.375601
v -5.336041 -0.301625 -2.363599
v -5.335013 -0.310216 -2.372190
v -5.337050 -0.402559 -2.372190
v -5.336041 -0.411345 -2.363787
v -5.336041 -0.404733 2.384192
v -5.463922 -0.416884 -2.239131
v -5.463922 -0.416884 -2.363599
v -5.464090 -0.408292 -2.372190
v -5.463755 -0.316129 -2.372190
v -5.463922 -0.307537 -2.363599
v -5.463922 -0.307537 -2.239131
v -5.463922 -0.307537 2.239131
v -5.463922 -0.307537 2.375601
v -5.463755 -0.316129 2.384192
v -5.463922 -0.407714 2.384192
v -5.461950 -0.416884 2.376996
vt 0.338299 0.020340
vt 0.338299 0.539564
vt 0.330029 0.539484
vt 0.330029 0.020260
vt 0.261150 0.021039
vt 0.252070 0.020951
vt 0.252070 0.540175
vt 0.261150 0.540263
vt 0.278376 0.021084
vt 0.278376 0.540308
vt 0.341863 0.539757
vt 0.341863 0.020533
vt 0.267719 0.020982
vt 0.267719 0.540206
vt 0.258639 0.020894
vt 0.020720 0.537828
vt 0.020720 0.018604
vt 0.330709 0.020435
vt 0.331206 0.539655
vt 0.321333 0.539560
vt 0.330709 0.539659
vt 0.083710 0.537282
vt 0.084207 0.537278
vt 0.083710 0.018058
vt 0.083710 0.018058
vt 0.318895 0.020321
vt 0.330709 0.020435
vt 0.329106 0.020419
vt 0.320836 0.020340
vt 0.020720 0.018604
vt 0.267719 0.020982
vt 0.020720 0.537828
vt 0.256234 0.540095
vt 0.267719 0.540206
vt 0.258639 0.540118
vt 0.262229 0.540293
vt 0.262229 0.021069
vt 0.339902 0.539579
vt 0.339902 0.020355
vt 0.342569 0.020372
vt 0.342569 0.539596
vt 0.268736 0.006589
vt 0.269422 0.005540
vt 0.330032 0.005013
vt 0.330709 0.006004
vt 0.261150 0.006607
vt 0.261368 0.005617
vt 0.262229 0.005642
vt 0.342569 0.004944
vt 0.339902 0.005924
vt 0.340485 0.004931
vt 0.267719 0.556029
vt 0.268485 0.557018
vt 0.330032 0.556484
vt 0.330709 0.555482
vt 0.262229 0.557112
vt 0.260126 0.556051
vt 0.260544 0.557096
vt 0.339902 0.555402
vt 0.340485 0.556402
vt 0.342569 0.556415
vt 0.248575 0.020937
vt 0.248575 0.540162
vt 0.328586 0.539461
vt 0.328586 0.020237
vt 0.013060 0.018671
vt 0.013060 0.537895
vt 0.093400 0.537198
vt 0.093400 0.017973
vt 0.274676 0.021116
vt 0.266955 0.021114
vt 0.266955 0.540339
vt 0.274676 0.540340
vt 0.274677 0.011151
vt 0.266955 0.005687
vt 0.266955 0.557157
vt 0.274676 0.551698
vt 0.347096 0.539712
vt 0.347295 0.539641
vt 0.347295 0.020417
vt 0.347096 0.020488
vt 0.347096 0.551069
vt 0.347295 0.556460
vt 0.347295 0.004990
vt 0.347096 0.010522
vt 0.278376 0.011118
vt 0.274615 0.005621
vt 0.341863 0.010567
vt 0.338102 0.005070
vt 0.341863 0.551115
vt 0.338102 0.556540
vt 0.278376 0.551666
vt 0.274615 0.557091
vt 0.269889 0.005575
vt 0.333376 0.005024
vt 0.333376 0.556494
vt 0.269889 0.557046
vt 0.261872 0.005605
vt 0.268049 0.005551
vt 0.269071 0.005552
vt 0.331480 0.005012
vt 0.339180 0.004934
vt 0.331431 0.005001
vt 0.331480 0.556483
vt 0.268446 0.557032
vt 0.266996 0.557031
vt 0.260816 0.557084
vt 0.339180 0.556404
vt 0.331431 0.556472
vt 0.259805 0.006522
vt 0.259118 0.005466
vt 0.256347 0.006457
vt 0.255635 0.005452
vt 0.252651 0.005516
vt 0.252070 0.006520
vt 0.249156 0.005503
vt 0.248575 0.006506
vt 0.329106 0.005988
vt 0.329841 0.004986
vt 0.321640 0.004907
vt 0.320836 0.005909
vt 0.320180 0.004884
vt 0.319361 0.005864
vt 0.337564 0.004919
vt 0.338299 0.005908
vt 0.330029 0.005829
vt 0.329225 0.004838
vt 0.328586 0.005806
vt 0.327781 0.004815
vt 0.257916 0.556943
vt 0.258639 0.555941
vt 0.255512 0.556920
vt 0.256234 0.555918
vt 0.251046 0.555964
vt 0.251736 0.556997
vt 0.248575 0.555984
vt 0.249297 0.556974
vt 0.329877 0.556456
vt 0.328948 0.555627
vt 0.319866 0.556373
vt 0.321857 0.556374
vt 0.338299 0.555387
vt 0.337564 0.556389
vt 0.329225 0.556309
vt 0.330029 0.555307
vt 0.327781 0.556286
vt 0.328586 0.555284
vt 0.010101 0.018502
vt 0.008693 0.018502
vt 0.008693 0.004071
vt 0.010101 0.004071
vt 0.010101 0.537726
vt 0.008693 0.537726
vt 0.010101 0.553549
vt 0.008693 0.553549
vt 0.002441 0.537793
vt 0.002478 0.537780
vt 0.002478 0.553603
vt 0.002441 0.553616
vt 0.002441 0.018569
vt 0.002478 0.018556
vt 0.002441 0.004137
vt 0.002478 0.004125
vt 0.013782 0.003237
vt 0.013060 0.004240
vt 0.003164 0.003135
vt 0.009379 0.003081
vt 0.020720 0.004173
vt 0.019997 0.003183
vt 0.019997 0.554654
vt 0.020720 0.553651
vt 0.009379 0.554551
vt 0.003164 0.554605
vt 0.013060 0.553718
vt 0.013782 0.554708
vt 0.073544 0.537175
vt 0.073610 0.537163
vt 0.073610 0.553005
vt 0.073544 0.553018
vt 0.073544 0.017951
vt 0.073610 0.017938
vt 0.073588 0.003520
vt 0.073625 0.003507
vt 0.082782 0.017871
vt 0.081374 0.017871
vt 0.081374 0.003440
vt 0.082782 0.003440
vt 0.082782 0.537095
vt 0.081373 0.537095
vt 0.082782 0.552918
vt 0.081373 0.552918
vt 0.084914 0.002620
vt 0.084175 0.003600
vt 0.074311 0.002518
vt 0.082060 0.002450
vt 0.093400 0.003542
vt 0.092678 0.002553
vt 0.092678 0.554023
vt 0.093400 0.553021
vt 0.082060 0.553921
vt 0.074281 0.553988
vt 0.083710 0.553105
vt 0.084446 0.554095
vt 0.319917 0.556355
vn 0.000000 1.000000 0.000000
vn 0.000000 1.000000 0.000000
vn -0.046185 0.998933 0.000000
vn -0.046185 0.998933 0.000000
vn 0.001952 -0.999998 -0.000000
vn -0.089846 -0.995956 0.000000
vn -0.088384 -0.996084 -0.002283
vn 0.001176 -0.999996 -0.002680
vn -1.000000 0.000000 0.000000
vn -1.000000 0.000000 0.000000
vn -1.000000 0.000000 0.000000
vn -1.000000 0.000000 0.000000
vn 0.000000 1.000000 0.000000
vn 0.000000 1.000000 0.000000
vn 0.000000 1.000000 0.000000
vn 0.000000 1.000000 0.000000
vn 0.000000 1.000000 0.000000
vn 1.000000 0.000000 0.000000
vn 1.000000 0.000000 0.000000
vn 1.000000 0.000000 0.000000
vn 1.000000 0.000000 0.000000
vn 0.000000 0.000000 -1.000000
vn 0.000000 0.000000 -1.000000
vn 0.000000 0.000000 -1.000000
vn 0.000000 0.000000 -1.000000
vn 0.000000 0.000000 -1.000000
vn -1.000000 0.000000 0.000000
vn -0.000000 0.000000 0.000000
vn -0.000000 0.000000 0.000000
vn -1.000000 0.000000 0.000000
vn 0.000000 0.000000 0.000000
vn 0.000000 0.000000 0.000000
vn 0.000000 0.000000 0.000000
vn 0.000000 0.000000 0.000000
vn 0.000000 0.000000 0.000000
vn 0.000000 0.000000 -1.000000
vn 0.000000 0.000000 -1.000000
vn 0.000000 0.000000 0.000000
vn 0.000000 0.000000 0.000000
vn 0.000000 0.000000 0.000000
vn 0.000000 0.000000 0.000000
vn 0.000000 0.000000 0.000000
vn 0.000000 0.000000 0.000000
vn 0.000000 0.000000 0.000000
vn 0.000000 0.000000 0.000000
vn 0.000000 0.000000 0.000000
vn 0.000000 0.000000 0.000000
vn 0.000000 0.000000 0.000000
vn 0.000000 0.000000 0.000000
vn 0.000000 0.000000 0.000000
vn 0.000000 0.000000 0.000000
vn 0.000000 0.000000 0.000000
vn 0.000000 0.000000 0.000000
vn 0.000000 0.000000 0.000000
vn 0.000000 0.000000 0.000000
vn 0.000000 0.000000 0.000000
vn 0.000000 0.000000 0.000000
vn 0.000000 0.000000 0.000000
vn 0.000000 0.000000 0.000000
vn 0.000000 0.000000 0.000000
vn 0.430819 -0.902438 0.000000
vn 0.430819 -0.902438 0.000000
vn 0.146995 -0.989137 0.000000
vn 0.147223 -0.989103 -0.000000
vn 0.212560 0.977148 0.000000
vn 0.212560 0.977148 0.000000
vn 0.068252 0.997668 0.000000
vn 0.067657 0.997709 0.000000
vn 1.000000 0.000000 0.000000
vn 1.000000 0.000000 0.000000
vn 1.000000 0.000000 0.000000
vn 1.000000 0.000000 0.000000
vn 1.000000 0.000000 0.000000
vn 1.000000 0.000000 0.000000
vn 0.078035 -0.996951 -0.000000
vn 0.430818 -0.902439 -0.000001
vn 0.073745 -0.997277 0.000000
vn 0.062016 0.998075 0.000000
vn 0.007939 0.999968 0.000000
vn 0.131277 0.991346 0.000000
vn 0.212558 0.977149 0.000000
vn 1.000000 0.000000 0.000000
vn 1.000000 0.000000 0.000000
vn 1.000000 0.000000 0.000000
vn 1.000000 0.000000 0.000000
vn 1.000000 0.000000 0.000000
vn 1.000000 0.000000 0.000000
vn 0.029485 -0.999473 -0.013541
vn 0.000002 -0.996024 -0.089090
vn 0.000013 -0.996023 -0.089092
vn 0.118765 0.992922 0.000000
vn 0.005441 0.999985 0.000000
vn 0.212560 0.977148 0.000000
vn 0.033079 0.999453 0.000000
vn -0.004354 -0.999991 0.000000
vn -0.004294 -0.999991 -0.000013
vn -0.001991 0.999998 0.000000
vn -0.001991 0.999998 0.000000
vn 0.000000 -1.000000 0.000000
vn 0.000000 -1.000000 0.000000
vn 0.000000 1.000000 0.000000
vn 0.000000 1.000000 0.000000
vn -0.707109 -0.707105 0.000000
vn -0.707109 -0.707105 0.000000
vn -0.707109 -0.707105 0.000000
vn -0.707109 -0.707105 0.000000
vn -0.707108 -0.707105 0.000000
vn -0.707109 -0.707105 0.000000
vn -0.707109 -0.707104 0.000000
vn -0.707109 -0.707104 0.000000
vn -0.707107 0.707107 0.000000
vn -0.707107 0.707107 0.000000
vn -0.707107 0.707107 0.000000
vn -0.707107 0.707107 0.000000
vn -0.707108 0.707106 0.000000
vn -0.707108 0.707106 0.000000
vn -0.707107 0.707107 0.000000
vn -0.707107 0.707107 0.000000
vn -0.707105 0.000000 -0.707109
vn -0.707105 0.000000 -0.707109
vn -0.707106 0.000000 -0.707107
vn -0.707106 0.000000 -0.707107
vn -0.707105 0.000000 -0.707109
vn -0.707105 0.000000 -0.707109
vn -0.707106 0.000000 -0.707107
vn -0.707106 0.000000 -0.707107
vn -0.707105 0.000000 0.707108
vn -0.707105 0.000000 0.707108
vn -0.707107 0.000000 0.707106
vn -0.707107 0.000000 0.707106
vn -0.707105 0.000000 0.707109
vn -0.707105 0.000000 0.707109
vn -0.707106 0.000000 0.707107
vn -0.707106 0.000000 0.707107
vn -1.000000 0.000000 0.000000
vn -1.000000 0.000000 0.000000
vn -1.000000 0.000000 0.000000
vn -1.000000 0.000000 0.000000
vn -1.000000 0.000000 0.000000
vn -1.000000 0.000000 0.000000
vn -1.000000 0.000000 0.000000
vn -1.000000 0.000000 0.000000
vn -1.000000 0.000000 0.000000
vn -1.000000 0.000000 0.000000
vn -1.000000 0.000000 0.000000
vn -1.000000 0.000000 0.000000
vn 0.000000 -1.000000 0.000000
vn 0.000000 -1.000000 0.000000
vn -0.000000 0.000000 -1.000000
vn 0.000000 0.000000 -1.000000
vn 0.000000 0.000000 -1.000000
vn 0.000000 0.000000 -1.000000
vn 0.000000 0.000000 -1.000000
vn 0.000000 0.000000 -1.000000
vn 0.000000 0.000000 -1.000000
vn 0.000000 0.000000 -1.000000
vn 0.000000 1.000000 0.000000
vn 0.000000 1.000000 0.000000
vn 0.000000 1.000000 0.000000
vn 0.000000 1.000000 0.000000
vn -0.000000 0.000000 1.000000
vn 0.000001 0.000000 1.000000
vn 0.000000 0.000000 1.000000
vn 0.000000 0.000000 1.000000
vn -0.000000 0.000000 1.000000
vn 0.000000 0.000000 1.000000
vn 0.000000 0.000000 1.000000
vn 0.000000 0.000000 1.000000
vn 0.000000 -1.000000 0.000000
vn 0.000000 -1.000000 0.000000
vn 0.000001 0.000000 -1.000000
vn 0.000000 0.000000 -1.000000
vn 0.000000 0.000000 -1.000000
vn 0.000000 0.000000 -1.000000
vn -0.000008 0.000000 -1.000000
vn 0.000000 0.000000 -1.000000
vn 0.000000 0.000000 -1.000000
vn 0.000000 0.000000 -1.000000
vn 0.000001 0.000000 -1.000000
vn 0.000004 0.000000 -1.000000
vn 0.000004 0.000000 -1.000000
vn 0.000000 0.000000 -1.000000
vn -0.000002 0.000000 1.000000
vn 0.000000 0.000000 1.000000
vn 0.000000 0.000000 1.000000
vn 0.000000 0.000000 1.000000
vn 0.000000 0.000000 1.000000
vn 0.000000 0.000000 1.000000
vn 0.000000 0.000000 1.000000
vn 0.000000 0.000000 1.000000
vn 0.000009 0.000000 1.000000
vn -0.000005 0.000000 1.000000
vn -0.001046 -0.044331 0.999016
vn 0.000000 0.000000 1.000000
vn 0.000549 0.743999 -0.668181
vn 0.000549 0.743999 -0.668181
vn 0.027310 0.741668 -0.670211
vn 0.090940 0.733952 -0.673086
vn 0.004747 0.704504 -0.709684
vn 0.001021 0.704290 -0.709912
vn 0.000000 -0.707069 -0.707144
vn 0.000000 -0.707069 -0.707144
vn -0.027930 -0.703906 -0.709743
vn -0.087739 -0.695233 -0.713409
vn -0.004823 -0.706561 -0.707636
vn -0.001196 -0.706943 -0.707270
vn 0.000000 -0.707073 -0.707141
vn 0.000000 -0.707073 -0.707141
vn 0.040119 -0.702103 -0.710944
vn 0.018488 -0.704927 -0.709039
vn 0.000713 -0.691194 -0.722669
vn 0.001855 -0.691182 -0.722678
vn 0.000001 0.707065 -0.707148
vn 0.000001 0.707065 -0.707148
vn -0.043232 0.703812 -0.709070
vn -0.019168 0.705787 -0.708165
vn -0.000760 0.707024 -0.707189
vn -0.002028 0.706947 -0.707263
vn 0.000000 0.707069 0.707145
vn 0.000000 0.707069 0.707145
vn 0.000000 0.707069 0.707144
vn 0.000000 0.707069 0.707144
vn 0.000000 0.707070 0.707143
vn 0.000000 0.707070 0.707143
vn 0.000001 -0.737911 0.674898
vn 0.000001 -0.737911 0.674898
vn -0.004151 -0.734582 0.678507
vn -0.003835 -0.734836 0.678233
vn -0.000178 -0.707222 0.706991
vn -0.000197 -0.707239 0.706975
vn -0.003471 -0.043812 0.999034
vn -0.026578 -0.335445 0.941685
vn 0.000113 -0.380954 0.924594
vn -0.002595 -0.032762 0.999460
vn 0.000000 0.707065 0.707148
vn 0.000000 0.707065 0.707148
vn -0.019168 0.705787 0.708165
vn -0.043231 0.703812 0.709070
vn -0.002027 0.706947 0.707263
vn -0.000760 0.707024 0.707189
vn 0.707103 0.707111 0.000000
vn 0.707103 0.707111 0.000000
vn 0.707106 0.707107 0.000000
vn 0.707106 0.707107 0.000000
vn 0.707102 0.707111 0.000000
vn 0.707102 0.707111 0.000000
vn 0.707099 0.707114 0.000000
vn 0.707099 0.707114 0.000000
vn 0.707106 -0.707107 0.000000
vn 0.707106 -0.707107 0.000000
vn 0.707103 -0.707110 0.000000
vn 0.707103 -0.707110 0.000000
vn 0.707106 -0.707107 0.000000
vn 0.707106 -0.707107 0.000000
vn 0.707110 -0.707103 0.000000
vn 0.707110 -0.707103 0.000000
vn 0.000000 -0.707067 -0.707147
vn 0.000000 -0.707067 -0.707147
vn 0.000000 -0.707067 -0.707147
vn 0.000000 -0.707067 -0.707147
vn 0.707069 0.000000 -0.707144
vn 0.707069 0.000000 -0.707144
vn 0.707069 0.000000 -0.707144
vn 0.707069 0.000000 -0.707144
vn -0.000048 0.704347 -0.709855
vn -0.000048 0.704347 -0.709855
vn 0.000000 0.707070 -0.707144
vn 0.000000 0.707070 -0.707144
vn 0.000000 0.707070 0.707143
vn 0.000000 0.707070 0.707143
vn 0.000000 0.707070 0.707144
vn 0.000000 0.707070 0.707144
vn 0.707062 0.000000 0.707151
vn 0.707062 0.000000 0.707151
vn 0.707062 0.000000 0.707151
vn 0.707062 0.000000 0.707151
vn 0.000000 -0.707073 0.707140
vn 0.000000 -0.707073 0.707140
vn 0.000000 -0.707067 0.707147
vn 0.000000 -0.707067 0.707147
vn 0.721668 -0.692239 0.000000
vn 0.721668 -0.692239 0.000000
vn 0.721663 -0.692245 0.000000
vn 0.721663 -0.692245 0.000000
vn 0.721475 -0.692440 -0.000053
vn 0.721472 -0.692443 -0.000054
vn 0.714423 -0.699711 -0.001993
vn 0.714423 -0.699711 -0.001993
vn 0.707101 0.707113 0.000000
vn 0.707101 0.707113 0.000000
vn 0.707105 0.707109 0.000000
vn 0.707105 0.707109 0.000000
vn 0.707100 0.707113 0.000000
vn 0.707100 0.707113 0.000000
vn 0.707098 0.707116 0.000000
vn 0.707098 0.707116 0.000000
vn 0.000085 -0.691549 -0.722330
vn 0.000084 -0.691545 -0.722333
vn 0.001983 -0.699181 -0.714942
vn 0.001983 -0.699181 -0.714942
vn 0.707073 0.000000 -0.707141
vn 0.707073 0.000000 -0.707141
vn 0.707073 0.000000 -0.707141
vn 0.707073 0.000000 -0.707141
vn 0.000000 0.707070 -0.707143
vn 0.000000 0.707070 -0.707143
vn 0.000000 0.707071 -0.707143
vn 0.000000 0.707071 -0.707143
vn 0.000000 0.707070 0.707143
vn 0.000000 0.707070 0.707143
vn 0.000000 0.707071 0.707143
vn 0.000000 0.707071 0.707143
vn 0.703472 0.000665 0.710723
vn 0.703472 0.000665 0.710723
vn 0.703472 0.000665 0.710723
vn 0.703472 0.000665 0.710723
vn 0.002284 -0.397781 0.917477
vn 0.000271 -0.042987 0.999076
vn 0.000132 -0.045361 0.998971
vn 0.028891 -0.702888 0.710713
vn 0.028891 -0.702888 0.710714
vn 0.000000 0.000000 -1.000000
vn 0.000000 0.000000 -1.000000
vn 1.000000 0.000000 0.000000
vn 1.000000 0.000000 0.000000
vn 1.000000 0.000000 0.000000
vn 1.000000 0.000000 0.000000
vn 0.000001 0.000000 1.000000
vn 0.000001 0.000000 1.000000
vn 0.000001 0.000000 1.000000
vn 0.000000 0.000000 1.000000
vn 1.000000 0.000000 0.000000
vn 1.000000 0.000000 0.000000
vn 1.000000 0.000000 0.000000
vn 1.000000 0.000000 0.000000
vn -0.000000 0.000000 -1.000000
vn -0.000001 0.000000 -1.000000
vn -0.000001 0.000000 -1.000000
vn -0.000001 0.000000 -1.000000
vn 0.000000 1.000000 0.000000
vn 0.000000 1.000000 0.000000
vn 0.000838 0.999998 0.001715
vn 0.003890 0.999961 0.007961
vn 0.083709 0.981657 0.171293
vn 0.083709 0.981657 0.171293
vn 1.000000 0.000000 0.000000
vn 1.000000 0.000000 0.000000
vn -0.089847 -0.995956 0.000000
vn 0.021692 -0.999756 -0.004236
vn 0.021648 -0.999757 -0.004227
vn 0.000000 -1.000000 0.000000
vn 0.000000 -1.000000 0.000000
vn 0.000000 1.000000 0.000000
vn -0.046185 0.998933 0.000000
vn 1.000000 0.000000 0.000000
vn 1.000000 0.000000 0.000000
vn 0.000000 1.000000 0.000000
vn 0.000000 1.000000 0.000000
vn 0.000000 1.000000 0.000000
vn 0.000000 1.000000 0.000000
vn -0.049070 -0.995631 -0.079438
vn 1.000000 0.000000 0.000000
vn 1.000000 0.000000 0.000000
vn 0.000000 -1.000000 0.000000
vn 0.000000 -1.000000 0.000000
vn 0.030715 -0.999528 -0.000000
vn 0.000000 -1.000000 0.000000
vn 0.000000 -1.000000 -0.000000
vn 0.003177 -0.999995 -0.000000
vn 1.000000 0.000000 0.000000
vn 1.000000 0.000000 0.000000
vn -0.046185 0.998933 0.000000
vn 0.000000 1.000000 0.000000
vn 0.000000 1.000000 0.000000
vn 0.000000 1.000000 0.000000
vn 0.000000 1.000000 0.000000
vn 0.000000 -1.000000 0.000000
vn 0.000000 -1.000000 0.000000
vn 0.000000 -1.000000 0.000000
vn 0.000000 -1.000000 0.000000
vn -0.000000 0.000000 -1.000000
vn -0.000000 0.000000 -1.000000
vn 0.000000 0.000000 -1.000000
vn 0.000000 0.000000 -1.000000
vn 0.000000 1.000000 0.000000
vn 0.000000 1.000000 0.000000
vn 0.000000 1.000000 0.000000
vn 0.000000 0.000000 1.000000
vn 0.000000 0.000000 1.000000
vn 0.000000 0.000000 1.000000
vn 0.000000 0.000000 1.000000
vn 0.000000 -1.000000 0.000000
vn 0.000000 -1.000000 0.000000
vn 0.025776 -0.999523 -0.017035
vn 0.041199 -0.999151 -0.000640
vn 0.041724 -0.999129 0.000000
vn 0.000000 1.000000 0.000000
vn 0.000000 1.000000 0.000000
vn 0.000964 -0.999053 -0.043495
vn 0.022302 -0.999472 -0.023648
vn -0.000000 0.000000 -1.000000
vn -0.000000 0.000000 -1.000000
vn -0.000001 0.000000 -1.000000
vn -0.000001 0.000000 -1.000000
vn 0.000000 1.000000 0.000000
vn 0.000000 1.000000 0.000000
vn 0.000000 1.000000 0.000000
vn 0.000000 1.000000 0.000000
vn 0.000000 0.000000 1.000000
vn 0.000002 0.000000 1.000000
vn 0.000002 0.000000 1.000000
vn 0.041724 -0.999129 0.000000
vn -0.000000 0.000000 -1.000000
vn -0.000000 0.000000 -1.000000
vn -0.004354 -0.999991 0.000000
vn -0.002293 -0.999997 -0.000448
vn 0.000000 0.000000 1.000000
vn 0.000000 0.000000 1.000000
vn 0.000000 1.000000 0.000000
vn 0.000000 1.000000 0.000000
vn -0.001991 0.999998 0.000000
vn -0.001991 0.999998 0.000000
vn 0.000000 0.000000 -1.000000
vn 0.000000 0.000000 -1.000000
vn 0.000825 -0.999021 -0.044230
vn 0.000930 -0.999022 -0.044210
vn 0.000000 0.000000 1.000000
vn 0.807510 0.000000 -0.589854
vn 0.807510 0.000000 -0.589854
vn 0.807510 0.000000 -0.589854
vn 0.807510 0.000000 -0.589854
vn 0.822383 -0.402277 -0.402317
vn 0.822383 -0.402277 -0.402317
vn 0.822383 -0.402277 -0.402317
vn 0.737621 0.000000 -0.675215
vn 0.737621 0.000000 -0.675215
vn 0.737621 0.000000 -0.675215
vn 0.737621 0.000000 -0.675215
vn 0.762112 0.457784 -0.457841
vn 0.762112 0.457785 -0.457841
vn 0.762112 0.457784 -0.457841
vn 0.685962 0.000000 0.727637
vn 0.685962 0.000000 0.727637
vn 0.685962 0.000000 0.727637
vn 0.685962 0.000000 0.727637
vn 0.737934 -0.497987 0.455481
vn 0.737934 -0.497987 0.455481
vn 0.737934 -0.497987 0.455481
vn 0.737643 0.000000 0.675191
vn 0.737643 0.000000 0.675191
vn 0.737643 0.000000 0.675191
vn 0.737643 0.000000 0.675191
vn 0.762130 0.457770 0.457826
vn 0.762130 0.457770 0.457826
vn 0.762130 0.457770 0.457826
vn 0.577336 -0.577311 -0.577404
vn 0.577336 -0.577311 -0.577404
vn 0.577336 -0.577311 -0.577404
vn 0.577355 0.577306 -0.577390
vn 0.577355 0.577306 -0.577390
vn 0.577355 0.577306 -0.577390
vn 0.577322 0.577322 0.577407
vn 0.577322 0.577322 0.577407
vn 0.577322 0.577322 0.577407
vn 0.577319 -0.577319 0.577412
vn 0.577319 -0.577319 0.577412
vn 0.577319 -0.577319 0.577412
vn 0.577355 -0.577306 -0.577390
vn 0.577355 -0.577306 -0.577390
vn 0.577355 -0.577306 -0.577390
vn 0.577340 0.577315 -0.577396
vn 0.577340 0.577315 -0.577396
vn 0.577340 0.577315 -0.577396
vn 0.577324 0.577323 0.577404
vn 0.577324 0.577323 0.577404
vn 0.577324 0.577323 0.577404
vn 0.585098 -0.561245 0.585375
vn 0.585098 -0.561245 0.585375
vn 0.585098 -0.561245 0.585375
vn 0.000000 -1.000000 0.000000
vn 0.000000 -1.000000 0.000000
vn 0.000000 -1.000000 0.000000
vn 0.000000 -1.000000 0.000000
vn 0.000000 -0.707072 -0.707142
vn 0.000000 -0.707072 -0.707142
vn 0.000000 -0.707072 -0.707142
vn 0.000000 -0.707072 -0.707142
vn 0.000003 0.000000 -1.000000
vn 0.000003 0.000000 -1.000000
vn -0.000005 0.707065 -0.707148
vn -0.000005 0.707065 -0.707148
vn -0.000005 0.707065 -0.707148
vn -0.000005 0.707065 -0.707148
vn 0.000000 1.000000 0.000000
vn 0.000000 1.000000 0.000000
vn 0.000000 1.000000 0.000000
vn 0.000000 1.000000 0.000000
vn 0.000000 0.707068 0.707146
vn 0.000000 0.707068 0.707146
vn 0.000000 0.707068 0.707146
vn 0.000000 0.707068 0.707146
vn -0.001738 -0.073558 0.997289
vn -0.000014 0.000000 1.000000
vn -0.015605 -0.665228 0.746478
vn -0.015605 -0.665227 0.746478
vn 0.000000 -0.999999 0.001320
vn 0.000000 -0.999999 0.001320
vn 0.000000 -0.999999 0.001320
vn 0.000000 -0.999999 0.001320
vn 0.000000 -0.999999 0.001320
g FCSET_Cover_001_0p109_0p591_0p11 Cover Book
usemtl initialShadingGroup
f 199/1/1 200/2/2 34/3/3 35/4/4
f 17/5/5 30/6/6 31/7/7 20/8/8
f 25/9/9 26/10/10 27/11/11 28/12/12
f 5/13/13 8/14/14 29/15/15
f 29/15/15 8/14/14 7/16/16 6/17/17
f 5/13/18 4/18/19 1/19/20 8/14/21
f 1/19/22 33/20/23 9/21/24
f 10/22/25 9/21/24 33/20/23 2/23/26
f 2/23/27 3/24/28 11/25/29 10/22/30
f 54/26/31 11/25/32 3/24/33 4/18/34
f 12/27/35 194/28/36 4/18/34
f 36/29/37 54/26/31 4/18/34 194/28/36
f 14/30/38 13/31/39 5/13/40 6/17/41
f 5/13/40 29/15/42 6/17/41
f 6/17/43 7/16/44 15/32/45 14/30/46
f 51/33/47 15/32/48 7/16/49 8/14/50
f 8/14/50 16/34/51 32/35/52 51/33/47
f 8/14/53 1/19/54 9/21/55 16/34/56
f 4/18/57 5/13/58 13/31/59 12/27/60
f 17/5/61 20/8/62 48/36/63 37/37/64
f 21/38/65 24/39/66 42/40/67 43/41/68
f 13/31/69 81/42/70 12/27/71
f 12/27/71 81/42/70 80/43/72 93/44/73
f 92/45/74 12/27/71 93/44/73
f 87/46/75 17/5/5 37/37/64 85/47/76
f 37/37/64 38/48/77 85/47/76
f 41/49/78 42/40/67 24/39/79 97/50/80
f 41/49/78 97/50/80 96/51/81
f 16/34/82 9/21/83 103/52/84
f 104/53/85 103/52/84 9/21/83 113/54/86
f 114/55/87 113/54/86 9/21/83
f 48/36/63 20/8/8 47/56/88
f 47/56/88 20/8/8 108/57/89 107/58/90
f 120/59/91 21/38/92 43/41/68 118/60/93
f 44/61/94 118/60/93 43/41/68
f 31/7/7 30/6/6 49/62/95 50/63/96
f 35/4/4 34/3/3 52/64/97 53/65/98
f 50/63/96 49/62/95 18/66/99 19/67/100
f 53/65/98 52/64/97 22/68/101 23/69/102
f 55/70/103 56/71/104 58/72/105 57/73/106
f 56/71/104 55/70/103 67/74/107 68/75/108
f 57/73/106 58/72/105 76/76/109 75/77/110
f 59/78/111 60/79/112 62/80/113 61/81/114
f 60/79/112 59/78/111 77/82/115 78/83/116
f 61/81/114 62/80/113 70/84/117 69/85/118
f 63/86/119 64/87/120 68/75/121 67/74/122
f 64/87/120 63/86/119 65/88/123 66/89/124
f 66/89/124 65/88/123 69/85/125 70/84/126
f 71/90/127 72/91/128 78/83/129 77/82/130
f 72/91/128 71/90/127 73/92/131 74/93/132
f 74/93/132 73/92/131 75/77/133 76/76/134
f 26/10/10 25/9/9 55/70/135 57/73/136
f 28/12/12 27/11/11 59/78/137 61/81/138
f 25/9/9 28/12/12 65/88/139 63/86/140
f 55/70/135 25/9/9 63/86/140 67/74/141
f 28/12/12 61/81/138 69/85/142 65/88/139
f 27/11/11 26/10/10 73/92/143 71/90/144
f 26/10/10 57/73/136 75/77/145 73/92/143
f 59/78/137 27/11/11 71/90/144 77/82/146
f 38/48/77 37/37/64 56/71/147 68/75/148
f 39/94/149 38/48/150 68/75/151 64/87/152
f 40/95/153 39/94/149 64/87/152 66/89/154
f 41/49/155 40/95/153 66/89/154 70/84/156
f 62/80/157 42/40/67 41/49/78 70/84/158
f 43/41/68 42/40/67 62/80/157 60/79/159
f 44/61/94 43/41/68 60/79/159 78/83/160
f 45/96/161 44/61/162 78/83/163 72/91/164
f 46/97/165 45/96/161 72/91/164 74/93/166
f 47/56/167 46/97/165 74/93/166 76/76/168
f 58/72/169 48/36/63 47/56/88 76/76/170
f 37/37/64 48/36/63 58/72/169 56/71/147
f 38/48/150 39/94/149 85/47/171
f 86/98/172 85/47/171 39/94/149 82/99/173
f 79/100/174 82/99/173 39/94/149
f 39/94/149 40/95/153 79/100/175
f 80/43/176 79/100/175 40/95/153 90/101/177
f 90/101/177 93/44/178 80/43/176
f 41/49/155 96/51/179 40/95/153
f 40/95/153 96/51/179 98/102/180 91/103/181
f 90/101/182 40/95/153 91/103/181
f 45/96/161 46/97/165 112/104/183
f 113/54/184 112/104/183 46/97/165 101/105/185
f 101/105/185 104/53/186 113/54/184
f 46/97/165 47/56/167 101/105/187
f 102/106/188 101/105/187 47/56/167 109/107/189
f 107/58/190 109/107/189 47/56/167
f 44/61/162 45/96/161 118/60/191
f 119/108/192 118/60/191 45/96/161 115/109/193
f 112/104/194 115/109/193 45/96/161
f 82/99/195 81/42/196 83/110/197 84/111/198
f 84/111/198 83/110/197 179/112/199 180/113/200
f 87/46/201 86/98/202 88/114/203 89/115/204
f 89/115/204 88/114/203 181/116/205 182/117/206
f 195/118/207 196/119/208 94/120/209 95/121/210
f 95/121/210 94/120/209 191/122/211 192/123/212
f 197/124/213 198/125/214 99/126/215 100/127/216
f 100/127/216 99/126/215 189/128/217 190/129/218
f 103/52/219 102/106/220 105/130/221 106/131/222
f 106/131/222 105/130/221 185/132/223 186/133/224
f 109/107/225 108/57/226 110/134/227 111/135/228
f 111/135/228 110/134/227 183/136/229 184/137/230
f 203/138/231 204/139/232 117/140/233 116/141/234
f 201/142/235 202/143/236 121/144/237 122/145/238
f 122/145/238 121/144/237 187/146/239 188/147/240
f 123/148/241 124/149/242 138/150/243 140/151/244
f 124/149/242 123/148/241 126/152/245 125/153/246
f 125/153/246 126/152/245 144/154/247 143/155/248
f 127/156/249 128/157/250 148/158/251 150/159/252
f 128/157/250 127/156/249 130/160/253 129/161/254
f 129/161/254 130/160/253 134/162/255 133/163/256
f 131/164/257 132/165/258 182/117/206 181/116/205
f 132/165/258 131/164/257 135/166/259 134/162/260
f 133/163/261 135/166/262 139/167/263 138/150/264
f 136/168/265 137/169/266 180/113/200 179/112/199
f 137/169/266 136/168/265 140/151/267 139/167/268
f 141/170/269 142/171/270 186/133/224 185/132/223
f 142/171/270 141/170/269 145/172/271 144/154/272
f 143/155/273 145/172/274 149/173/275 148/158/276
f 146/174/277 147/175/278 184/137/230 183/136/229
f 147/175/278 146/174/277 150/159/279 149/173/280
f 151/176/281 152/177/282 176/178/283 178/179/284
f 152/177/282 151/176/281 154/180/285 153/181/286
f 153/181/286 154/180/285 162/182/287 161/183/288
f 155/184/289 156/185/290 166/186/291 168/187/292
f 156/185/290 155/184/289 158/188/293 157/189/294
f 157/189/294 158/188/293 172/190/295 171/191/296
f 159/192/297 160/193/298 192/123/212 191/122/211
f 160/193/298 159/192/297 163/194/299 162/182/300
f 161/183/301 163/194/302 167/195/303 166/186/304
f 164/196/305 165/197/306 190/129/218 189/128/217
f 165/197/306 164/196/305 168/187/307 167/195/308
f 169/198/309 170/199/310 188/147/240 187/146/239
f 170/199/310 169/198/309 173/200/311 172/190/312
f 171/191/313 173/200/314 177/201/315 176/178/316
f 174/202/317 175/203/318 193/204/319 117/140/233
f 175/203/318 174/202/317 178/179/320 177/201/321
f 82/99/173 84/111/322 88/114/323 86/98/172
f 124/149/324 125/153/325 128/157/326 129/161/327
f 111/135/328 105/130/329 102/106/188 109/107/189
f 202/143/330 203/138/231 116/141/234 121/144/331
f 152/177/332 153/181/333 156/185/334 157/189/335
f 100/127/336 94/120/337 196/119/338 197/124/339
f 14/30/340 136/168/341 179/112/342 13/31/343
f 83/110/344 81/42/345 13/31/343 179/112/342
f 124/149/324 129/161/327 133/163/346 138/150/347
f 89/115/348 30/6/6 17/5/5 87/46/75
f 95/121/349 36/29/350 194/28/351 195/118/352
f 198/125/353 199/1/1 35/4/4 99/126/354
f 156/185/334 153/181/333 161/183/355 166/186/356
f 106/131/357 32/35/358 16/34/359 103/52/360
f 20/8/8 31/7/7 110/134/361 108/57/89
f 128/157/326 125/153/325 143/155/362 148/158/363
f 114/55/364 9/21/365 10/22/366 204/139/367
f 117/140/368 204/139/367 10/22/366 174/202/369
f 152/177/332 157/189/335 171/191/370 176/178/371
f 122/145/372 34/3/3 200/2/2 201/142/373
f 14/30/340 15/32/374 126/152/375 123/148/376
f 19/67/100 18/66/99 130/160/377 127/156/378
f 18/66/99 132/165/379 134/162/380 130/160/377
f 131/164/381 137/169/382 139/167/383 135/166/384
f 136/168/341 14/30/340 123/148/376 140/151/385
f 15/32/374 142/171/386 144/154/387 126/152/375
f 141/170/388 147/175/389 149/173/390 145/172/391
f 146/174/392 19/67/100 127/156/378 150/159/393
f 10/22/366 11/25/394 154/180/395 151/176/396
f 23/69/102 22/68/101 158/188/397 155/184/398
f 11/25/394 160/193/399 162/182/400 154/180/395
f 159/192/401 165/197/402 167/195/403 163/194/404
f 164/196/405 23/69/102 155/184/398 168/187/406
f 22/68/101 170/199/407 172/190/408 158/188/397
f 169/198/409 175/203/318 177/201/410 173/200/411
f 174/202/369 10/22/366 151/176/396 178/179/412
f 88/114/323 84/111/322 180/113/413 181/116/414
f 182/117/415 49/62/95 30/6/6 89/115/348
f 110/134/361 31/7/7 50/63/96 183/136/416
f 184/137/417 185/132/418 105/130/329 111/135/328
f 186/133/419 51/33/420 32/35/358 106/131/357
f 193/204/319 116/141/234 117/140/233
f 188/147/421 52/64/97 34/3/3 122/145/372
f 99/126/354 35/4/4 53/65/98 189/128/422
f 190/129/423 191/122/424 94/120/337 100/127/336
f 192/123/425 54/26/426 36/29/350 95/121/349
f 181/116/414 180/113/413 137/169/382 131/164/381
f 18/66/99 49/62/95 182/117/415 132/165/379
f 183/136/416 50/63/96 19/67/100 146/174/392
f 141/170/388 185/132/418 184/137/417 147/175/389
f 15/32/374 51/33/420 186/133/419 142/171/386
f 187/146/427 193/204/319 175/203/318 169/198/409
f 22/68/101 52/64/97 188/147/421 170/199/407
f 189/128/422 53/65/98 23/69/102 164/196/405
f 159/192/401 191/122/424 190/129/423 165/197/402
f 11/25/394 54/26/426 192/123/425 160/193/399
f 79/100/428 80/43/429 81/42/430 82/99/431
f 85/47/432 86/98/433 87/46/434
f 90/101/435 91/103/436 92/45/437 93/44/438
f 96/51/439 97/50/440 98/102/441
f 101/105/442 102/106/443 103/52/444 104/53/445
f 107/58/446 108/57/447 109/107/448
f 112/104/449 113/54/450 114/55/451 115/109/452
f 118/60/453 119/108/454 120/59/455
f 133/163/456 134/162/457 135/166/458
f 138/150/459 139/167/460 140/151/461
f 143/155/462 144/154/463 145/172/464
f 148/158/465 149/173/466 150/159/467
f 161/183/468 162/182/469 163/194/470
f 166/186/471 167/195/472 168/187/473
f 171/191/474 172/190/475 173/200/476
f 176/178/477 177/201/478 178/179/479
f 195/118/480 194/28/481 12/27/482 92/45/483
f 92/45/484 91/103/485 196/119/486 195/118/487
f 197/124/488 196/119/489 91/103/181 98/102/180
f 98/102/490 97/50/491 198/125/492 197/124/493
f 24/39/79 199/1/494 198/125/495 97/50/80
f 21/38/92 200/2/496 199/1/494 24/39/79
f 201/142/497 200/2/496 21/38/92 120/59/91
f 120/59/498 119/108/499 202/143/500 201/142/501
f 115/109/193 203/138/502 202/143/503 119/108/192
f 115/109/193 114/55/504 204/139/505 203/138/502
f 121/144/331 116/141/234 193/204/319 187/146/427
f 4/18/506 3/24/507 2/23/508 33/20/509 1/19/510
g default
v -5.483996 -0.410971 2.287024
v -5.483996 -1.166075 2.287024
v -5.427645 -1.160810 2.207903
v -5.427645 -0.416237 2.207903
v -5.427645 -1.078079 2.207903
v -5.427645 -0.995349 2.207905
v -5.427645 -0.912619 2.207903
v -5.427645 -0.829889 2.207905
v -5.427645 -0.747158 2.207905
v -5.427645 -0.664428 2.207905
v -5.427645 -0.581698 2.207903
v -5.427645 -0.498967 2.207903
v -5.483996 -1.082175 2.287024
v -5.483996 -0.998274 2.287024
v -5.483996 -0.914374 2.287024
v -5.483996 -0.830474 2.287024
v -5.483996 -0.746573 2.287024
v -5.483996 -0.662673 2.287024
v -5.483996 -0.578772 2.287024
v -5.483996 -0.494872 2.287024
v -5.427645 -1.160810 2.250193
v -5.432545 -1.161268 2.258511
v -5.427645 -1.078079 2.250188
v -5.432540 -1.078435 2.258507
v -5.427645 -0.995349 2.250191
v -5.432542 -0.995603 2.258509
v -5.427645 -0.912619 2.250193
v -5.432544 -0.912771 2.258510
v -5.427645 -0.829889 2.250193
v -5.432545 -0.829939 2.258511
v -5.427645 -0.747158 2.250193
v -5.432545 -0.747107 2.258511
v -5.427645 -0.664428 2.250193
v -5.432544 -0.664275 2.258510
v -5.427645 -0.581698 2.250191
v -5.432542 -0.581443 2.258509
v -5.427645 -0.498967 2.250188
v -5.432540 -0.498612 2.258507
v -5.432545 -0.415779 2.258511
v -5.427645 -0.416237 2.250193
v -5.483996 -1.166075 -2.292438
v -5.483996 -0.410971 -2.292438
v -5.427645 -0.416237 -2.207903
v -5.427645 -1.160810 -2.207903
v -5.427645 -0.498967 -2.207903
v -5.427645 -0.581698 -2.207905
v -5.427645 -0.664428 -2.207903
v -5.427645 -0.747158 -2.207905
v -5.427645 -0.829889 -2.207905
v -5.427645 -0.912619 -2.207905
v -5.427645 -0.995349 -2.207903
v -5.427645 -1.078079 -2.207903
v -5.483996 -0.494872 -2.292438
v -5.483996 -0.578772 -2.292438
v -5.483996 -0.662673 -2.292438
v -5.483996 -0.746573 -2.292438
v -5.483996 -0.830474 -2.292438
v -5.483996 -0.914374 -2.292438
v -5.483996 -0.998274 -2.292438
v -5.483996 -1.082175 -2.292438
v -5.427645 -0.416237 -2.254975
v -5.433100 -0.415727 -2.264233
v -5.427645 -0.498967 -2.254968
v -5.433093 -0.498571 -2.264229
v -5.427645 -0.581698 -2.254971
v -5.433095 -0.581415 -2.264231
v -5.427645 -0.664428 -2.254973
v -5.433097 -0.664258 -2.264231
v -5.427645 -0.747158 -2.254975
v -5.433100 -0.747102 -2.264233
v -5.427645 -0.829889 -2.254975
v -5.433100 -0.829945 -2.264233
v -5.427645 -0.912619 -2.254973
v -5.433097 -0.912789 -2.264231
v -5.427645 -0.995349 -2.254971
v -5.433095 -0.995632 -2.264231
v -5.427645 -1.078079 -2.254968
v -5.433093 -1.078475 -2.264229
v -5.433100 -1.161319 -2.264233
v -5.427645 -1.160810 -2.254975
vt 0.512753 0.002908
vt 0.513674 0.002952
vt 0.513674 0.010845
vt 0.512753 0.010811
vt 0.513674 0.018737
vt 0.512753 0.018713
vt 0.513674 0.026630
vt 0.512753 0.026616
vt 0.513674 0.034523
vt 0.512753 0.034518
vt 0.513674 0.042416
vt 0.512753 0.042421
vt 0.513674 0.050309
vt 0.512753 0.050323
vt 0.513674 0.058201
vt 0.512753 0.058226
vt 0.513674 0.066094
vt 0.512753 0.066128
vt 0.513674 0.073987
vt 0.512753 0.074031
vt 0.507141 0.074489
vt 0.507141 0.066485
vt 0.517708 0.002952
vt 0.517708 0.010845
vt 0.517708 0.066094
vt 0.517708 0.073987
vt 0.517708 0.058201
vt 0.517708 0.050309
vt 0.517708 0.042416
vt 0.517708 0.034523
vt 0.517708 0.026630
vt 0.517708 0.018737
vt 0.507141 0.010454
vt 0.507141 0.002450
vt 0.507141 0.018458
vt 0.507141 0.026463
vt 0.507141 0.034467
vt 0.507141 0.042472
vt 0.507141 0.050476
vt 0.507141 0.058480
vt 0.499329 0.002903
vt 0.500354 0.002952
vt 0.500355 0.010845
vt 0.499330 0.010807
vt 0.500355 0.018738
vt 0.499330 0.018710
vt 0.500355 0.026630
vt 0.499330 0.026614
vt 0.500354 0.034523
vt 0.499329 0.034518
vt 0.500354 0.042416
vt 0.499329 0.042421
vt 0.500355 0.050308
vt 0.499330 0.050325
vt 0.500355 0.058201
vt 0.499330 0.058228
vt 0.500355 0.066094
vt 0.499330 0.066132
vt 0.500354 0.073987
vt 0.499329 0.074035
vt 0.493778 0.074489
vt 0.493778 0.066485
vt 0.504845 0.002952
vt 0.504845 0.010845
vt 0.504845 0.066094
vt 0.504845 0.073987
vt 0.504845 0.058201
vt 0.504845 0.050308
vt 0.504845 0.042416
vt 0.504845 0.034523
vt 0.504845 0.026630
vt 0.504845 0.018738
vt 0.493778 0.010454
vt 0.493778 0.002450
vt 0.493778 0.018458
vt 0.493778 0.026463
vt 0.493778 0.034467
vt 0.493778 0.042472
vt 0.493778 0.050476
vt 0.493778 0.058480
vn 0.861730 0.000011 0.507367
vn 0.861730 0.000011 0.507367
vn 0.861766 0.000000 0.507306
vn 0.861764 0.000001 0.507309
vn 0.861743 -0.000005 0.507344
vn 0.861745 -0.000005 0.507341
vn 0.861649 0.000002 0.507505
vn 0.861650 0.000002 0.507503
vn 0.861601 -0.000001 0.507586
vn 0.861601 -0.000001 0.507586
vn 0.861599 -0.000002 0.507590
vn 0.861599 -0.000002 0.507590
vn 0.861647 0.000001 0.507509
vn 0.861648 0.000001 0.507507
vn 0.861743 0.000005 0.507344
vn 0.861745 0.000005 0.507341
vn 0.861766 -0.000000 0.507307
vn 0.861764 -0.000001 0.507309
vn 0.861730 -0.000011 0.507367
vn 0.861730 -0.000011 0.507367
vn 0.484732 0.000000 0.874663
vn 0.484732 0.000001 0.874663
vn 0.484732 0.000001 0.874663
vn 0.484732 0.000000 0.874663
vn 1.000000 0.000000 0.000000
vn 1.000000 0.000001 0.000000
vn 1.000000 0.000001 0.000000
vn 1.000000 0.000000 0.000000
vn 1.000000 -0.000001 0.000000
vn 1.000000 -0.000001 0.000000
vn 1.000000 -0.000001 0.000000
vn 1.000000 -0.000001 0.000000
vn 1.000000 0.000002 0.000000
vn 1.000000 0.000002 0.000000
vn 1.000000 0.000001 0.000000
vn 1.000000 0.000001 0.000000
vn 1.000000 -0.000002 0.000000
vn 1.000000 -0.000002 0.000000
vn 1.000000 0.000002 0.000000
vn 1.000000 0.000002 0.000000
vn 1.000000 -0.000001 0.000000
vn 1.000000 -0.000001 0.000000
vn 1.000000 -0.000002 0.000000
vn 1.000000 -0.000002 0.000000
vn 0.484732 -0.000002 0.874663
vn 0.484732 -0.000002 0.874663
vn 0.484732 -0.000000 0.874663
vn 0.484732 -0.000000 0.874663
vn 0.484732 0.000001 0.874663
vn 0.484732 0.000001 0.874663
vn 0.484730 0.000001 0.874664
vn 0.484730 0.000001 0.874664
vn 0.484728 -0.000001 0.874665
vn 0.484728 -0.000001 0.874665
vn 0.484729 0.000001 0.874665
vn 0.484729 0.000001 0.874665
vn 0.484732 -0.000002 0.874663
vn 0.484732 -0.000002 0.874663
vn 0.484732 -0.000001 0.874663
vn 0.484732 -0.000001 0.874663
vn 0.861733 0.000001 -0.507362
vn 0.861733 0.000001 -0.507362
vn 0.861784 -0.000001 -0.507275
vn 0.861782 -0.000001 -0.507279
vn 0.861783 0.000003 -0.507278
vn 0.861784 0.000003 -0.507275
vn 0.861679 0.000005 -0.507454
vn 0.861680 0.000005 -0.507452
vn 0.861596 0.000001 -0.507595
vn 0.861596 0.000001 -0.507595
vn 0.861594 -0.000001 -0.507599
vn 0.861594 -0.000001 -0.507598
vn 0.861677 -0.000005 -0.507458
vn 0.861678 -0.000005 -0.507456
vn 0.861785 -0.000003 -0.507274
vn 0.861786 -0.000003 -0.507271
vn 0.861787 0.000001 -0.507271
vn 0.861784 0.000001 -0.507275
vn 0.861733 -0.000001 -0.507362
vn 0.861733 -0.000001 -0.507362
vn 0.484710 0.000003 -0.874675
vn 0.484711 -0.000002 -0.874675
vn 0.484711 -0.000002 -0.874675
vn 0.484710 0.000003 -0.874675
vn 1.000000 0.000000 0.000000
vn 1.000000 -0.000001 0.000000
vn 1.000000 -0.000001 0.000000
vn 1.000000 0.000000 0.000000
vn 1.000000 0.000001 0.000000
vn 1.000000 0.000001 0.000000
vn 1.000000 0.000000 0.000000
vn 1.000000 0.000000 0.000000
vn 1.000000 -0.000002 0.000000
vn 1.000000 -0.000002 0.000000
vn 1.000000 -0.000001 0.000000
vn 1.000000 -0.000001 0.000000
vn 1.000000 0.000002 0.000000
vn 1.000000 0.000002 0.000000
vn 1.000000 -0.000002 0.000000
vn 1.000000 -0.000002 0.000000
vn 1.000000 0.000001 0.000000
vn 1.000000 0.000001 0.000000
vn 1.000000 0.000002 0.000000
vn 1.000000 0.000002 0.000000
vn 0.484711 0.000003 -0.874674
vn 0.484711 0.000002 -0.874674
vn 0.484711 -0.000002 -0.874674
vn 0.484711 -0.000002 -0.874674
vn 0.484711 0.000001 -0.874674
vn 0.484711 0.000001 -0.874674
vn 0.484712 -0.000002 -0.874674
vn 0.484712 -0.000002 -0.874674
vn 0.484711 -0.000000 -0.874675
vn 0.484711 -0.000000 -0.874675
vn 0.484711 0.000000 -0.874674
vn 0.484711 0.000000 -0.874674
vn 0.484712 0.000002 -0.874674
vn 0.484712 0.000002 -0.874674
vn 0.484711 -0.000001 -0.874674
vn 0.484711 -0.000001 -0.874674
g FCSET_Headband_001_0p864_0p049_0p937 Book Headband
usemtl initialShadingGroup
f 226/205/511 225/206/512 227/207/513 228/208/514
f 228/208/514 227/207/513 229/209/515 230/210/516
f 230/210/516 229/209/515 231/211/517 232/212/518
f 232/212/518 231/211/517 233/213/519 234/214/520
f 234/214/520 233/213/519 235/215/521 236/216/522
f 236/216/522 235/215/521 237/217/523 238/218/524
f 238/218/524 237/217/523 239/219/525 240/220/526
f 240/220/526 239/219/525 241/221/527 242/222/528
f 242/222/528 241/221/527 244/223/529 243/224/530
f 205/225/531 224/226/532 242/222/533 243/224/534
f 207/227/535 209/228/536 227/207/537 225/206/538
f 241/221/539 216/229/540 208/230/541 244/223/542
f 239/219/543 215/231/544 216/229/540 241/221/539
f 237/217/545 214/232/546 215/231/544 239/219/543
f 235/215/547 213/233/548 214/232/546 237/217/545
f 233/213/549 212/234/550 213/233/548 235/215/547
f 231/211/551 211/235/552 212/234/550 233/213/549
f 229/209/553 210/236/554 211/235/552 231/211/551
f 227/207/537 209/228/536 210/236/554 229/209/553
f 228/208/555 217/237/556 206/238/557 226/205/558
f 230/210/559 218/239/560 217/237/556 228/208/555
f 232/212/561 219/240/562 218/239/560 230/210/559
f 234/214/563 220/241/564 219/240/562 232/212/561
f 236/216/565 221/242/566 220/241/564 234/214/563
f 238/218/567 222/243/568 221/242/566 236/216/565
f 240/220/569 223/244/570 222/243/568 238/218/567
f 242/222/533 224/226/532 223/244/570 240/220/569
f 266/245/571 265/246/572 267/247/573 268/248/574
f 268/248/574 267/247/573 269/249/575 270/250/576
f 270/250/576 269/249/575 271/251/577 272/252/578
f 272/252/578 271/251/577 273/253/579 274/254/580
f 274/254/580 273/253/579 275/255/581 276/256/582
f 276/256/582 275/255/581 277/257/583 278/258/584
f 278/258/584 277/257/583 279/259/585 280/260/586
f 280/260/586 279/259/585 281/261/587 282/262/588
f 282/262/588 281/261/587 284/263/589 283/264/590
f 245/265/591 264/266/592 282/262/593 283/264/594
f 247/267/595 249/268/596 267/247/597 265/246/598
f 281/261/599 256/269/600 248/270/601 284/263/602
f 279/259/603 255/271/604 256/269/600 281/261/599
f 277/257/605 254/272/606 255/271/604 279/259/603
f 275/255/607 253/273/608 254/272/606 277/257/605
f 273/253/609 252/274/610 253/273/608 275/255/607
f 271/251/611 251/275/612 252/274/610 273/253/609
f 269/249/613 250/276/614 251/275/612 271/251/611
f 267/247/597 249/268/596 250/276/614 269/249/613
f 268/248/615 257/277/616 246/278/617 266/245/618
f 270/250/619 258/279/620 257/277/616 268/248/615
f 272/252/621 259/280/622 258/279/620 270/250/619
f 274/254/623 260/281/624 259/280/622 272/252/621
f 276/256/625 261/282/626 260/281/624 274/254/623
f 278/258/627 262/283/628 261/282/626 276/256/625
f 280/260/629 263/284/630 262/283/628 278/258/627
f 282/262/593 264/266/592 263/284/630 280/260/629
g default
v -5.483997 -1.166075 2.239131
v -2.390455 -1.166075 2.239131
v -5.483997 -0.410971 2.239131
v -2.390455 -0.410971 2.239131
v -5.483997 -0.410971 -2.239131
v -2.390455 -0.410971 -2.239131
v -5.483997 -1.166075 -2.239131
v -2.390455 -1.166075 -2.239131
v -5.401776 -0.410971 -2.239131
v -5.401776 -1.166075 -2.239131
v -5.407752 -1.166075 2.239131
v -5.407752 -0.410971 2.239131
v -5.407752 -1.121658 2.239131
v -5.407752 -1.077240 2.239131
v -5.407752 -1.032822 2.239131
v -5.407752 -0.988404 2.239131
v -5.407752 -0.943986 2.239131
v -5.407752 -0.899568 2.239131
v -5.407752 -0.855150 2.239131
v -5.407752 -0.810732 2.239131
v -5.407752 -0.766314 2.239131
v -5.407752 -0.721896 2.239131
v -5.407752 -0.677479 2.239131
v -5.407752 -0.633061 2.239131
v -5.407752 -0.588643 2.239131
v -5.407752 -0.544225 2.239131
v -5.407752 -0.499807 2.239131
v -5.407752 -0.455389 2.239131
v -5.401776 -0.455389 -2.239131
v -5.401776 -0.499807 -2.239131
v -5.401776 -0.544225 -2.239131
v -5.401776 -0.588643 -2.239131
v -5.401776 -0.633061 -2.239131
v -5.401776 -0.677479 -2.239131
v -5.401776 -0.721896 -2.239131
v -5.401776 -0.766314 -2.239131
v -5.401776 -0.810732 -2.239131
v -5.401776 -0.855150 -2.239131
v -5.401776 -0.899568 -2.239131
v -5.401776 -0.943986 -2.239131
v -5.401776 -0.988404 -2.239131
v -5.401776 -1.032822 -2.239131
v -5.401776 -1.077240 -2.239131
v -5.401776 -1.121658 -2.239131
v -2.390455 -0.455389 -2.239131
v -2.390455 -0.499807 -2.239131
v -2.390455 -0.544225 -2.239131
v -2.390455 -0.588643 -2.239131
v -2.390455 -0.633061 -2.239131
v -2.390455 -0.677479 -2.239131
v -2.390455 -0.721896 -2.239131
v -2.390455 -0.766314 -2.239131
v -2.390455 -0.810732 -2.239131
v -2.390455 -0.855150 -2.239131
v -2.390455 -0.899568 -2.239131
v -2.390455 -0.943986 -2.239131
v -2.390455 -0.988404 -2.239131
v -2.390455 -1.032822 -2.239131
v -2.390455 -1.077240 -2.239131
v -2.390455 -1.121658 -2.239131
v -2.390455 -1.121658 2.239131
v -2.390455 -1.077240 2.239131
v -2.390455 -1.032822 2.239131
v -2.390455 -0.988404 2.239131
v -2.390455 -0.943986 2.239131
v -2.390455 -0.899568 2.239131
v -2.390455 -0.855150 2.239131
v -2.390455 -0.810732 2.239131
v -2.390455 -0.766314 2.239131
v -2.390455 -0.721896 2.239131
v -2.390455 -0.677479 2.239131
v -2.390455 -0.633061 2.239131
v -2.390455 -0.588643 2.239131
v -2.390455 -0.544225 2.239131
v -2.390455 -0.499807 2.239131
v -2.390455 -0.455389 2.239131
v -5.483997 -1.166075 2.239131
v -5.407752 -1.166075 2.239131
v -5.407752 -1.121658 2.239131
v -5.407752 -1.077240 2.239131
v -5.407752 -1.032822 2.239131
v -5.407752 -0.988404 2.239131
v -5.407752 -0.943986 2.239131
v -5.407752 -0.899568 2.239131
v -5.407752 -0.855150 2.239131
v -5.407752 -0.810732 2.239131
v -5.407752 -0.766314 2.239131
v -5.407752 -0.721896 2.239131
v -5.407752 -0.677479 2.239131
v -5.407752 -0.633061 2.239131
v -5.407752 -0.588643 2.239131
v -5.407752 -0.544225 2.239131
v -5.407752 -0.499807 2.239131
v -5.407752 -0.455389 2.239131
v -5.407752 -0.410971 2.239131
v -5.483997 -0.410971 2.239131
v -5.483997 -0.410971 -2.239131
v -5.401776 -0.410971 -2.239131
v -5.401776 -0.455389 -2.239131
v -5.401776 -0.499807 -2.239131
v -5.401776 -0.544225 -2.239131
v -5.401776 -0.588643 -2.239131
v -5.401776 -0.633061 -2.239131
v -5.401776 -0.677479 -2.239131
v -5.401776 -0.721896 -2.239131
v -5.401776 -0.766314 -2.239131
v -5.401776 -0.810732 -2.239131
v -5.401776 -0.855150 -2.239131
v -5.401776 -0.899568 -2.239131
v -5.401776 -0.943986 -2.239131
v -5.401776 -0.988404 -2.239131
v -5.401776 -1.032822 -2.239131
v -5.401776 -1.077240 -2.239131
v -5.401776 -1.121658 -2.239131
v -5.401776 -1.166075 -2.239131
v -5.483997 -1.166075 -2.239131
v -2.390455 -1.166075 -2.239131
v -2.390455 -1.166075 2.239131
v -2.390455 -1.121658 -2.239131
v -2.390455 -1.121658 2.239131
v -2.390455 -0.455389 -2.239131
v -2.390455 -0.410971 -2.239131
v -2.390455 -0.455389 2.239131
v -2.390455 -0.410971 2.239131
v -2.390455 -0.499807 2.239131
v -2.390455 -0.544225 2.239131
v -2.390455 -0.588643 2.239131
v -2.390455 -0.633061 2.239131
v -2.390455 -0.677479 2.239131
v -2.390455 -0.721896 2.239131
v -2.390455 -0.766314 2.239131
v -2.390455 -0.810732 2.239131
v -2.390455 -0.855150 2.239131
v -2.390455 -0.899568 2.239131
v -2.390455 -0.943986 2.239131
v -2.390455 -0.988404 2.239131
v -2.390455 -1.032822 2.239131
v -2.390455 -1.077240 2.239131
v -2.390455 -1.077240 -2.239131
v -2.390455 -1.032822 -2.239131
v -2.390455 -0.988404 -2.239131
v -2.390455 -0.943986 -2.239131
v -2.390455 -0.899568 -2.239131
v -2.390455 -0.855150 -2.239131
v -2.390455 -0.810732 -2.239131
v -2.390455 -0.766314 -2.239131
v -2.390455 -0.721896 -2.239131
v -2.390455 -0.677479 -2.239131
v -2.390455 -0.633061 -2.239131
v -2.390455 -0.588643 -2.239131
v -2.390455 -0.544225 -2.239131
v -2.390455 -0.499807 -2.239131
v -5.427645 -1.160810 2.207903
v -5.387244 -1.160810 2.207903
v -5.387244 -1.117011 2.207903
v -5.387244 -1.073213 2.207903
v -5.387244 -1.029415 2.207903
v -5.387244 -0.985616 2.207903
v -5.387244 -0.941818 2.207903
v -5.387244 -0.898019 2.207903
v -5.387244 -0.854221 2.207903
v -5.387244 -0.810423 2.207903
v -5.387244 -0.766624 2.207903
v -5.387244 -0.722826 2.207903
v -5.387244 -0.679027 2.207903
v -5.387244 -0.635229 2.207903
v -5.387244 -0.591431 2.207903
v -5.387244 -0.547632 2.207903
v -5.387244 -0.503834 2.207903
v -5.387244 -0.460035 2.207903
v -5.387244 -0.416237 2.207903
v -5.427645 -0.416237 2.207903
v -5.427645 -0.416237 -2.207903
v -5.381351 -0.416237 -2.207903
v -5.381351 -0.460035 -2.207903
v -5.381351 -0.503834 -2.207903
v -5.381351 -0.547632 -2.207903
v -5.381351 -0.591431 -2.207903
v -5.381351 -0.635229 -2.207903
v -5.381351 -0.679027 -2.207903
v -5.381351 -0.722826 -2.207903
v -5.381351 -0.766624 -2.207903
v -5.381351 -0.810423 -2.207903
v -5.381351 -0.854221 -2.207903
v -5.381351 -0.898019 -2.207903
v -5.381351 -0.941818 -2.207903
v -5.381351 -0.985616 -2.207903
v -5.381351 -1.029415 -2.207903
v -5.381351 -1.073213 -2.207903
v -5.381351 -1.117011 -2.207903
v -5.381351 -1.160810 -2.207903
v -5.427645 -1.160810 -2.207903
v -2.412029 -1.160810 -2.207903
v -2.412029 -1.160810 2.207903
v -2.412029 -1.117011 -2.207903
v -2.412029 -1.117011 2.207903
v -2.412029 -0.460035 -2.207903
v -2.412029 -0.416237 -2.207903
v -2.412029 -0.460035 2.207903
v -2.412029 -0.416237 2.207903
v -2.412029 -0.503834 2.207903
v -2.412029 -0.547632 2.207903
v -2.412029 -0.591431 2.207903
v -2.412029 -0.635229 2.207903
v -2.412029 -0.679027 2.207903
v -2.412029 -0.722826 2.207903
v -2.412029 -0.766624 2.207903
v -2.412029 -0.810423 2.207903
v -2.412029 -0.854221 2.207903
v -2.412029 -0.898019 2.207903
v -2.412029 -0.941818 2.207903
v -2.412029 -0.985616 2.207903
v -2.412029 -1.029415 2.207903
v -2.412029 -1.073213 2.207903
v -2.412029 -1.073213 -2.207903
v -2.412029 -1.029415 -2.207903
v -2.412029 -0.985616 -2.207903
v -2.412029 -0.941818 -2.207903
v -2.412029 -0.898019 -2.207903
v -2.412029 -0.854221 -2.207903
v -2.412029 -0.810423 -2.207903
v -2.412029 -0.766624 -2.207903
v -2.412029 -0.722826 -2.207903
v -2.412029 -0.679027 -2.207903
v -2.412029 -0.635229 -2.207903
v -2.412029 -0.591431 -2.207903
v -2.412029 -0.547632 -2.207903
v -2.412029 -0.503834 -2.207903
v -5.483997 -0.410971 -2.292438
v -5.483997 -1.166075 -2.292438
v -5.427645 -0.416237 -2.261210
v -5.427645 -1.160810 -2.261210
v -5.483997 -1.166075 2.287024
v -5.483997 -0.410971 2.287024
v -5.427645 -1.160810 2.255795
v -5.427645 -0.416237 2.255795
vt 0.392317 0.003992
vt 0.473998 0.004774
vt 0.470085 0.004786
vt 0.458461 0.005819
vt 0.454504 0.005856
vt 0.443879 0.006457
vt 0.439994 0.006490
vt 0.429465 0.006808
vt 0.425587 0.006843
vt 0.414232 0.007975
vt 0.410355 0.008030
vt 0.400207 0.008408
vt 0.396402 0.008434
vt 0.386516 0.008837
vt 0.382715 0.008873
vt 0.371632 0.009971
vt 0.367839 0.010020
vt 0.356569 0.011179
vt 0.352699 0.011266
vt 0.391239 0.004837
vt 0.528480 0.073485
vt 0.358483 0.994470
vt 0.362236 0.994465
vt 0.371989 0.994129
vt 0.375675 0.994145
vt 0.386903 0.992722
vt 0.390550 0.992720
vt 0.400093 0.992587
vt 0.403682 0.992593
vt 0.414289 0.991833
vt 0.417930 0.991820
vt 0.428026 0.991001
vt 0.431620 0.991007
vt 0.441366 0.990883
vt 0.444934 0.990894
vt 0.456149 0.989508
vt 0.459786 0.989478
vt 0.470312 0.988343
vt 0.473927 0.988315
vt 0.484331 0.091150
vt 0.474702 0.294901
vt 0.471242 0.722699
vt 0.467244 0.722782
vt 0.470478 0.294849
vt 0.364293 0.723009
vt 0.360266 0.722740
vt 0.361434 0.295581
vt 0.357256 0.295169
vt 0.364931 0.294168
vt 0.360805 0.008322
vt 0.390840 0.005086
vt 0.369317 0.294016
vt 0.371796 0.295308
vt 0.376050 0.295303
vt 0.379532 0.293919
vt 0.375902 0.007121
vt 0.391058 0.005114
vt 0.383815 0.293594
vt 0.386304 0.294727
vt 0.390530 0.294700
vt 0.393244 0.293354
vt 0.389749 0.006680
vt 0.393612 0.006663
vt 0.397933 0.293503
vt 0.400403 0.294744
vt 0.404623 0.294408
vt 0.407187 0.292991
vt 0.403390 0.006330
vt 0.392461 0.004779
vt 0.411498 0.292971
vt 0.413917 0.294204
vt 0.418120 0.294392
vt 0.421831 0.292947
vt 0.418561 0.005061
vt 0.392471 0.004720
vt 0.426124 0.292927
vt 0.428609 0.294099
vt 0.432782 0.294393
vt 0.435343 0.293173
vt 0.432611 0.004730
vt 0.392485 0.004668
vt 0.440038 0.293130
vt 0.442527 0.294480
vt 0.446711 0.294613
vt 0.449394 0.293356
vt 0.447468 0.004099
vt 0.392500 0.004620
vt 0.453597 0.293458
vt 0.456048 0.294585
vt 0.460212 0.294765
vt 0.463725 0.293484
vt 0.462730 0.002982
vt 0.392880 0.004411
vt 0.467962 0.293530
vt 0.464688 0.723814
vt 0.466129 0.991106
vt 0.520503 0.010423
vt 0.460524 0.723997
vt 0.458162 0.722975
vt 0.454129 0.722873
vt 0.451104 0.723982
vt 0.451518 0.992577
vt 0.520503 0.018898
vt 0.446860 0.724218
vt 0.444467 0.722988
vt 0.440348 0.723266
vt 0.437834 0.724645
vt 0.438555 0.992691
vt 0.520503 0.027373
vt 0.433515 0.724376
vt 0.431147 0.723209
vt 0.427065 0.723526
vt 0.424301 0.724697
vt 0.424192 0.993488
vt 0.520503 0.035849
vt 0.420127 0.724669
vt 0.417797 0.723784
vt 0.413729 0.723493
vt 0.410869 0.724796
vt 0.410561 0.994281
vt 0.520503 0.044324
vt 0.406597 0.724808
vt 0.404193 0.723504
vt 0.400092 0.723253
vt 0.397611 0.724434
vt 0.397252 0.994409
vt 0.520503 0.052799
vt 0.393380 0.724752
vt 0.391002 0.723521
vt 0.386962 0.723412
vt 0.384000 0.724543
vt 0.382055 0.995865
vt 0.520503 0.061274
vt 0.379843 0.724111
vt 0.377471 0.723115
vt 0.373434 0.722912
vt 0.370752 0.724098
vt 0.368751 0.996195
vt 0.520503 0.069749
vt 0.366659 0.723941
vt 0.391629 0.003638
vt 0.392144 0.003578
vt 0.477561 0.002452
vt 0.391629 0.003638
vt 0.462713 0.002983
vt 0.392880 0.004411
vt 0.447458 0.004086
vt 0.392500 0.004620
vt 0.432603 0.004729
vt 0.392485 0.004668
vt 0.418543 0.005038
vt 0.392471 0.004720
vt 0.403377 0.006314
vt 0.392461 0.004779
vt 0.389741 0.006686
vt 0.392988 0.006653
vt 0.375888 0.007100
vt 0.391058 0.005115
vt 0.360794 0.008307
vt 0.390840 0.005086
vt 0.349872 0.009552
vt 0.390778 0.003713
vt 0.390778 0.003713
vt 0.390680 0.004246
vt 0.485017 0.012567
vt 0.480415 0.005681
vt 0.353724 0.997559
vt 0.485018 0.012566
vt 0.368764 0.996202
vt 0.520503 0.069749
vt 0.382074 0.995872
vt 0.520503 0.061274
vt 0.397259 0.994403
vt 0.520503 0.052799
vt 0.410572 0.994300
vt 0.520503 0.044324
vt 0.424209 0.993486
vt 0.520503 0.035849
vt 0.438564 0.992681
vt 0.520503 0.027373
vt 0.451529 0.992586
vt 0.520503 0.018898
vt 0.466139 0.991111
vt 0.520503 0.010423
vt 0.476576 0.989958
vt 0.486051 0.085114
vt 0.486052 0.085115
vt 0.480415 0.090851
vt 0.477573 0.293573
vt 0.473659 0.723834
vt 0.473648 0.723830
vt 0.477554 0.293555
vt 0.467974 0.293512
vt 0.464706 0.723812
vt 0.366650 0.723945
vt 0.357218 0.724031
vt 0.357230 0.724024
vt 0.364915 0.294179
vt 0.354783 0.294117
vt 0.354794 0.294111
vt 0.369325 0.294024
vt 0.379515 0.293930
vt 0.383824 0.293574
vt 0.393235 0.293347
vt 0.397945 0.293497
vt 0.407178 0.293003
vt 0.411507 0.292978
vt 0.421814 0.292949
vt 0.426132 0.292903
vt 0.435332 0.293170
vt 0.440050 0.293128
vt 0.449384 0.293371
vt 0.453608 0.293456
vt 0.463711 0.293475
vt 0.460516 0.723998
vt 0.451116 0.723982
vt 0.446849 0.724209
vt 0.437842 0.724645
vt 0.433506 0.724384
vt 0.424313 0.724709
vt 0.420119 0.724675
vt 0.410882 0.724778
vt 0.406588 0.724810
vt 0.397620 0.724442
vt 0.393368 0.724758
vt 0.384011 0.724555
vt 0.379834 0.724107
vt 0.370765 0.724091
vt 0.490138 0.012963
vt 0.491111 0.084621
vt 0.488805 0.007907
vt 0.489201 0.090103
vt 0.391593 0.003757
vt 0.391294 0.003919
vt 0.391643 0.003843
vt 0.391428 0.004475
vt 0.390849 0.005056
vt 0.390812 0.005034
vt 0.349885 0.009551
vt 0.390829 0.005063
vt 0.391073 0.005084
vt 0.391065 0.005058
vt 0.365056 0.008287
vt 0.391050 0.005088
vt 0.391271 0.004991
vt 0.391194 0.005048
vt 0.379958 0.007135
vt 0.390368 0.006666
vt 0.392310 0.004871
vt 0.392147 0.004980
vt 0.393625 0.006686
vt 0.392453 0.004813
vt 0.392439 0.004742
vt 0.392432 0.004773
vt 0.407562 0.006271
vt 0.392464 0.004749
vt 0.392455 0.004688
vt 0.392447 0.004714
vt 0.422803 0.005078
vt 0.392477 0.004694
vt 0.392471 0.004639
vt 0.392463 0.004663
vt 0.437181 0.004715
vt 0.392492 0.004644
vt 0.392487 0.004592
vt 0.392479 0.004615
vt 0.451663 0.004055
vt 0.392507 0.004597
vt 0.392531 0.004489
vt 0.392511 0.004538
vt 0.467246 0.002973
vt 0.392145 0.003578
vt 0.390680 0.004246
vt 0.390829 0.005063
vt 0.365047 0.008291
vt 0.391050 0.005088
vt 0.379945 0.007117
vt 0.392453 0.004813
vt 0.407555 0.006269
vt 0.392464 0.004748
vt 0.422793 0.005045
vt 0.392477 0.004693
vt 0.437167 0.004703
vt 0.392492 0.004644
vt 0.451653 0.004059
vt 0.392507 0.004597
vt 0.467235 0.002975
vt 0.477573 0.002445
vt 0.524063 0.006629
vt 0.524063 0.002450
vt 0.476566 0.989962
vt 0.520503 0.006185
vt 0.524063 0.014986
vt 0.524063 0.010807
vt 0.462405 0.991125
vt 0.520503 0.014661
vt 0.524063 0.023343
vt 0.524063 0.019164
vt 0.447529 0.992557
vt 0.520503 0.023136
vt 0.524063 0.031700
vt 0.524063 0.027521
vt 0.434213 0.992662
vt 0.520503 0.031611
vt 0.524063 0.040057
vt 0.524063 0.035878
vt 0.420521 0.993489
vt 0.520503 0.040086
vt 0.524063 0.048414
vt 0.524063 0.044235
vt 0.406270 0.994252
vt 0.520503 0.048561
vt 0.524063 0.056771
vt 0.524063 0.052592
vt 0.393158 0.994389
vt 0.520503 0.057037
vt 0.524063 0.065128
vt 0.524063 0.060949
vt 0.378307 0.995858
vt 0.520503 0.065512
vt 0.482066 0.002441
vt 0.524063 0.069306
vt 0.364903 0.996176
vt 0.480416 0.005681
vt 0.480415 0.090851
vt 0.520503 0.006185
vt 0.462416 0.991115
vt 0.520503 0.014661
vt 0.447542 0.992551
vt 0.520503 0.023136
vt 0.434221 0.992673
vt 0.520503 0.031611
vt 0.420528 0.993486
vt 0.520503 0.040086
vt 0.406283 0.994262
vt 0.520503 0.048561
vt 0.393170 0.994401
vt 0.520503 0.057037
vt 0.378314 0.995854
vt 0.520503 0.065512
vt 0.364913 0.996171
vt 0.353713 0.997542
vt 0.528480 0.002450
vt 0.481294 0.094362
vt 0.484322 0.006215
vt 0.524063 0.073485
vn 0.000007 0.000000 1.000000
vn 0.000007 0.000000 1.000000
vn 0.000007 0.000000 1.000000
vn 0.000007 0.000000 1.000000
vn 0.000007 0.000000 1.000000
vn 0.000007 0.000000 1.000000
vn 0.000007 0.000000 1.000000
vn 0.000007 0.000000 1.000000
vn 0.000007 0.000000 1.000000
vn 0.000007 0.000000 1.000000
vn 0.000007 0.000000 1.000000
vn 0.000007 0.000000 1.000000
vn 0.000007 0.000000 1.000000
vn 0.000007 0.000000 1.000000
vn 0.000007 0.000000 1.000000
vn 0.000007 0.000000 1.000000
vn 0.000007 0.000000 1.000000
vn 0.000007 0.000000 1.000000
vn 0.000007 0.000000 1.000000
vn 0.000007 0.000000 1.000000
vn 0.000006 0.000000 -1.000000
vn 0.000006 0.000000 -1.000000
vn 0.000006 0.000000 -1.000000
vn 0.000006 0.000000 -1.000000
vn 0.000006 0.000000 -1.000000
vn 0.000006 0.000000 -1.000000
vn 0.000006 0.000000 -1.000000
vn 0.000006 0.000000 -1.000000
vn 0.000006 0.000000 -1.000000
vn 0.000006 0.000000 -1.000000
vn 0.000006 0.000000 -1.000000
vn 0.000006 0.000000 -1.000000
vn 0.000006 0.000000 -1.000000
vn 0.000006 0.000000 -1.000000
vn 0.000006 0.000000 -1.000000
vn 0.000006 0.000000 -1.000000
vn 0.000006 0.000000 -1.000000
vn 0.000006 0.000000 -1.000000
vn 0.000006 0.000000 -1.000000
vn 0.000006 0.000000 -1.000000
vn 1.000000 0.000000 0.000000
vn 1.000000 0.000000 0.000000
vn 1.000000 0.000000 0.000000
vn 1.000000 0.000000 0.000000
vn 0.000000 0.000000 -1.000000
vn 0.000000 0.000000 -1.000000
vn 0.000000 0.000000 -1.000000
vn 0.000000 0.000000 -1.000000
vn 0.000000 0.000000 1.000000
vn 0.000000 0.000000 1.000000
vn 0.000000 0.000000 1.000000
vn 0.000000 0.000000 1.000000
vn 0.000000 0.000000 1.000000
vn 0.000000 0.000000 1.000000
vn 0.000000 0.000000 1.000000
vn 0.000000 0.000000 1.000000
vn 0.000000 0.000000 1.000000
vn 0.000000 0.000000 1.000000
vn 0.000000 0.000000 1.000000
vn 0.000000 0.000000 1.000000
vn 0.000000 0.000000 1.000000
vn 0.000000 0.000000 1.000000
vn 0.000000 0.000000 1.000000
vn 0.000000 0.000000 1.000000
vn 0.000000 0.000000 1.000000
vn 0.000000 0.000000 1.000000
vn 0.000000 0.000000 1.000000
vn 0.000000 0.000000 1.000000
vn 0.000000 0.000000 1.000000
vn 0.000000 0.000000 1.000000
vn 0.000000 0.000000 1.000000
vn 0.000000 0.000000 1.000000
vn 0.000000 0.000000 1.000000
vn 0.000000 0.000000 1.000000
vn 0.000000 0.000000 1.000000
vn 0.000000 0.000000 1.000000
vn 0.000000 0.000000 1.000000
vn 0.000000 0.000000 1.000000
vn 0.000000 0.000000 1.000000
vn 0.000000 0.000000 1.000000
vn 0.000000 0.000000 1.000000
vn 0.000000 0.000000 1.000000
vn 0.000000 0.000000 1.000000
vn 0.000000 0.000000 1.000000
vn 0.000000 0.000000 1.000000
vn 0.000000 0.000000 1.000000
vn 0.000000 0.000000 1.000000
vn 0.000000 0.000000 1.000000
vn 0.000000 0.000000 1.000000
vn 0.000000 0.000000 1.000000
vn 0.000000 0.000000 1.000000
vn 0.000000 0.000000 1.000000
vn 0.000000 0.000000 1.000000
vn 0.000000 0.000000 1.000000
vn 0.000000 0.000000 1.000000
vn 0.000000 0.000000 1.000000
vn 0.000000 0.000000 1.000000
vn 0.000000 0.000000 1.000000
vn 0.000000 0.000000 1.000000
vn 0.000000 0.000000 1.000000
vn 0.000000 0.000000 1.000000
vn 0.000000 0.000000 1.000000
vn 0.000000 0.000000 1.000000
vn 0.000000 0.000000 1.000000
vn 0.000000 0.000000 1.000000
vn 0.000000 0.000000 1.000000
vn 0.000000 0.000000 1.000000
vn 0.000000 0.000000 1.000000
vn 0.000000 0.000000 1.000000
vn 0.000000 0.000000 1.000000
vn 0.000000 0.000000 1.000000
vn 0.000000 0.000000 1.000000
vn 0.000000 0.000000 1.000000
vn 0.000000 0.000000 1.000000
vn 0.000000 0.000000 1.000000
vn 0.000000 0.000000 1.000000
vn 0.000000 0.000000 -1.000000
vn 0.000000 0.000000 -1.000000
vn 0.000000 0.000000 -1.000000
vn 0.000000 0.000000 -1.000000
vn 0.000000 0.000000 -1.000000
vn 0.000000 0.000000 -1.000000
vn 0.000000 0.000000 -1.000000
vn 0.000000 0.000000 -1.000000
vn 0.000000 0.000000 -1.000000
vn 0.000000 0.000000 -1.000000
vn 0.000000 0.000000 -1.000000
vn 0.000000 0.000000 -1.000000
vn 0.000000 0.000000 -1.000000
vn 0.000000 0.000000 -1.000000
vn 0.000000 0.000000 -1.000000
vn 0.000000 0.000000 -1.000000
vn 0.000000 0.000000 -1.000000
vn 0.000000 0.000000 -1.000000
vn 0.000000 0.000000 -1.000000
vn 0.000000 0.000000 -1.000000
vn 0.000000 0.000000 -1.000000
vn 0.000000 0.000000 -1.000000
vn 0.000000 0.000000 -1.000000
vn 0.000000 0.000000 -1.000000
vn 0.000000 0.000000 -1.000000
vn 0.000000 0.000000 -1.000000
vn 0.000000 0.000000 -1.000000
vn 0.000000 0.000000 -1.000000
vn 0.000000 0.000000 -1.000000
vn 0.000000 0.000000 -1.000000
vn 0.000000 0.000000 -1.000000
vn 0.000000 0.000000 -1.000000
vn 0.000000 0.000000 -1.000000
vn 0.000000 0.000000 -1.000000
vn 0.000000 0.000000 -1.000000
vn 0.000000 0.000000 -1.000000
vn 0.000000 0.000000 -1.000000
vn 0.000000 0.000000 -1.000000
vn 0.000000 0.000000 -1.000000
vn 0.000000 0.000000 -1.000000
vn 0.000000 0.000000 -1.000000
vn 0.000000 0.000000 -1.000000
vn 0.000000 0.000000 -1.000000
vn 0.000000 0.000000 -1.000000
vn 0.000000 0.000000 -1.000000
vn 0.000000 0.000000 -1.000000
vn 0.000000 0.000000 -1.000000
vn 0.000000 0.000000 -1.000000
vn 0.000000 0.000000 -1.000000
vn 0.000000 0.000000 -1.000000
vn 0.000000 0.000000 -1.000000
vn 0.000000 0.000000 -1.000000
vn 0.000000 0.000000 -1.000000
vn 0.000000 0.000000 -1.000000
vn 0.000000 0.000000 -1.000000
vn 0.000000 0.000000 -1.000000
vn 0.000000 0.000000 -1.000000
vn 0.000000 0.000000 -1.000000
vn 0.000000 0.000000 -1.000000
vn 0.000000 0.000000 -1.000000
vn 0.000000 0.000000 -1.000000
vn 0.000000 0.000000 -1.000000
vn 0.000000 0.000000 -1.000000
vn 0.000000 0.000000 -1.000000
vn 1.000000 0.000000 0.000000
vn 1.000000 0.000000 0.000000
vn 1.000000 0.000000 0.000000
vn 1.000000 0.000000 0.000000
vn 1.000000 0.000000 0.000000
vn 1.000000 0.000000 0.000000
vn 1.000000 0.000000 0.000000
vn 1.000000 0.000000 0.000000
vn 1.000000 0.000000 0.000000
vn 1.000000 0.000000 0.000000
vn 1.000000 0.000000 0.000000
vn 1.000000 0.000000 0.000000
vn 1.000000 0.000000 0.000000
vn 1.000000 0.000000 0.000000
vn 1.000000 0.000000 0.000000
vn 1.000000 0.000000 0.000000
vn 1.000000 0.000000 0.000000
vn 1.000000 0.000000 0.000000
vn 1.000000 0.000000 0.000000
vn 1.000000 0.000000 0.000000
vn 1.000000 0.000000 0.000000
vn 1.000000 0.000000 0.000000
vn 1.000000 0.000000 0.000000
vn 1.000000 0.000000 0.000000
vn 1.000000 0.000000 0.000000
vn 1.000000 0.000000 0.000000
vn 1.000000 0.000000 0.000000
vn 1.000000 0.000000 0.000000
vn 1.000000 0.000000 0.000000
vn 1.000000 0.000000 0.000000
vn 1.000000 0.000000 0.000000
vn 1.000000 0.000000 0.000000
vn 1.000000 0.000000 0.000000
vn 1.000000 0.000000 0.000000
vn 1.000000 0.000000 0.000000
vn 1.000000 0.000000 0.000000
vn 1.000000 0.000000 0.000000
vn 1.000000 0.000000 0.000000
vn 1.000000 0.000000 0.000000
vn 1.000000 0.000000 0.000000
vn 1.000000 0.000000 0.000000
vn 1.000000 0.000000 0.000000
vn 1.000000 0.000000 0.000000
vn 1.000000 0.000000 0.000000
vn 1.000000 0.000000 0.000000
vn 1.000000 0.000000 0.000000
vn 1.000000 0.000000 0.000000
vn 1.000000 0.000000 0.000000
vn 1.000000 0.000000 0.000000
vn 1.000000 0.000000 0.000000
vn 1.000000 0.000000 0.000000
vn 1.000000 0.000000 0.000000
vn 1.000000 0.000000 0.000000
vn 1.000000 0.000000 0.000000
vn 1.000000 0.000000 0.000000
vn 1.000000 0.000000 0.000000
vn 1.000000 0.000000 0.000000
vn 1.000000 0.000000 0.000000
vn 1.000000 0.000000 0.000000
vn 1.000000 0.000000 0.000000
vn 1.000000 0.000000 0.000000
vn 1.000000 0.000000 0.000000
vn 1.000000 0.000000 0.000000
vn 1.000000 0.000000 0.000000
vn 0.000000 0.000000 0.000000
vn 0.000000 0.000000 0.000000
vn 0.000000 0.000000 0.000000
vn 0.000000 0.000000 0.000000
vn 0.000000 0.000000 0.000000
vn 0.000000 0.000000 0.000000
vn 0.000000 0.000000 0.000000
vn 0.000000 0.000000 0.000000
vn 0.000000 0.000000 0.000000
vn 0.000000 0.000000 0.000000
vn 0.000000 0.000000 0.000000
vn 0.000000 0.000000 0.000000
vn 0.000000 0.000000 0.000000
vn 0.000000 0.000000 0.000000
vn 0.000000 0.000000 0.000000
vn 0.000000 0.000000 0.000000
vn 0.000000 0.000000 0.000000
vn 0.000000 0.000000 0.000000
vn 0.000000 0.000000 0.000000
vn 0.000000 0.000000 0.000000
vn 0.000000 0.000000 0.000000
vn 0.000000 0.000000 0.000000
vn 0.000000 0.000000 0.000000
vn 0.000000 0.000000 0.000000
vn 0.000000 0.000000 0.000000
vn 0.000000 0.000000 0.000000
vn 0.000000 0.000000 0.000000
vn 0.000000 0.000000 0.000000
vn 0.000000 0.000000 0.000000
vn 0.000000 0.000000 0.000000
vn 0.000000 0.000000 0.000000
vn 0.000000 0.000000 0.000000
vn 0.000000 0.000000 0.000000
vn 0.000000 0.000000 0.000000
vn 0.000000 0.000000 0.000000
vn 0.000000 0.000000 0.000000
vn 0.000000 0.000000 0.000000
vn 0.000000 0.000000 0.000000
vn 0.000000 0.000000 0.000000
vn 0.000000 0.000000 0.000000
vn 0.000000 0.000000 0.000000
vn 0.000000 0.000000 0.000000
vn 0.000000 0.000000 0.000000
vn 0.000000 0.000000 0.000000
vn 0.000000 0.000000 0.000000
vn 0.000000 0.000000 0.000000
vn 0.000000 0.000000 0.000000
vn 0.000000 0.000000 0.000000
vn 0.000000 0.000000 0.000000
vn 0.000000 0.000000 0.000000
vn 0.000000 0.000000 0.000000
vn 0.000000 0.000000 0.000000
vn 0.000000 0.000000 0.000000
vn 0.000000 0.000000 0.000000
vn 0.000000 0.000000 0.000000
vn 0.000000 0.000000 0.000000
vn 0.000000 0.000000 0.000000
vn 0.000000 0.000000 0.000000
vn 0.000000 0.000000 0.000000
vn 0.000000 0.000000 0.000000
vn 0.000000 0.000000 0.000000
vn 0.000000 0.000000 0.000000
vn 0.000000 0.000000 0.000000
vn 0.000000 0.000000 0.000000
vn 0.000000 0.000000 0.000000
vn 0.000000 0.000000 0.000000
vn 0.000000 0.000000 0.000000
vn 0.000000 0.000000 0.000000
vn 0.000000 0.000000 0.000000
vn 0.000000 0.000000 0.000000
vn 0.000000 0.000000 0.000000
vn 0.000000 0.000000 0.000000
vn 0.000000 0.000000 0.000000
vn 0.000000 0.000000 0.000000
vn 0.000000 0.000000 0.000000
vn 0.000000 0.000000 0.000000
vn 0.000000 0.000000 0.000000
vn 0.000000 0.000000 0.000000
vn 0.000000 0.000000 0.000000
vn 0.000000 0.000000 0.000000
vn 0.000000 0.000000 0.000000
vn 0.000000 0.000000 0.000000
vn 0.000000 0.000000 0.000000
vn 0.000000 0.000000 0.000000
vn 0.000000 0.000000 0.000000
vn 0.000000 0.000000 0.000000
vn 0.000000 0.000000 0.000000
vn 0.000000 0.000000 0.000000
vn 0.000000 0.000000 0.000000
vn 0.000000 0.000000 0.000000
vn 0.000000 0.000000 0.000000
vn 0.000000 0.000000 0.000000
vn 0.000000 0.000000 0.000000
vn 0.000000 0.000000 0.000000
vn 0.000000 0.000000 0.000000
vn 0.000000 0.000000 0.000000
vn 0.000000 0.000000 0.000000
vn 0.000000 0.000000 0.000000
vn 0.000000 0.000000 0.000000
vn 0.000000 0.000000 0.000000
vn 0.000000 0.000000 0.000000
vn 0.000000 0.000000 0.000000
vn 0.000000 0.000000 0.000000
vn 0.000000 0.000000 0.000000
vn 0.000000 0.000000 0.000000
vn 0.000000 0.000000 0.000000
vn 0.000000 0.000000 0.000000
vn 0.000000 0.000000 0.000000
vn 0.000000 0.000000 0.000000
vn 0.000000 0.000000 0.000000
vn 0.000000 0.000000 0.000000
vn 0.000000 0.000000 0.000000
vn 0.000000 0.000000 0.000000
vn 0.000000 0.000000 0.000000
vn 0.000000 0.000000 0.000000
vn 0.000000 0.000000 0.000000
vn 0.000000 0.000000 0.000000
vn 0.000000 0.000000 0.000000
vn 0.000000 0.000000 0.000000
vn 0.000000 0.000000 0.000000
vn 0.000000 0.000000 0.000000
vn 0.000000 0.000000 0.000000
vn 0.000000 0.000000 0.000000
vn 0.000000 0.000000 0.000000
vn 0.000000 0.000000 0.000000
vn 0.000000 0.000000 0.000000
vn 0.000000 0.000000 0.000000
vn 0.000000 0.000000 0.000000
vn 0.000000 0.000000 0.000000
vn 0.000000 0.000000 0.000000
vn 0.000000 0.000000 0.000000
vn 0.000000 0.000000 0.000000
vn 0.000000 0.000000 0.000000
vn 0.000000 0.000000 0.000000
vn 0.000000 0.000000 0.000000
vn 0.000000 0.000000 0.000000
vn 0.000000 0.000000 0.000000
vn 0.000000 0.000000 0.000000
vn 0.000000 0.000000 0.000000
vn 0.000000 0.000000 0.000000
vn 0.000000 0.000000 0.000000
vn 0.000000 0.000000 0.000000
vn 0.000000 0.000000 0.000000
vn 0.000000 0.000000 0.000000
vn 0.000000 0.000000 0.000000
vn 0.000000 0.000000 0.000000
vn 0.000000 0.000000 0.000000
vn 0.000000 0.000000 0.000000
vn 0.000000 0.000000 0.000000
vn 0.000000 0.000000 0.000000
vn 0.000000 0.000000 0.000000
vn 0.000000 0.000000 0.000000
vn 0.000000 0.000000 0.000000
vn 0.000000 0.000000 0.000000
vn 0.000000 0.000000 0.000000
vn 0.000000 0.000000 0.000000
vn 0.000000 0.000000 0.000000
vn 0.000000 0.000000 0.000000
vn 0.000000 0.000000 0.000000
vn 0.000000 0.000000 0.000000
vn 0.000000 0.000000 0.000000
vn 0.000000 0.000000 0.000000
vn 0.000000 0.000000 0.000000
vn 0.000000 0.000000 0.000000
vn 0.000000 0.000000 0.000000
vn 0.000000 0.000000 0.000000
vn 0.000000 0.000000 0.000000
vn 0.000000 0.000000 0.000000
vn 0.000000 0.000000 0.000000
vn 0.000000 0.000000 0.000000
vn 0.000000 0.000000 0.000000
vn 0.000000 0.000000 0.000000
vn 0.000000 0.000000 0.000000
vn 0.000000 0.000000 0.000000
vn 0.000000 0.000000 0.000000
vn 0.000000 0.000000 0.000000
vn 0.000000 0.000000 0.000000
vn 0.000000 0.000000 0.000000
vn 0.000000 0.000000 0.000000
vn 0.000000 0.000000 0.000000
vn 0.000000 0.000000 0.000000
vn 0.000000 0.000000 0.000000
vn 0.000000 0.000000 0.000000
vn 0.000000 0.000000 0.000000
vn 0.000000 0.000000 0.000000
vn 0.000000 0.000000 0.000000
vn 0.000000 0.000000 0.000000
vn 0.000000 0.000000 0.000000
vn 0.000000 0.000000 0.000000
vn 0.000000 0.000000 0.000000
vn 0.000000 0.000000 0.000000
vn 0.000000 0.000000 0.000000
vn 0.000000 0.000000 0.000000
vn 0.000000 0.000000 0.000000
vn 0.000000 0.000000 0.000000
vn 0.000000 0.000000 0.000000
vn 0.000000 0.000000 0.000000
vn 0.000000 0.000000 0.000000
vn 0.000000 0.000000 0.000000
vn 0.000000 0.000000 0.000000
vn 0.000000 0.000000 0.000000
vn 0.000000 0.000000 0.000000
vn 0.000000 0.000000 0.000000
vn 0.000000 0.000000 0.000000
vn 0.000000 0.000000 0.000000
vn 0.000000 0.000000 0.000000
vn 0.000000 0.000000 0.000000
vn 0.000000 0.000000 0.000000
vn 0.000000 0.000000 0.000000
vn 0.000000 0.000000 0.000000
vn 0.000000 0.000000 0.000000
vn 0.000000 0.000000 0.000000
vn 0.000000 0.000000 0.000000
vn 0.000000 0.000000 0.000000
vn 0.000000 0.000000 0.000000
vn 0.000000 0.000000 0.000000
vn 0.000000 0.000000 0.000000
vn 0.000000 0.000000 0.000000
vn 0.000000 0.000000 0.000000
vn 0.000000 0.000000 0.000000
vn 0.000000 0.000000 0.000000
vn 0.000000 0.000000 0.000000
vn 0.000000 0.000000 0.000000
vn 0.000000 0.000000 0.000000
vn 0.000000 0.000000 0.000000
vn 0.000000 0.000000 0.000000
vn 0.000000 0.000000 0.000000
vn 0.000000 0.000000 0.000000
vn 0.000000 0.000000 0.000000
vn 0.000000 0.000000 0.000000
vn 0.000000 0.000000 0.000000
vn 0.000000 0.000000 0.000000
vn 0.000000 0.000000 0.000000
vn 0.000000 0.000000 0.000000
vn 0.000000 0.000000 0.000000
vn 0.000000 0.000000 0.000000
vn 0.000000 0.000000 0.000000
vn 0.000000 0.000000 0.000000
vn 0.000000 0.000000 0.000000
vn 0.000000 0.000000 0.000000
vn 0.000000 0.000000 0.000000
vn 0.000000 0.000000 0.000000
vn 0.000000 0.000000 0.000000
vn 0.000000 0.000000 0.000000
vn 0.000000 0.000000 0.000000
vn 0.000000 0.000000 0.000000
vn 0.000000 0.000000 0.000000
vn 0.000000 0.000000 0.000000
vn 0.000000 0.000000 0.000000
vn 0.000000 0.000000 0.000000
vn 0.000000 0.000000 0.000000
vn 0.000000 0.000000 0.000000
vn 0.000000 0.000000 0.000000
vn 0.000000 0.000000 0.000000
vn 0.000000 0.000000 0.000000
vn 0.000000 0.000000 0.000000
vn 0.000000 0.000000 0.000000
vn 0.000000 0.000000 0.000000
vn 0.000000 0.000000 0.000000
vn 0.000000 0.000000 0.000000
vn 0.000000 0.000000 0.000000
vn 0.000000 0.000000 0.000000
vn 0.000000 0.000000 0.000000
vn 0.000000 0.000000 0.000000
vn 0.000000 0.000000 0.000000
vn 0.000000 0.000000 0.000000
vn 0.000000 0.000000 0.000000
vn 0.000000 0.000000 0.000000
vn 0.000000 0.000000 0.000000
vn 0.000000 0.000000 0.000000
vn 0.000000 0.000000 0.000000
vn 0.000000 0.000000 0.000000
vn 0.000000 0.000000 0.000000
vn 0.000000 0.000000 0.000000
vn 0.000000 0.000000 0.000000
vn 0.000000 0.000000 0.000000
vn 0.000000 0.000000 0.000000
vn 0.000000 0.000000 0.000000
vn 0.000000 0.000000 0.000000
vn 0.000000 0.000000 0.000000
vn 0.000000 0.000000 0.000000
vn 0.000000 0.000000 0.000000
vn 0.000000 0.000000 0.000000
vn 0.000000 0.000000 0.000000
vn 0.000000 0.000000 0.000000
vn 0.000000 0.000000 0.000000
vn 0.000000 0.000000 0.000000
vn 0.000000 0.000000 0.000000
vn 0.000000 0.000000 0.000000
vn 0.000000 0.000000 0.000000
vn 0.000000 0.000000 0.000000
vn 0.000000 0.000000 0.000000
vn 0.000000 0.000000 0.000000
vn 0.000000 0.000000 0.000000
vn 0.000000 0.000000 0.000000
vn 0.000000 0.000000 0.000000
vn 0.000000 0.000000 0.000000
vn 0.000000 0.000000 0.000000
vn 0.000000 0.000000 0.000000
vn 0.000000 0.000000 0.000000
vn 0.000000 0.000000 0.000000
vn 0.000000 0.000000 0.000000
vn 0.000000 0.000000 0.000000
vn 0.000000 0.000000 0.000000
vn 0.000000 0.986081 0.166264
vn 0.000000 0.986081 0.166264
vn 0.000000 0.986081 0.166264
vn 0.000000 0.986081 0.166264
vn -0.835863 0.000000 -0.548938
vn -0.835863 0.000000 -0.548938
vn -0.835863 0.000000 -0.548938
vn -0.835863 0.000000 -0.548938
vn -0.835865 0.000000 -0.548936
vn -0.835865 0.000000 -0.548936
vn -0.835865 0.000000 -0.548936
vn -0.835865 0.000000 -0.548936
vn -0.835864 0.000000 -0.548936
vn -0.835864 0.000000 -0.548936
vn -0.835864 0.000000 -0.548936
vn -0.835864 0.000000 -0.548936
vn -0.835864 0.000000 -0.548937
vn -0.835864 0.000000 -0.548937
vn -0.835864 0.000000 -0.548937
vn -0.835864 0.000000 -0.548937
vn -0.835863 0.000000 -0.548937
vn -0.835864 0.000000 -0.548937
vn -0.835863 0.000000 -0.548937
vn -0.835864 0.000000 -0.548937
vn -0.835865 0.000000 -0.548936
vn -0.835864 0.000000 -0.548936
vn -0.835864 0.000000 -0.548936
vn -0.835865 0.000000 -0.548936
vn -0.835864 0.000000 -0.548936
vn -0.835864 0.000000 -0.548936
vn -0.835864 0.000000 -0.548936
vn -0.835864 0.000000 -0.548936
vn -0.835863 0.000000 -0.548938
vn -0.835863 0.000000 -0.548938
vn -0.835863 0.000000 -0.548938
vn -0.835863 0.000000 -0.548938
vn 0.000000 -0.986081 0.166266
vn 0.000000 -0.986081 0.166266
vn 0.000000 -0.986081 0.166266
vn 0.000000 -0.986081 0.166266
vn 0.000000 -0.986081 -0.166266
vn 0.000000 -0.986081 -0.166266
vn 0.000000 -0.986081 -0.166266
vn 0.000000 -0.986081 -0.166266
vn -0.836887 0.000000 0.547376
vn -0.836887 0.000000 0.547376
vn -0.836887 0.000000 0.547376
vn -0.836887 0.000000 0.547376
vn -0.836888 0.000000 0.547374
vn -0.836888 0.000000 0.547375
vn -0.836888 0.000000 0.547374
vn -0.836888 0.000000 0.547375
vn -0.836888 0.000000 0.547374
vn -0.836888 0.000000 0.547374
vn -0.836888 0.000000 0.547374
vn -0.836888 0.000000 0.547374
vn -0.836887 0.000000 0.547376
vn -0.836887 0.000000 0.547376
vn -0.836887 0.000000 0.547376
vn -0.836887 0.000000 0.547376
vn -0.836887 0.000000 0.547376
vn -0.836887 0.000000 0.547376
vn -0.836887 0.000000 0.547376
vn -0.836887 0.000000 0.547376
vn -0.836888 0.000000 0.547374
vn -0.836888 0.000000 0.547374
vn -0.836888 0.000000 0.547374
vn -0.836888 0.000000 0.547374
vn -0.836888 0.000000 0.547374
vn -0.836888 0.000000 0.547374
vn -0.836888 0.000000 0.547374
vn -0.836888 0.000000 0.547374
vn -0.836887 0.000000 0.547375
vn -0.836887 0.000000 0.547375
vn -0.836887 0.000000 0.547375
vn -0.836887 0.000000 0.547375
vn 0.000000 0.986081 -0.166265
vn 0.000000 0.986081 -0.166265
vn 0.000000 0.986081 -0.166265
vn 0.000000 0.986081 -0.166265
vn 0.237111 0.971482 0.000000
vn 0.237111 0.971482 0.000000
vn 0.237111 0.971482 0.000000
vn 0.237111 0.971482 0.000000
vn -0.210545 -0.977584 0.000000
vn -0.210545 -0.977584 0.000000
vn -0.210545 -0.977584 0.000000
vn -0.210545 -0.977584 0.000000
vn 0.000000 0.989112 0.147164
vn 0.000000 0.989112 0.147164
vn 0.000000 0.989112 0.147164
vn 0.000000 0.989112 0.147164
vn 0.000000 -0.986081 -0.166266
vn 0.000000 -0.986081 -0.166266
vn 0.000000 -0.986081 -0.166266
vn 0.000000 -0.986081 -0.166266
vn 0.000000 -0.989112 -0.147166
vn 0.000000 -0.989112 -0.147166
vn 0.000000 -0.989112 -0.147166
vn 0.000000 -0.989112 -0.147166
vn 0.000000 0.986081 0.166265
vn 0.000000 0.986081 0.166265
vn 0.000000 0.986081 0.166265
vn 0.000000 0.986081 0.166265
vn 0.000000 0.989112 -0.147163
vn 0.000000 0.989112 -0.147163
vn 0.000000 0.989112 -0.147163
vn 0.000000 0.989112 -0.147163
vn 0.000000 -0.986081 0.166267
vn 0.000000 -0.986081 0.166267
vn 0.000000 -0.986081 0.166267
vn 0.000000 -0.986081 0.166267
vn 0.000000 -0.991789 0.127884
vn 0.000000 -0.991789 0.127884
vn 0.000000 -0.991789 0.127884
vn 0.000000 -0.991789 0.127884
vn 0.000000 0.994101 -0.108457
vn 0.000000 0.994101 -0.108457
vn 0.000000 0.994101 -0.108457
vn 0.000000 0.994101 -0.108457
vn 0.000000 -0.996039 0.088916
vn 0.000000 -0.996039 0.088916
vn 0.000000 -0.996039 0.088916
vn 0.000000 -0.996039 0.088916
vn 0.000000 0.997598 -0.069264
vn 0.000000 0.997598 -0.069264
vn 0.000000 0.997598 -0.069264
vn 0.000000 0.997598 -0.069264
vn 0.000000 -0.998773 0.049532
vn 0.000000 -0.998773 0.049532
vn 0.000000 -0.998773 0.049532
vn 0.000000 -0.998773 0.049532
vn 0.000000 0.999558 -0.029743
vn 0.000000 0.999558 -0.029743
vn 0.000000 0.999558 -0.029743
vn 0.000000 0.999558 -0.029743
vn 0.000000 -0.999951 0.009918
vn 0.000000 -0.999951 0.009918
vn 0.000000 -0.999951 0.009918
vn 0.000000 -0.999951 0.009918
vn 0.000000 0.999951 0.009915
vn 0.000000 0.999951 0.009915
vn 0.000000 0.999951 0.009915
vn 0.000000 0.999951 0.009915
vn 0.000000 -0.999558 -0.029743
vn 0.000000 -0.999558 -0.029743
vn 0.000000 -0.999558 -0.029743
vn 0.000000 -0.999558 -0.029743
vn 0.000000 0.998772 0.049533
vn 0.000000 0.998772 0.049533
vn 0.000000 0.998772 0.049533
vn 0.000000 0.998772 0.049533
vn 0.000000 -0.997598 -0.069264
vn 0.000000 -0.997598 -0.069264
vn 0.000000 -0.997598 -0.069264
vn 0.000000 -0.997598 -0.069264
vn 0.000000 0.996039 0.088915
vn 0.000000 0.996039 0.088915
vn 0.000000 0.996039 0.088915
vn 0.000000 0.996039 0.088915
vn 0.000000 -0.994101 -0.108455
vn 0.000000 -0.994101 -0.108455
vn 0.000000 -0.994101 -0.108455
vn 0.000000 -0.994101 -0.108455
vn 0.000000 0.991789 0.127885
vn 0.000000 0.991789 0.127885
vn 0.000000 0.991789 0.127885
vn 0.000000 0.991789 0.127885
vn 0.000000 -0.989112 0.147167
vn 0.000000 -0.989112 0.147167
vn 0.000000 -0.989112 0.147167
vn 0.000000 -0.989112 0.147167
vn 0.000000 0.986081 -0.166266
vn 0.000000 0.986081 -0.166266
vn 0.000000 0.986081 -0.166266
vn 0.000000 0.986081 -0.166266
vn 0.000000 0.991789 -0.127885
vn 0.000000 0.991789 -0.127885
vn 0.000000 0.991789 -0.127885
vn 0.000000 0.991789 -0.127885
vn 0.000000 -0.994101 0.108457
vn 0.000000 -0.994101 0.108457
vn 0.000000 -0.994101 0.108457
vn 0.000000 -0.994101 0.108457
vn 0.000000 0.996039 -0.088915
vn 0.000000 0.996039 -0.088915
vn 0.000000 0.996039 -0.088915
vn 0.000000 0.996039 -0.088915
vn 0.000000 -0.997598 0.069264
vn 0.000000 -0.997598 0.069264
vn 0.000000 -0.997598 0.069264
vn 0.000000 -0.997598 0.069264
vn 0.000000 0.998773 -0.049532
vn 0.000000 0.998773 -0.049532
vn 0.000000 0.998773 -0.049532
vn 0.000000 0.998773 -0.049532
vn 0.000000 -0.999558 0.029743
vn 0.000000 -0.999558 0.029743
vn 0.000000 -0.999558 0.029743
vn 0.000000 -0.999558 0.029743
vn 0.000000 0.999951 -0.009915
vn 0.000000 0.999951 -0.009915
vn 0.000000 0.999951 -0.009915
vn 0.000000 0.999951 -0.009915
vn 0.000000 -0.999951 -0.009918
vn 0.000000 -0.999951 -0.009918
vn 0.000000 -0.999951 -0.009918
vn 0.000000 -0.999951 -0.009918
vn 0.000000 0.999558 0.029743
vn 0.000000 0.999558 0.029743
vn 0.000000 0.999558 0.029743
vn 0.000000 0.999558 0.029743
vn 0.000000 -0.998773 -0.049533
vn 0.000000 -0.998773 -0.049533
vn 0.000000 -0.998773 -0.049533
vn 0.000000 -0.998773 -0.049533
vn 0.000000 0.997598 0.069265
vn 0.000000 0.997598 0.069265
vn 0.000000 0.997598 0.069265
vn 0.000000 0.997598 0.069265
vn 0.000000 -0.996039 -0.088916
vn 0.000000 -0.996039 -0.088916
vn 0.000000 -0.996039 -0.088916
vn 0.000000 -0.996039 -0.088916
vn 0.000000 0.994101 0.108458
vn 0.000000 0.994101 0.108458
vn 0.000000 0.994101 0.108458
vn 0.000000 0.994101 0.108458
vn 0.000000 -0.991789 -0.127884
vn 0.000000 -0.991789 -0.127884
vn 0.000000 -0.991789 -0.127884
vn 0.000000 -0.991789 -0.127884
vn -0.210542 0.977585 0.000000
vn -0.210542 0.977585 0.000000
vn -0.210541 0.977585 0.000000
vn -0.210541 0.977585 0.000000
vn 0.237113 -0.971482 0.000000
vn 0.237113 -0.971482 0.000000
vn 0.237113 -0.971482 0.000000
vn 0.237113 -0.971482 0.000000
vn -0.155995 0.987758 0.000000
vn -0.155995 0.987758 0.000000
vn -0.155995 0.987758 0.000000
vn -0.155995 0.987758 0.000000
vn 0.183481 -0.983023 0.000000
vn 0.183481 -0.983023 0.000000
vn 0.183481 -0.983023 0.000000
vn 0.183481 -0.983023 0.000000
vn -0.100001 0.994987 -0.000000
vn -0.100001 0.994987 -0.000000
vn -0.100001 0.994987 -0.000000
vn -0.100001 0.994987 -0.000000
vn 0.128155 -0.991754 0.000000
vn 0.128155 -0.991754 0.000000
vn 0.128155 -0.991754 0.000000
vn 0.128155 -0.991754 0.000000
vn -0.043033 0.999074 0.000000
vn -0.043033 0.999074 0.000000
vn -0.043033 0.999074 0.000000
vn -0.043033 0.999074 0.000000
vn 0.071604 -0.997433 0.000000
vn 0.071604 -0.997433 0.000000
vn 0.071604 -0.997433 0.000000
vn 0.071604 -0.997433 0.000000
vn 0.014352 0.999897 0.000000
vn 0.014352 0.999897 0.000000
vn 0.014352 0.999897 0.000000
vn 0.014352 0.999897 0.000000
vn 0.014356 -0.999897 0.000000
vn 0.014356 -0.999897 0.000000
vn 0.014356 -0.999897 0.000000
vn 0.014356 -0.999897 0.000000
vn 0.071604 0.997433 0.000000
vn 0.071604 0.997433 0.000000
vn 0.071604 0.997433 0.000000
vn 0.071604 0.997433 0.000000
vn -0.043033 -0.999074 0.000000
vn -0.043033 -0.999074 0.000000
vn -0.043033 -0.999074 0.000000
vn -0.043033 -0.999074 0.000000
vn 0.128153 0.991754 0.000000
vn 0.128153 0.991754 0.000000
vn 0.128153 0.991754 0.000000
vn 0.128153 0.991754 0.000000
vn -0.100000 -0.994987 0.000000
vn -0.100000 -0.994987 0.000000
vn -0.100000 -0.994987 0.000000
vn -0.100000 -0.994987 0.000000
vn 0.183481 0.983023 0.000000
vn 0.183481 0.983023 0.000000
vn 0.183481 0.983023 0.000000
vn 0.183481 0.983023 0.000000
vn -0.155993 -0.987758 0.000000
vn -0.155993 -0.987758 0.000000
vn -0.155993 -0.987758 0.000000
vn -0.155993 -0.987758 0.000000
vn -1.000000 0.000000 0.000000
vn -1.000000 0.000000 0.000000
vn -1.000000 0.000000 0.000000
vn -1.000000 0.000000 0.000000
vn 0.093035 0.995663 0.000000
vn 0.093035 0.995663 0.000000
vn 0.093035 0.995663 0.000000
vn 0.093035 0.995663 0.000000
vn 0.093034 -0.995663 0.000000
vn 0.093034 -0.995663 0.000000
vn 0.093034 -0.995663 0.000000
vn 0.093034 -0.995663 0.000000
vn -1.000000 0.000000 0.000000
vn -1.000000 0.000000 0.000000
vn -1.000000 0.000000 0.000000
vn -1.000000 0.000000 0.000000
vn 0.093034 -0.995663 0.000000
vn 0.093034 -0.995663 0.000000
vn 0.093034 -0.995663 0.000000
vn 0.093034 -0.995663 0.000000
vn 0.093035 0.995663 0.000000
vn 0.093035 0.995663 0.000000
vn 0.093035 0.995663 0.000000
vn 0.093035 0.995663 0.000000
g FCSET_Pages_001_0p5_0p243_0p926 Book Pages
usemtl initialShadingGroup
f 437/285/631 438/553/632 439/554/633 440/549/634 441/550/635 442/545/636 443/546/637 444/541/638 445/542/639 446/537/640 447/538/641 448/533/642 449/534/643 450/529/644 451/530/645 452/525/646 453/526/647 454/521/648 455/522/649 456/304/650
f 457/305/651 458/630/652 459/606/653 460/601/654 461/602/655 462/597/656 463/598/657 464/593/658 465/594/659 466/589/660 467/590/661 468/585/662 469/586/663 470/581/664 471/582/665 472/577/666 473/578/667 474/573/668 475/574/669 476/627/670
f 478/325/671 477/326/672 479/327/673 480/328/674
f 481/329/675 459/307/676 458/306/677 482/330/678
f 480/328/679 439/287/680 438/286/681 478/325/682
f 455/303/683 454/302/684 483/331/685 484/332/686
f 360/333/687 312/334/688 311/559/689 359/336/690
f 485/337/691 453/301/692 452/300/693 486/338/694
f 358/339/695 310/340/696 309/561/697 357/342/698
f 487/343/699 451/299/700 450/298/701 488/344/702
f 356/345/703 308/346/704 307/347/705 355/348/706
f 489/349/707 449/297/708 448/296/709 490/350/710
f 354/351/711 306/352/712 305/563/713 353/354/714
f 491/355/715 447/295/716 446/294/717 492/356/718
f 352/357/719 304/358/720 303/565/721 351/360/722
f 493/361/723 445/293/724 444/292/725 494/362/726
f 350/363/727 302/364/728 301/567/729 349/366/730
f 495/367/731 443/291/732 442/290/733 496/368/734
f 348/369/735 300/370/736 299/569/737 347/372/738
f 497/373/739 441/289/740 440/288/741 498/374/742
f 346/375/743 298/376/744 297/571/745 345/378/746
f 475/323/747 474/322/748 479/327/749 477/326/750
f 344/379/751 328/380/752 327/611/753 343/382/754
f 499/383/755 473/321/756 472/320/757 500/384/758
f 342/385/759 326/386/760 325/613/761 341/388/762
f 501/389/763 471/319/764 470/318/765 502/390/766
f 340/391/767 324/392/768 323/615/769 339/394/770
f 503/395/771 469/317/772 468/316/773 504/396/774
f 338/397/775 322/398/776 321/617/777 337/400/778
f 505/401/779 467/315/780 466/314/781 506/402/782
f 336/403/783 320/404/784 319/619/785 335/406/786
f 507/407/787 465/313/788 464/312/789 508/408/790
f 334/409/791 318/410/792 317/621/793 333/412/794
f 509/413/795 463/311/796 462/310/797 510/414/798
f 332/415/799 316/416/800 315/623/801 331/418/802
f 511/419/803 461/309/804 460/308/805 512/420/806
f 330/421/807 314/422/808 313/625/809 329/424/810
f 483/331/811 481/329/812 482/330/813 484/332/814
f 359/336/815 330/421/816 329/424/817 360/333/818
f 486/338/819 511/419/820 512/420/821 485/337/822
f 357/342/823 332/415/824 331/418/825 358/339/826
f 488/344/827 509/413/828 510/414/829 487/343/830
f 355/348/831 334/409/832 333/412/833 356/345/834
f 490/350/835 507/407/836 508/408/837 489/349/838
f 353/354/839 336/403/840 335/406/841 354/351/842
f 492/356/843 505/401/844 506/402/845 491/355/846
f 351/360/847 338/397/848 337/400/849 352/357/850
f 494/362/851 503/395/852 504/396/853 493/361/854
f 349/366/855 340/391/856 339/394/857 350/363/858
f 496/368/859 501/389/860 502/390/861 495/367/862
f 347/372/863 342/385/864 341/388/865 348/369/866
f 498/374/867 499/383/868 500/384/869 497/373/870
f 345/378/871 344/379/872 343/382/873 346/375/874
f 285/425/875 295/426/876 362/556/877 361/428/878
f 297/377/879 298/570/880 364/552/881 363/430/882
f 299/371/883 300/568/884 366/548/885 365/432/886
f 301/365/887 302/566/888 368/544/889 367/434/890
f 303/359/891 304/564/892 370/540/893 369/436/894
f 305/353/895 306/562/896 372/536/897 371/438/898
f 307/347/899 308/346/900 374/532/901 373/440/902
f 309/341/903 310/560/904 376/528/905 375/442/906
f 311/335/907 312/558/908 378/524/909 377/444/910
f 296/557/911 287/446/912 380/447/913 379/448/914
f 287/446/915 285/425/916 361/428/917 380/447/918
f 289/449/919 293/450/920 382/608/921 381/452/922
f 313/423/923 314/624/924 384/604/925 383/454/926
f 315/417/927 316/622/928 386/600/929 385/456/930
f 317/411/931 318/620/932 388/596/933 387/458/934
f 319/405/935 320/618/936 390/592/937 389/460/938
f 321/399/939 322/616/940 392/588/941 391/462/942
f 323/393/943 324/614/944 394/584/945 393/464/946
f 325/387/947 326/612/948 396/580/949 395/466/950
f 327/381/951 328/610/952 398/576/953 397/468/954
f 294/609/955 291/470/956 400/471/957 399/472/958
f 291/470/959 289/449/960 381/452/961 400/471/962
f 286/473/963 292/474/964 401/475/965 402/476/966
f 344/379/967 345/378/968 404/477/969 403/478/970
f 329/424/971 313/625/972 383/607/973 405/479/974
f 293/626/975 290/480/976 406/481/977 382/451/978
f 345/378/979 297/571/980 363/555/981 404/477/982
f 295/572/983 286/473/984 402/476/985 362/427/986
f 312/334/987 360/333/988 407/482/989 378/443/990
f 288/483/991 296/445/992 379/523/993 408/484/994
f 359/336/995 311/559/996 377/527/997 409/485/998
f 310/340/999 358/339/1000 410/486/1001 376/441/1002
f 357/342/1003 309/561/1004 375/531/1005 411/487/1006
f 308/346/1007 356/345/1008 412/488/1009 374/439/1010
f 355/348/1011 307/347/1012 373/535/1013 413/489/1014
f 306/352/1015 354/351/1016 414/490/1017 372/437/1018
f 353/354/1019 305/563/1020 371/539/1021 415/491/1022
f 304/358/1023 352/357/1024 416/492/1025 370/435/1026
f 351/360/1027 303/565/1028 369/543/1029 417/493/1030
f 302/364/1031 350/363/1032 418/494/1033 368/433/1034
f 349/366/1035 301/567/1036 367/547/1037 419/495/1038
f 300/370/1039 348/369/1040 420/496/1041 366/431/1042
f 347/372/1043 299/569/1044 365/551/1045 421/497/1046
f 298/376/1047 346/375/1048 422/498/1049 364/429/1050
f 328/380/1051 344/379/1052 403/478/1053 398/467/1054
f 292/474/1055 294/469/1056 399/575/1057 401/475/1058
f 343/382/1059 327/611/1060 397/579/1061 423/499/1062
f 326/386/1063 342/385/1064 424/500/1065 396/465/1066
f 341/388/1067 325/613/1068 395/583/1069 425/501/1070
f 324/392/1071 340/391/1072 426/502/1073 394/463/1074
f 339/394/1075 323/615/1076 393/587/1077 427/503/1078
f 322/398/1079 338/397/1080 428/504/1081 392/461/1082
f 337/400/1083 321/617/1084 391/591/1085 429/505/1086
f 320/404/1087 336/403/1088 430/506/1089 390/459/1090
f 335/406/1091 319/619/1092 389/595/1093 431/507/1094
f 318/410/1095 334/409/1096 432/508/1097 388/457/1098
f 333/412/1099 317/621/1100 387/599/1101 433/509/1102
f 316/416/1103 332/415/1104 434/510/1105 386/455/1106
f 331/418/1107 315/623/1108 385/603/1109 435/511/1110
f 314/422/1111 330/421/1112 436/512/1113 384/453/1114
f 360/333/1115 329/424/1116 405/479/1117 407/482/1118
f 290/480/1119 288/483/1120 408/484/1121 406/481/1122
f 358/339/1123 331/418/1124 435/511/1125 410/486/1126
f 330/421/1127 359/336/1128 409/485/1129 436/512/1130
f 356/345/1131 333/412/1132 433/509/1133 412/488/1134
f 332/415/1135 357/342/1136 411/487/1137 434/510/1138
f 354/351/1139 335/406/1140 431/507/1141 414/490/1142
f 334/409/1143 355/348/1144 413/489/1145 432/508/1146
f 352/357/1147 337/400/1148 429/505/1149 416/492/1150
f 336/403/1151 353/354/1152 415/491/1153 430/506/1154
f 350/363/1155 339/394/1156 427/503/1157 418/494/1158
f 338/397/1159 351/360/1160 417/493/1161 428/504/1162
f 348/369/1163 341/388/1164 425/501/1165 420/496/1166
f 340/391/1167 349/366/1168 419/495/1169 426/502/1170
f 346/375/1171 343/382/1172 423/499/1173 422/498/1174
f 342/385/1175 347/372/1176 421/497/1177 424/500/1178
f 361/428/1179 362/556/1180 438/553/1181 437/285/1182
f 363/430/1183 364/552/1184 440/549/1185 439/554/1186
f 365/432/1187 366/548/1188 442/545/1189 441/550/1190
f 367/434/1191 368/544/1192 444/541/1193 443/546/1194
f 369/436/1195 370/540/1196 446/537/1197 445/542/1198
f 371/438/1199 372/536/1200 448/533/1201 447/538/1202
f 373/440/1203 374/532/1204 450/529/1205 449/534/1206
f 375/442/1207 376/528/1208 452/525/1209 451/530/1210
f 377/444/1211 378/524/1212 454/521/1213 453/526/1214
f 379/448/1215 380/447/1216 456/304/1217 455/522/1218
f 381/452/1219 382/608/1220 458/605/1221 457/629/1222
f 383/454/1223 384/604/1224 460/601/1225 459/606/1226
f 385/456/1227 386/600/1228 462/597/1229 461/602/1230
f 387/458/1231 388/596/1232 464/593/1233 463/598/1234
f 389/460/1235 390/592/1236 466/589/1237 465/594/1238
f 391/462/1239 392/588/1240 468/585/1241 467/590/1242
f 393/464/1243 394/584/1244 470/581/1245 469/586/1246
f 395/466/1247 396/580/1248 472/577/1249 471/582/1250
f 397/468/1251 398/576/1252 474/573/1253 473/578/1254
f 399/472/1255 400/471/1256 476/324/1257 475/628/1258
f 402/476/1259 401/475/1260 477/326/1261 478/325/1262
f 403/478/1263 404/477/1264 480/328/1265 479/327/1266
f 405/479/1267 383/607/1268 459/307/1269 481/329/1270
f 382/451/1271 406/481/1272 482/330/1273 458/306/1274
f 404/477/1275 363/555/1276 439/287/1277 480/328/1278
f 362/427/1279 402/476/1280 478/325/1281 438/286/1282
f 378/443/1283 407/482/1284 483/331/1285 454/302/1286
f 408/484/1287 379/523/1288 455/303/1289 484/332/1290
f 409/485/1291 377/527/1292 453/301/1293 485/337/1294
f 376/441/1295 410/486/1296 486/338/1297 452/300/1298
f 411/487/1299 375/531/1300 451/299/1301 487/343/1302
f 374/439/1303 412/488/1304 488/344/1305 450/298/1306
f 413/489/1307 373/535/1308 449/297/1309 489/349/1310
f 372/437/1311 414/490/1312 490/350/1313 448/296/1314
f 415/491/1315 371/539/1316 447/295/1317 491/355/1318
f 370/435/1319 416/492/1320 492/356/1321 446/294/1322
f 417/493/1323 369/543/1324 445/293/1325 493/361/1326
f 368/433/1327 418/494/1328 494/362/1329 444/292/1330
f 419/495/1331 367/547/1332 443/291/1333 495/367/1334
f 366/431/1335 420/496/1336 496/368/1337 442/290/1338
f 421/497/1339 365/551/1340 441/289/1341 497/373/1342
f 364/429/1343 422/498/1344 498/374/1345 440/288/1346
f 398/467/1347 403/478/1348 479/327/1349 474/322/1350
f 401/475/1351 399/575/1352 475/323/1353 477/326/1354
f 423/499/1355 397/579/1356 473/321/1357 499/383/1358
f 396/465/1359 424/500/1360 500/384/1361 472/320/1362
f 425/501/1363 395/583/1364 471/319/1365 501/389/1366
f 394/463/1367 426/502/1368 502/390/1369 470/318/1370
f 427/503/1371 393/587/1372 469/317/1373 503/395/1374
f 392/461/1375 428/504/1376 504/396/1377 468/316/1378
f 429/505/1379 391/591/1380 467/315/1381 505/401/1382
f 390/459/1383 430/506/1384 506/402/1385 466/314/1386
f 431/507/1387 389/595/1388 465/313/1389 507/407/1390
f 388/457/1391 432/508/1392 508/408/1393 464/312/1394
f 433/509/1395 387/599/1396 463/311/1397 509/413/1398
f 386/455/1399 434/510/1400 510/414/1401 462/310/1402
f 435/511/1403 385/603/1404 461/309/1405 511/419/1406
f 384/453/1407 436/512/1408 512/420/1409 460/308/1410
f 407/482/1411 405/479/1412 481/329/1413 483/331/1414
f 406/481/1415 408/484/1416 484/332/1417 482/330/1418
f 410/486/1419 435/511/1420 511/419/1421 486/338/1422
f 436/512/1423 409/485/1424 485/337/1425 512/420/1426
f 412/488/1427 433/509/1428 509/413/1429 488/344/1430
f 434/510/1431 411/487/1432 487/343/1433 510/414/1434
f 414/490/1435 431/507/1436 507/407/1437 490/350/1438
f 432/508/1439 413/489/1440 489/349/1441 508/408/1442
f 416/492/1443 429/505/1444 505/401/1445 492/356/1446
f 430/506/1447 415/491/1448 491/355/1449 506/402/1450
f 418/494/1451 427/503/1452 503/395/1453 494/362/1454
f 428/504/1455 417/493/1456 493/361/1457 504/396/1458
f 420/496/1459 425/501/1460 501/389/1461 496/368/1462
f 426/502/1463 419/495/1464 495/367/1465 502/390/1466
f 422/498/1467 423/499/1468 499/383/1469 498/374/1470
f 424/500/1471 421/497/1472 497/373/1473 500/384/1474
f 400/471/1475 381/452/1476 513/513/1477 514/514/1478
f 381/452/1479 457/629/1480 515/515/1481 513/513/1482
f 476/324/1483 400/471/1484 514/514/1485 516/516/1486
f 380/447/1487 361/428/1488 517/517/1489 518/518/1490
f 361/428/1491 437/285/1492 519/519/1493 517/517/1494
f 456/304/1495 380/447/1496 518/518/1497 520/520/1498
