# This file uses centimeters as units for non-parametric coordinates.

v -0.504168 0.006386 0.244544
v -0.504168 0.074190 0.312348
v -0.571970 0.074190 0.244544
v 1.021521 0.074190 0.244544
v 0.953718 0.074190 0.312348
v 0.953718 0.006386 0.244544
v -0.571970 1.153829 0.244544
v -0.504168 1.153829 0.312348
v -0.504168 1.221633 0.244544
v 0.953718 1.221633 0.244544
v 0.953718 1.153829 0.312348
v 1.021521 1.153829 0.244544
v -0.571970 1.153829 -0.244544
v -0.504168 1.221633 -0.244544
v -0.504168 1.153829 -0.312348
v 0.953718 1.153829 -0.312348
v 0.953718 1.221633 -0.244544
v 1.021521 1.153829 -0.244544
v -0.571970 0.074190 -0.244544
v -0.504168 0.074190 -0.312348
v -0.504168 0.006386 -0.244544
v 0.953718 0.006386 -0.244544
v 0.953718 0.074190 -0.312348
v 1.021521 0.074190 -0.244544
vt 0.175606 0.771531
vt 0.202341 0.787494
vt 0.192920 0.920095
vt 0.034298 0.770984
vt 0.202109 0.763105
vt 0.165873 0.351467
vt 0.189893 0.351212
vt 0.503229 0.750823
vt 0.504253 0.774773
vt 0.534051 0.002441
vt 0.029095 0.347222
vt 0.028063 0.319460
vt 0.502554 0.316068
vt 0.493361 0.343062
vt 0.530011 0.757586
vt 0.673268 0.752540
vt 0.524200 0.915836
vt 0.517372 0.343233
vt 0.647172 0.314576
vt 0.648400 0.334172
vt 0.700565 0.750162
vt 0.691611 0.150142
vt 0.673853 0.325002
vt 0.002441 0.343351
vt 0.174245 0.940454
vt 0.700565 0.019013
vt 0.673001 0.014995
vt 0.179980 0.324931
vt 0.691611 0.563276
vt 0.997559 0.563276
vt 0.524659 0.943164
vt 0.997559 0.150142
vt 0.193741 0.947469
vt 0.164914 0.914356
vt 0.006688 0.770728
vt 0.544020 0.934713
vt 0.551091 0.907951
vn -0.040663 -0.992222 0.117652
vn -0.991711 -0.054103 0.116545
vn -0.991711 -0.054103 -0.116545
vn -0.040663 -0.992222 -0.117652
vn -0.042656 -0.057294 0.997446
vn 0.040663 -0.992222 0.117652
vn 0.042656 -0.057294 0.997446
vn -0.042656 0.057294 0.997446
vn -0.991711 0.054103 0.116545
vn 0.991711 -0.054103 0.116545
vn 0.040663 -0.992222 -0.117652
vn 0.991711 -0.054103 -0.116545
vn 0.991711 0.054103 0.116545
vn 0.042656 0.057294 0.997446
vn -0.040663 0.992222 0.117652
vn -0.040663 0.992222 -0.117652
vn -0.991711 0.054103 -0.116545
vn 0.040663 0.992222 0.117652
vn 0.991711 0.054103 -0.116545
vn 0.040663 0.992222 -0.117652
vn -0.042656 0.057294 -0.997446
vn -0.042656 -0.057294 -0.997446
vn 0.042656 0.057294 -0.997446
vn 0.042656 -0.057294 -0.997446
f 1/1/1 3/2/2 19/3/3 21/34/4
f 2/5/5 1/1/1 6/6/6 5/7/7
f 3/2/2 2/5/5 8/8/8 7/9/9
f 4/28/10 6/6/6 22/11/11 24/12/12
f 5/7/7 4/28/10 12/13/13 11/14/14
f 7/9/9 9/15/15 14/37/16 13/17/17
f 9/15/15 8/8/8 11/14/14 10/18/18
f 10/18/18 12/13/13 18/19/19 17/20/20
f 13/17/17 15/31/21 20/33/22 19/3/3
f 15/21/21 14/16/16 17/20/20 16/23/23
f 16/23/23 18/19/19 24/27/12 23/26/24
f 21/4/4 20/35/22 23/24/24 22/11/11
f 2/5/5 5/7/7 11/14/14 8/8/8
f 9/15/15 10/18/18 17/20/20 14/16/16
f 15/32/21 16/30/23 23/29/24 20/22/22
f 21/4/4 22/11/11 6/6/6 1/1/1
f 4/10/10 24/27/12 18/19/19 12/13/13
f 19/3/3 3/2/2 7/9/9 13/17/17
f 1/1/1 2/5/5 3/2/2
f 4/28/10 5/7/7 6/6/6
f 7/9/9 8/8/8 9/15/15
f 10/18/18 11/14/14 12/13/13
f 13/17/17 14/37/16 15/36/21
f 16/23/23 17/20/20 18/19/19
f 19/3/3 20/25/22 21/34/4
f 22/11/11 23/24/24 24/12/12
