# This file uses centimeters as units for non-parametric coordinates.

v -0.763820 0.006386 0.706804
v -0.763820 0.074190 0.774608
v -0.792984 0.074190 0.706804
v -0.107528 0.074190 0.706804
v -0.136695 0.074190 0.774608
v -0.136695 0.006386 0.706804
v -0.792984 1.153829 0.706804
v -0.763820 1.153829 0.774608
v -0.763820 1.221633 0.706804
v -0.136695 1.221633 0.706804
v -0.136695 1.153829 0.774608
v -0.107528 1.153829 0.706804
v -0.792984 1.153829 0.217717
v -0.763820 1.221633 0.217717
v -0.763820 1.153829 0.149913
v -0.136695 1.153829 0.149913
v -0.136695 1.221633 0.217717
v -0.107528 1.153829 0.217717
v -0.792984 0.074190 0.217717
v -0.763820 0.074190 0.149913
v -0.763820 0.006386 0.217717
v -0.136695 0.006386 0.217717
v -0.136695 0.074190 0.149913
v -0.107528 0.074190 0.217717
vt 0.552460 0.045686
vt 0.731983 0.286352
vt 0.536196 0.263160
vt 0.517314 0.231838
vt 0.997559 0.861544
vt 0.306297 0.002441
vt 0.002441 0.243069
vt 0.997559 0.437813
vt 0.685284 0.714379
vt 0.031507 0.243160
vt 0.266573 0.194379
vt 0.227073 0.236066
vt 0.031405 0.675373
vt 0.002441 0.677693
vt 0.997559 0.400179
vt 0.485696 0.712008
vt 0.500499 0.683065
vt 0.033417 0.704370
vt 0.219697 0.661112
vt 0.231320 0.691355
vt 0.475836 0.676564
vt 0.506446 0.264635
vt 0.244610 0.657597
vt 0.257828 0.234208
vt 0.680543 0.743625
vt 0.713868 0.719049
vt 0.761046 0.288698
vt 0.736341 0.257743
vt 0.751428 0.400179
vt 0.751428 0.437813
vt 0.751428 0.861544
vt 0.227330 0.207161
vt 0.751428 0.899178
vt 0.029836 0.214014
vt 0.997559 0.899178
vt 0.539871 0.234180
vt 0.219830 0.884449
vt 0.469875 0.903376
vn -0.093499 -0.988725 0.116962
vn -0.998427 -0.023771 0.050788
vn -0.998427 -0.023770 -0.050788
vn -0.093499 -0.988725 -0.116962
vn -0.098434 -0.056925 0.993514
vn 0.093498 -0.988725 0.116962
vn 0.098433 -0.056924 0.993514
vn -0.098434 0.056925 0.993514
vn -0.998427 0.023771 0.050788
vn 0.998426 -0.023773 0.050794
vn 0.093498 -0.988726 -0.116961
vn 0.998426 -0.023774 -0.050794
vn 0.998426 0.023773 0.050794
vn 0.098433 0.056924 0.993514
vn -0.093499 0.988725 0.116962
vn -0.093499 0.988725 -0.116962
vn -0.998427 0.023770 -0.050788
vn 0.093498 0.988725 0.116961
vn 0.998426 0.023774 -0.050794
vn 0.093498 0.988726 -0.116961
vn -0.098434 0.056925 -0.993514
vn -0.098434 -0.056925 -0.993514
vn 0.098433 0.056925 -0.993514
vn 0.098433 -0.056925 -0.993514
f 1/28/1 3/2/2 19/3/3 21/36/4
f 2/5/5 1/35/1 6/33/6 5/31/7
f 3/2/2 2/27/5 8/26/8 7/9/9
f 4/10/10 6/34/6 22/32/11 24/12/12
f 5/7/7 4/10/10 12/13/13 11/14/14
f 7/9/9 9/25/15 14/16/16 13/17/17
f 9/15/15 8/8/8 11/30/14 10/29/18
f 10/18/18 12/13/13 18/19/19 17/20/20
f 13/17/17 15/21/21 20/22/22 19/3/3
f 15/21/21 14/16/16 17/20/20 16/23/23
f 16/23/23 18/19/19 24/12/12 23/24/24
f 21/4/4 20/22/22 23/24/24 22/11/11
f 2/5/5 5/31/7 11/30/14 8/8/8
f 9/38/15 10/37/18 17/20/20 14/16/16
f 15/21/21 16/23/23 23/24/24 20/22/22
f 21/4/4 22/11/11 6/6/6 1/1/1
f 4/10/10 24/12/12 18/19/19 12/13/13
f 19/3/3 3/2/2 7/9/9 13/17/17
f 1/28/1 2/27/5 3/2/2
f 4/10/10 5/7/7 6/34/6
f 7/9/9 8/26/8 9/25/15
f 10/18/18 11/14/14 12/13/13
f 13/17/17 14/16/16 15/21/21
f 16/23/23 17/20/20 18/19/19
f 19/3/3 20/22/22 21/4/4
f 22/32/11 23/24/24 24/12/12
