# This file uses centimeters as units for non-parametric coordinates.

v -42.972427 -0.008795 -0.353003
v -42.972427 1.772181 -0.353003
v -44.118637 -0.008795 -0.001251
v -44.118637 1.772181 -0.001251
v -44.118637 -0.008795 -0.013871
v -44.118637 1.772181 -0.013871
v -42.972427 -0.008795 -0.365623
v -42.972427 1.772181 -0.365623
v -44.132607 -0.008795 0.004052
v -44.132607 1.772181 0.004052
v -44.136829 1.772181 -0.013871
v -44.136829 -0.008795 -0.013871
v -42.937069 -0.008795 0.198091
v -42.937069 1.772181 0.198091
v -42.959492 1.772181 0.202098
v -42.959492 -0.008795 0.202098
vt 0.548641 0.019933
vt 0.036183 0.019933
vt 0.036183 0.377786
vt 0.966904 0.501491
vt 0.573146 0.377786
vt 0.036183 0.377786
vt 0.036183 0.372926
vt 0.573146 0.372926
vt 0.548641 0.372926
vt 0.036183 0.372926
vt 0.036183 0.019933
vt 0.548641 0.019933
vt 0.548641 0.698396
vt 0.036183 0.698396
vt 0.036183 0.692838
vt 0.573146 0.692838
vt 0.633142 0.501491
vt 0.633142 0.997559
vt 0.584260 0.498510
vt 0.966904 0.997559
vt 0.584260 0.002442
vt 0.548641 0.377786
vt 0.918217 0.498510
vt 0.918217 0.002442
vn 0.293378 0.000000 0.955997
vn 0.293378 0.000000 0.955996
vn 0.293378 0.000000 0.955996
vn 0.293378 0.000000 0.955996
vn -0.973348 0.000000 0.229333
vn -0.973348 0.000000 0.229333
vn -0.973348 0.000000 0.229333
vn -0.973348 0.000000 0.229333
vn -0.293379 0.000000 -0.955996
vn -0.293379 0.000000 -0.955996
vn -0.293379 0.000000 -0.955996
vn -0.293378 0.000000 -0.955996
vn 1.000000 0.000000 0.000000
vn 1.000000 0.000000 0.000000
vn 1.000000 0.000000 0.000000
vn 1.000000 0.000000 0.000000
vn 0.000000 1.000000 0.000000
vn 0.000000 1.000000 0.000000
vn 0.000000 1.000000 0.000000
vn 0.000000 1.000000 0.000000
vn -0.000000 -1.000000 0.000000
vn -0.000000 -1.000000 0.000000
vn -0.000000 -1.000000 0.000000
vn -0.000000 -1.000000 0.000000
vn 0.175950 0.000000 0.984399
vn 0.175950 0.000000 0.984399
vn 0.175950 0.000000 0.984399
vn 0.175950 0.000000 0.984399
vn 0.000000 1.000000 -0.000007
vn 0.000000 1.000000 -0.000007
vn 0.000000 1.000000 -0.000007
vn 0.000000 1.000000 -0.000007
vn 0.000000 0.000000 -1.000000
vn 0.000000 0.000000 -1.000000
vn 0.000000 0.000000 -1.000000
vn 0.000000 0.000000 -1.000000
vn 0.000000 -1.000000 -0.000000
vn 0.000000 -1.000000 -0.000000
vn 0.000000 -1.000000 -0.000000
vn 0.000000 -1.000000 -0.000000
vn 0.166359 0.000000 -0.986065
vn 0.166359 0.000000 -0.986065
vn 0.166359 0.000000 -0.986065
vn 0.166359 0.000000 -0.986065
vn 0.000000 1.000000 0.000000
vn 0.000000 1.000000 0.000000
vn 0.000000 1.000000 0.000000
vn 0.000000 1.000000 0.000000
vn -0.166465 0.000000 0.986047
vn -0.166465 0.000000 0.986047
vn -0.166465 0.000000 0.986047
vn -0.166465 0.000000 0.986047
vn -0.000000 -1.000000 -0.000000
vn -0.000000 -1.000000 -0.000000
vn -0.000000 -1.000000 -0.000000
vn -0.000000 -1.000000 -0.000000
f 1/24/1 2/23/2 4/19/3 3/21/4
f 9/5/5 10/6/6 11/7/7 12/8/8
f 5/9/9 6/10/10 8/11/11 7/12/12
f 7/12/13 8/11/14 2/2/15 1/1/16
f 2/2/17 8/11/18 6/10/19 4/3/20
f 7/12/21 1/1/22 3/22/23 5/9/24
f 13/13/25 14/14/26 15/15/27 16/16/28
f 4/3/29 6/10/30 11/7/31 10/6/32
f 6/10/33 5/9/34 12/8/35 11/7/36
f 5/9/37 3/22/38 9/5/39 12/8/40
f 3/4/41 4/20/42 14/18/43 13/17/44
f 4/3/45 10/6/46 15/15/47 14/14/48
f 10/6/49 9/5/50 16/16/51 15/15/52
f 9/5/53 3/22/54 13/13/55 16/16/56
