# This file uses centimeters as units for non-parametric coordinates.

mtllib Coffee_Cup_Full.mtl
g default
v 37.058449 0.008899 0.945866
v 37.058449 0.008899 0.429577
v 36.793564 0.008899 0.945866
v 36.793564 0.008899 0.429577
v 36.528679 0.008899 0.945866
v 36.528679 0.008899 0.429577
v 36.528679 0.008899 0.687721
v 36.793564 0.008899 0.687721
v 37.058449 0.008899 0.687721
v 37.403114 0.008899 0.441658
v 37.260109 0.008899 0.233046
v 37.046051 0.008899 0.093681
v 36.793564 0.008899 0.044720
v 36.541073 0.008899 0.093681
v 36.327015 0.008899 0.233046
v 36.184013 0.008899 0.441658
v 36.133774 0.008899 0.687721
v 36.184013 0.008899 0.933785
v 36.327015 0.008899 1.142398
v 36.541073 0.008899 1.281762
v 36.793564 0.008899 1.330723
v 37.046051 0.008899 1.281762
v 37.260109 0.008899 1.142398
v 37.403114 0.008899 0.933785
v 37.453354 0.008899 0.687721
v 37.278221 0.048183 0.209288
v 37.426800 0.048183 0.428796
v 37.478977 0.048183 0.687721
v 37.055859 0.048183 0.062619
v 36.793564 0.048183 0.011112
v 36.531265 0.048183 0.062619
v 36.308899 0.048183 0.209288
v 36.160324 0.048183 0.428796
v 36.108147 0.048183 0.687721
v 36.160324 0.048183 0.946647
v 36.308899 0.048183 1.166155
v 36.531265 0.048183 1.312823
v 36.793564 0.048183 1.364330
v 37.055859 0.048183 1.312823
v 37.278221 0.048183 1.166155
v 37.426800 0.048183 0.946647
v 37.651348 2.457488 0.687721
v 37.586052 2.457488 0.359460
v 37.400108 2.457488 0.081174
v 37.121822 2.457488 -0.104771
v 36.793564 2.457488 -0.170066
v 36.465302 2.457488 -0.104771
v 36.187016 2.457488 0.081174
v 36.001068 2.457488 0.359460
v 35.935776 2.457488 0.687722
v 36.001068 2.457488 1.015983
v 36.187016 2.457488 1.294269
v 36.465302 2.457488 1.480213
v 36.793564 2.457488 1.545508
v 37.121822 2.457488 1.480213
v 37.400108 2.457488 1.294268
v 37.586052 2.457488 1.015982
v 37.696495 2.457488 0.687721
v 37.627762 2.457488 0.342183
v 37.432034 2.457488 0.049251
v 37.139099 2.457488 -0.146481
v 36.793564 2.457488 -0.215213
v 36.448025 2.457488 -0.146481
v 36.155090 2.457488 0.049251
v 35.959358 2.457488 0.342184
v 35.890629 2.457488 0.687722
v 35.959358 2.457488 1.033259
v 36.155090 2.457488 1.326192
v 36.448025 2.457488 1.521924
v 36.793564 2.457488 1.590655
v 37.139099 2.457488 1.521923
v 37.432034 2.457488 1.326191
v 37.627766 2.457488 1.033258
v 37.726162 2.416672 0.687721
v 37.655174 2.416672 0.330891
v 37.453011 2.416672 0.028385
v 37.150452 2.416672 -0.173743
v 36.793564 2.416672 -0.244720
v 36.436672 2.416672 -0.173742
v 36.134113 2.416672 0.028385
v 35.931953 2.416672 0.330892
v 35.860962 2.416672 0.687722
v 35.931953 2.416672 1.044551
v 36.134113 2.416672 1.347058
v 36.436672 2.416672 1.549185
v 36.793564 2.416672 1.620163
v 37.150452 2.416672 1.549185
v 37.453011 2.416672 1.347057
v 37.655174 2.416672 1.044550
v 37.720421 2.353083 0.687721
v 37.649868 2.353083 0.333177
v 37.448952 2.353083 0.032609
v 37.148254 2.353083 -0.168224
v 36.793564 2.353083 -0.238747
v 36.438869 2.353083 -0.168223
v 36.138172 2.353083 0.032609
v 35.937256 2.353083 0.333178
v 35.866703 2.353083 0.687722
v 35.937256 2.353083 1.042265
v 36.138172 2.353083 1.342834
v 36.438869 2.353083 1.543666
v 36.793564 2.353083 1.614190
v 37.148254 2.353083 1.543666
v 37.448952 2.353083 1.342833
v 37.649868 2.353083 1.042264
v 37.682755 2.305293 0.687721
v 37.615067 2.305293 0.347654
v 37.422318 2.305293 0.059361
v 37.133842 2.305293 -0.133272
v 36.793564 2.305293 -0.200916
v 36.453285 2.305293 -0.133272
v 36.164810 2.305293 0.059361
v 35.972054 2.305293 0.347655
v 35.904369 2.305293 0.687722
v 35.972054 2.305293 1.027788
v 36.164810 2.305293 1.316083
v 36.453285 2.305293 1.508715
v 36.793564 2.305293 1.576359
v 37.133842 2.305293 1.508714
v 37.422318 2.305293 1.316082
v 37.615070 2.305293 1.027787
v 37.544441 1.253367 0.687721
v 37.487282 1.253367 0.400373
v 37.324512 1.253367 0.156770
v 37.080910 1.253367 -0.005999
v 36.793564 1.253367 -0.063158
v 36.506214 1.253367 -0.005999
v 36.262611 1.253367 0.156770
v 36.099838 1.253367 0.400373
v 36.042686 1.253367 0.687721
v 36.099838 1.253367 0.975070
v 36.262611 1.253367 1.218673
v 36.506214 1.253367 1.381442
v 36.793564 1.253367 1.438601
v 37.080910 1.253367 1.381442
v 37.324512 1.253367 1.218672
v 37.487282 1.253367 0.975069
v 37.112049 1.719049 1.006213
v 37.112049 1.719049 0.369230
v 36.793564 1.719049 1.006213
v 36.793564 1.719049 0.369230
v 36.475067 1.719049 1.006213
v 36.475067 1.719049 0.369230
v 36.475067 1.719049 0.687721
v 36.793564 1.719049 0.687721
v 37.112049 1.719049 0.687721
v 37.526474 1.719049 0.384135
v 37.354530 1.719050 0.126755
v 37.097145 1.719049 -0.045189
v 36.793564 1.719049 -0.105597
v 36.489975 1.719049 -0.045189
v 36.232594 1.719049 0.126755
v 36.060650 1.719049 0.384135
v 36.000248 1.719049 0.687721
v 36.060650 1.719050 0.991308
v 36.232594 1.719050 1.248688
v 36.489975 1.719049 1.420632
v 36.793564 1.719049 1.481039
v 37.097145 1.719049 1.420632
v 37.354530 1.719050 1.248688
v 37.526474 1.719049 0.991308
v 37.586880 1.719049 0.687721
vt 0.703290 0.407664
vt 0.733465 0.473677
vt 0.680089 0.472918
vt 0.668672 0.429308
vt 0.718751 0.349257
vt 0.763462 0.369825
vt 0.718449 0.598802
vt 0.703027 0.539286
vt 0.668350 0.516287
vt 0.606944 0.503934
vt 0.614889 0.502541
vt 0.621053 0.533126
vt 0.613364 0.536086
vt 0.604593 0.471605
vt 0.612087 0.471739
vt 0.632514 0.563784
vt 0.624412 0.568046
vt 0.646777 0.594443
vt 0.639219 0.599841
vt 0.666243 0.625215
vt 0.658703 0.631367
vt 0.688179 0.655207
vt 0.681862 0.662542
vt 0.716283 0.684252
vt 0.710225 0.693304
vt 0.748317 0.710779
vt 0.741045 0.226335
vt 0.716282 0.265366
vt 0.710295 0.256329
vt 0.688918 0.292880
vt 0.682748 0.285445
vt 0.667220 0.321526
vt 0.659809 0.315179
vt 0.647827 0.351140
vt 0.640389 0.345523
vt 0.633443 0.380929
vt 0.625436 0.376417
vt 0.621737 0.410907
vt 0.614118 0.407691
vt 0.615232 0.441105
vt 0.607325 0.439439
vt 0.208850 0.533989
vt 0.206378 0.474894
vt 0.213446 0.474858
vt 0.215932 0.533792
vt 0.214481 0.592820
vt 0.221614 0.592461
vt 0.222994 0.651264
vt 0.230217 0.650745
vt 0.233946 0.709268
vt 0.241308 0.708600
vt 0.246689 0.766844
vt 0.254262 0.766038
vt 0.260319 0.824112
vt 0.268258 0.823215
vt 0.273228 0.881268
vt 0.281891 0.880418
vt 0.281584 0.938757
vt 0.291892 0.939310
vt 0.266145 0.062502
vt 0.275565 0.063465
vt 0.253092 0.121457
vt 0.261287 0.122337
vt 0.239928 0.180098
vt 0.247622 0.180838
vt 0.228050 0.238734
vt 0.235470 0.239329
vt 0.218298 0.297527
vt 0.225552 0.297967
vt 0.211230 0.356522
vt 0.218379 0.356799
vt 0.207190 0.415682
vt 0.214279 0.415800
vt 0.221507 0.474784
vt 0.224004 0.533508
vt 0.229732 0.591975
vt 0.238424 0.650065
vt 0.249663 0.707744
vt 0.262848 0.765022
vt 0.277242 0.822092
vt 0.291620 0.879311
vt 0.308383 0.003177
vt 0.286000 0.064649
vt 0.270561 0.123393
vt 0.256352 0.181723
vt 0.243899 0.240040
vt 0.233804 0.298495
vt 0.226522 0.357128
vt 0.222362 0.415928
vt 0.231815 0.474670
vt 0.234327 0.533107
vt 0.240118 0.591294
vt 0.248926 0.649119
vt 0.260348 0.706558
vt 0.273832 0.763653
vt 0.288706 0.820556
vt 0.303933 0.877645
vt 0.320982 0.005886
vt 0.299118 0.066356
vt 0.282386 0.124841
vt 0.267510 0.182935
vt 0.254686 0.241009
vt 0.244367 0.299199
vt 0.236939 0.357592
vt 0.232703 0.416114
vt 0.241531 0.474611
vt 0.244061 0.532766
vt 0.249919 0.590676
vt 0.258845 0.648231
vt 0.270444 0.705422
vt 0.284191 0.762288
vt 0.299514 0.819024
vt 0.315621 0.875925
vt 0.332862 0.009765
vt 0.311448 0.068215
vt 0.293542 0.126367
vt 0.278041 0.184218
vt 0.264866 0.242040
vt 0.254332 0.299970
vt 0.246764 0.358087
vt 0.242448 0.416330
vt 0.005297 0.542085
vt 0.002634 0.480540
vt 0.010323 0.603114
vt 0.017386 0.663239
vt 0.025943 0.722137
vt 0.035234 0.779568
vt 0.044280 0.835387
vt 0.051927 0.889571
vt 0.057113 0.942383
vt 0.028622 0.070865
vt 0.025654 0.124453
vt 0.020349 0.180233
vt 0.014308 0.237913
vt 0.008759 0.297172
vt 0.004600 0.357641
vt 0.002441 0.418909
vt 0.059153 0.994522
vt 0.282541 0.997559
vt 0.332007 0.933282
vt 0.742546 0.724952
vt 0.318170 0.936871
vt 0.303509 0.939060
vt 0.298425 0.002441
vt 0.289789 0.002551
vt 0.747297 0.240014
vt 0.763462 0.578840
vt 0.904008 0.126666
vt 0.914792 0.180867
vt 0.860591 0.191652
vt 0.849806 0.137451
vt 0.893222 0.072463
vt 0.839021 0.083248
vt 0.795604 0.148236
vt 0.784819 0.094034
vt 0.806389 0.202437
vt 0.773335 0.251913
vt 0.735358 0.213934
vt 0.822959 0.272460
vt 0.984815 0.164297
vt 0.964269 0.213922
vt 0.926290 0.251899
vt 0.876670 0.272460
vt 0.984815 0.110587
vt 0.714797 0.164315
vt 0.964254 0.060967
vt 0.714797 0.110604
vt 0.876653 0.002441
vt 0.926277 0.022988
vt 0.822942 0.002442
vt 0.735343 0.060980
vt 0.773322 0.023002
vn 0.000000 -1.000000 0.000000
vn 0.000000 -1.000000 0.000000
vn 0.000000 -1.000000 0.000000
vn 0.000000 -1.000000 0.000000
vn 0.000000 -1.000000 0.000000
vn 0.000000 -1.000000 0.000000
vn 0.000000 -1.000000 0.000000
vn 0.000000 -1.000000 0.000000
vn 0.000000 -1.000000 0.000000
vn 0.000000 -1.000000 0.000000
vn 0.000000 -1.000000 0.000000
vn 0.000000 -1.000000 0.000000
vn 0.000000 -1.000000 0.000000
vn 0.000000 -1.000000 0.000000
vn 0.000000 -1.000000 0.000000
vn 0.000000 -1.000000 0.000000
vn 0.678588 -0.675524 -0.288420
vn 0.678588 -0.675524 -0.288420
vn 0.516767 -0.672143 -0.530260
vn 0.516766 -0.672143 -0.530261
vn 0.678588 -0.675524 -0.288420
vn 0.678588 -0.675524 -0.288420
vn 0.736035 -0.676943 0.000001
vn 0.736035 -0.676943 0.000001
vn 0.516766 -0.672143 -0.530261
vn 0.516767 -0.672143 -0.530260
vn 0.278287 -0.668809 -0.689384
vn 0.278287 -0.668810 -0.689384
vn 0.278287 -0.668810 -0.689384
vn 0.278287 -0.668809 -0.689384
vn 0.000002 -0.667442 -0.744661
vn 0.000002 -0.667442 -0.744661
vn 0.000002 -0.667442 -0.744661
vn 0.000002 -0.667442 -0.744661
vn -0.278286 -0.668810 -0.689384
vn -0.278287 -0.668809 -0.689384
vn -0.278287 -0.668809 -0.689384
vn -0.278286 -0.668810 -0.689384
vn -0.516765 -0.672146 -0.530259
vn -0.516766 -0.672146 -0.530257
vn -0.516766 -0.672146 -0.530257
vn -0.516765 -0.672146 -0.530259
vn -0.678581 -0.675532 -0.288418
vn -0.678582 -0.675532 -0.288416
vn -0.678582 -0.675532 -0.288416
vn -0.678581 -0.675532 -0.288418
vn -0.736032 -0.676947 0.000000
vn -0.736032 -0.676947 0.000000
vn -0.736032 -0.676947 0.000000
vn -0.736032 -0.676947 0.000000
vn -0.678581 -0.675531 0.288418
vn -0.678582 -0.675531 0.288416
vn -0.678582 -0.675531 0.288416
vn -0.678581 -0.675531 0.288418
vn -0.516764 -0.672149 0.530255
vn -0.516762 -0.672150 0.530256
vn -0.516762 -0.672150 0.530256
vn -0.516764 -0.672149 0.530255
vn -0.278285 -0.668817 0.689377
vn -0.278283 -0.668817 0.689378
vn -0.278283 -0.668817 0.689378
vn -0.278285 -0.668817 0.689377
vn -0.000000 -0.667450 0.744654
vn -0.000000 -0.667450 0.744654
vn -0.000000 -0.667450 0.744654
vn -0.000000 -0.667450 0.744654
vn 0.278285 -0.668818 0.689376
vn 0.278283 -0.668818 0.689377
vn 0.278283 -0.668818 0.689377
vn 0.278285 -0.668818 0.689376
vn 0.516761 -0.672151 0.530255
vn 0.516761 -0.672151 0.530255
vn 0.516761 -0.672151 0.530255
vn 0.516761 -0.672151 0.530255
vn 0.678580 -0.675532 0.288419
vn 0.678582 -0.675532 0.288415
vn 0.678582 -0.675532 0.288415
vn 0.678580 -0.675532 0.288419
vn 0.736035 -0.676943 0.000001
vn 0.736035 -0.676943 0.000001
vn -0.000000 -1.000000 0.000000
vn -0.000000 -1.000000 0.000000
vn -0.000000 -1.000000 0.000000
vn -0.000000 -1.000000 0.000000
vn -0.000000 -1.000000 0.000000
vn -0.000000 -1.000000 0.000000
vn -0.000000 -1.000000 0.000000
vn -0.000000 -1.000000 0.000000
vn 0.000000 -1.000000 0.000000
vn 0.000000 -1.000000 0.000000
vn 0.000000 -1.000000 0.000000
vn 0.000000 -1.000000 0.000000
vn 0.000000 -1.000000 0.000000
vn 0.000000 -1.000000 0.000000
vn 0.000000 -1.000000 0.000000
vn 0.000000 -1.000000 0.000000
vn 0.000000 -1.000000 -0.000000
vn 0.000000 -1.000000 -0.000000
vn 0.000000 -1.000000 -0.000000
vn 0.000000 -1.000000 -0.000000
vn 0.000000 -1.000000 0.000000
vn 0.000000 -1.000000 0.000000
vn 0.000000 -1.000000 0.000000
vn 0.000000 -1.000000 0.000000
vn 0.000000 -1.000000 0.000000
vn 0.000000 -1.000000 0.000000
vn 0.000000 -1.000000 0.000000
vn 0.000000 -1.000000 0.000000
vn -0.000000 -1.000000 0.000000
vn -0.000000 -1.000000 0.000000
vn -0.000000 -1.000000 0.000000
vn -0.000000 -1.000000 0.000000
vn -0.000000 -1.000000 0.000000
vn -0.000000 -1.000000 0.000000
vn -0.000000 -1.000000 0.000000
vn -0.000000 -1.000000 0.000000
vn 0.000000 -1.000000 -0.000000
vn 0.000000 -1.000000 -0.000000
vn 0.000000 -1.000000 -0.000000
vn 0.000000 -1.000000 -0.000000
vn 0.000000 -1.000000 0.000000
vn 0.000000 -1.000000 0.000000
vn 0.000000 -1.000000 0.000000
vn 0.000000 -1.000000 0.000000
vn 0.000000 -1.000000 0.000000
vn 0.000000 -1.000000 0.000000
vn 0.000000 -1.000000 0.000000
vn 0.000000 -1.000000 0.000000
vn -0.915517 0.134238 0.379221
vn -0.990949 0.134239 0.000000
vn 0.531937 0.846784 -0.000001
vn 0.491519 0.846712 -0.203687
vn -0.700707 0.134241 0.700706
vn 0.376344 0.846524 -0.376514
vn -0.379221 0.134241 0.915516
vn 0.203757 0.846336 -0.492137
vn 0.000000 0.134239 0.990949
vn 0.000000 0.846254 -0.532779
vn 0.379220 0.134239 0.915517
vn -0.203761 0.846330 -0.492145
vn 0.700704 0.134239 0.700709
vn -0.376360 0.846509 -0.376532
vn 0.915518 0.134240 0.379218
vn -0.491540 0.846699 -0.203691
vn 0.990949 0.134239 -0.000000
vn -0.531934 0.846786 0.000001
vn 0.915518 0.134240 -0.379218
vn -0.491552 0.846690 0.203696
vn 0.700704 0.134238 -0.700710
vn -0.376366 0.846504 0.376536
vn 0.379220 0.134238 -0.915518
vn -0.203759 0.846331 0.492144
vn 0.000000 0.134239 -0.990949
vn 0.000000 0.846254 0.532779
vn -0.379222 0.134240 -0.915516
vn 0.203760 0.846334 0.492139
vn -0.700707 0.134242 -0.700706
vn 0.376343 0.846524 0.376515
vn -0.915517 0.134242 -0.379221
vn 0.491527 0.846707 0.203689
vn 0.977849 0.209311 -0.000001
vn 0.903459 0.208867 -0.374348
vn 0.691560 0.207745 -0.691799
vn 0.374315 0.206639 -0.903985
vn -0.000000 0.206184 -0.978513
vn -0.374313 0.206653 -0.903982
vn -0.691557 0.207767 -0.691796
vn -0.903454 0.208884 -0.374350
vn -0.977841 0.209348 0.000000
vn -0.903458 0.208866 0.374352
vn -0.691559 0.207759 0.691796
vn -0.374312 0.206658 0.903982
vn 0.000001 0.206187 0.978513
vn 0.374316 0.206643 0.903983
vn 0.691560 0.207743 0.691800
vn 0.903464 0.208837 0.374352
vn 0.937750 -0.347311 -0.000001
vn 0.866200 -0.347708 -0.358882
vn 0.662658 -0.348634 -0.662826
vn 0.358461 -0.349567 -0.865626
vn -0.000000 -0.349959 -0.936765
vn -0.358461 -0.349578 -0.865622
vn -0.662660 -0.348629 -0.662827
vn -0.866213 -0.347670 -0.358887
vn -0.937762 -0.347279 0.000000
vn -0.866212 -0.347672 0.358887
vn -0.662661 -0.348627 0.662827
vn -0.358461 -0.349573 0.865624
vn 0.000000 -0.349957 0.936766
vn 0.358462 -0.349569 0.865625
vn 0.662654 -0.348648 0.662822
vn 0.866199 -0.347709 0.358883
vn 0.994152 -0.107986 -0.000003
vn 0.917584 -0.108457 -0.382462
vn 0.700649 -0.109587 -0.705041
vn 0.378307 -0.110709 -0.919036
vn -0.000000 -0.111173 -0.993801
vn -0.378305 -0.110709 -0.919037
vn -0.700645 -0.109586 -0.705044
vn -0.917584 -0.108457 -0.382461
vn -0.994152 -0.107987 0.000000
vn -0.917584 -0.108457 0.382461
vn -0.700645 -0.109586 0.705044
vn -0.378304 -0.110710 0.919037
vn 0.000000 -0.111173 0.993801
vn 0.378308 -0.110709 0.919036
vn 0.700647 -0.109587 0.705042
vn 0.917584 -0.108456 0.382462
vn 0.995935 -0.090075 -0.000003
vn 0.919318 -0.090561 -0.382953
vn 0.702135 -0.091729 -0.706111
vn 0.379196 -0.092890 -0.920642
vn -0.000000 -0.093370 -0.995632
vn -0.379194 -0.092889 -0.920643
vn -0.702132 -0.091726 -0.706114
vn -0.919318 -0.090561 -0.382953
vn -0.995935 -0.090078 0.000000
vn -0.919318 -0.090562 0.382953
vn -0.702132 -0.091727 0.706113
vn -0.379194 -0.092889 0.920643
vn 0.000000 -0.093369 0.995632
vn 0.379197 -0.092889 0.920642
vn 0.702134 -0.091728 0.706112
vn 0.919318 -0.090561 0.382953
vn -0.920259 0.088435 0.381185
vn -0.996082 0.088435 0.000000
vn -0.704337 0.088437 0.704336
vn -0.381186 0.088437 0.920259
vn 0.000000 0.088438 0.996082
vn 0.381184 0.088439 0.920259
vn 0.704334 0.088440 0.704338
vn 0.920260 0.088438 0.381182
vn 0.996082 0.088437 0.000000
vn 0.920260 0.088439 -0.381182
vn 0.704333 0.088439 -0.704339
vn 0.381184 0.088438 -0.920260
vn -0.000000 0.088438 -0.996082
vn -0.381186 0.088437 -0.920259
vn -0.704337 0.088437 -0.704335
vn -0.920259 0.088436 -0.381185
vn 0.000000 1.000000 0.000000
vn 0.000000 1.000000 0.000000
vn 0.000000 1.000000 0.000000
vn 0.000000 1.000000 0.000000
vn -0.000001 1.000000 0.000000
vn -0.000001 1.000000 0.000000
vn -0.000001 1.000000 0.000000
vn -0.000001 1.000000 0.000000
vn -0.000001 1.000000 -0.000001
vn -0.000001 1.000000 -0.000001
vn -0.000001 1.000000 -0.000001
vn -0.000001 1.000000 -0.000001
vn 0.000000 1.000000 -0.000002
vn 0.000000 1.000000 -0.000002
vn 0.000000 1.000000 -0.000002
vn 0.000000 1.000000 -0.000002
vn -0.000002 1.000000 0.000002
vn -0.000002 1.000000 0.000002
vn -0.000002 1.000000 0.000002
vn -0.000002 1.000000 0.000002
vn -0.000001 1.000000 -0.000001
vn -0.000001 1.000000 -0.000001
vn -0.000001 1.000000 -0.000001
vn -0.000001 1.000000 -0.000001
vn 0.000001 1.000000 0.000000
vn 0.000001 1.000000 0.000000
vn 0.000001 1.000000 0.000000
vn 0.000001 1.000000 0.000000
vn 0.000000 1.000000 0.000001
vn 0.000000 1.000000 0.000001
vn 0.000000 1.000000 0.000001
vn 0.000000 1.000000 0.000001
vn 0.000000 1.000000 0.000000
vn 0.000000 1.000000 0.000000
vn 0.000000 1.000000 0.000000
vn 0.000000 1.000000 0.000000
vn -0.000001 1.000000 0.000001
vn -0.000001 1.000000 0.000001
vn -0.000001 1.000000 0.000001
vn -0.000001 1.000000 0.000001
vn 0.000000 1.000000 0.000000
vn 0.000000 1.000000 0.000000
vn 0.000000 1.000000 0.000000
vn 0.000000 1.000000 0.000000
vn 0.000003 1.000000 -0.000001
vn 0.000003 1.000000 -0.000001
vn 0.000003 1.000000 -0.000001
vn 0.000003 1.000000 -0.000001
vn 0.000001 1.000000 -0.000001
vn 0.000001 1.000000 -0.000001
vn 0.000001 1.000000 -0.000001
vn 0.000001 1.000000 -0.000001
vn 0.000000 1.000000 0.000000
vn 0.000000 1.000000 0.000000
vn 0.000000 1.000000 0.000000
vn 0.000000 1.000000 0.000000
vn 0.000000 1.000000 0.000000
vn 0.000000 1.000000 0.000000
vn 0.000000 1.000000 0.000000
vn 0.000000 1.000000 0.000000
vn 0.000001 1.000000 -0.000001
vn 0.000001 1.000000 -0.000001
vn 0.000001 1.000000 -0.000001
vn 0.000001 1.000000 -0.000001
g FCSET_Cup_001_0p311_0p084_0p714 Cup
usemtl lambert3SG
f 3/1/1 8/2/2 9/3/3 1/4/4
f 5/5/5 7/6/6 8/2/7 3/1/8
f 8/2/9 7/147/10 6/7/11 4/8/12
f 9/3/13 8/2/14 4/8/15 2/9/16
f 27/10/17 10/11/18 11/12/19 26/13/20
f 10/11/21 27/10/22 28/14/23 25/15/24
f 26/13/25 11/12/26 12/16/27 29/17/28
f 29/17/29 12/16/30 13/18/31 30/19/32
f 30/19/33 13/18/34 14/20/35 31/21/36
f 31/21/37 14/20/38 15/22/39 32/23/40
f 32/23/41 15/22/42 16/24/43 33/25/44
f 33/25/45 16/24/46 17/26/47 34/141/48
f 34/27/49 17/146/50 18/28/51 35/29/52
f 35/29/53 18/28/54 19/30/55 36/31/56
f 36/31/57 19/30/58 20/32/59 37/33/60
f 37/33/61 20/32/62 21/34/63 38/35/64
f 38/35/65 21/34/66 22/36/67 39/37/68
f 39/37/69 22/36/70 23/38/71 40/39/72
f 40/39/73 23/38/74 24/40/75 41/41/76
f 41/41/77 24/40/78 25/15/79 28/14/80
f 11/12/81 10/11/82 2/9/83 12/16/84
f 22/36/85 1/4/86 24/40/87 23/38/88
f 1/4/89 9/3/90 25/15/91 24/40/92
f 21/34/93 3/1/94 1/4/95 22/36/96
f 12/16/97 2/9/98 4/8/99 13/18/100
f 20/32/101 5/5/102 3/1/103 21/34/104
f 13/18/105 4/8/106 6/7/107 14/20/108
f 18/28/109 5/5/110 20/32/111 19/30/112
f 17/146/113 7/6/114 5/5/115 18/28/116
f 14/20/117 6/7/118 16/24/119 15/22/120
f 16/24/121 6/7/122 7/147/123 17/26/124
f 25/15/125 9/3/126 2/9/127 10/11/128
f 43/42/129 42/43/130 58/44/131 59/45/132
f 44/46/133 43/42/129 59/45/132 60/47/134
f 45/48/135 44/46/133 60/47/134 61/49/136
f 46/50/137 45/48/135 61/49/136 62/51/138
f 47/52/139 46/50/137 62/51/138 63/53/140
f 48/54/141 47/52/139 63/53/140 64/55/142
f 49/56/143 48/54/141 64/55/142 65/57/144
f 50/58/145 49/56/143 65/57/144 66/59/146
f 51/60/147 50/145/145 66/144/146 67/61/148
f 52/62/149 51/60/147 67/61/148 68/63/150
f 53/64/151 52/62/149 68/63/150 69/65/152
f 54/66/153 53/64/151 69/65/152 70/67/154
f 55/68/155 54/66/153 70/67/154 71/69/156
f 56/70/157 55/68/155 71/69/156 72/71/158
f 57/72/159 56/70/157 72/71/158 73/73/160
f 42/43/130 57/72/159 73/73/160 58/44/131
f 59/45/132 58/44/131 74/74/161 75/75/162
f 60/47/134 59/45/132 75/75/162 76/76/163
f 61/49/136 60/47/134 76/76/163 77/77/164
f 62/51/138 61/49/136 77/77/164 78/78/165
f 63/53/140 62/51/138 78/78/165 79/79/166
f 64/55/142 63/53/140 79/79/166 80/80/167
f 65/57/144 64/55/142 80/80/167 81/81/168
f 66/59/146 65/57/144 81/81/168 82/143/169
f 67/61/148 66/144/146 82/82/169 83/83/170
f 68/63/150 67/61/148 83/83/170 84/84/171
f 69/65/152 68/63/150 84/84/171 85/85/172
f 70/67/154 69/65/152 85/85/172 86/86/173
f 71/69/156 70/67/154 86/86/173 87/87/174
f 72/71/158 71/69/156 87/87/174 88/88/175
f 73/73/160 72/71/158 88/88/175 89/89/176
f 58/44/131 73/73/160 89/89/176 74/74/161
f 75/75/162 74/74/161 90/90/177 91/91/178
f 76/76/163 75/75/162 91/91/178 92/92/179
f 77/77/164 76/76/163 92/92/179 93/93/180
f 78/78/165 77/77/164 93/93/180 94/94/181
f 79/79/166 78/78/165 94/94/181 95/95/182
f 80/80/167 79/79/166 95/95/182 96/96/183
f 81/81/168 80/80/167 96/96/183 97/97/184
f 82/143/169 81/81/168 97/97/184 98/142/185
f 83/83/170 82/82/169 98/98/185 99/99/186
f 84/84/171 83/83/170 99/99/186 100/100/187
f 85/85/172 84/84/171 100/100/187 101/101/188
f 86/86/173 85/85/172 101/101/188 102/102/189
f 87/87/174 86/86/173 102/102/189 103/103/190
f 88/88/175 87/87/174 103/103/190 104/104/191
f 89/89/176 88/88/175 104/104/191 105/105/192
f 74/74/161 89/89/176 105/105/192 90/90/177
f 91/91/178 90/90/177 106/106/193 107/107/194
f 92/92/179 91/91/178 107/107/194 108/108/195
f 93/93/180 92/92/179 108/108/195 109/109/196
f 94/94/181 93/93/180 109/109/196 110/110/197
f 95/95/182 94/94/181 110/110/197 111/111/198
f 96/96/183 95/95/182 111/111/198 112/112/199
f 97/97/184 96/96/183 112/112/199 113/113/200
f 98/142/185 97/97/184 113/113/200 114/140/201
f 99/99/186 98/98/185 114/114/201 115/115/202
f 100/100/187 99/99/186 115/115/202 116/116/203
f 101/101/188 100/100/187 116/116/203 117/117/204
f 102/102/189 101/101/188 117/117/204 118/118/205
f 103/103/190 102/102/189 118/118/205 119/119/206
f 104/104/191 103/103/190 119/119/206 120/120/207
f 105/105/192 104/104/191 120/120/207 121/121/208
f 90/90/177 105/105/192 121/121/208 106/106/193
f 107/107/194 106/106/193 28/14/209 27/10/210
f 108/108/195 107/107/194 27/10/210 26/13/211
f 109/109/196 108/108/195 26/13/211 29/17/212
f 110/110/197 109/109/196 29/17/212 30/19/213
f 111/111/198 110/110/197 30/19/213 31/21/214
f 112/112/199 111/111/198 31/21/214 32/23/215
f 113/113/200 112/112/199 32/23/215 33/25/216
f 114/140/201 113/113/200 33/25/216 34/141/217
f 115/115/202 114/114/201 34/27/217 35/29/218
f 116/116/203 115/115/202 35/29/218 36/31/219
f 117/117/204 116/116/203 36/31/219 37/33/220
f 118/118/205 117/117/204 37/33/220 38/35/221
f 119/119/206 118/118/205 38/35/221 39/37/222
f 120/120/207 119/119/206 39/37/222 40/39/223
f 121/121/208 120/120/207 40/39/223 41/41/224
f 106/106/193 121/121/208 41/41/224 28/14/209
f 123/122/225 122/123/226 42/43/130 43/42/129
f 124/124/227 123/122/225 43/42/129 44/46/133
f 125/125/228 124/124/227 44/46/133 45/48/135
f 126/126/229 125/125/228 45/48/135 46/50/137
f 127/127/230 126/126/229 46/50/137 47/52/139
f 128/128/231 127/127/230 47/52/139 48/54/141
f 129/129/232 128/128/231 48/54/141 49/56/143
f 130/130/233 129/129/232 49/56/143 50/58/145
f 131/138/234 130/130/233 50/58/145 51/139/147
f 132/132/235 131/131/234 51/60/147 52/62/149
f 133/133/236 132/132/235 52/62/149 53/64/151
f 134/134/237 133/133/236 53/64/151 54/66/153
f 135/135/238 134/134/237 54/66/153 55/68/155
f 136/136/239 135/135/238 55/68/155 56/70/157
f 137/137/240 136/136/239 56/70/157 57/72/159
f 122/123/226 137/137/240 57/72/159 42/43/130
g FCSET_Coffee_001_0p623_0p949_0p11 Cup
f 140/148/241 138/149/242 146/150/243 145/151/244
f 142/152/245 140/148/246 145/151/247 144/153/248
f 145/151/249 141/154/250 143/155/251 144/153/252
f 146/150/253 139/156/254 141/154/255 145/151/256
f 148/157/257 149/158/258 139/156/259 147/159/260
f 159/160/261 160/161/262 161/162/263 138/149/264
f 138/149/265 161/162/266 162/163/267 146/150/268
f 158/164/269 159/160/270 138/149/271 140/148/272
f 149/158/273 150/165/274 141/154/275 139/156/276
f 157/166/277 158/164/278 140/148/279 142/152/280
f 150/165/281 151/167/282 143/155/283 141/154/284
f 155/168/285 156/169/286 157/166/287 142/152/288
f 154/170/289 155/168/290 142/152/291 144/153/292
f 151/167/293 152/171/294 153/172/295 143/155/296
f 153/172/297 154/170/298 144/153/299 143/155/300
f 162/163/301 147/159/302 139/156/303 146/150/304
