# This file uses centimeters as units for non-parametric coordinates.

v -39.070705 -0.103666 3.359300
v -39.071201 -0.079158 3.374843
v -39.094109 -0.081130 3.350693
v -38.566235 -0.081130 3.350693
v -38.589638 -0.078631 3.374590
v -38.589638 -0.103666 3.359300
v -39.094109 0.082954 3.256361
v -39.069973 0.087359 3.277760
v -39.069973 0.103638 3.248071
v -38.590366 0.103638 3.248098
v -38.590607 0.087198 3.277882
v -38.566235 0.082954 3.256361
v -39.094109 0.083747 2.315662
v -39.070629 0.106150 2.308786
v -39.070629 0.081539 2.291243
v -38.589710 0.081539 2.291243
v -38.589294 0.106151 2.308313
v -38.566235 0.083747 2.315662
v -39.094109 -0.085450 2.418518
v -39.069996 -0.089266 2.395528
v -39.069996 -0.106176 2.430104
v -38.590347 -0.106176 2.430104
v -38.590565 -0.089115 2.395466
v -38.566235 -0.085450 2.418518
vt 0.979552 0.002442
vt 0.141602 0.025699
vt 0.024042 0.748407
vt 0.151387 0.993822
vt 0.162702 0.022052
vt 0.651777 0.002692
vt 0.490314 0.026701
vt 0.159881 0.154114
vt 0.137591 0.165303
vt 0.625777 0.104548
vt 0.652743 0.635799
vt 0.617760 0.752678
vt 0.512076 0.168585
vt 0.489937 0.156840
vt 0.159268 0.175388
vt 0.159751 0.811031
vt 0.139649 0.806152
vt 0.490272 0.178262
vt 0.501254 0.809554
vt 0.481247 0.814284
vt 0.151520 0.830651
vt 0.151670 0.967495
vt 0.489021 0.834304
vt 0.622252 0.774756
vt 0.639437 0.747754
vt 0.485170 0.997559
vt 0.002441 0.743268
vt 0.979552 0.635550
vt 0.485375 0.971142
vt 0.019344 0.770328
vt 0.511556 0.030337
vt 0.493872 0.007300
vt 0.648098 0.099012
vt 0.024687 0.099970
vt 0.002441 0.094168
vt 0.160024 0.002441
vn -0.673824 -0.738888 0.002454
vn -0.673824 -0.738888 0.002454
vn -0.700158 -0.703072 -0.124373
vn -0.672744 -0.739875 -0.000934
vn 0.000511 -0.528369 0.849015
vn 0.000511 -0.528369 0.849015
vn 0.000511 -0.528369 0.849015
vn 0.000511 -0.528369 0.849015
vn -0.670909 0.373461 0.640631
vn -0.670909 0.373461 0.640631
vn -0.666871 0.391887 0.633804
vn -0.696705 0.707345 0.119441
vn 0.673824 -0.738888 0.002454
vn 0.673824 -0.738888 0.002454
vn 0.672722 -0.739895 -0.001015
vn 0.699767 -0.703411 -0.124655
vn 0.665910 0.375324 0.644745
vn 0.665910 0.375324 0.644745
vn 0.698786 0.704995 0.121160
vn 0.661925 0.393418 0.638027
vn -0.669851 0.742478 0.005130
vn -0.670710 0.741718 0.001538
vn -0.670710 0.741718 0.001538
vn 0.000073 0.876159 0.482022
vn 0.000073 0.876159 0.482022
vn 0.000073 0.876159 0.482022
vn 0.000073 0.876159 0.482022
vn 0.673061 0.739567 0.005392
vn 0.673967 0.738760 0.001683
vn 0.673967 0.738760 0.001683
vn -0.675431 -0.384623 -0.629173
vn -0.675431 -0.384622 -0.629173
vn -0.671057 -0.403430 -0.622034
vn -0.000403 0.575203 -0.818011
vn -0.000403 0.575203 -0.818011
vn -0.000403 0.575203 -0.818011
vn -0.000403 0.575203 -0.818011
vn 0.673473 -0.385902 -0.630487
vn 0.673473 -0.385902 -0.630487
vn 0.669006 -0.404560 -0.623507
vn 0.000113 -0.897704 -0.440599
vn 0.000113 -0.897704 -0.440599
vn 0.000113 -0.897704 -0.440599
vn 0.000113 -0.897704 -0.440599
vn -0.000074 0.503722 0.863866
vn -0.000074 0.503722 0.863866
vn -0.000074 0.503722 0.863866
vn -0.000074 0.503722 0.863866
vn -0.000000 0.999996 0.002674
vn -0.000000 0.999996 0.002674
vn -0.000000 0.999996 0.002674
vn -0.000000 0.999996 0.002674
vn 0.000027 -0.521158 -0.853460
vn 0.000027 -0.521158 -0.853460
vn 0.000027 -0.521158 -0.853460
vn 0.000027 -0.521158 -0.853460
vn 0.000000 -0.999996 0.002701
vn 0.000000 -0.999996 0.002701
vn 0.000000 -0.999996 0.002701
vn 0.000000 -0.999996 0.002701
vn 1.000000 0.000003 0.000000
vn 1.000000 0.000003 0.000000
vn 1.000000 0.000003 0.000000
vn 1.000000 0.000003 0.000000
vn -1.000000 0.000009 0.000000
vn -1.000000 0.000009 0.000000
vn -1.000000 0.000009 0.000000
vn -1.000000 0.000009 0.000000
vn -0.640906 -0.420442 0.642237
vn -0.640906 -0.420442 0.642237
vn -0.640906 -0.420442 0.642237
vn 0.632091 -0.404016 0.661235
vn 0.632091 -0.404016 0.661235
vn 0.632091 -0.404016 0.661235
vn -0.621047 0.454823 -0.638308
vn -0.621047 0.454823 -0.638308
vn -0.621047 0.454823 -0.638308
vn 0.628735 0.436020 -0.643878
vn 0.628735 0.436020 -0.643878
vn 0.628735 0.436020 -0.643878
f 1/35/1 3/34/2 19/3/3 21/27/4
f 2/5/5 1/36/6 6/32/7 5/7/8
f 3/2/9 2/5/10 8/8/11 7/9/12
f 4/10/13 6/33/14 22/25/15 24/12/16
f 5/7/17 4/31/18 12/13/19 11/14/20
f 7/9/12 9/15/21 14/16/22 13/17/23
f 9/15/24 8/8/25 11/14/26 10/18/27
f 10/18/28 12/13/19 18/19/29 17/20/30
f 13/17/31 15/21/32 20/30/33 19/3/3
f 15/21/34 14/16/35 17/20/36 16/23/37
f 16/23/38 18/19/39 24/12/16 23/24/40
f 21/4/41 20/22/42 23/29/43 22/26/44
f 2/5/45 5/7/46 11/14/47 8/8/48
f 9/15/49 10/18/50 17/20/51 14/16/52
f 15/21/53 16/23/54 23/29/55 20/22/56
f 21/28/57 22/11/58 6/6/59 1/1/60
f 4/10/61 24/12/62 18/19/63 12/13/64
f 19/3/65 3/34/66 7/9/67 13/17/68
f 1/36/69 2/5/70 3/2/71
f 4/31/72 5/7/73 6/32/74
f 7/9/12 8/8/11 9/15/21
f 10/18/28 11/14/20 12/13/19
f 13/17/75 14/16/76 15/21/77
f 16/23/78 17/20/79 18/19/80
f 19/3/3 20/30/33 21/27/4
f 22/25/15 23/24/40 24/12/16
