# This file uses centimeters as units for non-parametric coordinates.

mtllib mouse.mtl
g default
v -0.324136 0.471559 0.550509
v 0.324136 0.471559 0.550509
v -0.329082 0.817630 0.589194
v 0.329082 0.817630 0.589194
v -0.342743 0.751324 -0.664580
v 0.342743 0.751324 -0.664580
v -0.308548 0.488314 -0.621827
v 0.308548 0.488314 -0.621827
v 0.367571 0.463896 -0.144013
v 0.365082 0.460482 0.261724
v -0.367571 0.463896 -0.144013
v -0.365082 0.460482 0.261724
v 0.354436 0.664469 -0.693357
v 0.342468 0.594555 -0.684421
v -0.354436 0.664469 -0.693357
v -0.342468 0.594555 -0.684421
v 0.376371 1.010047 0.272546
v 0.381008 1.036727 -0.149954
v -0.376371 1.010047 0.272546
v -0.381008 1.036727 -0.149954
v 0.358802 0.610092 0.621541
v 0.359443 0.697699 0.630592
v -0.358802 0.610092 0.621541
v -0.359443 0.697699 0.630592
v -0.144176 0.478331 -0.706559
v 0.146392 0.478331 -0.706559
v -0.157364 0.820372 -0.708259
v 0.159751 0.820372 -0.708259
v -0.154424 0.858673 0.651738
v 0.156806 0.858673 0.651738
v -0.150485 0.452522 0.640942
v 0.152797 0.452522 0.640942
v -0.423546 0.653244 0.269284
v -0.428552 0.841273 0.273434
v -0.428154 0.657044 -0.147630
v -0.434673 0.856881 -0.150034
v 0.428154 0.657044 -0.147630
v 0.434673 0.856881 -0.150034
v 0.423546 0.653244 0.269284
v 0.428552 0.841273 0.273434
v 0.158064 0.437899 -0.149703
v 0.157633 0.434822 0.272787
v -0.155706 0.437899 -0.149703
v -0.155277 0.434822 0.272787
v 0.156523 0.728921 -0.789941
v 0.151400 0.619739 -0.808957
v -0.154165 0.728921 -0.789941
v -0.149116 0.619739 -0.808957
v 0.160705 1.075218 0.275699
v 0.161358 1.099563 -0.150974
v -0.158316 1.075218 0.275699
v -0.158968 1.099563 -0.150974
v 0.155635 0.621899 0.761864
v 0.156396 0.710201 0.748305
v -0.153301 0.621899 0.761864
v -0.154045 0.710201 0.748305
v 0.070463 0.478761 -0.720305
v 0.075082 0.437725 -0.150658
v 0.075005 0.434695 0.274766
v 0.073524 0.452285 0.652112
v 0.074286 0.624572 0.776123
v 0.074788 0.715196 0.759183
v 0.075810 0.867546 0.656865
v 0.076038 1.081774 0.276282
v 0.076051 1.102994 -0.151158
v 0.075965 0.829206 -0.714312
v 0.075073 0.739028 -0.802040
v 0.072687 0.623724 -0.825061
v -0.052995 0.478761 -0.720305
v -0.056469 0.437725 -0.150658
v -0.056412 0.434695 0.274766
v -0.055297 0.452285 0.652112
v -0.055871 0.624572 0.776123
v -0.056248 0.715196 0.759183
v -0.057017 0.867546 0.656865
v -0.057188 1.081774 0.276282
v -0.057198 1.102994 -0.151158
v -0.057133 0.829206 -0.714312
v -0.056463 0.739028 -0.802040
v -0.054668 0.623724 -0.825061
v -0.356601 0.467369 -0.311813
v -0.417910 0.638380 -0.330783
v -0.426449 0.802929 -0.336653
v -0.377739 0.975608 -0.332410
v -0.158636 1.045657 -0.342216
v -0.060662 1.039615 -0.343138
v 0.080375 1.039615 -0.343138
v 0.161026 1.045657 -0.342216
v 0.377739 0.975608 -0.332410
v 0.426449 0.802929 -0.336653
v 0.417910 0.638380 -0.330783
v 0.356601 0.467369 -0.311813
v 0.154599 0.444134 -0.339446
v 0.073711 0.443988 -0.343997
v -0.055438 0.443988 -0.343997
v -0.152283 0.444134 -0.339446
v -0.337568 0.472786 -0.508408
v -0.397636 0.606998 -0.552517
v -0.409371 0.707029 -0.563016
v -0.371693 0.835493 -0.551665
v -0.158072 0.918230 -0.576544
v -0.060662 0.908965 -0.590849
v 0.080375 0.908965 -0.590849
v 0.160461 0.918230 -0.576544
v 0.371694 0.835493 -0.551665
v 0.409371 0.707029 -0.563016
v 0.397636 0.606998 -0.552517
v 0.337568 0.472786 -0.508408
v 0.148748 0.454307 -0.571846
v 0.071382 0.454253 -0.582121
v -0.053686 0.454253 -0.582121
v -0.146504 0.454307 -0.571846
v -0.035843 0.990340 -0.592876
v 0.057086 0.990340 -0.592876
v -0.035843 1.074940 -0.432475
v 0.057086 1.074940 -0.432475
v 0.074467 1.041993 -0.519603
v 0.010622 1.097368 -0.411920
v 0.071055 1.063052 -0.390580
v -0.053224 1.041993 -0.519603
v -0.049720 1.063053 -0.390579
v 0.010622 0.984504 -0.626183
v 0.071012 0.953266 -0.598705
v -0.049686 0.953260 -0.598722
v -0.243546 0.452355 -0.537300
v -0.094582 0.454271 -0.583354
v 0.010131 0.454277 -0.582667
v 0.104501 0.454278 -0.583573
v 0.243265 0.452297 -0.537375
v 0.382128 0.534223 -0.524869
v 0.406965 0.658234 -0.563862
v 0.408042 0.770862 -0.555859
v 0.268696 0.887882 -0.565369
v 0.110431 0.917977 -0.581336
v 0.010714 0.896296 -0.620504
v -0.099949 0.917996 -0.581249
v -0.268990 0.887831 -0.565145
v -0.408042 0.770862 -0.555859
v -0.406965 0.658234 -0.563862
v -0.382128 0.534223 -0.524869
v -0.148965 0.449275 -0.457083
v -0.055136 0.449180 -0.464431
v 0.073038 0.449179 -0.464408
v 0.151270 0.449275 -0.457054
v 0.347223 0.470088 -0.411180
v 0.383724 0.596404 -0.625367
v 0.396255 0.673261 -0.637520
v 0.369990 0.777930 -0.624576
v 0.160258 0.865896 -0.653766
v 0.076098 0.864781 -0.657989
v -0.057275 0.864753 -0.658012
v -0.157867 0.865898 -0.653769
v -0.369990 0.777930 -0.624576
v -0.396255 0.673261 -0.637520
v -0.383724 0.596404 -0.625367
v -0.347223 0.470088 -0.411180
v -0.256196 0.442461 -0.322593
v -0.097332 0.443924 -0.343278
v 0.010479 0.443959 -0.343321
v 0.107515 0.443910 -0.343022
v 0.255982 0.442364 -0.322474
v 0.402570 0.543028 -0.318113
v 0.426376 0.721166 -0.336078
v 0.419537 0.894886 -0.333849
v 0.270884 1.025044 -0.336276
v 0.110706 1.043089 -0.343217
v 0.010723 1.055785 -0.317870
v -0.100204 1.043034 -0.343296
v -0.271052 1.024965 -0.336323
v -0.419537 0.894886 -0.333850
v -0.426376 0.721166 -0.336078
v -0.402570 0.543028 -0.318113
v -0.153924 0.440411 -0.257817
v -0.056799 0.440205 -0.260732
v 0.075290 0.440213 -0.260569
v 0.156285 0.440413 -0.257771
v 0.363746 0.465116 -0.242812
v 0.409527 0.622885 -0.443202
v 0.419884 0.754402 -0.451397
v 0.375328 0.908332 -0.443186
v 0.160462 0.984768 -0.460700
v 0.095122 0.979085 -0.470505
v -0.076346 0.979058 -0.470493
v -0.158067 0.984789 -0.460706
v -0.375328 0.908332 -0.443186
v -0.419884 0.754402 -0.451397
v -0.409526 0.622885 -0.443203
v -0.363746 0.465116 -0.242812
v -0.054231 0.544251 -0.782986
v -0.055686 0.686375 -0.826919
v -0.056922 0.786833 -0.763579
v -0.057673 1.076143 -0.261245
v -0.057471 1.113228 0.045166
v -0.057786 0.984557 0.493225
v -0.056720 0.779377 0.732300
v -0.056668 0.674107 0.779132
v -0.056049 0.533667 0.742543
v -0.055914 0.429837 0.486464
v -0.057001 0.436340 0.045121
v -0.053378 0.456308 -0.660631
v 0.010306 0.623882 -0.825480
v 0.010779 0.739340 -0.802900
v 0.010989 0.829255 -0.715003
v 0.010764 1.102577 -0.151445
v 0.010759 1.081932 0.276319
v 0.010728 0.867469 0.657120
v 0.010619 0.714837 0.759353
v 0.010518 0.624771 0.776299
v 0.010402 0.452189 0.652240
v 0.010765 0.434788 0.275746
v 0.010627 0.437721 -0.150982
v 0.009976 0.478571 -0.720303
v 0.071937 0.544317 -0.782890
v 0.074036 0.686374 -0.826917
v 0.075682 0.786832 -0.763578
v 0.076515 1.076111 -0.261091
v 0.076370 1.113195 0.045194
v 0.076716 0.984511 0.493101
v 0.075407 0.779378 0.732297
v 0.075147 0.674061 0.779007
v 0.074419 0.533688 0.742421
v 0.074345 0.429826 0.486482
v 0.075688 0.436339 0.045205
v 0.070902 0.456346 -0.660596
v 0.106493 0.624168 -0.826618
v 0.109785 0.740076 -0.803531
v 0.110802 0.831790 -0.715248
v 0.111264 1.104807 -0.151873
v 0.111334 1.082497 0.276392
v 0.111188 0.867925 0.657795
v 0.109235 0.714903 0.760581
v 0.108808 0.625075 0.777344
v 0.107831 0.452061 0.653062
v 0.109172 0.434779 0.276069
v 0.109919 0.437704 -0.151464
v 0.103258 0.478319 -0.721240
v -0.257429 0.612650 0.715869
v -0.257776 0.691350 0.713991
v -0.098877 0.715017 0.760421
v -0.098458 0.624988 0.777239
v -0.153808 0.772134 0.724165
v -0.153776 0.670263 0.765594
v -0.150812 0.532779 0.728363
v 0.257605 0.691271 0.714098
v 0.257261 0.612688 0.715971
v 0.156168 0.772134 0.724161
v 0.156115 0.670254 0.765567
v 0.153106 0.532785 0.728285
v -0.269922 1.054613 0.274099
v -0.272472 1.081094 -0.151470
v -0.100672 1.104764 -0.151712
v -0.100732 1.082409 0.276373
v -0.158421 1.082008 -0.259754
v -0.158667 1.107042 0.045406
v -0.155733 0.976353 0.490069
v 0.272309 1.081140 -0.151572
v 0.269777 1.054679 0.274114
v 0.160812 1.081977 -0.259731
v 0.161046 1.107016 0.045422
v 0.158102 0.976318 0.490013
v -0.256940 0.692468 -0.751587
v -0.247997 0.606721 -0.755260
v -0.096374 0.624110 -0.826443
v -0.099378 0.739956 -0.803330
v -0.145661 0.542849 -0.767553
v -0.151778 0.679138 -0.812083
v -0.156048 0.775322 -0.754757
v 0.247790 0.606765 -0.755372
v 0.256540 0.692409 -0.751758
v 0.147904 0.542859 -0.767489
v 0.154101 0.679137 -0.812080
v 0.158427 0.775321 -0.754756
v -0.263516 0.436689 -0.147815
v -0.262484 0.432650 0.267580
v -0.098858 0.434760 0.275811
v -0.099460 0.437706 -0.151284
v -0.152334 0.430273 0.480050
v -0.155687 0.436432 0.045446
v -0.144316 0.456545 -0.648365
v 0.262268 0.432525 0.267700
v 0.263348 0.436651 -0.147927
v 0.154644 0.430276 0.480043
v 0.158070 0.436432 0.045491
v 0.146535 0.456556 -0.648340
v 0.406720 0.630284 0.466687
v 0.410582 0.766343 0.477091
v 0.435769 0.864948 0.045935
v 0.429884 0.660577 0.045317
v 0.419444 0.933400 0.272911
v 0.430237 0.749772 0.272343
v 0.410555 0.545318 0.264596
v 0.432021 0.836994 -0.257829
v 0.424621 0.650242 -0.253559
v 0.425366 0.955837 -0.150234
v 0.435819 0.758493 -0.149248
v 0.413735 0.548120 -0.145688
v -0.424621 0.650242 -0.253559
v -0.432021 0.836994 -0.257829
v -0.435769 0.864948 0.045935
v -0.429884 0.660577 0.045317
v -0.425365 0.955837 -0.150234
v -0.435819 0.758493 -0.149248
v -0.413735 0.548120 -0.145688
v -0.410582 0.766343 0.477091
v -0.406720 0.630284 0.466687
v -0.419444 0.933400 0.272911
v -0.430237 0.749772 0.272343
v -0.410555 0.545318 0.264596
v 0.249764 0.451986 0.603439
v -0.097573 0.452113 0.652981
v 0.254151 0.825807 0.636831
v -0.100617 0.867952 0.657646
v 0.269772 0.779849 -0.689154
v -0.100316 0.831639 -0.715110
v 0.239793 0.475117 -0.658430
v -0.093446 0.478420 -0.721203
v -0.352774 0.749896 0.625538
v -0.362229 0.658221 0.632356
v 0.352774 0.749896 0.625538
v 0.362229 0.658221 0.632356
v -0.380140 1.016450 -0.255286
v -0.381735 1.044331 0.045931
v 0.380140 1.016450 -0.255286
v 0.381735 1.044331 0.045931
v -0.334668 0.530844 -0.647391
v -0.349294 0.632738 -0.696989
v 0.334668 0.530844 -0.647391
v 0.349294 0.632738 -0.696989
v -0.353154 0.456563 0.441025
v -0.369350 0.462218 0.045925
v 0.353154 0.456563 0.441025
v 0.369350 0.462218 0.045925
v 0.331178 0.473809 -0.573177
v -0.331178 0.473809 -0.573177
v 0.362540 0.705864 -0.680623
v -0.362540 0.705864 -0.680623
v 0.363655 0.901381 0.477967
v -0.363655 0.901381 0.477967
v 0.350525 0.527079 0.593477
v -0.350525 0.527079 0.593477
v -0.239929 0.475227 -0.658453
v -0.269752 0.779976 -0.688992
v -0.254296 0.825856 0.636735
v -0.249905 0.452040 0.603378
v 0.092250 1.008541 -0.495093
v 0.010676 1.081103 -0.356606
v -0.070954 1.008566 -0.495119
v 0.010676 0.935362 -0.632923
v -0.249893 0.446903 -0.430669
v -0.095031 0.449171 -0.465902
v 0.011490 0.449231 -0.465623
v 0.105003 0.449171 -0.466050
v 0.249587 0.446797 -0.430651
v 0.393385 0.538434 -0.422364
v 0.419171 0.689478 -0.451793
v 0.415386 0.834358 -0.445960
v 0.269799 0.960564 -0.451080
v 0.109643 0.982234 -0.463323
v 0.010622 1.054752 -0.529053
v -0.099167 0.982226 -0.463323
v -0.270061 0.960449 -0.451077
v -0.415386 0.834358 -0.445960
v -0.419171 0.689478 -0.451793
v -0.393385 0.538434 -0.422364
v -0.260896 0.438232 -0.250534
v -0.098087 0.440148 -0.261843
v 0.010759 0.440147 -0.261926
v 0.108413 0.440137 -0.262052
v 0.260630 0.438136 -0.250625
v 0.410149 0.545877 -0.246800
v 0.432649 0.744542 -0.256907
v 0.423666 0.934556 -0.256234
v 0.271836 1.063580 -0.257927
v 0.110548 1.083377 -0.261441
v 0.010880 1.074393 -0.262050
v -0.100023 1.083311 -0.261357
v -0.272041 1.063499 -0.257880
v -0.423666 0.934556 -0.256234
v -0.432649 0.744542 -0.256907
v -0.410149 0.545877 -0.246800
v 0.010237 0.543833 -0.783602
v 0.010527 0.686601 -0.827522
v 0.010906 0.787245 -0.764400
v 0.010841 0.862409 -0.658384
v 0.010803 1.113453 0.044978
v 0.010853 0.984751 0.493746
v 0.010678 0.779208 0.732642
v 0.010730 0.674457 0.780084
v 0.010528 0.533573 0.743104
v 0.010524 0.429647 0.486783
v 0.010764 0.436346 0.044235
v 0.010059 0.455969 -0.660945
v 0.104125 0.544245 -0.784969
v 0.108327 0.687092 -0.828472
v 0.110532 0.787939 -0.764841
v 0.110441 0.871796 -0.659680
v 0.111121 1.113917 0.044931
v 0.111048 0.985364 0.493728
v 0.110283 0.779563 0.733586
v 0.108775 0.674612 0.780725
v 0.107793 0.533738 0.743951
v 0.108574 0.429481 0.487540
v 0.109586 0.436331 0.043888
v 0.103204 0.455989 -0.662028
v -0.259177 0.656345 0.724637
v -0.254613 0.745171 0.699209
v -0.098427 0.674549 0.780542
v -0.097517 0.533754 0.743810
v -0.099802 0.779617 0.733395
v 0.258953 0.656329 0.724790
v 0.252513 0.527850 0.683850
v 0.254459 0.745108 0.699318
v -0.272798 1.088676 0.045219
v -0.270382 0.829616 -0.639843
v -0.100527 1.113828 0.044996
v -0.100457 0.985306 0.493614
v -0.099972 0.871764 -0.659531
v 0.272622 1.088748 0.045182
v 0.262028 0.948947 0.486487
v 0.270291 0.829573 -0.640204
v -0.252602 0.654301 -0.764371
v -0.244020 0.535057 -0.715412
v -0.098043 0.687008 -0.828272
v -0.100061 0.787803 -0.764664
v -0.094212 0.544292 -0.784813
v 0.252286 0.654321 -0.764539
v 0.264110 0.734534 -0.727034
v 0.243759 0.534896 -0.715570
v -0.264822 0.433917 0.044378
v -0.255288 0.429838 0.458698
v -0.099162 0.436331 0.044122
v -0.093394 0.456072 -0.661895
v -0.098252 0.429569 0.487369
v 0.264568 0.433814 0.044272
v 0.240099 0.454422 -0.605836
v 0.255128 0.429755 0.458789
v 0.412389 0.702140 0.475128
v 0.402870 0.837190 0.476566
v 0.437225 0.764725 0.045675
v 0.416039 0.548266 0.045306
v 0.426250 0.963955 0.046058
v 0.392216 0.636928 -0.638446
v 0.371480 0.530874 -0.591935
v 0.400383 0.723325 -0.628923
v -0.392216 0.636928 -0.638446
v -0.400383 0.723325 -0.628923
v -0.437225 0.764725 0.045675
v -0.416039 0.548266 0.045306
v -0.426250 0.963955 0.046058
v -0.412389 0.702140 0.475128
v -0.395480 0.535539 0.450305
v -0.402870 0.837190 0.476566
v -0.371480 0.530874 -0.591935
v 0.395480 0.535539 0.450305
v -0.240294 0.454535 -0.605814
v -0.264250 0.734683 -0.726747
v -0.262309 0.948909 0.486311
v -0.252711 0.527884 0.683726
vt 0.752766 0.472349
vt 0.748620 0.522088
vt 0.713766 0.526810
vt 0.730083 0.471398
vt 0.637022 0.452705
vt 0.625666 0.481209
vt 0.582973 0.439998
vt 0.612469 0.414553
vt 0.319325 0.149885
vt 0.294826 0.170205
vt 0.279244 0.157811
vt 0.317147 0.133463
vt 0.306454 0.057319
vt 0.258604 0.061997
vt 0.280973 0.035807
vt 0.339725 0.047525
vt 0.519233 0.744097
vt 0.467770 0.765358
vt 0.449342 0.738744
vt 0.514898 0.721778
vt 0.343710 0.071010
vt 0.308619 0.076338
vt 0.561907 0.363517
vt 0.588298 0.347913
vt 0.635984 0.405240
vt 0.704418 0.468062
vt 0.704698 0.401433
vt 0.736797 0.403952
vt 0.677432 0.462829
vt 0.659406 0.402355
vt 0.680710 0.401531
vt 0.689560 0.465856
vt 0.468383 0.271829
vt 0.489668 0.245724
vt 0.537367 0.291069
vt 0.512295 0.313353
vt 0.679874 0.315028
vt 0.624237 0.224701
vt 0.659115 0.201997
vt 0.717624 0.307770
vt 0.617649 0.334986
vt 0.565117 0.268169
vt 0.593631 0.246348
vt 0.647464 0.324217
vt 0.308329 0.122367
vt 0.337825 0.119012
vt 0.343093 0.133963
vt 0.302229 0.100616
vt 0.335918 0.094475
vt 0.334903 0.108033
vt 0.303364 0.113340
vt 0.163710 0.406262
vt 0.140854 0.416709
vt 0.122922 0.391333
vt 0.141786 0.384835
vt 0.083692 0.356220
vt 0.082806 0.390424
vt 0.060810 0.401787
vt 0.060669 0.366344
vt 0.106136 0.358824
vt 0.107347 0.388466
vt 0.096051 0.387299
vt 0.096449 0.355341
vt 0.383107 0.571967
vt 0.371680 0.600448
vt 0.307843 0.558843
vt 0.326053 0.530628
vt 0.182958 0.597002
vt 0.255430 0.654933
vt 0.238278 0.692891
vt 0.156247 0.625444
vt 0.231400 0.544858
vt 0.289426 0.589803
vt 0.272185 0.621350
vt 0.207485 0.570505
vt 0.498570 0.670997
vt 0.436146 0.662416
vt 0.435476 0.638815
vt 0.493053 0.655275
vt 0.507770 0.696888
vt 0.442035 0.707361
vt 0.438531 0.683612
vt 0.503371 0.682527
vt 0.618020 0.704193
vt 0.836435 0.005905
vt 0.524316 0.787431
vt 0.567771 0.732360
vt 0.036258 0.441988
vt 0.805312 0.394276
vt 0.016260 0.345515
vt 0.036983 0.401536
vt 0.354386 0.769892
vt 0.365599 0.812049
vt 0.207026 0.766959
vt 0.225214 0.726218
vt 0.728026 0.577242
vt 0.953508 0.005097
vt 0.767793 0.616233
vt 0.713574 0.603583
vt 0.136401 0.132090
vt 0.918762 0.440528
vt 0.150041 0.091904
vt 0.158514 0.115621
vt 0.918603 0.245897
vt 0.918291 0.171231
vt 0.934372 0.171501
vt 0.935000 0.246022
vt 0.753016 0.305226
vt 0.996076 0.085843
vt 0.796273 0.470707
vt 0.765873 0.418189
vt 0.602193 0.101530
vt 0.997559 0.244259
vt 0.727503 0.159999
vt 0.690057 0.184038
vt 0.059361 0.245973
vt 0.091397 0.248200
vt 0.068077 0.304182
vt 0.038673 0.319238
vt 0.124018 0.313260
vt 0.136660 0.324425
vt 0.118453 0.365790
vt 0.096708 0.302040
vt 0.112541 0.305848
vt 0.188028 0.094275
vt 0.195564 0.125499
vt 0.172851 0.144203
vt 0.236013 0.234638
vt 0.219902 0.221402
vt 0.231659 0.208932
vt 0.247926 0.222078
vt 0.204592 0.208352
vt 0.190161 0.195365
vt 0.202986 0.183532
vt 0.216744 0.196177
vt 0.250793 0.121766
vt 0.248478 0.093249
vt 0.266265 0.146972
vt 0.257105 0.136779
vt 0.180420 0.302344
vt 0.196628 0.317760
vt 0.168712 0.352586
vt 0.151283 0.337949
vt 0.405579 0.537610
vt 0.461937 0.581046
vt 0.441138 0.614144
vt 0.278381 0.493653
vt 0.305294 0.459512
vt 0.351181 0.495548
vt 0.263551 0.204961
vt 0.281345 0.218661
vt 0.264942 0.234962
vt 0.577975 0.532518
vt 0.532504 0.492585
vt 0.542223 0.481291
vt 0.587596 0.521102
vt 0.479171 0.446643
vt 0.427627 0.401596
vt 0.438039 0.389859
vt 0.489339 0.434992
vt 0.364178 0.172022
vt 0.335616 0.204507
vt 0.312085 0.185187
vt 0.339615 0.153607
vt 0.531435 0.390897
vt 0.481556 0.343482
vt 0.530078 0.588360
vt 0.556315 0.610685
vt 0.532583 0.637906
vt 0.509026 0.617011
vt 0.556235 0.672181
vt 0.567284 0.697144
vt 0.542678 0.651620
vt 0.549936 0.660166
vt 0.600047 0.506990
vt 0.626133 0.529598
vt 0.614280 0.544390
vt 0.702362 0.624118
vt 0.669935 0.605108
vt 0.679118 0.589818
vt 0.645362 0.588542
vt 0.632920 0.578823
vt 0.641460 0.566673
vt 0.653961 0.575046
vt 0.664993 0.509282
vt 0.649906 0.501357
vt 0.661049 0.459726
vt 0.687414 0.519635
vt 0.674575 0.515159
vt 0.841447 0.407193
vt 0.858353 0.411546
vt 0.048716 0.215053
vt 0.033218 0.253223
vt 0.835843 0.084970
vt 0.854315 0.083591
vt 0.854765 0.172138
vt 0.836271 0.171654
vt 0.653949 0.677742
vt 0.867043 0.003235
vt 0.655846 0.741451
vt 0.638482 0.688605
vt 0.589634 0.645872
vt 0.603171 0.633265
vt 0.620966 0.656105
vt 0.605732 0.669786
vt 0.570675 0.625064
vt 0.583264 0.613055
vt 0.593244 0.622142
vt 0.580485 0.634204
vt 0.548357 0.566844
vt 0.575450 0.589965
vt 0.567352 0.598740
vt 0.540388 0.575992
vt 0.429375 0.506109
vt 0.440355 0.492178
vt 0.494173 0.537309
vt 0.483595 0.550363
vt 0.331557 0.426801
vt 0.343192 0.411891
vt 0.387895 0.448432
vt 0.376534 0.462908
vt 0.201493 0.275458
vt 0.216603 0.289644
vt 0.208311 0.301393
vt 0.193044 0.286643
vt 0.150707 0.276054
vt 0.162706 0.260050
vt 0.177573 0.272684
vt 0.165077 0.288348
vt 0.119338 0.256258
vt 0.131177 0.238164
vt 0.148139 0.248622
vt 0.136590 0.265171
vt 0.083130 0.197906
vt 0.112196 0.210799
vt 0.104435 0.226303
vt 0.073651 0.218053
vt 0.060447 0.189870
vt 0.086766 0.148367
vt 0.107085 0.163969
vt 0.868433 0.246242
vt 0.867689 0.171547
vt 0.892450 0.171747
vt 0.893015 0.246196
vt 0.750749 0.647251
vt 0.719383 0.691419
vt 0.678716 0.652469
vt 0.632285 0.647360
vt 0.652628 0.628374
vt 0.613159 0.624986
vt 0.601997 0.614020
vt 0.617760 0.597397
vt 0.629434 0.607605
vt 0.605066 0.555887
vt 0.590361 0.573613
vt 0.563094 0.550204
vt 0.501940 0.528158
vt 0.516949 0.510764
vt 0.448423 0.482575
vt 0.395976 0.438676
vt 0.411261 0.420322
vt 0.463383 0.464876
vt 0.252417 0.247372
vt 0.233299 0.268254
vt 0.217821 0.255073
vt 0.185982 0.261660
vt 0.201963 0.241487
vt 0.170777 0.248707
vt 0.155719 0.236746
vt 0.171477 0.215599
vt 0.186483 0.228295
vt 0.155772 0.157466
vt 0.131357 0.183014
vt 0.478149 0.117110
vt 0.494220 0.086088
vt 0.531151 0.102227
vt 0.511949 0.134656
vt 0.455198 0.170643
vt 0.466286 0.144095
vt 0.495360 0.163711
vt 0.479153 0.192030
vt 0.426515 0.228830
vt 0.442359 0.200409
vt 0.462079 0.221946
vt 0.444082 0.249450
vt 0.438903 0.303598
vt 0.415493 0.281572
vt 0.343798 0.319770
vt 0.353720 0.308780
vt 0.371367 0.328976
vt 0.359854 0.340846
vt 0.301952 0.368795
vt 0.329947 0.350799
vt 0.342207 0.361327
vt 0.325562 0.381115
vt 0.283550 0.392623
vt 0.294947 0.377770
vt 0.317595 0.391900
vt 0.306060 0.407113
vt 0.229468 0.459069
vt 0.257790 0.425525
vt 0.279996 0.439837
vt 0.252563 0.473160
vt 0.255823 0.518734
vt 0.228117 0.495206
vt 0.126956 0.527288
vt 0.151808 0.511410
vt 0.175632 0.537075
vt 0.149447 0.557938
vt 0.069991 0.563239
vt 0.098752 0.547937
vt 0.120321 0.581894
vt 0.092219 0.601806
vt 0.130412 0.652119
vt 0.097627 0.678041
vt 0.052164 0.615129
vt 0.836783 0.246096
vt 0.855149 0.246640
vt 0.856014 0.288821
vt 0.837744 0.287318
vt 0.918717 0.319675
vt 0.893577 0.319590
vt 0.893256 0.288516
vt 0.919017 0.287884
vt 0.955638 0.317690
vt 0.934692 0.319290
vt 0.934767 0.288199
vt 0.956052 0.286521
vt 0.504933 0.055331
vt 0.995223 0.310974
vt 0.553620 0.029945
vt 0.546528 0.071424
vt 0.371895 0.093256
vt 0.380260 0.067445
vt 0.437271 0.071205
vt 0.425305 0.099523
vt 0.370157 0.126637
vt 0.369246 0.110560
vt 0.418836 0.122494
vt 0.414683 0.144682
vt 0.370960 0.147804
vt 0.409076 0.171728
vt 0.397714 0.198978
vt 0.397753 0.261873
vt 0.369224 0.232030
vt 0.274637 0.258530
vt 0.288870 0.250239
vt 0.325980 0.275293
vt 0.319214 0.278947
vt 0.256438 0.308749
vt 0.261379 0.291947
vt 0.285029 0.312115
vt 0.271961 0.328706
vt 0.216796 0.339223
vt 0.226855 0.322838
vt 0.257294 0.355967
vt 0.247985 0.370084
vt 0.191381 0.372880
vt 0.223738 0.402081
vt 0.195473 0.435288
vt 0.203796 0.479099
vt 0.170324 0.450679
vt 0.087126 0.426117
vt 0.103815 0.420806
vt 0.123204 0.467913
vt 0.101504 0.477855
vt 0.062903 0.438392
vt 0.075352 0.494046
vt 0.047520 0.503291
vt 0.027425 0.566396
vt 0.004696 0.488041
vt 0.838604 0.318496
vt 0.856570 0.319730
vt 0.857852 0.366685
vt 0.840184 0.363381
vt 0.918674 0.410576
vt 0.894339 0.410952
vt 0.893512 0.366277
vt 0.918917 0.365648
vt 0.954044 0.406417
vt 0.934273 0.410939
vt 0.934135 0.366103
vt 0.954681 0.362604
vt 0.379670 0.040577
vt 0.336990 0.013092
vt 0.420443 0.002441
vt 0.442119 0.042294
vt 0.230738 0.310259
vt 0.244485 0.277785
vt 0.251707 0.283835
vt 0.244459 0.308792
vt 0.309907 0.286346
vt 0.275184 0.272473
vt 0.320096 0.342114
vt 0.327765 0.318411
vt 0.258186 0.350799
vt 0.263946 0.340499
vt 0.297760 0.353248
vt 0.294558 0.340629
vt 0.308877 0.331935
vt 0.315260 0.316222
vt 0.299087 0.296610
vt 0.277139 0.284306
vt 0.870038 0.365976
vt 0.869464 0.320014
vt 0.870979 0.410904
vt 0.144480 0.460382
vt 0.176344 0.496366
vt 0.119834 0.419203
vt 0.340485 0.261794
vt 0.368615 0.293020
vt 0.305556 0.235553
vt 0.956446 0.245273
vt 0.868642 0.288169
vt 0.201150 0.516696
vt 0.351602 0.401621
vt 0.367291 0.382714
vt 0.384137 0.363471
vt 0.395077 0.351291
vt 0.386600 0.312985
vt 0.410025 0.335215
vt 0.511704 0.217621
vt 0.533359 0.190092
vt 0.555770 0.161830
vt 0.579779 0.131116
vt 0.155024 0.201968
vt 0.138579 0.224989
vt 0.175301 0.180516
vt 0.606837 0.587854
vt 0.591617 0.604289
vt 0.621709 0.569858
vt 0.891843 0.083456
vt 0.867347 0.083998
vt 0.917463 0.083653
vt 0.653071 0.550028
vt 0.642535 0.541687
vt 0.665994 0.557384
vt 0.630882 0.558060
vt 0.692086 0.569890
vt 0.482514 0.632596
vt 0.452556 0.374186
vt 0.503341 0.419857
vt 0.555379 0.466759
vt 0.135010 0.365371
vt 0.219797 0.167415
vt 0.208180 0.151780
vt 0.232809 0.179675
vt 0.189613 0.168462
vt 0.247264 0.191960
vt 0.041528 0.367215
vt 0.955925 0.170847
vt 0.955170 0.084149
vt 0.933647 0.083143
vt 0.953411 0.435616
vt 0.357202 0.662587
vt 0.363341 0.631451
vt 0.353016 0.696050
vt 0.351546 0.734501
vt 0.989902 0.419121
vt 0.190564 0.067524
vt 0.990960 0.392971
vt 0.798168 0.014271
vt 0.795943 0.087173
vt 0.620517 0.762353
vt 0.806697 0.420389
vt 0.842490 0.436370
vt 0.002441 0.404078
vt 0.795647 0.172387
vt 0.796624 0.245684
vt 0.932863 0.002442
vt 0.916719 0.002900
vt 0.785832 0.571969
vt 0.934026 0.440903
vt 0.122848 0.112376
vt 0.992828 0.012967
vt 0.796273 0.309843
vt 0.997559 0.170958
vt 0.622860 0.065297
vt 0.859054 0.441470
vt 0.871369 0.440841
vt 0.853986 0.002918
vt 0.679594 0.725240
vt 0.894572 0.440811
vt 0.891381 0.002951
vt 0.797923 0.284842
vt 0.799894 0.312272
vt 0.996835 0.283439
vt 0.501434 0.012859
vt 0.802617 0.353541
vt 0.993103 0.352238
vn -0.571559 -0.751206 0.330168
vn -0.252260 -0.891785 0.375611
vn -0.456109 -0.516374 0.724791
vn -0.794595 -0.393841 0.462069
vn -0.533463 0.586341 0.609607
vn -0.360860 0.666413 0.652437
vn -0.313250 0.805842 0.502488
vn -0.591142 0.663526 0.458568
vn -0.493995 0.533149 -0.686820
vn -0.395995 0.618891 -0.678353
vn -0.441732 0.482521 -0.756337
vn -0.612742 0.297716 -0.732060
vn -0.467206 -0.719920 -0.513258
vn -0.311757 -0.778050 -0.545386
vn -0.145275 -0.974413 -0.171504
vn -0.504554 -0.843405 -0.184644
vn 0.571497 -0.751195 0.330299
vn 0.595098 -0.798742 0.088710
vn 0.942357 -0.302142 0.143781
vn 0.794402 -0.393892 0.462357
vn -0.840325 -0.462114 -0.283380
vn -0.586173 -0.525933 -0.616275
vn -0.593146 0.760885 0.263120
vn -0.936976 0.316334 0.148356
vn -0.909249 0.287919 0.300615
vn -0.850259 -0.208310 0.483392
vn -0.980381 -0.122612 0.154336
vn -0.942357 -0.302142 0.143781
vn -0.839733 0.119995 0.529574
vn -0.977437 0.068275 0.199888
vn -0.986225 -0.035673 0.161518
vn -0.873159 -0.054930 0.484331
vn -0.626180 0.776276 -0.072765
vn -0.955483 0.292703 -0.037094
vn -0.951476 0.306263 0.029935
vn -0.614019 0.787415 0.054389
vn -0.994050 -0.098990 0.045450
vn -0.995143 -0.097974 0.009610
vn -0.957006 -0.290011 0.005785
vn -0.957191 -0.286879 0.038537
vn -0.995481 0.062766 0.071267
vn -0.998156 0.058470 0.016324
vn -0.999559 -0.026912 0.012553
vn -0.998260 -0.025795 0.053027
vn -0.640640 0.123848 -0.757788
vn -0.931096 -0.030683 -0.363480
vn -0.891575 0.215414 -0.398360
vn -0.610592 -0.393575 -0.687223
vn -0.888894 -0.312856 -0.334648
vn -0.917938 -0.192663 -0.346800
vn -0.647050 -0.156041 -0.746309
vn 0.598175 0.648461 -0.470834
vn 0.934555 0.259726 -0.243204
vn 0.891574 0.215415 -0.398361
vn 0.590451 0.594074 -0.546300
vn 0.610456 -0.393348 -0.687474
vn 0.888893 -0.312856 -0.334648
vn 0.840325 -0.462115 -0.283380
vn 0.586153 -0.525768 -0.616436
vn 0.640338 0.123500 -0.758100
vn 0.931096 -0.030683 -0.363481
vn 0.917938 -0.192663 -0.346799
vn 0.646805 -0.155701 -0.746592
vn 0.592901 0.761043 0.263216
vn 0.936976 0.316334 0.148356
vn 0.951476 0.306263 0.029935
vn 0.613789 0.787595 0.054382
vn 0.994566 -0.103167 -0.013948
vn 0.995143 -0.097974 0.009610
vn 0.957006 -0.290012 0.005785
vn 0.955053 -0.295956 -0.016837
vn 0.998393 0.054062 -0.016965
vn 0.998156 0.058470 0.016324
vn 0.999559 -0.026912 0.012553
vn 0.999420 -0.031324 -0.013360
vn 0.839578 0.120043 0.529810
vn 0.977437 0.068275 0.199888
vn 0.909249 0.287919 0.300614
vn 0.751291 0.309036 0.583145
vn 0.850068 -0.208390 0.483691
vn 0.980381 -0.122612 0.154336
vn 0.986225 -0.035673 0.161517
vn 0.873047 -0.054934 0.484532
vn 0.138555 -0.906008 0.399939
vn 0.013432 -0.998508 0.052933
vn 0.131174 -0.989817 0.055287
vn 0.255428 -0.890957 0.375435
vn 0.514744 -0.854428 -0.070645
vn 0.101278 -0.993818 -0.045483
vn 0.146905 -0.974207 -0.171288
vn 0.504389 -0.843559 -0.184388
vn 0.606822 -0.794723 0.013515
vn 0.121127 -0.992607 -0.007723
vn 0.121562 -0.992549 -0.008279
vn 0.603853 -0.797090 -0.003017
vn -0.128669 -0.907996 0.398733
vn -0.012729 -0.998535 0.052599
vn -0.008458 -0.998763 0.049003
vn -0.049714 -0.919878 0.389040
vn 0.005130 -0.811989 -0.583650
vn 0.001360 -0.985024 -0.172413
vn -0.027151 -0.982460 -0.184488
vn -0.087627 -0.802163 -0.590640
vn 0.000124 -0.999922 -0.012492
vn 0.000177 -0.999975 -0.007001
vn -0.001210 -0.999974 -0.007055
vn -0.001763 -0.999917 -0.012754
vn -0.607057 -0.794543 0.013537
vn -0.119776 -0.992770 -0.007787
vn -0.129590 -0.990037 0.055071
vn -0.595216 -0.798654 0.088710
vn -0.597116 -0.801949 -0.018161
vn -0.119117 -0.992767 -0.015022
vn -0.120258 -0.992709 -0.008188
vn -0.604159 -0.796858 -0.002966
vn 0.247206 -0.776011 -0.580256
vn 0.334560 -0.556640 -0.760409
vn 0.416297 -0.553046 -0.721690
vn 0.315275 -0.777510 -0.544132
vn 0.485971 0.306955 -0.818298
vn 0.446439 0.479214 -0.755676
vn 0.612749 0.297155 -0.732283
vn 0.461899 -0.363160 -0.809175
vn 0.500987 -0.007277 -0.865424
vn -0.231089 -0.779749 -0.581884
vn -0.313655 -0.560473 -0.766480
vn -0.121200 -0.577461 -0.807372
vn 0.029562 0.802882 -0.595404
vn 0.008649 0.697069 -0.716952
vn -0.134770 0.682562 -0.718294
vn -0.091214 0.774068 -0.626497
vn 0.006409 0.533157 -0.845992
vn 0.007639 0.196022 -0.980570
vn -0.159668 0.195105 -0.967699
vn -0.153132 0.524317 -0.837641
vn -0.457323 -0.363370 -0.811676
vn -0.412145 -0.553908 -0.723410
vn -0.481172 0.310142 -0.819931
vn -0.495979 -0.005657 -0.868316
vn 0.324456 0.685454 -0.651829
vn 0.266731 0.766736 -0.583928
vn 0.379309 0.709982 -0.593338
vn 0.400382 0.616574 -0.677887
vn 0.288337 0.913705 0.286366
vn 0.316591 0.804741 0.502157
vn 0.590856 0.663718 0.458658
vn 0.625933 0.776474 -0.072772
vn 0.274668 0.958054 -0.081794
vn 0.275008 0.959611 0.059305
vn -0.305572 0.691867 -0.654175
vn -0.251574 0.770917 -0.585147
vn -0.031213 0.829838 -0.557131
vn 0.005645 0.758847 0.651245
vn 0.004473 0.871364 0.490617
vn -0.083529 0.869099 0.487533
vn -0.099380 0.756676 0.646192
vn 0.003996 0.961140 0.276031
vn 0.007398 0.998729 0.049847
vn -0.055278 0.997105 0.052218
vn -0.068662 0.959545 0.273055
vn -0.598297 0.648234 -0.470991
vn -0.353905 0.773467 -0.525833
vn -0.375493 0.711425 -0.594036
vn -0.590222 0.594178 -0.546435
vn -0.285396 0.914583 0.286508
vn -0.272278 0.960385 0.059377
vn 0.274764 0.719095 0.638285
vn 0.307623 0.516145 0.799351
vn 0.439670 0.433561 0.786585
vn 0.365274 0.664727 0.651700
vn 0.527289 -0.273541 0.804451
vn 0.460536 -0.515039 0.722940
vn 0.499573 0.249458 0.829577
vn 0.541436 0.005923 0.840721
vn -0.257051 0.723060 0.641178
vn -0.287388 0.519852 0.804464
vn -0.108409 0.554876 0.824839
vn 0.002715 -0.927106 0.374790
vn 0.005364 -0.583979 0.811751
vn -0.108835 -0.571709 0.813206
vn 0.006438 -0.252856 0.967483
vn 0.006922 0.183465 0.983002
vn -0.136502 0.178982 0.974337
vn -0.133143 -0.249138 0.959272
vn -0.495015 0.250787 0.831905
vn -0.434810 0.435344 0.788299
vn -0.751515 0.308928 0.582914
vn -0.522943 -0.273853 0.807177
vn -0.537187 0.006835 0.843435
vn -0.001598 -0.999257 -0.038502
vn 0.005750 -0.999351 -0.035563
vn 0.032969 -0.981863 -0.186701
vn 0.070529 -0.978675 -0.192926
vn -0.012429 -0.999838 -0.013012
vn 0.001794 -0.999885 -0.015077
vn 0.001453 -0.999974 -0.007027
vn -0.013671 -0.999874 -0.008132
vn -0.003987 -0.927108 0.374772
vn -0.001562 -0.998961 0.045550
vn 0.010369 -0.998714 0.049630
vn 0.060142 -0.918174 0.391587
vn 0.345745 -0.262453 0.900877
vn 0.158542 -0.247654 0.955789
vn 0.130190 -0.568559 0.812275
vn 0.293805 -0.548092 0.783118
vn 0.323206 0.337057 0.884268
vn 0.142444 0.394218 0.907911
vn 0.162064 0.179302 0.970354
vn 0.357779 0.115803 0.926598
vn -0.007215 0.758971 0.651085
vn -0.009728 0.558268 0.829603
vn 0.129986 0.553642 0.822548
vn 0.119146 0.755453 0.644278
vn 0.180827 0.942939 0.279585
vn 0.081808 0.958799 0.272052
vn 0.099710 0.868099 0.486274
vn 0.223828 0.840909 0.492720
vn 0.144047 0.986048 -0.083422
vn 0.031675 0.994674 -0.098081
vn 0.065853 0.996476 0.051948
vn 0.157043 0.985936 0.057158
vn -0.034766 0.803449 -0.594358
vn -0.039422 0.831359 -0.554335
vn 0.037420 0.829830 -0.556760
vn 0.108546 0.772758 -0.625349
vn 0.408024 0.431943 -0.804327
vn 0.182484 0.521826 -0.833305
vn 0.160542 0.680096 -0.715329
vn 0.372141 0.588196 -0.718008
vn 0.385899 -0.312246 -0.868093
vn 0.172623 -0.283990 -0.943160
vn 0.190176 0.194868 -0.962216
vn 0.422868 0.117015 -0.898604
vn -0.006971 -0.811818 -0.583869
vn -0.009292 -0.584767 -0.811148
vn 0.144743 -0.575262 -0.805061
vn 0.105266 -0.799652 -0.591164
vn -0.002307 -0.985084 -0.172060
vn 0.000176 -0.984767 -0.173877
vn 0.000349 -0.812158 -0.583437
vn -0.000192 -0.999922 -0.012485
vn -0.000149 -0.999976 -0.006990
vn -0.000000 -0.999975 -0.006997
vn 0.000015 -0.999921 -0.012541
vn 0.000912 -0.998959 0.045601
vn -0.000046 -0.998935 0.046134
vn 0.000131 -0.926635 0.375961
vn -0.007050 -0.584023 0.811706
vn 0.000430 -0.583303 0.812255
vn -0.008341 -0.253108 0.967402
vn -0.009206 0.183113 0.983049
vn 0.000516 0.185606 0.982624
vn 0.000464 -0.252424 0.967617
vn 0.007726 0.558090 0.829745
vn 0.000006 0.557106 0.830441
vn 0.000263 0.758702 0.651438
vn -0.005904 0.871361 0.490607
vn 0.000379 0.871347 0.490668
vn -0.005336 0.961113 0.276104
vn -0.008998 0.998717 0.049828
vn 0.000119 0.998811 0.048748
vn 0.000230 0.961164 0.275977
vn 0.034584 0.832170 -0.553441
vn -0.000015 0.829352 -0.558727
vn -0.000024 0.810107 -0.586282
vn -0.011876 0.697146 -0.716831
vn 0.000007 0.698407 -0.715701
vn -0.009463 0.533056 -0.846027
vn -0.010646 0.195889 -0.980568
vn -0.000000 0.196149 -0.980574
vn 0.000011 0.532946 -0.846149
vn 0.007074 -0.584938 -0.811047
vn 0.000468 -0.585490 -0.810680
vn -0.987882 -0.142903 -0.060560
vn -0.936631 -0.342153 -0.075197
vn -0.949577 -0.309283 -0.051444
vn -0.992415 -0.114985 -0.043481
vn -0.996148 0.039666 -0.078205
vn -0.996776 -0.055125 -0.058295
vn -0.998308 -0.038434 -0.043639
vn -0.997142 0.049187 -0.057346
vn -0.590787 0.698207 -0.404325
vn -0.936305 0.288348 -0.200471
vn -0.948575 0.288338 -0.130638
vn -0.615111 0.747114 -0.251911
vn -0.271945 0.958830 -0.081802
vn -0.275589 0.920330 -0.277567
vn -0.330261 0.918189 -0.218760
vn 0.039823 0.897635 -0.438937
vn 0.027747 0.955067 -0.295089
vn 0.041039 0.952598 -0.301453
vn 0.380313 0.907293 -0.179394
vn 0.000416 0.996174 -0.087388
vn 0.000351 0.955448 -0.295158
vn -0.046273 0.952563 -0.300803
vn 0.127835 0.886353 -0.445014
vn -0.048723 0.897043 -0.439249
vn -0.033398 0.955147 -0.294244
vn 0.127179 0.952260 -0.277537
vn 0.590501 0.698383 -0.404437
vn 0.293480 0.843824 -0.449255
vn 0.278325 0.919538 -0.277462
vn 0.614923 0.747246 -0.251977
vn 0.955483 0.292704 -0.037094
vn 0.948575 0.288338 -0.130638
vn 0.987882 -0.142903 -0.060560
vn 0.996776 -0.055125 -0.058295
vn 0.998308 -0.038434 -0.043639
vn 0.992415 -0.114985 -0.043481
vn 0.564258 -0.822390 -0.072723
vn 0.936630 -0.342153 -0.075197
vn 0.949577 -0.309283 -0.051444
vn 0.585954 -0.808899 -0.048381
vn 0.596799 -0.802185 -0.018171
vn 0.120524 -0.992596 -0.015055
vn 0.117664 -0.992400 -0.036014
vn -0.010529 -0.999855 -0.013394
vn 0.002100 -0.999916 -0.012780
vn 0.003404 -0.999453 -0.032888
vn -0.007631 -0.999438 -0.032634
vn 0.000337 -0.999022 -0.044209
vn 0.000023 -0.999019 -0.044287
vn 0.000052 -0.999473 -0.032450
vn 0.000111 -0.999482 -0.032195
vn 0.004649 -0.998974 -0.045056
vn -0.003831 -0.999011 -0.044289
vn -0.002885 -0.999459 -0.032768
vn 0.006701 -0.999442 -0.032738
vn -0.564494 -0.822227 -0.072723
vn -0.114798 -0.992031 -0.051931
vn -0.116451 -0.992540 -0.036091
vn -0.586157 -0.808748 -0.048449
vn -0.971033 -0.215926 -0.102325
vn -0.907983 -0.407574 -0.097216
vn -0.922966 -0.377417 -0.075435
vn -0.982202 -0.176185 -0.065101
vn -0.993583 -0.008663 -0.112772
vn -0.986697 -0.124909 -0.104053
vn -0.994595 -0.081960 -0.063751
vn -0.996365 0.023794 -0.081801
vn -0.934556 0.259726 -0.243204
vn -0.937790 0.276338 -0.210209
vn -0.603046 0.672097 -0.429676
vn -0.290464 0.844754 -0.449468
vn -0.322479 0.812815 -0.485117
vn -0.310024 0.658474 -0.685782
vn -0.002264 0.862446 -0.506145
vn 0.019660 0.883395 -0.468217
vn -0.653765 0.661553 -0.367342
vn 0.575192 0.551556 -0.604102
vn -0.000085 0.610921 -0.791691
vn -0.000000 0.887752 -0.460323
vn 0.579326 0.725445 -0.371634
vn 0.204686 0.828813 -0.520742
vn 0.003963 0.862590 -0.505888
vn -0.023952 0.883407 -0.467995
vn 0.156635 0.862429 -0.481333
vn 0.357326 0.772425 -0.525050
vn 0.325677 0.811822 -0.484644
vn 0.602706 0.672356 -0.429748
vn 0.936305 0.288348 -0.200471
vn 0.937789 0.276339 -0.210209
vn 0.971033 -0.215926 -0.102326
vn 0.986697 -0.124909 -0.104053
vn 0.994595 -0.081959 -0.063751
vn 0.982202 -0.176184 -0.065101
vn 0.907982 -0.407575 -0.097216
vn 0.922966 -0.377418 -0.075434
vn 0.538982 -0.839554 -0.068174
vn 0.116230 -0.991860 -0.052008
vn 0.110635 -0.992620 -0.049647
vn -0.005588 -0.998970 -0.045041
vn 0.004571 -0.999007 -0.044325
vn 0.005300 -0.999045 -0.043363
vn -0.003216 -0.999009 -0.044394
vn 0.000200 -0.999363 -0.035676
vn 0.000063 -0.999370 -0.035481
vn -0.000000 -0.999072 -0.043068
vn 0.000502 -0.999072 -0.043060
vn 0.001041 -0.999257 -0.038526
vn -0.004850 -0.999346 -0.035824
vn -0.004407 -0.999051 -0.043334
vn 0.002475 -0.999014 -0.044319
vn -0.515168 -0.854169 -0.070687
vn -0.100127 -0.993935 -0.045478
vn -0.109382 -0.992766 -0.049513
vn -0.539400 -0.839289 -0.068132
vn 0.358482 0.610841 -0.705949
vn -0.000092 0.556234 -0.831026
vn 0.000071 -0.025492 -0.999675
vn 0.844990 0.096894 -0.525932
vn -0.941752 0.296547 -0.158630
vn -0.833987 0.116405 -0.539366
vn 0.000002 0.935216 0.354078
vn -0.767110 0.626915 0.136090
vn 0.766563 0.558959 -0.316142
vn 0.950561 0.273570 -0.146946
vn 0.779283 0.610096 0.143184
vn 0.510282 0.847773 -0.144547
vn -0.000131 0.994563 -0.104138
vn -0.510568 0.847644 -0.144289
vn -0.579529 0.725331 -0.371539
vn -0.575476 0.551234 -0.604126
vn -0.000615 -0.999072 -0.043059
vn -0.000453 -0.999023 -0.044195
vn -0.000426 -0.999364 -0.035655
vn 0.996365 0.023794 -0.081800
vn 0.996148 0.039666 -0.078205
vn 0.993583 -0.008663 -0.112772
vn -0.147479 0.863959 -0.481481
vn -0.120115 0.887371 -0.445135
vn -0.193072 0.831225 -0.521334
vn 0.009449 -0.999866 -0.013373
vn -0.000240 -0.999484 -0.032137
vn 0.997142 0.049187 -0.057346
vn -0.028353 0.992586 -0.118188
vn 0.000183 0.992341 -0.123528
vn 0.024905 0.992731 -0.117749
vn -0.026624 0.994802 -0.098283
vn -0.119233 0.953093 -0.278204
vn -0.135135 0.987276 -0.083808
vn -0.998393 0.054062 -0.016965
vn -0.999420 -0.031324 -0.013360
vn -0.994566 -0.103167 -0.013948
vn -0.955053 -0.295956 -0.016837
vn 0.000273 -0.292911 -0.956140
vn -0.010508 -0.292860 -0.956098
vn 0.007900 -0.292672 -0.956180
vn 0.000201 0.409381 0.912363
vn -0.010098 0.408289 0.912797
vn 0.007887 0.408735 0.912619
vn -0.000020 -0.999888 -0.014959
vn -0.000420 -0.999889 -0.014888
vn 0.000306 -0.999889 -0.014861
vn -0.335594 0.118680 0.934501
vn -0.302686 0.341093 0.889964
vn -0.324553 -0.263081 0.908545
vn -0.119263 0.395963 0.910489
vn -0.274764 -0.551772 0.787434
vn 0.533223 0.586430 0.609732
vn -0.147187 0.987458 0.057113
vn -0.169290 0.944963 0.279976
vn -0.209419 0.843902 0.493936
vn 0.494465 0.532606 -0.686903
vn -0.396322 0.121886 -0.909985
vn -0.361972 -0.313003 -0.878069
vn -0.382939 0.440255 -0.812116
vn -0.144868 -0.286126 -0.947177
vn -0.349887 0.596072 -0.722687
vn 0.467308 -0.719980 -0.513081
vn 0.012186 -0.999894 -0.008030
vn 0.011000 -0.999854 -0.013071
vn -0.001462 -0.999887 -0.014935
vn -0.065684 -0.979243 -0.191753
vn 0.998260 -0.025795 0.053027
vn 0.995481 0.062766 0.071267
vn 0.994050 -0.098990 0.045450
vn 0.957191 -0.286879 0.038537
g FCSET_pCube1_001_0p245_0p505_0p455 pCube1
usemtl initialShadingGroup
f 1/1/1 344/2/2 458/3/3 340/4/4
f 3/5/5 343/6/6 457/7/7 338/8/8
f 5/9/9 342/10/10 456/11/11 336/12/12
f 7/13/13 341/14/14 455/15/15 334/16/16
f 2/17/17 331/18/18 454/19/19 339/20/20
f 7/13/13 334/16/16 453/21/21 325/22/22
f 19/23/23 306/24/24 452/25/25 338/8/8
f 23/26/26 305/27/27 451/28/28 340/4/4
f 24/29/29 304/30/30 450/31/31 318/32/32
f 20/33/33 301/34/34 449/35/35 322/36/36
f 33/37/37 300/38/38 448/39/39 308/40/40
f 34/41/41 299/42/42 447/43/43 307/44/44
f 15/45/45 154/46/46 446/47/47 336/12/12
f 16/48/48 155/49/49 445/50/50 326/51/51
f 105/52/52 132/53/53 444/54/54 148/55/55
f 14/56/56 146/57/57 443/58/58 327/59/59
f 13/60/60 147/61/61 442/62/62 328/63/63
f 17/64/64 289/65/65 441/66/66 324/67/67
f 37/68/68 288/69/69 440/70/70 296/71/71
f 38/72/72 287/73/73 439/74/74 295/75/75
f 22/76/76 286/77/77 438/78/78 319/79/79
f 21/80/80 285/81/81 437/82/82 320/83/83
f 32/84/84 282/464/85 436/86/86 309/87/87
f 108/88/88 129/467/89 435/90/90 333/91/91
f 10/92/92 280/93/93 434/94/94 332/95/95
f 31/96/96 277/472/97 433/98/98 310/99/99
f 69/100/100 200/474/101 432/102/102 316/103/103
f 70/104/104 199/105/105 431/106/106 276/107/107
f 12/108/108 274/476/109 430/110/110 329/111/111
f 11/112/112 273/478/113 429/114/114 330/115/115
f 26/116/116 270/117/117 428/118/118 315/119/119
f 13/60/60 269/120/120 427/121/121 335/122/122
f 14/56/56 268/123/123 426/124/124 328/63/63
f 25/125/125 265/126/126 425/127/127 316/103/103
f 78/128/128 191/129/129 424/130/130 314/131/131
f 79/132/132 190/133/133 423/134/134 264/135/135
f 16/48/48 262/136/136 422/137/137 325/22/22
f 15/45/45 261/138/138 421/139/139 326/51/51
f 28/140/140 149/141/141 420/142/142 313/143/143
f 17/64/64 257/144/144 419/145/145 337/146/146
f 18/147/147 256/148/148 418/149/149 324/67/67
f 27/150/150 152/151/151 417/152/152 314/131/131
f 75/153/153 194/154/154 416/155/155 312/156/156
f 76/157/157 193/158/158 415/159/159 252/160/160
f 100/161/161 137/162/162 414/163/163 153/164/164
f 19/23/23 249/165/165 413/166/166 322/36/36
f 30/167/167 246/168/168 412/169/169 311/170/170
f 21/80/80 245/171/171 411/172/172 339/20/20
f 22/76/76 244/173/173 410/174/174 320/83/83
f 29/175/175 241/176/176 409/177/177 312/156/156
f 72/178/178 197/179/179 408/180/180 310/99/99
f 73/181/181 196/182/182 407/183/183 240/184/184
f 24/29/29 238/185/185 406/186/186 317/187/187
f 23/26/26 237/188/188 405/189/189 318/32/32
f 109/190/190 128/191/191 404/479/192 284/466/193
f 42/194/194 234/195/195 403/196/196 283/197/197
f 60/198/198 222/482/199 402/200/200 233/201/201
f 53/202/202 232/203/203 401/204/204 248/205/205
f 54/206/206 231/207/207 400/208/208 247/209/209
f 63/210/210 219/211/211 399/212/212 230/213/213
f 49/214/214 229/215/215 398/216/216 260/217/217
f 50/218/218 228/219/219 397/220/220 259/221/221
f 66/222/222 150/223/223 396/224/224 227/225/225
f 45/226/226 226/227/227 395/228/228 272/229/229
f 46/230/230 225/231/231 394/232/232 271/233/233
f 57/234/234 213/235/235 393/236/236 236/237/237
f 57/234/234 224/238/238 392/239/239 212/240/240
f 58/241/241 223/242/242 391/243/243 211/244/244
f 72/178/178 198/245/245 390/246/246 209/247/247
f 60/198/198 221/248/248 389/249/249 209/247/247
f 61/250/250 220/251/251 388/252/252 208/253/253
f 75/153/153 195/254/254 387/255/255 206/256/256
f 63/210/210 218/257/257 386/258/258 206/256/256
f 64/259/259 217/260/260 385/261/261 205/262/262
f 78/128/128 151/263/263 384/264/264 203/265/265
f 66/222/222 215/266/266 383/267/267 203/265/265
f 67/268/268 214/269/269 382/270/270 202/271/271
f 69/100/100 189/272/272 381/273/273 212/240/240
f 82/274/274 172/275/275 380/276/276 297/277/277
f 83/278/278 171/279/279 379/280/280 298/281/281
f 84/282/282 170/283/283 378/284/284 321/285/285
f 20/33/33 250/286/286 377/287/287 321/285/285
f 86/288/288 168/289/289 376/290/290 192/291/291
f 87/292/292 167/293/293 375/294/294 216/295/295
f 88/296/296 166/297/297 374/298/298 258/299/299
f 89/300/300 165/301/301 373/302/302 323/303/303
f 18/147/147 294/304/304 372/305/305 323/303/303
f 91/306/306 163/307/307 371/308/308 293/309/309
f 92/310/310 162/311/311 370/312/312 177/313/313
f 9/314/314 281/315/315 369/316/316 177/313/313
f 41/317/317 235/318/318 368/319/319 176/320/320
f 95/321/321 159/322/322 367/323/323 174/324/324
f 96/325/325 158/326/326 366/327/327 173/328/328
f 81/329/329 157/488/330 365/331/331 188/332/332
f 98/333/333 140/334/334 364/335/335 187/336/336
f 99/337/337 139/338/338 363/339/339 186/340/340
f 100/161/161 138/341/341 362/342/342 185/343/343
f 84/282/282 169/344/344 361/345/345 185/343/343
f 102/346/346 136/347/347 360/348/348 183/349/349
f 114/350/350 122/351/351 359/352/352 117/353/353
f 104/354/354 134/355/355 358/356/356 181/357/357
f 105/52/52 133/358/358 357/359/359 180/360/360
f 89/300/300 164/361/361 356/362/362 180/360/360
f 107/363/363 131/364/364 355/365/365 178/366/366
f 108/88/88 130/367/367 354/368/368 145/369/369
f 92/310/310 161/370/370 353/371/371 145/369/369
f 93/372/372 160/373/373 352/374/374 144/375/375
f 111/376/376 127/377/377 351/378/378 142/379/379
f 112/380/380 126/381/381 350/382/382 141/383/383
f 97/384/384 125/385/385 349/386/386 156/387/387
f 103/388/388 135/389/389 348/390/390 123/391/391
f 102/346/346 183/349/349 347/392/392 124/393/393
f 86/288/288 167/293/293 346/394/394 121/395/395
f 87/292/292 182/396/396 345/397/397 119/398/398
f 117/353/353 345/397/397 123/391/391 114/350/350
f 123/391/391 345/397/397 182/396/396 103/388/388
f 119/398/398 345/397/397 117/353/353 116/399/399
f 118/400/400 346/394/394 119/398/398 116/399/399
f 119/398/398 346/394/394 167/293/293 87/292/292
f 121/395/395 346/394/394 118/400/400 115/401/401
f 120/402/402 347/392/392 121/395/395 115/401/401
f 121/395/395 347/392/392 183/349/349 86/288/288
f 124/393/393 347/392/392 120/402/402 113/403/403
f 122/351/351 348/390/390 124/393/393 113/403/403
f 124/393/393 348/390/390 135/389/389 102/346/346
f 123/391/391 348/390/390 122/351/351 114/350/350
f 157/330/330 349/490/386 141/383/383 96/325/325
f 141/383/383 349/490/386 125/461/385 112/380/380
f 156/387/387 349/386/386 157/488/330 81/329/329
f 158/326/326 350/382/382 142/379/379 95/321/321
f 142/379/379 350/382/382 126/381/381 111/376/376
f 141/383/383 350/382/382 158/326/326 96/325/325
f 159/322/322 351/378/378 143/404/404 94/405/405
f 143/404/404 351/378/378 127/377/377 110/406/406
f 142/379/379 351/378/378 159/322/322 95/321/321
f 128/191/191 352/374/374 143/404/404 110/406/406
f 143/404/404 352/374/374 160/373/373 94/405/405
f 144/375/375 352/374/374 128/191/191 109/190/190
f 129/89/89 353/489/371 144/375/375 109/190/190
f 144/375/375 353/489/371 161/486/370 93/372/372
f 145/369/369 353/371/371 129/467/89 108/88/88
f 162/311/311 354/368/368 178/366/366 91/306/306
f 178/366/366 354/368/368 130/367/367 107/363/363
f 145/369/369 354/368/368 162/311/311 92/310/310
f 163/307/307 355/365/365 179/407/407 90/408/408
f 179/407/407 355/365/365 131/364/364 106/409/409
f 178/366/366 355/365/365 163/307/307 91/306/306
f 132/53/53 356/362/362 179/407/407 106/409/409
f 179/407/407 356/362/362 164/361/361 90/408/408
f 180/360/360 356/362/362 132/53/53 105/52/52
f 165/301/301 357/359/359 181/357/357 88/296/296
f 181/357/357 357/359/359 133/358/358 104/354/354
f 180/360/360 357/359/359 165/301/301 89/300/300
f 166/297/297 358/356/356 182/396/396 87/292/292
f 182/396/396 358/356/356 134/355/355 103/388/388
f 181/357/357 358/356/356 166/297/297 88/296/296
f 118/400/400 359/352/352 120/402/402 115/401/401
f 120/402/402 359/352/352 122/351/351 113/403/403
f 117/353/353 359/352/352 118/400/400 116/399/399
f 168/289/289 360/348/348 184/410/410 85/411/411
f 184/410/410 360/348/348 136/347/347 101/412/412
f 183/349/349 360/348/348 168/289/289 86/288/288
f 137/162/162 361/345/345 184/410/410 101/412/412
f 184/410/410 361/345/345 169/344/344 85/411/411
f 185/343/343 361/345/345 137/162/162 100/161/161
f 170/283/283 362/342/342 186/340/340 83/278/278
f 186/340/340 362/342/342 138/341/341 99/337/337
f 185/343/343 362/342/342 170/283/283 84/282/282
f 171/279/279 363/339/339 187/336/336 82/274/274
f 187/336/336 363/339/339 139/338/338 98/333/333
f 186/340/340 363/339/339 171/279/279 83/278/278
f 172/275/275 364/335/335 156/387/387 81/329/329
f 156/387/387 364/335/335 140/334/334 97/384/384
f 187/336/336 364/335/335 172/275/275 82/274/274
f 273/113/113 365/487/331 173/328/328 43/413/413
f 173/328/328 365/487/331 157/330/330 96/325/325
f 188/332/332 365/331/331 273/478/113 11/112/112
f 276/107/107 366/327/327 174/324/324 70/104/104
f 174/324/324 366/327/327 158/326/326 95/321/321
f 173/328/328 366/327/327 276/107/107 43/413/413
f 211/244/244 367/323/323 175/414/414 58/241/241
f 175/414/414 367/323/323 159/322/322 94/405/405
f 174/324/324 367/323/323 211/244/244 70/104/104
f 160/373/373 368/319/319 175/414/414 94/405/405
f 175/414/414 368/319/319 235/318/318 58/241/241
f 176/320/320 368/319/319 160/373/373 93/372/372
f 161/486/370 369/485/316 176/320/320 93/372/372
f 176/320/320 369/485/316 281/469/315 41/317/317
f 177/313/313 369/316/316 161/370/370 92/310/310
f 296/71/71 370/312/312 293/309/309 37/68/68
f 293/309/309 370/312/312 162/311/311 91/306/306
f 177/313/313 370/312/312 296/71/71 9/314/314
f 295/75/75 371/308/308 292/415/415 38/72/72
f 292/415/415 371/308/308 163/307/307 90/408/408
f 293/309/309 371/308/308 295/75/75 37/68/68
f 164/361/361 372/305/305 292/415/415 90/408/408
f 292/415/415 372/305/305 294/304/304 38/72/72
f 323/303/303 372/305/305 164/361/361 89/300/300
f 256/148/148 373/302/302 258/299/299 50/218/218
f 258/299/299 373/302/302 165/301/301 88/296/296
f 323/303/303 373/302/302 256/148/148 18/147/147
f 228/219/219 374/298/298 216/295/295 65/416/416
f 216/295/295 374/298/298 166/297/297 87/292/292
f 258/299/299 374/298/298 228/219/219 50/218/218
f 204/417/417 375/294/294 192/291/291 77/418/418
f 192/291/291 375/294/294 167/293/293 86/288/288
f 216/295/295 375/294/294 204/417/417 65/416/416
f 251/419/419 376/290/290 253/420/420 52/421/421
f 253/420/420 376/290/290 168/289/289 85/411/411
f 192/291/291 376/290/290 251/419/419 77/418/418
f 169/344/344 377/287/287 253/420/420 85/411/411
f 253/420/420 377/287/287 250/286/286 52/421/421
f 321/285/285 377/287/287 169/344/344 84/282/282
f 301/34/34 378/284/284 298/281/281 36/422/422
f 298/281/281 378/284/284 170/283/283 83/278/278
f 321/285/285 378/284/284 301/34/34 20/33/33
f 302/423/423 379/280/280 297/277/277 35/424/424
f 297/277/277 379/280/280 171/279/279 82/274/274
f 298/281/281 379/280/280 302/423/423 36/422/422
f 303/425/425 380/276/276 188/332/332 11/112/112
f 188/332/332 380/276/276 172/275/275 81/329/329
f 297/277/277 380/276/276 303/425/425 35/424/424
f 213/235/235 381/273/273 201/426/426 68/427/427
f 201/426/426 381/273/273 189/272/272 80/428/428
f 212/240/240 381/273/273 213/235/235 57/234/234
f 190/133/133 382/270/270 201/426/426 80/428/428
f 201/426/426 382/270/270 214/269/269 68/427/427
f 202/271/271 382/270/270 190/133/133 79/132/132
f 191/129/129 383/267/267 202/271/271 79/132/132
f 202/271/271 383/267/267 215/266/266 67/268/268
f 203/265/265 383/267/267 191/129/129 78/128/128
f 150/223/223 384/264/264 135/389/389 103/388/388
f 135/389/389 384/264/264 151/263/263 102/346/346
f 203/265/265 384/264/264 150/223/223 66/222/222
f 193/158/158 385/261/261 204/417/417 77/418/418
f 204/417/417 385/261/261 217/260/260 65/416/416
f 205/262/262 385/261/261 193/158/158 76/157/157
f 194/154/154 386/258/258 205/262/262 76/157/157
f 205/262/262 386/258/258 218/257/257 64/259/259
f 206/256/256 386/258/258 194/154/154 75/153/153
f 219/211/211 387/255/255 207/429/429 62/430/430
f 207/429/429 387/255/255 195/254/254 74/431/431
f 206/256/256 387/255/255 219/211/211 63/210/210
f 196/182/182 388/252/252 207/429/429 74/431/431
f 207/429/429 388/252/252 220/251/251 62/430/430
f 208/253/253 388/252/252 196/182/182 73/181/181
f 197/179/179 389/249/249 208/253/253 73/181/181
f 208/253/253 389/249/249 221/248/248 61/250/250
f 209/247/247 389/249/249 197/179/179 72/178/178
f 222/199/199 390/484/246 210/432/432 59/433/433
f 210/432/432 390/484/246 198/471/245 71/434/434
f 209/247/247 390/246/246 222/482/199 60/198/198
f 199/105/105 391/243/243 210/432/432 71/434/434
f 210/432/432 391/243/243 223/242/242 59/433/433
f 211/244/244 391/243/243 199/105/105 70/104/104
f 200/101/101 392/483/239 127/377/377 111/376/376
f 127/377/377 392/483/239 224/480/238 110/406/406
f 212/240/240 392/239/239 200/474/101 69/100/100
f 270/117/117 393/236/236 225/231/231 46/230/230
f 225/231/231 393/236/236 213/235/235 68/427/427
f 236/237/237 393/236/236 270/117/117 26/116/116
f 226/227/227 394/232/232 214/269/269 67/268/268
f 214/269/269 394/232/232 225/231/231 68/427/427
f 271/233/233 394/232/232 226/227/227 45/226/226
f 227/225/225 395/228/228 215/266/266 66/222/222
f 215/266/266 395/228/228 226/227/227 67/268/268
f 272/229/229 395/228/228 227/225/225 28/140/140
f 149/141/141 396/224/224 134/355/355 104/354/354
f 134/355/355 396/224/224 150/223/223 103/388/388
f 227/225/225 396/224/224 149/141/141 28/140/140
f 229/215/215 397/220/220 217/260/260 64/259/259
f 217/260/260 397/220/220 228/219/219 65/416/416
f 259/221/221 397/220/220 229/215/215 49/214/214
f 230/213/213 398/216/216 218/257/257 63/210/210
f 218/257/257 398/216/216 229/215/215 64/259/259
f 260/217/217 398/216/216 230/213/213 30/167/167
f 246/168/168 399/212/212 231/207/207 54/206/206
f 231/207/207 399/212/212 219/211/211 62/430/430
f 230/213/213 399/212/212 246/168/168 30/167/167
f 232/203/203 400/208/208 220/251/251 61/250/250
f 220/251/251 400/208/208 231/207/207 62/430/430
f 247/209/209 400/208/208 232/203/203 53/202/202
f 233/201/201 401/204/204 221/248/248 60/198/198
f 221/248/248 401/204/204 232/203/203 61/250/250
f 248/205/205 401/204/204 233/201/201 32/84/84
f 282/85/85 402/481/200 234/195/195 42/194/194
f 234/195/195 402/481/200 222/199/199 59/433/433
f 233/201/201 402/200/200 282/464/85 32/84/84
f 235/318/318 403/196/196 223/242/242 58/241/241
f 223/242/242 403/196/196 234/195/195 59/433/433
f 283/197/197 403/196/196 235/318/318 41/317/317
f 236/237/237 404/192/192 224/238/238 57/234/234
f 224/480/238 404/479/192 128/191/191 110/406/406
f 284/193/193 404/192/192 236/237/237 26/116/116
f 238/185/185 405/189/189 242/435/435 56/436/436
f 242/435/435 405/189/189 237/188/188 55/437/437
f 318/32/32 405/189/189 238/185/185 24/29/29
f 343/6/6 406/186/186 241/176/176 29/175/175
f 241/176/176 406/186/186 238/185/185 56/436/436
f 317/187/187 406/186/186 343/6/6 3/5/5
f 242/435/435 407/183/183 239/438/438 56/436/436
f 239/438/438 407/183/183 196/182/182 74/431/431
f 240/184/184 407/183/183 242/435/435 55/437/437
f 243/439/439 408/180/180 240/184/184 55/437/437
f 240/184/184 408/180/180 197/179/179 73/181/181
f 310/99/99 408/180/180 243/439/439 31/96/96
f 195/254/254 409/177/177 239/438/438 74/431/431
f 239/438/438 409/177/177 241/176/176 56/436/436
f 312/156/156 409/177/177 195/254/254 75/153/153
f 245/171/171 410/174/174 247/209/209 53/202/202
f 247/209/209 410/174/174 244/173/173 54/206/206
f 320/83/83 410/174/174 245/171/171 21/80/80
f 309/87/87 411/172/172 248/205/205 32/84/84
f 248/205/205 411/172/172 245/171/171 53/202/202
f 339/20/20 411/172/172 309/87/87 2/17/17
f 319/79/79 412/169/169 244/173/173 22/76/76
f 244/173/173 412/169/169 246/168/168 54/206/206
f 311/170/170 412/169/169 319/79/79 4/440/440
f 250/286/286 413/166/166 254/441/441 52/421/421
f 254/441/441 413/166/166 249/165/165 51/442/442
f 322/36/36 413/166/166 250/286/286 20/33/33
f 342/10/10 414/163/163 152/151/151 27/150/150
f 152/151/151 414/163/163 137/162/162 101/412/412
f 153/164/164 414/163/163 342/10/10 5/9/9
f 254/441/441 415/159/159 251/419/419 52/421/421
f 251/419/419 415/159/159 193/158/158 77/418/418
f 252/160/160 415/159/159 254/441/441 51/442/442
f 255/443/443 416/155/155 252/160/160 51/442/442
f 252/160/160 416/155/155 194/154/154 76/157/157
f 312/156/156 416/155/155 255/443/443 29/175/175
f 151/263/263 417/152/152 136/347/347 102/346/346
f 136/347/347 417/152/152 152/151/151 101/412/412
f 314/131/131 417/152/152 151/263/263 78/128/128
f 257/144/144 418/149/149 259/221/221 49/214/214
f 259/221/221 418/149/149 256/148/148 50/218/218
f 324/67/67 418/149/149 257/144/144 17/64/64
f 311/170/170 419/145/145 260/217/217 30/167/167
f 260/217/217 419/145/145 257/144/144 49/214/214
f 337/146/146 419/145/145 311/170/170 4/440/440
f 148/55/55 420/142/142 133/358/358 105/52/52
f 133/358/358 420/142/142 149/141/141 104/354/354
f 313/143/143 420/142/142 148/55/55 6/444/444
f 262/136/136 421/139/139 266/445/445 48/446/446
f 266/445/445 421/139/139 261/138/138 47/447/447
f 326/51/51 421/139/139 262/136/136 16/48/48
f 341/14/14 422/137/137 265/126/126 25/125/125
f 265/126/126 422/137/137 262/136/136 48/446/446
f 325/22/22 422/137/137 341/14/14 7/13/13
f 266/445/445 423/134/134 263/448/448 48/446/446
f 263/448/448 423/134/134 190/133/133 80/428/428
f 264/135/135 423/134/134 266/445/445 47/447/447
f 267/449/449 424/130/130 264/135/135 47/447/447
f 264/135/135 424/130/130 191/129/129 79/132/132
f 314/131/131 424/130/130 267/449/449 27/150/150
f 189/272/272 425/127/127 263/448/448 80/428/428
f 263/448/448 425/127/127 265/126/126 48/446/446
f 316/103/103 425/127/127 189/272/272 69/100/100
f 269/120/120 426/124/124 271/233/233 45/226/226
f 271/233/233 426/124/124 268/123/123 46/230/230
f 328/63/63 426/124/124 269/120/120 13/60/60
f 313/143/143 427/121/121 272/229/229 28/140/140
f 272/229/229 427/121/121 269/120/120 45/226/226
f 335/122/122 427/121/121 313/143/143 6/444/444
f 327/59/59 428/118/118 268/123/123 14/56/56
f 268/123/123 428/118/118 270/117/117 46/230/230
f 315/119/119 428/118/118 327/59/59 8/450/450
f 274/109/109 429/477/114 278/451/451 44/452/452
f 278/451/451 429/477/114 273/113/113 43/413/413
f 330/115/115 429/114/114 274/476/109 12/108/108
f 344/2/2 430/110/110 277/472/97 31/96/96
f 277/97/97 430/475/110 274/109/109 44/452/452
f 329/111/111 430/110/110 344/2/2 1/1/1
f 278/451/451 431/106/106 275/453/453 44/452/452
f 275/453/453 431/106/106 199/105/105 71/434/434
f 276/107/107 431/106/106 278/451/451 43/413/413
f 279/454/454 432/473/102 126/381/381 112/380/380
f 126/381/381 432/473/102 200/101/101 111/376/376
f 316/103/103 432/102/102 279/460/454 25/125/125
f 198/471/245 433/470/98 275/453/453 71/434/434
f 275/453/453 433/470/98 277/97/97 44/452/452
f 310/99/99 433/98/98 198/245/245 72/178/178
f 281/469/315 434/468/94 283/197/197 41/317/317
f 283/197/197 434/468/94 280/463/93 42/194/194
f 332/95/95 434/94/94 281/315/315 9/314/314
f 315/119/119 435/90/90 284/193/193 26/116/116
f 284/466/193 435/465/90 129/89/89 109/190/190
f 333/91/91 435/90/90 315/119/119 8/450/450
f 331/18/18 436/86/86 280/93/93 10/92/92
f 280/463/93 436/462/86 282/85/85 42/194/194
f 309/87/87 436/86/86 331/18/18 2/17/17
f 286/77/77 437/82/82 290/455/455 40/456/456
f 290/455/455 437/82/82 285/81/81 39/457/457
f 320/83/83 437/82/82 286/77/77 22/76/76
f 337/146/146 438/78/78 289/65/65 17/64/64
f 289/65/65 438/78/78 286/77/77 40/456/456
f 319/79/79 438/78/78 337/146/146 4/440/440
f 288/69/69 439/74/74 290/455/455 39/457/457
f 290/455/455 439/74/74 287/73/73 40/456/456
f 295/75/75 439/74/74 288/69/69 37/68/68
f 332/95/95 440/70/70 291/458/458 10/92/92
f 291/458/458 440/70/70 288/69/69 39/457/457
f 296/71/71 440/70/70 332/95/95 9/314/314
f 294/304/304 441/66/66 287/73/73 38/72/72
f 287/73/73 441/66/66 289/65/65 40/456/456
f 324/67/67 441/66/66 294/304/304 18/147/147
f 146/57/57 442/62/62 131/364/364 107/363/363
f 131/364/364 442/62/62 147/61/61 106/409/409
f 328/63/63 442/62/62 146/57/57 14/56/56
f 333/91/91 443/58/58 130/367/367 108/88/88
f 130/367/367 443/58/58 146/57/57 107/363/363
f 327/59/59 443/58/58 333/91/91 8/450/450
f 335/122/122 444/54/54 147/61/61 13/60/60
f 147/61/61 444/54/54 132/53/53 106/409/409
f 148/55/55 444/54/54 335/122/122 6/444/444
f 154/46/46 445/50/50 139/338/338 99/337/337
f 139/338/338 445/50/50 155/49/49 98/333/333
f 326/51/51 445/50/50 154/46/46 15/45/45
f 153/164/164 446/47/47 138/341/341 100/161/161
f 138/341/341 446/47/47 154/46/46 99/337/337
f 336/12/12 446/47/47 153/164/164 5/9/9
f 300/38/38 447/43/43 302/423/423 35/424/424
f 302/423/423 447/43/43 299/42/42 36/422/422
f 307/44/44 447/43/43 300/38/38 33/37/37
f 330/115/115 448/39/39 303/425/425 11/112/112
f 303/425/425 448/39/39 300/38/38 35/424/424
f 308/40/40 448/39/39 330/115/115 12/108/108
f 306/24/24 449/35/35 299/42/42 34/41/41
f 299/42/42 449/35/35 301/34/34 36/422/422
f 322/36/36 449/35/35 306/24/24 19/23/23
f 305/27/27 450/31/31 307/44/44 33/37/37
f 307/44/44 450/31/31 304/30/30 34/41/41
f 318/32/32 450/31/31 305/27/27 23/26/26
f 329/111/111 451/28/28 308/40/40 12/108/108
f 308/40/40 451/28/28 305/27/27 33/37/37
f 340/4/4 451/28/28 329/111/111 1/1/1
f 317/187/187 452/25/25 304/30/30 24/29/29
f 304/30/30 452/25/25 306/24/24 34/41/41
f 338/8/8 452/25/25 317/187/187 3/5/5
f 155/49/49 453/21/21 140/334/334 98/333/333
f 140/334/334 453/21/21 334/16/16 97/384/384
f 325/22/22 453/21/21 155/49/49 16/48/48
f 285/81/81 454/19/19 291/458/458 39/457/457
f 291/458/458 454/19/19 331/18/18 10/92/92
f 339/20/20 454/19/19 285/81/81 21/80/80
f 125/461/385 455/459/15 279/454/454 112/380/380
f 279/460/454 455/15/15 341/14/14 25/125/125
f 334/16/16 455/15/15 125/385/385 97/384/384
f 261/138/138 456/11/11 267/449/449 47/447/447
f 267/449/449 456/11/11 342/10/10 27/150/150
f 336/12/12 456/11/11 261/138/138 15/45/45
f 249/165/165 457/7/7 255/443/443 51/442/442
f 255/443/443 457/7/7 343/6/6 29/175/175
f 338/8/8 457/7/7 249/165/165 19/23/23
f 237/188/188 458/3/3 243/439/439 55/437/437
f 243/439/439 458/3/3 344/2/2 31/96/96
f 340/4/4 458/3/3 237/188/188 23/26/26
