# This file uses centimeters as units for non-parametric coordinates.

mtllib Note_Stack.mtl
g default
v 0.494977 0.222415 -2.037078
v 0.500000 0.222415 -2.032055
v 0.500000 0.240696 -2.032055
v 0.494976 0.240696 -2.037078
v 0.494976 0.258977 -2.037078
v 0.500000 0.258977 -2.032055
v 0.500000 0.277258 -2.032055
v 0.494976 0.277258 -2.037078
v 0.494976 0.295539 -2.037078
v 0.500000 0.295539 -2.032055
v 0.500000 0.313820 -2.032055
v 0.494976 0.313820 -2.037078
v 0.494976 0.332101 -2.037078
v 0.500000 0.332101 -2.032055
v 0.500000 0.350382 -2.032055
v 0.494976 0.350382 -2.037078
v 0.494976 0.368663 -2.037078
v 0.500000 0.368663 -2.032055
v 0.500000 0.386944 -2.032055
v 0.494976 0.386944 -2.037078
v 0.494976 0.405225 -2.037078
v 0.500000 0.405225 -2.032055
v 0.500000 0.423506 -2.032055
v 0.494976 0.423506 -2.037078
v 0.494976 0.441787 -2.037078
v 0.500000 0.441787 -2.032055
v 0.500000 0.460068 -2.032055
v 0.494976 0.460068 -2.037078
v 0.494976 0.478349 -2.037078
v 0.500000 0.478350 -2.032055
v 0.500000 0.496630 -2.032055
v 0.494976 0.496631 -2.037078
v 0.494976 0.514911 -2.037078
v 0.500000 0.514911 -2.032055
v 0.500000 0.533193 -2.032055
v 0.494976 0.533193 -2.037078
v -0.500000 0.222415 -2.032055
v -0.494976 0.222415 -2.037078
v -0.494976 0.240696 -2.037078
v -0.500000 0.240696 -2.032055
v -0.500000 0.258977 -2.032055
v -0.494976 0.258977 -2.037078
v -0.494976 0.277258 -2.037078
v -0.500000 0.277258 -2.032055
v -0.500000 0.295539 -2.032055
v -0.494976 0.295539 -2.037078
v -0.494976 0.313820 -2.037078
v -0.500000 0.313820 -2.032055
v -0.500000 0.332101 -2.032055
v -0.494976 0.332101 -2.037078
v -0.494976 0.350382 -2.037078
v -0.500000 0.350382 -2.032055
v -0.500000 0.368663 -2.032055
v -0.494976 0.368663 -2.037078
v -0.494976 0.386944 -2.037078
v -0.500000 0.386944 -2.032055
v -0.500000 0.405225 -2.032055
v -0.494976 0.405225 -2.037078
v -0.494976 0.423506 -2.037078
v -0.500000 0.423506 -2.032055
v -0.500000 0.441787 -2.032055
v -0.494976 0.441787 -2.037078
v -0.494976 0.460068 -2.037078
v -0.500000 0.460068 -2.032055
v -0.500000 0.478350 -2.032055
v -0.494976 0.478350 -2.037078
v -0.494976 0.496631 -2.037078
v -0.500000 0.496631 -2.032055
v -0.500000 0.514911 -2.032055
v -0.494976 0.514911 -2.037078
v -0.494977 0.533193 -2.037078
v -0.500000 0.533193 -2.032055
v -0.494976 0.222415 -1.037078
v -0.500000 0.222415 -1.042102
v -0.500000 0.240696 -1.042102
v -0.494976 0.240696 -1.037078
v -0.494976 0.258977 -1.037078
v -0.500000 0.258977 -1.042102
v -0.500000 0.277258 -1.042102
v -0.494976 0.277258 -1.037078
v -0.494976 0.295539 -1.037078
v -0.500000 0.295539 -1.042102
v -0.500000 0.313820 -1.042102
v -0.494976 0.313820 -1.037078
v -0.494976 0.332101 -1.037078
v -0.500000 0.332101 -1.042102
v -0.500000 0.350382 -1.042102
v -0.494976 0.350382 -1.037078
v -0.494976 0.368663 -1.037078
v -0.500000 0.368663 -1.042102
v -0.500000 0.386944 -1.042102
v -0.494976 0.386944 -1.037078
v -0.494976 0.405225 -1.037078
v -0.500000 0.405225 -1.042102
v -0.500000 0.423506 -1.042102
v -0.494976 0.423506 -1.037078
v -0.494976 0.441787 -1.037078
v -0.500000 0.441787 -1.042102
v -0.500000 0.460068 -1.042102
v -0.494976 0.460068 -1.037078
v -0.494976 0.478350 -1.037078
v -0.500000 0.478350 -1.042102
v -0.500000 0.496631 -1.042102
v -0.494976 0.496631 -1.037078
v -0.494976 0.514911 -1.037078
v -0.500000 0.514911 -1.042102
v -0.500000 0.533193 -1.042102
v -0.494977 0.533193 -1.037078
v 0.500000 0.222415 -1.042102
v 0.494977 0.222415 -1.037078
v 0.494976 0.240696 -1.037078
v 0.500000 0.240696 -1.042102
v 0.500000 0.258977 -1.042102
v 0.494976 0.258977 -1.037078
v 0.494976 0.277258 -1.037078
v 0.500000 0.277258 -1.042102
v 0.500000 0.295539 -1.042102
v 0.494976 0.295539 -1.037078
v 0.494976 0.313820 -1.037078
v 0.500000 0.313820 -1.042102
v 0.500000 0.332101 -1.042102
v 0.494976 0.332101 -1.037078
v 0.494976 0.350382 -1.037078
v 0.500000 0.350382 -1.042102
v 0.500000 0.368663 -1.042102
v 0.494976 0.368663 -1.037078
v 0.494976 0.386944 -1.037078
v 0.500000 0.386944 -1.042102
v 0.500000 0.405225 -1.042102
v 0.494976 0.405225 -1.037078
v 0.494976 0.423506 -1.037078
v 0.500000 0.423506 -1.042102
v 0.500000 0.441787 -1.042102
v 0.494976 0.441787 -1.037078
v 0.494976 0.460068 -1.037078
v 0.500000 0.460068 -1.042102
v 0.500000 0.478350 -1.042102
v 0.494976 0.478349 -1.037078
v 0.494976 0.496631 -1.037078
v 0.500000 0.496630 -1.042102
v 0.500000 0.514911 -1.042102
v 0.494976 0.514911 -1.037078
v 0.494976 0.533193 -1.037078
v 0.500000 0.533193 -1.042102
v 0.494977 0.204134 -2.037078
v 0.500000 0.204134 -2.032055
v 0.500000 0.204134 -1.042102
v 0.494977 0.204134 -1.037078
v -0.500000 0.204134 -2.032055
v -0.494976 0.204134 -2.037078
v -0.494976 0.204134 -1.037078
v -0.500000 0.204134 -1.042102
v 0.492353 0.496211 -2.024407
v 0.487329 0.496211 -2.029431
v 0.492353 0.496211 -1.049749
v 0.487329 0.496211 -1.044726
v 0.492353 0.514212 -2.024407
v 0.487329 0.514212 -2.029431
v 0.492353 0.514212 -1.049749
v 0.487329 0.514212 -1.044726
v -0.487329 0.496211 -2.029431
v -0.492353 0.496211 -2.024407
v -0.487329 0.514212 -2.029431
v -0.492353 0.514212 -2.024407
v -0.492353 0.496211 -1.049749
v -0.487329 0.496211 -1.044726
v -0.492353 0.514212 -1.049749
v -0.487329 0.514212 -1.044726
v 0.492353 0.460208 -2.024407
v 0.487329 0.460208 -2.029431
v 0.492353 0.460208 -1.049749
v 0.487329 0.460208 -1.044726
v 0.492353 0.478210 -2.024407
v 0.487329 0.478210 -2.029431
v 0.492353 0.478210 -1.049749
v 0.487329 0.478210 -1.044726
v -0.487329 0.460208 -2.029431
v -0.492353 0.460208 -2.024407
v -0.487329 0.478210 -2.029431
v -0.492353 0.478210 -2.024407
v -0.492353 0.460208 -1.049749
v -0.487329 0.460208 -1.044726
v -0.492353 0.478210 -1.049749
v -0.487329 0.478210 -1.044726
v 0.492353 0.424205 -2.024407
v 0.487329 0.424205 -2.029431
v 0.492353 0.424205 -1.049749
v 0.487329 0.424205 -1.044726
v 0.492353 0.442207 -2.024407
v 0.487329 0.442207 -2.029431
v 0.492353 0.442207 -1.049749
v 0.487329 0.442207 -1.044726
v -0.487329 0.424205 -2.029431
v -0.492353 0.424205 -2.024407
v -0.487329 0.442207 -2.029431
v -0.492353 0.442207 -2.024407
v -0.492353 0.424205 -1.049749
v -0.487329 0.424205 -1.044726
v -0.492353 0.442207 -1.049749
v -0.487329 0.442207 -1.044726
v 0.492353 0.388203 -2.024407
v 0.487329 0.388203 -2.029431
v 0.492353 0.388203 -1.049749
v 0.487329 0.388203 -1.044726
v 0.492353 0.406204 -2.024407
v 0.487329 0.406204 -2.029431
v 0.492353 0.406204 -1.049749
v 0.487329 0.406204 -1.044726
v -0.487329 0.388203 -2.029431
v -0.492353 0.388203 -2.024407
v -0.487329 0.406204 -2.029431
v -0.492353 0.406204 -2.024407
v -0.492353 0.388203 -1.049749
v -0.487329 0.388203 -1.044726
v -0.492353 0.406204 -1.049749
v -0.487329 0.406204 -1.044726
v 0.492353 0.352200 -2.024407
v 0.487329 0.352200 -2.029431
v 0.492353 0.352200 -1.049749
v 0.487329 0.352200 -1.044726
v 0.492353 0.370201 -2.024407
v 0.487329 0.370201 -2.029431
v 0.492353 0.370201 -1.049749
v 0.487329 0.370201 -1.044726
v -0.487329 0.352200 -2.029431
v -0.492353 0.352200 -2.024407
v -0.487329 0.370201 -2.029431
v -0.492353 0.370201 -2.024407
v -0.492353 0.352200 -1.049749
v -0.487329 0.352200 -1.044726
v -0.492353 0.370201 -1.049749
v -0.487329 0.370201 -1.044726
v 0.492353 0.316197 -2.024407
v 0.487329 0.316197 -2.029431
v 0.492353 0.316197 -1.049749
v 0.487329 0.316197 -1.044726
v 0.492353 0.334198 -2.024407
v 0.487329 0.334198 -2.029431
v 0.492353 0.334198 -1.049749
v 0.487329 0.334198 -1.044726
v -0.487329 0.316197 -2.029431
v -0.492353 0.316197 -2.024407
v -0.487329 0.334198 -2.029431
v -0.492353 0.334198 -2.024407
v -0.492353 0.316197 -1.049749
v -0.487329 0.316197 -1.044726
v -0.492353 0.334198 -1.049749
v -0.487329 0.334198 -1.044726
v 0.492353 0.280194 -2.024407
v 0.487329 0.280194 -2.029431
v 0.492353 0.280194 -1.049749
v 0.487329 0.280194 -1.044726
v 0.492353 0.298195 -2.024407
v 0.487329 0.298195 -2.029431
v 0.492353 0.298195 -1.049749
v 0.487329 0.298195 -1.044726
v -0.487329 0.280194 -2.029431
v -0.492353 0.280194 -2.024407
v -0.487329 0.298195 -2.029431
v -0.492353 0.298195 -2.024407
v -0.492353 0.280194 -1.049749
v -0.487329 0.280194 -1.044726
v -0.492353 0.298195 -1.049749
v -0.487329 0.298195 -1.044726
v 0.492353 0.244191 -2.024407
v 0.487329 0.244191 -2.029431
v 0.492353 0.244191 -1.049749
v 0.487329 0.244191 -1.044726
v 0.492353 0.262193 -2.024407
v 0.487329 0.262193 -2.029431
v 0.492353 0.262193 -1.049749
v 0.487329 0.262193 -1.044726
v -0.487329 0.244191 -2.029431
v -0.492353 0.244191 -2.024407
v -0.487329 0.262193 -2.029431
v -0.492353 0.262193 -2.024407
v -0.492353 0.244191 -1.049749
v -0.487329 0.244191 -1.044726
v -0.492353 0.262193 -1.049749
v -0.487329 0.262193 -1.044726
v 0.492353 0.208188 -2.024407
v 0.487329 0.208188 -2.029431
v 0.492353 0.208188 -1.049749
v 0.487329 0.208188 -1.044726
v 0.492353 0.226190 -2.024407
v 0.487329 0.226190 -2.029431
v 0.492353 0.226190 -1.049749
v 0.487329 0.226190 -1.044726
v -0.487329 0.208188 -2.029431
v -0.492353 0.208188 -2.024407
v -0.487329 0.226190 -2.029431
v -0.492353 0.226190 -2.024407
v -0.492353 0.208188 -1.049749
v -0.487329 0.208188 -1.044726
v -0.492353 0.226190 -1.049749
v -0.487329 0.226190 -1.044726
v 0.494977 0.191649 -1.037078
v 0.500000 0.191649 -1.042102
v 0.489180 0.185853 -1.042875
v 0.494204 0.185853 -1.047898
v 0.489180 0.185853 -2.031282
v 0.494204 0.185853 -2.026258
v 0.500000 0.191649 -2.032055
v 0.494977 0.191649 -2.037078
v -0.494204 0.185853 -1.047898
v -0.489180 0.185853 -1.042875
v -0.500000 0.191649 -1.042102
v -0.494976 0.191649 -1.037078
v -0.489180 0.185853 -2.031282
v -0.494204 0.185853 -2.026258
v -0.494976 0.191649 -2.037078
v -0.500000 0.191649 -2.032055
vt 0.740761 0.497147
vt 0.743188 0.500015
vt 0.743318 0.977423
vt 0.736792 0.977184
vt 0.770517 0.497191
vt 0.228259 0.003051
vt 0.219105 0.002893
vt 0.779493 0.497223
vt 0.796451 0.497168
vt 0.201999 0.002832
vt 0.192846 0.002683
vt 0.805429 0.497199
vt 0.822181 0.497141
vt 0.175949 0.002666
vt 0.166798 0.002534
vt 0.831160 0.497174
vt 0.847743 0.497117
vt 0.150081 0.002564
vt 0.140934 0.002452
vt 0.856722 0.497151
vt 0.873171 0.497095
vt 0.124363 0.002531
vt 0.115221 0.002444
vt 0.882150 0.497130
vt 0.898500 0.497075
vt 0.098757 0.002572
vt 0.089620 0.002514
vt 0.907480 0.497109
vt 0.923772 0.497056
vt 0.073226 0.002693
vt 0.064093 0.002668
vt 0.932752 0.497090
vt 0.949026 0.497035
vt 0.047728 0.002898
vt 0.038601 0.002912
vt 0.958007 0.497064
vt 0.974307 0.497041
vt 0.022216 0.003197
vt 0.742456 0.490967
vt 0.983261 0.497777
vt 0.226615 0.486634
vt 0.229570 0.491328
vt 0.221334 0.491735
vt 0.217995 0.486952
vt 0.200299 0.486124
vt 0.204828 0.492132
vt 0.196360 0.492485
vt 0.191817 0.486661
vt 0.174535 0.486158
vt 0.179728 0.492657
vt 0.171197 0.492968
vt 0.166115 0.486725
vt 0.149114 0.486358
vt 0.154564 0.493015
vt 0.146017 0.493324
vt 0.140718 0.486910
vt 0.123918 0.486621
vt 0.129414 0.493276
vt 0.120871 0.493617
vt 0.115530 0.487157
vt 0.098885 0.486926
vt 0.104283 0.493510
vt 0.095741 0.493882
vt 0.090501 0.487445
vt 0.073981 0.487250
vt 0.079130 0.493658
vt 0.070579 0.494067
vt 0.065613 0.487775
vt 0.049228 0.487616
vt 0.053874 0.493658
vt 0.045282 0.494068
vt 0.040920 0.488132
vt 0.024846 0.487549
vt 0.028288 0.493090
vt 0.019265 0.492844
vt 0.016675 0.490320
vt 0.219754 0.979810
vt 0.969165 0.006929
vt 0.960230 0.006997
vt 0.210609 0.979534
vt 0.193467 0.979100
vt 0.943339 0.007112
vt 0.934408 0.007165
vt 0.184316 0.978775
vt 0.167413 0.978294
vt 0.917729 0.007253
vt 0.908803 0.007289
vt 0.158258 0.977926
vt 0.141558 0.977403
vt 0.892301 0.007349
vt 0.883376 0.007368
vt 0.132395 0.976996
vt 0.115862 0.976431
vt 0.867013 0.007401
vt 0.858091 0.007402
vt 0.106692 0.975989
vt 0.090287 0.975384
vt 0.841827 0.007407
vt 0.832905 0.007390
vt 0.081107 0.974911
vt 0.064793 0.974265
vt 0.816699 0.007365
vt 0.807776 0.007330
vt 0.055602 0.973765
vt 0.039342 0.973078
vt 0.791586 0.007275
vt 0.782660 0.007212
vt 0.030140 0.972556
vt 0.013899 0.971831
vt 0.766421 0.006900
vt 0.258839 0.002444
vt 0.004970 0.971338
vt 0.970184 0.490096
vt 0.770666 0.980126
vt 0.779644 0.980139
vt 0.961212 0.490110
vt 0.944194 0.490298
vt 0.796604 0.980096
vt 0.805582 0.980115
vt 0.935217 0.490296
vt 0.918395 0.490458
vt 0.822335 0.980071
vt 0.831312 0.980092
vt 0.909414 0.490440
vt 0.892758 0.490574
vt 0.847893 0.980046
vt 0.856871 0.980070
vt 0.883774 0.490539
vt 0.867250 0.490645
vt 0.873314 0.980022
vt 0.882290 0.980048
vt 0.858265 0.490592
vt 0.841837 0.490670
vt 0.898634 0.979997
vt 0.907609 0.980025
vt 0.832852 0.490600
vt 0.816487 0.490646
vt 0.923892 0.979971
vt 0.932867 0.980002
vt 0.807503 0.490559
vt 0.791160 0.490574
vt 0.949128 0.979949
vt 0.958102 0.979987
vt 0.782180 0.490469
vt 0.765827 0.490452
vt 0.974386 0.979915
vt 0.983307 0.979238
vt 0.985657 0.982377
vt 0.034802 0.006794
vt 0.961709 0.500064
vt 0.961829 0.976898
vt 0.778427 0.486758
vt 0.970569 0.500146
vt 0.025996 0.006843
vt 0.769600 0.486661
vt 0.970681 0.976928
vt 0.041234 0.496577
vt 0.037269 0.485145
vt 0.028492 0.484859
vt 0.032133 0.496491
vt 0.778962 0.010233
vt 0.026553 0.968799
vt 0.017776 0.968311
vt 0.770140 0.010059
vt 0.060294 0.006539
vt 0.936445 0.500071
vt 0.936585 0.976923
vt 0.803753 0.486856
vt 0.945305 0.500115
vt 0.051485 0.006552
vt 0.794921 0.486775
vt 0.945438 0.976967
vt 0.066577 0.496671
vt 0.061892 0.484803
vt 0.052942 0.484753
vt 0.057610 0.496982
vt 0.804084 0.010364
vt 0.052010 0.970011
vt 0.043210 0.969539
vt 0.795267 0.010298
vt 0.085800 0.006374
vt 0.911187 0.500089
vt 0.911343 0.976948
vt 0.829085 0.486905
vt 0.920046 0.500133
vt 0.076986 0.006354
vt 0.820251 0.486841
vt 0.920196 0.976992
vt 0.091740 0.496572
vt 0.086729 0.484491
vt 0.077732 0.484434
vt 0.082830 0.497035
vt 0.829199 0.010430
vt 0.077489 0.971156
vt 0.068668 0.970706
vt 0.820383 0.010381
vt 0.111359 0.006293
vt 0.885891 0.500106
vt 0.886059 0.976975
vt 0.854460 0.486904
vt 0.894750 0.500149
vt 0.102541 0.006244
vt 0.845626 0.486858
vt 0.894913 0.977020
vt 0.116848 0.496380
vt 0.111697 0.484231
vt 0.102679 0.484164
vt 0.107979 0.496951
vt 0.854351 0.010446
vt 0.103029 0.972229
vt 0.094188 0.971806
vt 0.845537 0.010413
vt 0.137013 0.006289
vt 0.860519 0.500123
vt 0.860692 0.977003
vt 0.879915 0.486857
vt 0.869376 0.500164
vt 0.128188 0.006215
vt 0.871081 0.486828
vt 0.869548 0.977049
vt 0.141955 0.496139
vt 0.136806 0.484011
vt 0.127771 0.483917
vt 0.133124 0.496788
vt 0.879583 0.010413
vt 0.128670 0.973229
vt 0.119809 0.972833
vt 0.870767 0.010396
vt 0.162799 0.006358
vt 0.835029 0.500140
vt 0.835208 0.977033
vt 0.905483 0.486764
vt 0.843886 0.500179
vt 0.153967 0.006262
vt 0.896650 0.486751
vt 0.844063 0.977079
vt 0.167088 0.495839
vt 0.162103 0.483857
vt 0.153046 0.483720
vt 0.158305 0.496578
vt 0.904936 0.010333
vt 0.154448 0.974149
vt 0.145570 0.973786
vt 0.896120 0.010331
vt 0.188752 0.006495
vt 0.809388 0.500158
vt 0.809568 0.977065
vt 0.931195 0.486626
vt 0.818243 0.500195
vt 0.179913 0.006380
vt 0.922366 0.486630
vt 0.818424 0.977111
vt 0.192208 0.495414
vt 0.187672 0.483815
vt 0.178569 0.483594
vt 0.183504 0.496258
vt 0.930451 0.010207
vt 0.180405 0.974987
vt 0.171506 0.974658
vt 0.921630 0.010220
vt 0.214903 0.006694
vt 0.783560 0.500175
vt 0.783737 0.977099
vt 0.957083 0.486446
vt 0.792415 0.500211
vt 0.206060 0.006564
vt 0.948260 0.486465
vt 0.792593 0.977144
vt 0.217173 0.494724
vt 0.213671 0.484077
vt 0.204475 0.483664
vt 0.208624 0.495723
vt 0.956165 0.010036
vt 0.206579 0.975732
vt 0.197657 0.975442
vt 0.947340 0.010064
vt 0.245584 0.003144
vt 0.753325 0.497260
vt 0.747200 0.497431
vt 0.251807 0.003240
vt 0.241266 0.006943
vt 0.757511 0.500203
vt 0.753464 0.980163
vt 0.987424 0.489883
vt 0.993549 0.489862
vt 0.747339 0.979997
vt 0.757681 0.977112
vt 0.983178 0.486225
vt 0.766365 0.500229
vt 0.232430 0.006805
vt 0.974360 0.486259
vt 0.766539 0.977171
vt 0.245128 0.492349
vt 0.244992 0.488992
vt 0.251288 0.489991
vt 0.250291 0.492581
vt 0.241304 0.493928
vt 0.240391 0.485652
vt 0.230996 0.484370
vt 0.233261 0.494624
vt 0.986302 0.006805
vt 0.237194 0.980227
vt 0.243625 0.980375
vt 0.992407 0.006807
vt 0.982114 0.009840
vt 0.233002 0.976376
vt 0.224053 0.976127
vt 0.973284 0.009868
vt 0.997559 0.005612
vt 0.250112 0.980110
vt 0.258839 0.494323
vt 0.253846 0.492662
vt 0.997559 0.487016
vt 0.255871 0.006214
vt 0.736792 0.494323
vt 0.746345 0.494216
vt 0.758118 0.496722
vt 0.765630 0.496548
vt 0.784197 0.496692
vt 0.791650 0.496528
vt 0.810038 0.496678
vt 0.817463 0.496510
vt 0.835693 0.496665
vt 0.843089 0.496493
vt 0.861193 0.496651
vt 0.868568 0.496477
vt 0.886576 0.496637
vt 0.893935 0.496462
vt 0.911877 0.496621
vt 0.919227 0.496446
vt 0.937136 0.496604
vt 0.944482 0.496429
vt 0.962399 0.496596
vt 0.969783 0.496414
vt 0.770212 0.493855
vt 0.753635 0.494147
vt 0.796137 0.493834
vt 0.779968 0.494069
vt 0.821864 0.493810
vt 0.805908 0.494052
vt 0.847422 0.493787
vt 0.831647 0.494035
vt 0.872847 0.493767
vt 0.857215 0.494019
vt 0.898175 0.493748
vt 0.882648 0.494002
vt 0.923445 0.493731
vt 0.907981 0.493985
vt 0.948694 0.493712
vt 0.933254 0.493967
vt 0.974397 0.493635
vt 0.958503 0.493945
vt 0.249064 0.490589
vt 0.238759 0.488627
vt 0.229900 0.487483
vt 0.212826 0.487890
vt 0.204159 0.487388
vt 0.187148 0.487852
vt 0.178678 0.487561
vt 0.161699 0.487939
vt 0.153401 0.487786
vt 0.136428 0.488063
vt 0.128279 0.488015
vt 0.111289 0.488220
vt 0.103270 0.488263
vt 0.086246 0.488385
vt 0.078338 0.488490
vt 0.061278 0.488557
vt 0.053457 0.488690
vt 0.036449 0.488686
vt 0.028992 0.488628
vt 0.225421 0.487894
vt 0.243662 0.490381
vt 0.199483 0.487760
vt 0.217731 0.489625
vt 0.173893 0.487954
vt 0.191969 0.489761
vt 0.148553 0.488236
vt 0.166415 0.489997
vt 0.123384 0.488547
vt 0.141034 0.490250
vt 0.098341 0.488881
vt 0.115786 0.490514
vt 0.073381 0.489205
vt 0.090633 0.490778
vt 0.048483 0.489513
vt 0.065540 0.491025
vt 0.024911 0.488972
vt 0.040505 0.491215
vt 0.992904 0.003578
vt 0.973870 0.006376
vt 0.981350 0.006176
vt 0.947944 0.006576
vt 0.955376 0.006375
vt 0.922253 0.006737
vt 0.929650 0.006543
vt 0.896758 0.006853
vt 0.904124 0.006666
vt 0.871421 0.006922
vt 0.878763 0.006744
vt 0.846201 0.006942
vt 0.853525 0.006774
vt 0.821058 0.006913
vt 0.828372 0.006756
vt 0.795948 0.006833
vt 0.803260 0.006688
vt 0.770985 0.006651
vt 0.778198 0.006555
vt 0.969587 0.003780
vt 0.986023 0.003521
vt 0.943775 0.003972
vt 0.959874 0.003677
vt 0.918181 0.004122
vt 0.934055 0.003847
vt 0.892767 0.004227
vt 0.908453 0.003973
vt 0.867491 0.004286
vt 0.883031 0.004053
vt 0.842316 0.004297
vt 0.857750 0.004088
vt 0.817197 0.004259
vt 0.832569 0.004075
vt 0.792097 0.004171
vt 0.807448 0.004015
vt 0.767410 0.003925
vt 0.782359 0.003896
vt 0.258839 0.977184
vt 0.255871 0.488633
vt 0.758332 0.002441
vt 0.740872 0.980147
vt 0.756869 0.490343
vt 0.985657 0.494821
vt 0.746347 0.983163
vt 0.765910 0.980658
vt 0.758411 0.980803
vt 0.791946 0.980627
vt 0.784488 0.980780
vt 0.817762 0.980590
vt 0.810337 0.980748
vt 0.843391 0.980554
vt 0.835994 0.980718
vt 0.868866 0.980521
vt 0.861493 0.980689
vt 0.894225 0.980489
vt 0.886869 0.980661
vt 0.919506 0.980460
vt 0.912160 0.980635
vt 0.944745 0.980434
vt 0.937405 0.980610
vt 0.970020 0.980394
vt 0.962627 0.980586
vt 0.770210 0.983285
vt 0.753615 0.983475
vt 0.796134 0.983249
vt 0.779967 0.983471
vt 0.821857 0.983216
vt 0.805905 0.983445
vt 0.847408 0.983183
vt 0.831638 0.983421
vt 0.872821 0.983153
vt 0.857197 0.983397
vt 0.898137 0.983123
vt 0.882618 0.983374
vt 0.923392 0.983096
vt 0.907937 0.983351
vt 0.948621 0.983071
vt 0.933196 0.983327
vt 0.974238 0.983075
vt 0.958417 0.983310
vt 0.258839 0.490967
vt 0.757511 0.006035
vt 0.002441 0.973633
vt 0.742456 0.002444
vt 0.013087 0.003257
vt 0.996396 0.009077
vt 0.247679 0.977631
vn 0.000006 -1.000000 0.000000
vn 0.000006 -1.000000 0.000000
vn 0.000006 -1.000000 0.000000
vn 0.000006 -1.000000 0.000000
vn 0.707097 0.000002 -0.707117
vn 0.707097 0.000002 -0.707117
vn 0.707097 0.000002 -0.707117
vn 0.707097 0.000002 -0.707117
vn 0.707112 0.000000 -0.707102
vn 0.707112 0.000000 -0.707102
vn 0.707112 0.000000 -0.707102
vn 0.707111 0.000000 -0.707102
vn 0.707094 0.000000 -0.707120
vn 0.707094 0.000000 -0.707120
vn 0.707094 0.000000 -0.707120
vn 0.707094 0.000000 -0.707120
vn 0.707095 0.000000 -0.707119
vn 0.707095 0.000000 -0.707119
vn 0.707095 0.000000 -0.707119
vn 0.707095 0.000000 -0.707119
vn 0.707092 0.000000 -0.707121
vn 0.707092 0.000000 -0.707121
vn 0.707092 0.000000 -0.707121
vn 0.707092 0.000000 -0.707121
vn 0.707093 0.000000 -0.707120
vn 0.707093 0.000000 -0.707120
vn 0.707093 0.000000 -0.707120
vn 0.707093 0.000000 -0.707120
vn 0.707095 0.000000 -0.707118
vn 0.707095 0.000000 -0.707118
vn 0.707095 0.000000 -0.707118
vn 0.707095 0.000000 -0.707118
vn 0.707109 0.000000 -0.707105
vn 0.707109 0.000000 -0.707105
vn 0.707109 0.000000 -0.707105
vn 0.707109 0.000000 -0.707105
vn 0.707092 -0.000002 -0.707121
vn 0.707092 -0.000002 -0.707121
vn 0.707093 -0.000002 -0.707121
vn 0.707092 -0.000002 -0.707121
vn -0.707110 0.000000 -0.707103
vn -0.707110 0.000000 -0.707103
vn -0.707110 0.000000 -0.707103
vn -0.707110 0.000000 -0.707103
vn -0.707097 0.000000 -0.707117
vn -0.707097 0.000000 -0.707117
vn -0.707097 0.000000 -0.707117
vn -0.707097 0.000000 -0.707117
vn -0.707110 0.000000 -0.707104
vn -0.707110 0.000000 -0.707104
vn -0.707110 0.000000 -0.707104
vn -0.707110 0.000000 -0.707104
vn -0.707097 0.000000 -0.707117
vn -0.707097 0.000000 -0.707117
vn -0.707097 0.000000 -0.707117
vn -0.707097 0.000000 -0.707117
vn -0.707110 0.000000 -0.707104
vn -0.707110 0.000000 -0.707104
vn -0.707110 0.000000 -0.707104
vn -0.707110 0.000000 -0.707104
vn -0.707097 0.000000 -0.707117
vn -0.707097 0.000000 -0.707117
vn -0.707097 0.000000 -0.707117
vn -0.707097 0.000000 -0.707117
vn -0.707097 0.000000 -0.707117
vn -0.707097 0.000000 -0.707117
vn -0.707097 0.000000 -0.707117
vn -0.707097 0.000000 -0.707117
vn -0.707110 0.000000 -0.707103
vn -0.707110 0.000000 -0.707103
vn -0.707110 0.000000 -0.707103
vn -0.707110 0.000000 -0.707103
vn -0.707096 0.000000 -0.707118
vn -0.707096 0.000000 -0.707118
vn -0.707096 0.000000 -0.707118
vn -0.707096 0.000000 -0.707118
vn -0.707103 0.000000 0.707110
vn -0.707103 0.000000 0.707110
vn -0.707103 0.000000 0.707110
vn -0.707103 0.000000 0.707110
vn -0.707104 0.000000 0.707109
vn -0.707104 0.000000 0.707109
vn -0.707104 0.000000 0.707109
vn -0.707104 0.000000 0.707109
vn -0.707103 0.000000 0.707111
vn -0.707103 0.000000 0.707111
vn -0.707103 0.000000 0.707111
vn -0.707103 0.000000 0.707111
vn -0.707104 0.000000 0.707109
vn -0.707104 0.000000 0.707109
vn -0.707104 0.000000 0.707109
vn -0.707104 0.000000 0.707109
vn -0.707110 0.000000 0.707104
vn -0.707110 0.000000 0.707104
vn -0.707110 0.000000 0.707104
vn -0.707110 0.000000 0.707104
vn -0.707104 0.000000 0.707109
vn -0.707104 0.000000 0.707109
vn -0.707104 0.000000 0.707109
vn -0.707104 0.000000 0.707109
vn -0.707104 0.000000 0.707109
vn -0.707104 0.000000 0.707109
vn -0.707104 0.000000 0.707109
vn -0.707104 0.000000 0.707109
vn -0.707103 0.000000 0.707110
vn -0.707103 0.000000 0.707110
vn -0.707103 0.000000 0.707110
vn -0.707103 0.000000 0.707110
vn -0.707103 0.000000 0.707110
vn -0.707103 0.000000 0.707110
vn -0.707103 0.000000 0.707110
vn -0.707103 0.000000 0.707110
vn 0.707111 0.000002 0.707103
vn 0.707111 0.000002 0.707103
vn 0.707111 0.000002 0.707103
vn 0.707111 0.000002 0.707103
vn 0.707111 0.000000 0.707102
vn 0.707112 0.000000 0.707102
vn 0.707112 0.000000 0.707102
vn 0.707112 0.000000 0.707102
vn 0.707100 0.000000 0.707114
vn 0.707100 0.000000 0.707114
vn 0.707100 0.000000 0.707114
vn 0.707100 0.000000 0.707114
vn 0.707102 0.000000 0.707112
vn 0.707102 0.000000 0.707112
vn 0.707102 0.000000 0.707112
vn 0.707102 0.000000 0.707112
vn 0.707100 0.000000 0.707114
vn 0.707100 0.000000 0.707114
vn 0.707100 0.000000 0.707114
vn 0.707100 0.000000 0.707114
vn 0.707093 0.000000 0.707120
vn 0.707093 0.000000 0.707120
vn 0.707093 0.000000 0.707120
vn 0.707093 0.000000 0.707120
vn 0.707102 0.000000 0.707111
vn 0.707102 0.000000 0.707111
vn 0.707102 0.000000 0.707111
vn 0.707102 0.000000 0.707111
vn 0.707109 0.000000 0.707105
vn 0.707109 0.000000 0.707105
vn 0.707109 0.000000 0.707105
vn 0.707109 0.000000 0.707105
vn 0.707099 -0.000002 0.707114
vn 0.707100 -0.000002 0.707114
vn 0.707099 -0.000002 0.707114
vn 0.707100 -0.000002 0.707114
vn -0.054222 0.998529 0.000549
vn -0.000548 0.998529 0.054221
vn -0.000186 0.998509 0.054583
vn -0.054584 0.998509 0.000186
vn -0.000548 0.998529 -0.054219
vn -0.054222 0.998529 -0.000549
vn -0.054584 0.998509 -0.000186
vn -0.000186 0.998509 -0.054581
vn 0.000910 -0.995930 -0.090128
vn 0.090128 -0.995930 -0.000910
vn 0.090725 -0.995876 -0.000309
vn 0.000308 -0.995876 -0.090725
vn 0.090128 -0.995930 0.000910
vn 0.000910 -0.995930 0.090123
vn 0.000308 -0.995876 0.090719
vn 0.090725 -0.995876 0.000309
vn 0.000548 0.998529 0.054221
vn 0.054223 0.998529 0.000548
vn 0.054585 0.998509 0.000186
vn 0.000186 0.998509 0.054583
vn -0.090128 -0.995930 -0.000910
vn -0.000910 -0.995930 -0.090128
vn -0.000309 -0.995876 -0.090725
vn -0.090725 -0.995876 -0.000309
vn 0.054223 0.998529 -0.000548
vn 0.000548 0.998529 -0.054219
vn 0.000186 0.998509 -0.054581
vn 0.054585 0.998509 -0.000186
vn -0.000910 -0.995930 0.090123
vn -0.090128 -0.995930 0.000910
vn -0.090725 -0.995876 0.000309
vn -0.000309 -0.995876 0.090719
vn 0.018110 0.999836 -0.000183
vn 0.000183 0.999836 -0.018105
vn 0.000062 0.999834 -0.018226
vn 0.018232 0.999834 -0.000062
vn 0.000183 0.999836 0.018107
vn 0.018110 0.999836 0.000183
vn 0.018232 0.999834 0.000062
vn 0.000062 0.999834 0.018228
vn 0.000183 -0.999836 -0.018095
vn 0.018103 -0.999836 -0.000183
vn 0.018224 -0.999834 -0.000062
vn 0.000062 -0.999834 -0.018216
vn 0.018103 -0.999836 0.000183
vn 0.000183 -0.999836 0.018097
vn 0.000062 -0.999834 0.018218
vn 0.018224 -0.999834 0.000062
vn -0.000183 0.999836 -0.018105
vn -0.018107 0.999836 -0.000183
vn -0.018228 0.999834 -0.000062
vn -0.000062 0.999834 -0.018226
vn -0.018099 -0.999836 -0.000183
vn -0.000183 -0.999836 -0.018095
vn -0.000062 -0.999834 -0.018216
vn -0.018220 -0.999834 -0.000062
vn -0.018107 0.999836 0.000183
vn -0.000183 0.999836 0.018107
vn -0.000062 0.999834 0.018228
vn -0.018228 0.999834 0.000062
vn -0.000183 -0.999836 0.018097
vn -0.018099 -0.999836 0.000183
vn -0.018220 -0.999834 0.000062
vn -0.000062 -0.999834 0.018218
vn 0.090124 0.995930 -0.000910
vn 0.000910 0.995930 -0.090126
vn 0.000309 0.995876 -0.090723
vn 0.090721 0.995876 -0.000309
vn 0.000910 0.995930 0.090124
vn 0.090124 0.995930 0.000910
vn 0.090721 0.995876 0.000309
vn 0.000309 0.995876 0.090721
vn -0.000548 -0.998530 0.054199
vn -0.054207 -0.998530 0.000548
vn -0.054569 -0.998510 0.000185
vn -0.000185 -0.998510 0.054561
vn -0.054207 -0.998530 -0.000548
vn -0.000548 -0.998530 -0.054201
vn -0.000185 -0.998510 -0.054563
vn -0.054569 -0.998510 -0.000185
vn -0.000910 0.995930 -0.090126
vn -0.090128 0.995930 -0.000910
vn -0.090725 0.995876 -0.000309
vn -0.000309 0.995876 -0.090723
vn 0.054203 -0.998530 0.000548
vn 0.000548 -0.998530 0.054199
vn 0.000185 -0.998510 0.054561
vn 0.054565 -0.998510 0.000185
vn -0.090128 0.995930 0.000910
vn -0.000910 0.995930 0.090124
vn -0.000309 0.995876 0.090721
vn -0.090725 0.995876 0.000309
vn 0.000548 -0.998530 -0.054201
vn 0.054203 -0.998530 -0.000548
vn 0.054565 -0.998510 -0.000185
vn 0.000185 -0.998510 -0.054563
vn 0.160784 0.986988 -0.001614
vn 0.001614 0.986989 -0.160783
vn 0.000551 0.986821 -0.161818
vn 0.161819 0.986820 -0.000551
vn 0.001614 0.986989 0.160780
vn 0.160784 0.986988 0.001614
vn 0.161819 0.986820 0.000551
vn 0.000551 0.986821 0.161816
vn -0.001266 -0.992070 0.125680
vn -0.125688 -0.992069 0.001266
vn -0.126510 -0.991965 0.000431
vn -0.000431 -0.991966 0.126502
vn -0.125688 -0.992069 -0.001266
vn -0.001266 -0.992070 -0.125683
vn -0.000431 -0.991966 -0.126505
vn -0.126510 -0.991965 -0.000431
vn -0.001614 0.986988 -0.160783
vn -0.160785 0.986988 -0.001614
vn -0.161820 0.986820 -0.000551
vn -0.000551 0.986821 -0.161818
vn 0.125681 -0.992070 0.001266
vn 0.001266 -0.992070 0.125680
vn 0.000431 -0.991966 0.126502
vn 0.126503 -0.991966 0.000431
vn -0.160785 0.986988 0.001614
vn -0.001614 0.986989 0.160780
vn -0.000551 0.986821 0.161816
vn -0.161820 0.986820 0.000551
vn 0.001266 -0.992070 -0.125682
vn 0.125681 -0.992070 -0.001266
vn 0.126503 -0.991966 -0.000431
vn 0.000431 -0.991966 -0.126505
vn 0.229050 0.973412 -0.002280
vn 0.002279 0.973412 -0.229049
vn 0.000788 0.973081 -0.230462
vn 0.230464 0.973081 -0.000788
vn 0.002279 0.973413 0.229047
vn 0.229050 0.973412 0.002280
vn 0.230464 0.973081 0.000788
vn 0.000788 0.973082 0.230460
vn -0.001953 -0.980748 0.195270
vn -0.195270 -0.980748 0.001953
vn -0.196503 -0.980503 0.000670
vn -0.000670 -0.980503 0.196503
vn -0.195270 -0.980748 -0.001952
vn -0.001953 -0.980747 -0.195272
vn -0.000671 -0.980503 -0.196505
vn -0.196503 -0.980503 -0.000670
vn -0.002280 0.973412 -0.229049
vn -0.229048 0.973413 -0.002280
vn -0.230461 0.973081 -0.000788
vn -0.000788 0.973081 -0.230462
vn 0.195270 -0.980747 0.001953
vn 0.001953 -0.980748 0.195270
vn 0.000670 -0.980503 0.196503
vn 0.196503 -0.980503 0.000670
vn -0.229048 0.973413 0.002280
vn -0.002280 0.973413 0.229047
vn -0.000788 0.973082 0.230460
vn -0.230461 0.973081 0.000788
vn 0.001953 -0.980747 -0.195272
vn 0.195271 -0.980747 -0.001953
vn 0.196503 -0.980503 -0.000670
vn 0.000670 -0.980503 -0.196505
vn 0.294135 0.955760 -0.002894
vn 0.002894 0.955759 -0.294137
vn 0.001015 0.955233 -0.295853
vn 0.295850 0.955234 -0.001015
vn 0.002894 0.955762 0.294128
vn 0.294135 0.955760 0.002894
vn 0.295850 0.955234 0.001015
vn 0.001015 0.955236 0.295843
vn -0.002594 -0.965054 0.262039
vn -0.262042 -0.965053 0.002594
vn -0.263616 -0.964627 0.000903
vn -0.000903 -0.964628 0.263613
vn -0.262042 -0.965053 -0.002594
vn -0.002594 -0.965053 -0.262041
vn -0.000903 -0.964627 -0.263615
vn -0.263616 -0.964627 -0.000903
vn -0.002894 0.955759 -0.294137
vn -0.294136 0.955759 -0.002894
vn -0.295851 0.955234 -0.001015
vn -0.001015 0.955233 -0.295853
vn 0.262039 -0.965054 0.002594
vn 0.002594 -0.965054 0.262039
vn 0.000903 -0.964628 0.263613
vn 0.263614 -0.964628 0.000903
vn -0.294136 0.955759 0.002894
vn -0.002894 0.955762 0.294128
vn -0.001015 0.955236 0.295843
vn -0.295851 0.955234 0.001015
vn 0.002594 -0.965053 -0.262041
vn 0.262039 -0.965054 -0.002594
vn 0.263614 -0.964628 -0.000903
vn 0.000903 -0.964627 -0.263615
vn 0.355386 0.934713 -0.003449
vn 0.003449 0.934715 -0.355382
vn 0.001232 0.933982 -0.357318
vn 0.357322 0.933981 -0.001232
vn 0.003449 0.934714 0.355383
vn 0.355386 0.934713 0.003449
vn 0.357322 0.933981 0.001232
vn 0.001232 0.933982 0.357319
vn -0.003179 -0.945616 0.325271
vn -0.325274 -0.945614 0.003179
vn -0.327110 -0.944986 0.001125
vn -0.001125 -0.944987 0.327107
vn -0.325274 -0.945614 -0.003179
vn -0.003179 -0.945616 -0.325270
vn -0.001125 -0.944987 -0.327106
vn -0.327110 -0.944986 -0.001125
vn -0.003449 0.934715 -0.355382
vn -0.355384 0.934714 -0.003449
vn -0.357320 0.933981 -0.001232
vn -0.001232 0.933982 -0.357318
vn 0.325275 -0.945614 0.003179
vn 0.003179 -0.945615 0.325271
vn 0.001125 -0.944987 0.327107
vn 0.327111 -0.944985 0.001125
vn -0.355384 0.934714 0.003449
vn -0.003449 0.934714 0.355383
vn -0.001232 0.933982 0.357319
vn -0.357320 0.933981 0.001232
vn 0.003179 -0.945616 -0.325270
vn 0.325275 -0.945614 -0.003179
vn 0.327111 -0.944985 -0.001125
vn 0.001125 -0.944987 -0.327106
vn 0.412406 0.910992 -0.003940
vn 0.003940 0.910988 -0.412414
vn 0.001437 0.910053 -0.414490
vn 0.414482 0.910056 -0.001437
vn 0.003940 0.910990 0.412411
vn 0.412406 0.910992 0.003940
vn 0.414482 0.910056 0.001437
vn 0.001437 0.910054 0.414487
vn -0.003703 -0.923143 0.384440
vn -0.384444 -0.923141 0.003703
vn -0.386459 -0.922306 0.001336
vn -0.001336 -0.922307 0.386455
vn -0.384444 -0.923141 -0.003703
vn -0.003703 -0.923143 -0.384440
vn -0.001336 -0.922307 -0.386455
vn -0.386459 -0.922306 -0.001336
vn -0.003940 0.910988 -0.412414
vn -0.412408 0.910991 -0.003940
vn -0.414483 0.910056 -0.001437
vn -0.001437 0.910053 -0.414490
vn 0.384441 -0.923142 0.003703
vn 0.003703 -0.923143 0.384440
vn 0.001336 -0.922307 0.386455
vn 0.386456 -0.922307 0.001336
vn -0.412408 0.910991 0.003940
vn -0.003940 0.910989 0.412411
vn -0.001437 0.910054 0.414487
vn -0.414483 0.910056 0.001437
vn 0.003703 -0.923143 -0.384440
vn 0.384441 -0.923142 -0.003703
vn 0.386456 -0.922307 -0.001336
vn 0.001336 -0.922307 -0.386455
vn 0.707110 0.000000 -0.707103
vn 0.707110 0.000000 -0.707104
vn 0.707110 0.000000 -0.707103
vn 0.707110 0.000000 -0.707104
vn 0.464984 0.885308 -0.004368
vn 0.004368 0.885306 -0.464989
vn 0.001630 0.884185 -0.467133
vn 0.467128 0.884188 -0.001630
vn 0.707105 0.000000 0.707109
vn 0.707105 0.000000 0.707109
vn 0.707105 0.000000 0.707109
vn 0.707105 0.000000 0.707109
vn 0.004368 0.885305 0.464990
vn 0.464984 0.885308 0.004368
vn 0.467128 0.884188 0.001630
vn 0.001630 0.884185 0.467134
vn -0.004162 -0.898355 0.439251
vn -0.439250 -0.898355 0.004162
vn -0.441369 -0.897325 0.001535
vn -0.001535 -0.897325 0.441369
vn -0.439250 -0.898355 -0.004162
vn -0.004162 -0.898355 -0.439250
vn -0.001535 -0.897325 -0.441368
vn -0.441369 -0.897325 -0.001535
vn -0.707108 0.000000 -0.707105
vn -0.707108 0.000000 -0.707105
vn -0.707108 0.000000 -0.707105
vn -0.707108 0.000000 -0.707105
vn -0.004368 0.885306 -0.464989
vn -0.464988 0.885306 -0.004368
vn -0.467133 0.884186 -0.001630
vn -0.001630 0.884185 -0.467133
vn 0.439252 -0.898354 0.004162
vn 0.004162 -0.898355 0.439250
vn 0.001535 -0.897325 0.441369
vn 0.441370 -0.897324 0.001535
vn -0.707103 0.000000 0.707111
vn -0.707103 0.000000 0.707111
vn -0.707103 0.000000 0.707111
vn -0.707103 0.000000 0.707111
vn -0.464988 0.885306 0.004368
vn -0.004368 0.885305 0.464990
vn -0.001630 0.884185 0.467134
vn -0.467133 0.884186 0.001630
vn 0.004162 -0.898355 -0.439250
vn 0.439252 -0.898354 -0.004162
vn 0.441370 -0.897324 -0.001535
vn 0.001535 -0.897325 -0.441368
vn 0.707115 0.000000 -0.707099
vn 0.707115 0.000000 -0.707099
vn 0.707115 0.000000 -0.707099
vn 0.707115 0.000000 -0.707099
vn 0.707108 0.000000 0.707106
vn 0.707108 0.000000 0.707106
vn 0.707108 0.000000 0.707106
vn 0.707108 0.000000 0.707106
vn -0.707097 0.000000 -0.707117
vn -0.707097 0.000000 -0.707117
vn -0.707097 0.000000 -0.707117
vn -0.707097 0.000000 -0.707117
vn -0.707104 0.000000 0.707110
vn -0.707104 0.000000 0.707110
vn -0.707104 0.000000 0.707110
vn -0.707104 0.000000 0.707110
vn 0.707114 0.000000 -0.707100
vn 0.707114 0.000000 -0.707100
vn 0.707114 0.000000 -0.707100
vn 0.707114 0.000000 -0.707100
vn 0.707114 0.000000 0.707100
vn 0.707114 0.000000 0.707100
vn 0.707114 0.000000 0.707100
vn 0.707114 0.000000 0.707100
vn -0.707112 0.000000 -0.707101
vn -0.707112 0.000000 -0.707101
vn -0.707112 0.000000 -0.707101
vn -0.707112 0.000000 -0.707101
vn -0.707105 0.000000 0.707109
vn -0.707105 0.000000 0.707109
vn -0.707105 0.000000 0.707109
vn -0.707105 0.000000 0.707109
vn 0.707100 0.000000 -0.707114
vn 0.707100 0.000000 -0.707114
vn 0.707100 0.000000 -0.707114
vn 0.707100 0.000000 -0.707114
vn 0.707107 0.000000 0.707107
vn 0.707107 0.000000 0.707107
vn 0.707107 0.000000 0.707107
vn 0.707107 0.000000 0.707107
vn -0.707098 0.000000 -0.707116
vn -0.707098 0.000000 -0.707116
vn -0.707098 0.000000 -0.707116
vn -0.707098 0.000000 -0.707116
vn -0.707105 0.000000 0.707109
vn -0.707105 0.000000 0.707109
vn -0.707105 0.000000 0.707109
vn -0.707105 0.000000 0.707109
vn 0.707115 0.000000 -0.707099
vn 0.707115 0.000000 -0.707099
vn 0.707115 0.000000 -0.707099
vn 0.707115 0.000000 -0.707099
vn 0.707108 0.000000 0.707106
vn 0.707108 0.000000 0.707106
vn 0.707108 0.000000 0.707106
vn 0.707108 0.000000 0.707106
vn -0.707099 0.000000 -0.707115
vn -0.707099 0.000000 -0.707115
vn -0.707099 0.000000 -0.707115
vn -0.707099 0.000000 -0.707115
vn -0.707106 0.000000 0.707107
vn -0.707106 0.000000 0.707107
vn -0.707106 0.000000 0.707107
vn -0.707106 0.000000 0.707107
vn 0.707112 0.000000 -0.707102
vn 0.707112 0.000000 -0.707102
vn 0.707112 0.000000 -0.707102
vn 0.707112 0.000000 -0.707102
vn 0.707112 0.000000 0.707102
vn 0.707112 0.000000 0.707102
vn 0.707112 0.000000 0.707102
vn 0.707112 0.000000 0.707102
vn -0.707110 0.000000 -0.707104
vn -0.707110 0.000000 -0.707104
vn -0.707110 0.000000 -0.707104
vn -0.707110 0.000000 -0.707104
vn -0.707103 0.000000 0.707111
vn -0.707103 0.000000 0.707111
vn -0.707103 0.000000 0.707111
vn -0.707103 0.000000 0.707111
vn 0.707113 0.000000 -0.707101
vn 0.707113 0.000000 -0.707101
vn 0.707113 0.000000 -0.707101
vn 0.707113 0.000000 -0.707101
vn 0.707105 0.000000 0.707108
vn 0.707105 0.000000 0.707108
vn 0.707105 0.000000 0.707108
vn 0.707105 0.000000 0.707108
vn -0.707110 0.000000 -0.707103
vn -0.707110 0.000000 -0.707103
vn -0.707110 0.000000 -0.707103
vn -0.707110 0.000000 -0.707103
vn -0.707103 0.000000 0.707110
vn -0.707103 0.000000 0.707110
vn -0.707103 0.000000 0.707110
vn -0.707103 0.000000 0.707110
vn 0.707113 0.000000 -0.707101
vn 0.707113 0.000000 -0.707101
vn 0.707113 0.000000 -0.707101
vn 0.707113 0.000000 -0.707101
vn 0.707105 0.000000 0.707108
vn 0.707105 0.000000 0.707108
vn 0.707105 0.000000 0.707108
vn 0.707105 0.000000 0.707108
vn -0.707110 0.000000 -0.707104
vn -0.707110 0.000000 -0.707104
vn -0.707110 0.000000 -0.707104
vn -0.707110 0.000000 -0.707104
vn -0.707110 0.000000 0.707104
vn -0.707110 0.000000 0.707104
vn -0.707110 0.000000 0.707104
vn -0.707110 0.000000 0.707104
vn 0.707097 0.000000 -0.707117
vn 0.707097 0.000000 -0.707117
vn 0.707097 0.000000 -0.707117
vn 0.707097 0.000000 -0.707117
vn 0.707104 0.000000 0.707110
vn 0.707104 0.000000 0.707109
vn 0.707104 0.000000 0.707109
vn 0.707104 0.000000 0.707109
vn -0.707097 0.000000 -0.707116
vn -0.707097 0.000000 -0.707116
vn -0.707097 0.000000 -0.707116
vn -0.707097 0.000000 -0.707116
vn -0.707105 0.000000 0.707109
vn -0.707105 0.000000 0.707109
vn -0.707105 0.000000 0.707109
vn -0.707105 0.000000 0.707109
vn 0.707098 -0.000002 -0.707115
vn 0.707098 -0.000002 -0.707115
vn 0.707098 -0.000002 -0.707115
vn 0.707098 -0.000002 -0.707115
vn 0.707098 -0.000002 0.707115
vn 0.707098 -0.000002 0.707115
vn 0.707098 -0.000002 0.707115
vn 0.707098 -0.000002 0.707115
vn -0.707113 0.000000 -0.707101
vn -0.707113 0.000000 -0.707101
vn -0.707113 0.000000 -0.707101
vn -0.707113 0.000000 -0.707101
vn -0.707105 0.000000 0.707108
vn -0.707105 0.000000 0.707108
vn -0.707105 0.000000 0.707108
vn -0.707105 0.000000 0.707108
vn 0.704156 -0.710021 0.005861
vn 0.005861 -0.710021 0.704156
vn 0.002579 -0.708395 0.705812
vn 0.705811 -0.708395 0.002579
vn 0.705811 -0.708395 -0.002579
vn 0.002579 -0.708388 -0.705819
vn 0.005861 -0.710014 -0.704163
vn 0.704156 -0.710021 -0.005861
vn -0.705809 -0.708397 0.002579
vn -0.002579 -0.708395 0.705812
vn -0.005861 -0.710021 0.704156
vn -0.704154 -0.710023 0.005861
vn -0.002579 -0.708388 -0.705819
vn -0.705809 -0.708397 -0.002579
vn -0.704154 -0.710023 -0.005861
vn -0.005861 -0.710014 -0.704163
vn 1.000000 0.000000 0.000000
vn 1.000000 0.000000 0.000000
vn 1.000000 0.000000 0.000000
vn 1.000000 0.000000 0.000000
vn 1.000000 0.000000 0.000000
vn 1.000000 0.000000 0.000000
vn 1.000000 0.000000 0.000000
vn 1.000000 0.000000 0.000000
vn 1.000000 0.000000 0.000000
vn 1.000000 0.000000 0.000000
vn 1.000000 0.000000 0.000000
vn 1.000000 0.000000 0.000000
vn 1.000000 0.000000 0.000000
vn 1.000000 0.000000 0.000000
vn 1.000000 0.000000 0.000000
vn 1.000000 0.000000 0.000000
vn 1.000000 0.000000 0.000000
vn 1.000000 0.000000 0.000000
vn 1.000000 0.000000 0.000000
vn 1.000000 0.000000 0.000000
vn 1.000000 0.000000 0.000000
vn 1.000000 0.000000 0.000000
vn 1.000000 0.000000 0.000000
vn 1.000000 0.000000 0.000000
vn 1.000000 0.000000 0.000000
vn 1.000000 0.000000 0.000000
vn 1.000000 0.000000 0.000000
vn 1.000000 0.000000 0.000000
vn 1.000000 0.000000 0.000000
vn 1.000000 0.000000 0.000000
vn 1.000000 0.000000 0.000000
vn 1.000000 0.000000 0.000000
vn 1.000000 0.000000 0.000000
vn 1.000000 0.000000 0.000000
vn 1.000000 0.000000 0.000000
vn 1.000000 0.000000 0.000000
vn 1.000000 0.000000 0.000000
vn 1.000000 0.000000 0.000000
vn 1.000000 0.000000 0.000000
vn 1.000000 0.000000 0.000000
vn 1.000000 0.000000 0.000000
vn 1.000000 0.000000 0.000000
vn 1.000000 0.000000 0.000000
vn 1.000000 0.000000 0.000000
vn 1.000000 0.000000 0.000000
vn 1.000000 0.000000 0.000000
vn 1.000000 0.000000 0.000000
vn 1.000000 0.000000 0.000000
vn 1.000000 0.000000 0.000000
vn 1.000000 0.000000 0.000000
vn 1.000000 0.000000 0.000000
vn 1.000000 0.000000 0.000000
vn 1.000000 0.000000 0.000000
vn 1.000000 0.000000 0.000000
vn 1.000000 0.000000 0.000000
vn 1.000000 0.000000 0.000000
vn 1.000000 -0.000002 0.000000
vn 1.000000 -0.000002 0.000000
vn 1.000000 -0.000002 0.000000
vn 1.000000 -0.000002 0.000000
vn 1.000000 0.000002 0.000000
vn 1.000000 0.000002 0.000000
vn 1.000000 0.000002 0.000000
vn 1.000000 0.000002 0.000000
vn 1.000000 0.000000 0.000000
vn 1.000000 0.000000 0.000000
vn 1.000000 0.000000 0.000000
vn 1.000000 0.000000 0.000000
vn 1.000000 -0.000003 0.000000
vn 1.000000 -0.000003 0.000000
vn 1.000000 -0.000003 0.000000
vn 1.000000 -0.000003 0.000000
vn 0.000000 0.000000 -1.000000
vn 0.000000 0.000000 -1.000000
vn 0.000000 0.000000 -1.000000
vn 0.000000 0.000000 -1.000000
vn 0.000000 0.000000 -1.000000
vn 0.000000 0.000000 -1.000000
vn 0.000000 0.000000 -1.000000
vn 0.000000 0.000000 -1.000000
vn 0.000000 0.000000 -1.000000
vn 0.000000 0.000000 -1.000000
vn 0.000000 0.000000 -1.000000
vn 0.000000 0.000000 -1.000000
vn 0.000000 0.000000 -1.000000
vn 0.000000 0.000000 -1.000000
vn 0.000000 0.000000 -1.000000
vn 0.000000 0.000000 -1.000000
vn 0.000000 0.000000 -1.000000
vn 0.000000 0.000000 -1.000000
vn 0.000000 0.000000 -1.000000
vn 0.000000 0.000000 -1.000000
vn 0.000000 0.000000 -1.000000
vn 0.000000 0.000000 -1.000000
vn 0.000000 0.000000 -1.000000
vn 0.000000 0.000000 -1.000000
vn 0.000000 0.000000 -1.000000
vn 0.000000 0.000000 -1.000000
vn 0.000000 0.000000 -1.000000
vn 0.000000 0.000000 -1.000000
vn -0.000000 0.000000 -1.000000
vn -0.000000 0.000000 -1.000000
vn -0.000000 0.000000 -1.000000
vn -0.000000 0.000000 -1.000000
vn 0.000000 0.000000 -1.000000
vn 0.000000 0.000000 -1.000000
vn 0.000000 0.000000 -1.000000
vn 0.000000 0.000000 -1.000000
vn 0.000000 0.000000 -1.000000
vn 0.000000 0.000000 -1.000000
vn 0.000000 0.000000 -1.000000
vn 0.000000 0.000000 -1.000000
vn 0.000000 0.000000 -1.000000
vn 0.000000 0.000000 -1.000000
vn 0.000000 0.000000 -1.000000
vn 0.000000 0.000000 -1.000000
vn 0.000000 0.000000 -1.000000
vn 0.000000 0.000000 -1.000000
vn 0.000000 0.000000 -1.000000
vn 0.000000 0.000000 -1.000000
vn 0.000000 0.000000 -1.000000
vn 0.000000 0.000000 -1.000000
vn 0.000000 0.000000 -1.000000
vn 0.000000 0.000000 -1.000000
vn 0.000000 0.000000 -1.000000
vn 0.000000 0.000000 -1.000000
vn 0.000000 0.000000 -1.000000
vn 0.000000 0.000000 -1.000000
vn -0.000000 0.000000 -1.000000
vn -0.000000 0.000000 -1.000000
vn -0.000000 0.000000 -1.000000
vn -0.000000 0.000000 -1.000000
vn 0.000000 0.000000 -1.000000
vn 0.000000 0.000000 -1.000000
vn 0.000000 0.000000 -1.000000
vn 0.000000 0.000000 -1.000000
vn 0.000000 0.000000 -1.000000
vn 0.000000 0.000000 -1.000000
vn 0.000000 0.000000 -1.000000
vn 0.000000 0.000000 -1.000000
vn 0.000000 0.000000 -1.000000
vn 0.000000 0.000000 -1.000000
vn 0.000000 0.000000 -1.000000
vn 0.000000 0.000000 -1.000000
vn -1.000000 0.000000 0.000000
vn -1.000000 0.000000 0.000000
vn -1.000000 0.000000 0.000000
vn -1.000000 0.000000 0.000000
vn -1.000000 0.000000 0.000000
vn -1.000000 0.000000 0.000000
vn -1.000000 0.000000 0.000000
vn -1.000000 0.000000 0.000000
vn -1.000000 0.000000 0.000000
vn -1.000000 0.000000 0.000000
vn -1.000000 0.000000 0.000000
vn -1.000000 0.000000 0.000000
vn -1.000000 0.000000 0.000000
vn -1.000000 0.000000 0.000000
vn -1.000000 0.000000 0.000000
vn -1.000000 0.000000 0.000000
vn -1.000000 0.000000 0.000000
vn -1.000000 0.000000 0.000000
vn -1.000000 0.000000 0.000000
vn -1.000000 0.000000 0.000000
vn -1.000000 0.000000 0.000000
vn -1.000000 0.000000 0.000000
vn -1.000000 0.000000 0.000000
vn -1.000000 0.000000 0.000000
vn -1.000000 0.000000 0.000000
vn -1.000000 0.000000 0.000000
vn -1.000000 0.000000 0.000000
vn -1.000000 0.000000 0.000000
vn -1.000000 0.000000 0.000000
vn -1.000000 0.000000 0.000000
vn -1.000000 0.000000 0.000000
vn -1.000000 0.000000 0.000000
vn -1.000000 0.000000 0.000000
vn -1.000000 0.000000 0.000000
vn -1.000000 0.000000 0.000000
vn -1.000000 0.000000 0.000000
vn -1.000000 0.000000 0.000000
vn -1.000000 0.000000 0.000000
vn -1.000000 0.000000 0.000000
vn -1.000000 0.000000 0.000000
vn -1.000000 0.000000 0.000000
vn -1.000000 0.000000 0.000000
vn -1.000000 0.000000 0.000000
vn -1.000000 0.000000 0.000000
vn -1.000000 0.000000 0.000000
vn -1.000000 0.000000 0.000000
vn -1.000000 0.000000 0.000000
vn -1.000000 0.000000 0.000000
vn -1.000000 0.000000 0.000000
vn -1.000000 0.000000 0.000000
vn -1.000000 0.000000 0.000000
vn -1.000000 0.000000 0.000000
vn -1.000000 0.000000 0.000000
vn -1.000000 0.000000 0.000000
vn -1.000000 0.000000 0.000000
vn -1.000000 0.000000 0.000000
vn -1.000000 0.000000 0.000000
vn -1.000000 0.000000 0.000000
vn -1.000000 0.000000 0.000000
vn -1.000000 0.000000 0.000000
vn -1.000000 0.000000 0.000000
vn -1.000000 0.000000 0.000000
vn -1.000000 0.000000 0.000000
vn -1.000000 0.000000 0.000000
vn -1.000000 0.000000 0.000000
vn -1.000000 0.000000 0.000000
vn -1.000000 0.000000 0.000000
vn -1.000000 0.000000 0.000000
vn -1.000000 0.000000 0.000000
vn -1.000000 0.000000 0.000000
vn -1.000000 0.000000 0.000000
vn -1.000000 0.000000 0.000000
vn 0.000000 0.000000 1.000000
vn 0.000000 0.000000 1.000000
vn 0.000000 0.000000 1.000000
vn 0.000000 0.000000 1.000000
vn 0.000000 0.000000 1.000000
vn 0.000000 0.000000 1.000000
vn 0.000000 0.000000 1.000000
vn 0.000000 0.000000 1.000000
vn 0.000000 0.000000 1.000000
vn 0.000000 0.000000 1.000000
vn 0.000000 0.000000 1.000000
vn 0.000000 0.000000 1.000000
vn 0.000000 0.000000 1.000000
vn 0.000000 0.000000 1.000000
vn 0.000000 0.000000 1.000000
vn 0.000000 0.000000 1.000000
vn 0.000000 0.000000 1.000000
vn 0.000000 0.000000 1.000000
vn 0.000000 0.000000 1.000000
vn 0.000000 0.000000 1.000000
vn 0.000000 0.000000 1.000000
vn 0.000000 0.000000 1.000000
vn 0.000000 0.000000 1.000000
vn 0.000000 0.000000 1.000000
vn 0.000000 0.000000 1.000000
vn 0.000000 0.000000 1.000000
vn 0.000000 0.000000 1.000000
vn 0.000000 0.000000 1.000000
vn 0.000000 0.000000 1.000000
vn 0.000000 0.000000 1.000000
vn 0.000000 0.000000 1.000000
vn 0.000000 0.000000 1.000000
vn 0.000000 0.000000 1.000000
vn 0.000000 0.000000 1.000000
vn 0.000000 0.000000 1.000000
vn 0.000000 0.000000 1.000000
vn 0.000000 0.000000 1.000000
vn 0.000000 0.000000 1.000000
vn 0.000000 0.000000 1.000000
vn 0.000000 0.000000 1.000000
vn 0.000000 0.000000 1.000000
vn 0.000000 0.000000 1.000000
vn 0.000000 0.000000 1.000000
vn 0.000000 0.000000 1.000000
vn 0.000000 0.000000 1.000000
vn 0.000000 0.000000 1.000000
vn 0.000000 0.000000 1.000000
vn 0.000000 0.000000 1.000000
vn 0.000000 0.000000 1.000000
vn 0.000000 0.000000 1.000000
vn 0.000000 0.000000 1.000000
vn 0.000000 0.000000 1.000000
vn 0.000000 0.000000 1.000000
vn 0.000000 0.000000 1.000000
vn 0.000000 0.000000 1.000000
vn 0.000000 0.000000 1.000000
vn -0.000000 0.000000 1.000000
vn -0.000000 0.000000 1.000000
vn -0.000000 0.000000 1.000000
vn -0.000000 0.000000 1.000000
vn -0.000000 0.000000 1.000000
vn -0.000000 0.000000 1.000000
vn -0.000000 0.000000 1.000000
vn -0.000000 0.000000 1.000000
vn 0.000000 0.000000 1.000000
vn 0.000000 0.000000 1.000000
vn 0.000000 0.000000 1.000000
vn 0.000000 0.000000 1.000000
vn 0.000000 0.000000 1.000000
vn 0.000000 0.000000 1.000000
vn 0.000000 0.000000 1.000000
vn 0.000000 0.000000 1.000000
vn -0.000000 0.000000 1.000000
vn -0.000000 0.000000 1.000000
vn -0.000000 0.000000 1.000000
vn -0.000000 0.000000 1.000000
vn -1.000000 0.000000 0.000000
vn -1.000000 0.000000 0.000000
vn -1.000000 0.000000 0.000000
vn -1.000000 0.000000 0.000000
vn -0.000000 0.000000 -1.000000
vn -0.000000 0.000000 -1.000000
vn -0.000000 0.000000 -1.000000
vn -0.000000 0.000000 -1.000000
vn 1.000000 0.000000 0.000000
vn 1.000000 0.000000 0.000000
vn 1.000000 0.000000 0.000000
vn 1.000000 0.000000 0.000000
vn 0.000000 1.000000 0.000000
vn 0.000000 1.000000 0.000000
vn 0.000000 1.000000 0.000000
vn 0.000000 1.000000 0.000000
vn -0.000024 1.000000 0.000000
vn -0.000024 1.000000 0.000000
vn -0.000024 1.000000 0.000000
vn -0.000024 1.000000 0.000000
vn 0.000000 1.000000 0.000000
vn 0.000000 1.000000 0.000000
vn 0.000000 1.000000 0.000000
vn 0.000000 1.000000 0.000000
vn -0.000000 -1.000000 0.000000
vn -0.000000 -1.000000 0.000000
vn -0.000000 -1.000000 0.000000
vn -0.000000 -1.000000 0.000000
vn 0.000000 -1.000000 0.000000
vn 0.000000 -1.000000 0.000000
vn 0.000000 -1.000000 0.000000
vn 0.000000 -1.000000 0.000000
g FCSET_Note_Stack_Short_001_0p121_0p229_0p961 Note_Stack_Short Post_Its group1
usemtl lambert1SG
f 301/1/1 302/2/2 300/3/3 299/430/4
f 2/5/5 1/335/6 4/338/7 3/8/8
f 6/9/9 5/337/10 8/340/11 7/12/12
f 10/13/13 9/339/14 12/342/15 11/16/16
f 14/17/17 13/341/18 16/344/19 15/20/20
f 18/21/21 17/343/22 20/346/23 19/24/24
f 22/25/25 21/345/26 24/348/27 23/28/28
f 26/29/29 25/347/30 28/350/31 27/32/32
f 30/33/33 29/349/34 32/352/35 31/36/36
f 34/37/37 33/351/38 36/432/39 35/40/40
f 38/41/41 37/372/42 40/375/43 39/44/44
f 42/45/45 41/374/46 44/377/47 43/48/48
f 46/49/49 45/376/50 48/379/51 47/52/52
f 50/53/53 49/378/54 52/381/55 51/56/56
f 54/57/57 53/380/58 56/383/59 55/60/60
f 58/61/61 57/382/62 60/385/63 59/64/64
f 62/65/65 61/384/66 64/387/67 63/68/68
f 66/69/69 65/386/70 68/389/71 67/72/72
f 70/73/73 69/388/74 72/75/75 71/76/76
f 74/409/77 73/78/78 76/79/79 75/412/80
f 78/411/81 77/82/82 80/83/83 79/414/84
f 82/413/85 81/86/86 84/87/87 83/416/88
f 86/415/89 85/90/90 88/91/91 87/418/92
f 90/417/93 89/94/94 92/95/95 91/420/96
f 94/419/97 93/98/98 96/99/99 95/422/100
f 98/421/101 97/102/102 100/103/103 99/424/104
f 102/423/105 101/106/106 104/107/107 103/426/108
f 106/425/109 105/110/110 108/471/111 107/429/112
f 110/452/113 109/114/114 112/115/115 111/455/116
f 114/454/117 113/118/118 116/119/119 115/457/120
f 118/456/121 117/122/122 120/123/123 119/459/124
f 122/458/125 121/126/126 124/127/127 123/461/128
f 126/460/129 125/130/130 128/131/131 127/463/132
f 130/462/133 129/134/134 132/135/135 131/465/136
f 134/464/137 133/138/138 136/139/139 135/467/140
f 138/466/141 137/142/142 140/143/143 139/469/144
f 142/468/145 141/146/146 144/147/147 143/148/148
f 31/36/149 32/352/150 154/333/151 153/150/152
f 139/469/153 140/143/154 155/151/155 156/451/156
f 33/351/157 34/37/158 157/153/159 158/334/160
f 141/146/161 142/468/162 160/450/163 159/156/164
f 67/72/165 68/389/166 162/370/167 161/158/168
f 69/388/169 70/73/170 163/159/171 164/371/172
f 103/426/173 104/107/174 166/161/175 165/408/176
f 105/110/177 106/425/178 167/407/179 168/164/180
f 27/32/181 28/350/182 170/331/183 169/166/184
f 135/467/185 136/139/186 171/167/187 172/449/188
f 29/349/189 30/33/190 173/169/191 174/332/192
f 137/142/193 138/466/194 176/448/195 175/172/196
f 63/68/197 64/387/198 178/368/199 177/174/200
f 65/386/201 66/69/202 179/175/203 180/369/204
f 99/424/205 100/103/206 182/177/207 181/406/208
f 101/106/209 102/423/210 183/405/211 184/180/212
f 23/28/213 24/348/214 186/329/215 185/182/216
f 131/465/217 132/135/218 187/183/219 188/447/220
f 25/347/221 26/29/222 189/185/223 190/330/224
f 133/138/225 134/464/226 192/446/227 191/188/228
f 59/64/229 60/385/230 194/366/231 193/190/232
f 61/384/233 62/65/234 195/191/235 196/367/236
f 95/422/237 96/99/238 198/193/239 197/404/240
f 97/102/241 98/421/242 199/403/243 200/196/244
f 19/24/245 20/346/246 202/327/247 201/198/248
f 127/463/249 128/131/250 203/199/251 204/445/252
f 21/345/253 22/25/254 205/201/255 206/328/256
f 129/134/257 130/462/258 208/444/259 207/204/260
f 55/60/261 56/383/262 210/364/263 209/206/264
f 57/382/265 58/61/266 211/207/267 212/365/268
f 91/420/269 92/95/270 214/209/271 213/402/272
f 93/98/273 94/419/274 215/401/275 216/212/276
f 15/20/277 16/344/278 218/325/279 217/214/280
f 123/461/281 124/127/282 219/215/283 220/443/284
f 17/343/285 18/21/286 221/217/287 222/326/288
f 125/130/289 126/460/290 224/442/291 223/220/292
f 51/56/293 52/381/294 226/362/295 225/222/296
f 53/380/297 54/57/298 227/223/299 228/363/300
f 87/418/301 88/91/302 230/225/303 229/400/304
f 89/94/305 90/417/306 231/399/307 232/228/308
f 11/16/309 12/342/310 234/323/311 233/230/312
f 119/459/313 120/123/314 235/231/315 236/441/316
f 13/341/317 14/17/318 237/233/319 238/324/320
f 121/126/321 122/458/322 240/440/323 239/236/324
f 47/52/325 48/379/326 242/360/327 241/238/328
f 49/378/329 50/53/330 243/239/331 244/361/332
f 83/416/333 84/87/334 246/241/335 245/398/336
f 85/90/337 86/415/338 247/397/339 248/244/340
f 7/12/341 8/340/342 250/321/343 249/246/344
f 115/457/345 116/119/346 251/247/347 252/439/348
f 9/339/349 10/13/350 253/249/351 254/322/352
f 117/122/353 118/456/354 256/438/355 255/252/356
f 43/48/357 44/377/358 258/358/359 257/254/360
f 45/376/361 46/49/362 259/255/363 260/359/364
f 79/414/365 80/83/366 262/257/367 261/396/368
f 81/86/369 82/413/370 263/395/371 264/260/372
f 3/8/373 4/338/374 266/319/375 265/262/376
f 111/455/377 112/115/378 267/263/379 268/437/380
f 5/337/381 6/9/382 269/265/383 270/320/384
f 113/118/385 114/454/386 272/436/387 271/268/388
f 39/44/389 40/375/390 274/356/391 273/270/392
f 41/374/393 42/45/394 275/271/395 276/357/396
f 75/412/397 76/79/398 278/273/399 277/394/400
f 77/82/401 78/411/402 279/393/403 280/276/404
f 145/336/405 146/278/406 303/279/407 304/316/408
f 146/278/409 145/336/410 282/317/411 281/282/412
f 147/283/413 148/453/414 297/433/415 298/286/416
f 148/453/417 147/283/418 283/287/419 284/435/420
f 1/335/421 2/5/422 285/289/423 286/318/424
f 109/114/425 110/452/426 288/434/427 287/292/428
f 149/373/429 150/294/430 311/295/431 312/353/432
f 150/294/433 149/373/434 290/354/435 289/298/436
f 37/372/437 38/41/438 291/299/439 292/355/440
f 151/301/441 152/410/442 307/390/443 308/304/444
f 152/410/445 151/301/446 294/305/447 293/392/448
f 73/78/449 74/409/450 295/391/451 296/308/452
f 153/150/453 154/333/454 158/334/455 157/153/456
f 156/451/457 155/151/458 159/156/459 160/450/460
f 161/158/461 162/370/462 164/371/463 163/159/464
f 165/408/465 166/161/466 168/164/467 167/407/468
f 169/166/469 170/331/470 174/332/471 173/169/472
f 172/449/473 171/167/474 175/172/475 176/448/476
f 177/174/477 178/368/478 180/369/479 179/175/480
f 181/406/481 182/177/482 184/180/483 183/405/484
f 185/182/485 186/329/486 190/330/487 189/185/488
f 188/447/489 187/183/490 191/188/491 192/446/492
f 193/190/493 194/366/494 196/367/495 195/191/496
f 197/404/497 198/193/498 200/196/499 199/403/500
f 201/198/501 202/327/502 206/328/503 205/201/504
f 204/445/505 203/199/506 207/204/507 208/444/508
f 209/206/509 210/364/510 212/365/511 211/207/512
f 213/402/513 214/209/514 216/212/515 215/401/516
f 217/214/517 218/325/518 222/326/519 221/217/520
f 220/443/521 219/215/522 223/220/523 224/442/524
f 225/222/525 226/362/526 228/363/527 227/223/528
f 229/400/529 230/225/530 232/228/531 231/399/532
f 233/230/533 234/323/534 238/324/535 237/233/536
f 236/441/537 235/231/538 239/236/539 240/440/540
f 241/238/541 242/360/542 244/361/543 243/239/544
f 245/398/545 246/241/546 248/244/547 247/397/548
f 249/246/549 250/321/550 254/322/551 253/249/552
f 252/439/553 251/247/554 255/252/555 256/438/556
f 257/254/557 258/358/558 260/359/559 259/255/560
f 261/396/561 262/257/562 264/260/563 263/395/564
f 265/262/565 266/319/566 270/320/567 269/265/568
f 268/437/569 267/263/570 271/268/571 272/436/572
f 273/270/573 274/356/574 276/357/575 275/271/576
f 277/394/577 278/273/578 280/276/579 279/393/580
f 281/282/581 282/317/582 286/318/583 285/289/584
f 284/435/585 283/287/586 287/292/587 288/434/588
f 289/298/589 290/354/590 292/355/591 291/299/592
f 293/392/593 294/305/594 296/308/595 295/391/596
f 298/286/597 297/433/598 299/430/599 300/3/600
f 302/2/601 301/1/602 304/316/603 303/279/604
f 305/309/605 306/475/606 308/304/607 307/390/608
f 309/428/609 310/312/610 312/353/611 311/295/612
f 141/146/613 34/37/614 35/40/615 144/147/616
f 155/151/617 153/150/618 157/153/619 159/156/620
f 137/142/621 30/33/622 31/36/623 140/143/624
f 171/167/625 169/166/626 173/169/627 175/172/628
f 133/138/629 26/29/630 27/32/631 136/139/632
f 187/183/633 185/182/634 189/185/635 191/188/636
f 129/134/637 22/25/638 23/28/639 132/135/640
f 203/199/641 201/198/642 205/201/643 207/204/644
f 125/130/645 18/21/646 19/24/647 128/131/648
f 219/215/649 217/214/650 221/217/651 223/220/652
f 121/126/653 14/17/654 15/20/655 124/127/656
f 235/231/657 233/230/658 237/233/659 239/236/660
f 117/122/661 10/13/662 11/16/663 120/123/664
f 251/247/665 249/246/666 253/249/667 255/252/668
f 113/118/669 6/9/670 7/12/671 116/119/672
f 267/263/673 265/262/674 269/265/675 271/268/676
f 109/114/677 2/5/678 3/8/679 112/115/680
f 283/287/681 281/282/682 285/289/683 287/292/684
f 33/38/685 70/73/686 71/76/687 36/474/688
f 154/149/689 161/158/690 163/159/691 158/154/692
f 29/34/693 66/69/694 67/72/695 32/35/696
f 170/165/697 177/174/698 179/175/699 174/170/700
f 25/30/701 62/65/702 63/68/703 28/31/704
f 186/181/705 193/190/706 195/191/707 190/186/708
f 21/26/709 58/61/710 59/64/711 24/27/712
f 202/197/713 209/206/714 211/207/715 206/202/716
f 17/22/717 54/57/718 55/60/719 20/23/720
f 218/213/721 225/222/722 227/223/723 222/218/724
f 13/18/725 50/53/726 51/56/727 16/19/728
f 234/229/729 241/238/730 243/239/731 238/234/732
f 9/14/733 46/49/734 47/52/735 12/15/736
f 250/245/737 257/254/738 259/255/739 254/250/740
f 5/10/741 42/45/742 43/48/743 8/11/744
f 266/261/745 273/270/746 275/271/747 270/266/748
f 1/6/749 38/41/750 39/44/751 4/7/752
f 282/281/753 289/298/754 291/299/755 286/290/756
f 69/74/757 106/109/758 107/112/759 72/75/760
f 162/157/761 165/162/762 167/163/763 164/160/764
f 65/70/765 102/105/766 103/108/767 68/71/768
f 178/173/769 181/178/770 183/179/771 180/176/772
f 61/66/773 98/101/774 99/104/775 64/67/776
f 194/189/777 197/194/778 199/195/779 196/192/780
f 57/62/781 94/97/782 95/100/783 60/63/784
f 210/205/785 213/210/786 215/211/787 212/208/788
f 53/58/789 90/93/790 91/96/791 56/59/792
f 226/221/793 229/226/794 231/227/795 228/224/796
f 49/54/797 86/89/798 87/92/799 52/55/800
f 242/237/801 245/242/802 247/243/803 244/240/804
f 45/50/805 82/85/806 83/88/807 48/51/808
f 258/253/809 261/258/810 263/259/811 260/256/812
f 41/46/813 78/81/814 79/84/815 44/47/816
f 274/269/817 277/274/818 279/275/819 276/272/820
f 37/42/821 74/77/822 75/80/823 40/43/824
f 290/297/825 293/306/826 295/307/827 292/300/828
f 105/110/829 142/145/830 143/431/831 108/471/832
f 166/161/833 156/152/834 160/155/835 168/164/836
f 101/106/837 138/141/838 139/144/839 104/107/840
f 182/177/841 172/168/842 176/171/843 184/180/844
f 97/102/845 134/137/846 135/140/847 100/103/848
f 198/193/849 188/184/850 192/187/851 200/196/852
f 93/98/853 130/133/854 131/136/855 96/99/856
f 214/209/857 204/200/858 208/203/859 216/212/860
f 89/94/861 126/129/862 127/132/863 92/95/864
f 230/225/865 220/216/866 224/219/867 232/228/868
f 85/90/869 122/125/870 123/128/871 88/91/872
f 246/241/873 236/232/874 240/235/875 248/244/876
f 81/86/877 118/121/878 119/124/879 84/87/880
f 262/257/881 252/248/882 256/251/883 264/260/884
f 77/82/885 114/117/886 115/120/887 80/83/888
f 278/273/889 268/264/890 272/267/891 280/276/892
f 73/78/893 110/113/894 111/116/895 76/79/896
f 294/305/897 284/288/898 288/291/899 296/308/900
f 140/143/154 31/36/149 153/150/152 155/151/155
f 34/37/158 141/146/161 159/156/164 157/153/159
f 32/35/150 67/72/165 161/158/168 154/149/151
f 70/73/170 33/38/157 158/154/160 163/159/171
f 68/71/166 103/108/173 165/162/176 162/157/167
f 106/109/178 69/74/169 164/160/172 167/163/179
f 104/107/174 139/144/153 156/152/156 166/161/175
f 142/145/162 105/110/177 168/164/180 160/155/163
f 136/139/186 27/32/181 169/166/184 171/167/187
f 30/33/190 137/142/193 175/172/196 173/169/191
f 28/31/182 63/68/197 177/174/200 170/165/183
f 66/69/202 29/34/189 174/170/192 179/175/203
f 64/67/198 99/104/205 181/178/208 178/173/199
f 102/105/210 65/70/201 180/176/204 183/179/211
f 100/103/206 135/140/185 172/168/188 182/177/207
f 138/141/194 101/106/209 184/180/212 176/171/195
f 132/135/218 23/28/213 185/182/216 187/183/219
f 26/29/222 133/138/225 191/188/228 189/185/223
f 24/27/214 59/64/229 193/190/232 186/181/215
f 62/65/234 25/30/221 190/186/224 195/191/235
f 60/63/230 95/100/237 197/194/240 194/189/231
f 98/101/242 61/66/233 196/192/236 199/195/243
f 96/99/238 131/136/217 188/184/220 198/193/239
f 134/137/226 97/102/241 200/196/244 192/187/227
f 128/131/250 19/24/245 201/198/248 203/199/251
f 22/25/254 129/134/257 207/204/260 205/201/255
f 20/23/246 55/60/261 209/206/264 202/197/247
f 58/61/266 21/26/253 206/202/256 211/207/267
f 56/59/262 91/96/269 213/210/272 210/205/263
f 94/97/274 57/62/265 212/208/268 215/211/275
f 92/95/270 127/132/249 204/200/252 214/209/271
f 130/133/258 93/98/273 216/212/276 208/203/259
f 124/127/282 15/20/277 217/214/280 219/215/283
f 18/21/286 125/130/289 223/220/292 221/217/287
f 16/19/278 51/56/293 225/222/296 218/213/279
f 54/57/298 17/22/285 222/218/288 227/223/299
f 52/55/294 87/92/301 229/226/304 226/221/295
f 90/93/306 53/58/297 228/224/300 231/227/307
f 88/91/302 123/128/281 220/216/284 230/225/303
f 126/129/290 89/94/305 232/228/308 224/219/291
f 120/123/314 11/16/309 233/230/312 235/231/315
f 14/17/318 121/126/321 239/236/324 237/233/319
f 12/15/310 47/52/325 241/238/328 234/229/311
f 50/53/330 13/18/317 238/234/320 243/239/331
f 48/51/326 83/88/333 245/242/336 242/237/327
f 86/89/338 49/54/329 244/240/332 247/243/339
f 84/87/334 119/124/313 236/232/316 246/241/335
f 122/125/322 85/90/337 248/244/340 240/235/323
f 116/119/346 7/12/341 249/246/344 251/247/347
f 10/13/350 117/122/353 255/252/356 253/249/351
f 8/11/342 43/48/357 257/254/360 250/245/343
f 46/49/362 9/14/349 254/250/352 259/255/363
f 44/47/358 79/84/365 261/258/368 258/253/359
f 82/85/370 45/50/361 260/256/364 263/259/371
f 80/83/366 115/120/345 252/248/348 262/257/367
f 118/121/354 81/86/369 264/260/372 256/251/355
f 112/115/378 3/8/373 265/262/376 267/263/379
f 6/9/382 113/118/385 271/268/388 269/265/383
f 4/7/374 39/44/389 273/270/392 266/261/375
f 42/45/394 5/10/381 270/266/384 275/271/395
f 40/43/390 75/80/397 277/274/400 274/269/391
f 78/81/402 41/46/393 276/272/396 279/275/403
f 76/79/398 111/116/377 268/264/380 278/273/399
f 114/117/386 77/82/401 280/276/404 272/267/387
f 147/283/418 146/278/409 281/282/412 283/287/419
f 2/5/422 109/114/425 287/292/428 285/289/423
f 145/277/410 150/294/433 289/298/436 282/281/411
f 38/41/438 1/6/421 286/290/424 291/299/439
f 149/293/434 152/302/445 293/306/448 290/297/435
f 74/77/450 37/42/437 292/300/440 295/307/451
f 151/301/446 148/284/417 284/288/420 294/305/447
f 110/113/426 73/78/449 296/308/452 288/291/427
f 298/286/597 300/3/600 302/2/601 303/279/604
f 299/313/599 297/285/598 308/304/607 306/475/606
f 305/476/605 307/303/608 312/296/611 310/312/610
f 309/428/609 311/295/612 304/280/603 301/314/602
f 297/285/901 148/284/902 151/301/903 308/304/904
f 307/303/905 152/302/906 149/293/907 312/296/908
f 311/295/909 150/294/910 145/277/911 304/280/912
f 303/279/913 146/278/914 147/283/915 298/286/916
f 143/473/917 36/39/918 71/470/919 108/111/920
f 35/40/921 36/432/922 143/148/923 144/147/924
f 108/472/925 71/76/926 72/75/927 107/112/928
f 301/315/929 299/4/930 306/427/931 309/311/932
f 309/428/933 306/310/934 305/476/935 310/312/936
