# This file uses centimeters as units for non-parametric coordinates.

mtllib Pen_Holder.mtl
g default
v 11.867267 -0.002505 -0.199186
v 11.822281 -0.002505 -0.184569
v 11.836718 -0.002505 -0.140137
v 11.881704 -0.002505 -0.154754
v 11.779410 -0.002505 -0.355515
v 11.741143 -0.002505 -0.327712
v 11.768604 -0.002505 -0.289916
v 11.806871 -0.002505 -0.317719
v 11.647547 -0.002505 -0.477044
v 11.619744 -0.002505 -0.438776
v 11.657539 -0.002505 -0.411316
v 11.685342 -0.002505 -0.449583
v 11.484581 -0.002505 -0.551876
v 11.469965 -0.002505 -0.506890
v 11.514397 -0.002505 -0.492453
v 11.529014 -0.002505 -0.537439
v 11.306468 -0.002505 -0.572687
v 11.306468 -0.002505 -0.525386
v 11.353187 -0.002505 -0.525386
v 11.353187 -0.002505 -0.572687
v 11.130641 -0.002505 -0.537439
v 11.145258 -0.002505 -0.492453
v 11.189690 -0.002505 -0.506890
v 11.175073 -0.002505 -0.551876
v 10.974312 -0.002505 -0.449583
v 11.002115 -0.002505 -0.411316
v 11.039911 -0.002505 -0.438776
v 11.012108 -0.002505 -0.477043
v 10.852784 -0.002505 -0.317719
v 10.891051 -0.002505 -0.289916
v 10.918512 -0.002505 -0.327712
v 10.880245 -0.002505 -0.355515
v 10.777952 -0.002505 -0.154754
v 10.822938 -0.002505 -0.140137
v 10.837374 -0.002505 -0.184569
v 10.792388 -0.002505 -0.199186
v 10.757141 -0.002505 0.023359
v 10.804442 -0.002505 0.023359
v 10.804442 -0.002505 -0.023359
v 10.757141 -0.002505 -0.023359
v 10.792388 -0.002505 0.199186
v 10.837374 -0.002505 0.184569
v 10.822938 -0.002505 0.140137
v 10.777952 -0.002505 0.154754
v 10.880245 -0.002505 0.355515
v 10.918512 -0.002505 0.327712
v 10.891051 -0.002505 0.289916
v 10.852784 -0.002505 0.317719
v 11.012108 -0.002505 0.477043
v 11.039911 -0.002505 0.438776
v 11.002115 -0.002505 0.411316
v 10.974312 -0.002505 0.449583
v 11.175073 -0.002505 0.551876
v 11.189690 -0.002505 0.506890
v 11.145258 -0.002505 0.492453
v 11.130641 -0.002505 0.537439
v 11.353187 -0.002505 0.572687
v 11.353187 -0.002505 0.525386
v 11.306468 -0.002505 0.525386
v 11.306468 -0.002505 0.572687
v 11.529014 -0.002505 0.537439
v 11.514397 -0.002505 0.492453
v 11.469965 -0.002505 0.506890
v 11.484582 -0.002505 0.551876
v 11.685342 -0.002505 0.449583
v 11.657539 -0.002505 0.411316
v 11.619743 -0.002505 0.438776
v 11.647546 -0.002505 0.477043
v 11.806871 -0.002505 0.317719
v 11.768604 -0.002505 0.289916
v 11.741143 -0.002505 0.327712
v 11.779410 -0.002505 0.355515
v 11.881703 -0.002505 0.154754
v 11.836717 -0.002505 0.140137
v 11.822281 -0.002505 0.184569
v 11.867267 -0.002505 0.199186
v 11.902514 -0.002505 -0.023359
v 11.855213 -0.002505 -0.023359
v 11.855213 -0.002505 0.023359
v 11.902514 -0.002505 0.023359
v 11.477312 -0.002505 -0.023359
v 11.462875 -0.002505 -0.067791
v 11.435415 -0.002505 -0.105587
v 11.397618 -0.002505 -0.133047
v 11.353187 -0.002505 -0.147484
v 11.306468 -0.002505 -0.147484
v 11.262036 -0.002505 -0.133047
v 11.224240 -0.002505 -0.105587
v 11.196780 -0.002505 -0.067791
v 11.182343 -0.002505 -0.023359
v 11.182343 -0.002505 0.023359
v 11.196780 -0.002505 0.067791
v 11.224240 -0.002505 0.105587
v 11.262036 -0.002505 0.133047
v 11.306468 -0.002505 0.147484
v 11.353187 -0.002505 0.147484
v 11.397618 -0.002505 0.133048
v 11.435414 -0.002505 0.105587
v 11.462875 -0.002505 0.067791
v 11.477312 -0.002505 0.023359
v 11.844774 -1.457880 -0.191878
v 11.859211 -1.457880 -0.147446
v 11.932608 -1.457880 -0.171269
v 11.918114 -1.457880 -0.215756
v 11.950020 -1.414432 -0.226049
v 11.964442 -1.414432 -0.181662
v 11.760277 -1.457880 -0.341614
v 11.787737 -1.457880 -0.303818
v 11.849812 -1.414432 -0.406636
v 11.877234 -1.414476 -0.368899
v 11.850180 -1.457880 -0.349156
v 11.822692 -1.457880 -0.386990
v 11.822692 -0.002505 -0.386990
v 11.850164 -0.002505 -0.349115
v 11.877245 -0.045952 -0.368878
v 11.849812 -0.045952 -0.406636
v 11.964442 -0.045952 -0.181662
v 11.950031 -0.045909 -0.226028
v 11.918157 -0.002505 -0.215746
v 11.932608 -0.002505 -0.171269
v 11.633645 -1.457880 -0.457910
v 11.671441 -1.457880 -0.430450
v 11.698705 -1.414432 -0.547417
v 11.736446 -1.414476 -0.520002
v 11.716817 -1.457880 -0.492865
v 11.678984 -1.457880 -0.520353
v 11.678984 -0.002505 -0.520353
v 11.716815 -0.002505 -0.492821
v 11.736463 -0.045952 -0.519985
v 11.698705 -0.045952 -0.547417
v 11.477273 -1.457880 -0.529383
v 11.521705 -1.457880 -0.514946
v 11.511490 -1.414432 -0.634614
v 11.555855 -1.414476 -0.620203
v 11.545573 -1.457880 -0.588329
v 11.501097 -1.457880 -0.602780
v 11.501097 -0.002505 -0.602780
v 11.545584 -0.002505 -0.588286
v 11.555877 -0.045952 -0.620192
v 11.511490 -0.045952 -0.634614
v 11.306468 -1.457880 -0.549036
v 11.353187 -1.457880 -0.549036
v 11.306492 -1.414432 -0.659691
v 11.353140 -1.414476 -0.659694
v 11.353210 -1.457880 -0.626203
v 11.306445 -1.457880 -0.626203
v 11.306445 -0.002505 -0.626203
v 11.353234 -0.002505 -0.626166
v 11.353163 -0.045952 -0.659691
v 11.306492 -0.045952 -0.659691
v 11.137950 -1.457880 -0.514946
v 11.182382 -1.457880 -0.529383
v 11.103778 -1.414432 -0.620192
v 11.148142 -1.414476 -0.634611
v 11.158558 -1.457880 -0.602780
v 11.114082 -1.457880 -0.588329
v 11.114082 -0.002505 -0.588329
v 11.158592 -0.002505 -0.602752
v 11.148165 -0.045952 -0.634614
v 11.103778 -0.045952 -0.620192
v 10.988214 -1.457880 -0.430450
v 11.026010 -1.457880 -0.457910
v 10.923192 -1.414432 -0.519985
v 10.960929 -1.414476 -0.547406
v 10.980671 -1.457880 -0.520353
v 10.942838 -1.457880 -0.492865
v 10.942838 -0.002505 -0.492865
v 10.980712 -0.002505 -0.520336
v 10.960950 -0.045952 -0.547417
v 10.923192 -0.045952 -0.519985
v 10.871917 -1.457880 -0.303817
v 10.899378 -1.457880 -0.341613
v 10.782410 -1.414432 -0.368877
v 10.809826 -1.414476 -0.406618
v 10.836962 -1.457880 -0.386990
v 10.809475 -1.457880 -0.349156
v 10.809475 -0.002505 -0.349156
v 10.837007 -0.002505 -0.386987
v 10.809843 -0.045952 -0.406635
v 10.782410 -0.045952 -0.368877
v 10.800444 -1.457880 -0.147446
v 10.814881 -1.457880 -0.191877
v 10.695213 -1.414432 -0.181662
v 10.709625 -1.414476 -0.226028
v 10.741499 -1.457880 -0.215746
v 10.727047 -1.457880 -0.171269
v 10.727047 -0.002505 -0.171269
v 10.741541 -0.002505 -0.215756
v 10.709635 -0.045952 -0.226049
v 10.695213 -0.045952 -0.181662
v 10.780791 -1.457880 0.023359
v 10.780791 -1.457880 -0.023359
v 10.670137 -1.414432 0.023336
v 10.670133 -1.414476 -0.023312
v 10.703624 -1.457880 -0.023383
v 10.703624 -1.457880 0.023383
v 10.703624 -0.002505 0.023383
v 10.703662 -0.002505 -0.023406
v 10.670137 -0.045952 -0.023336
v 10.670137 -0.045952 0.023336
v 10.814881 -1.457880 0.191877
v 10.800444 -1.457880 0.147446
v 10.709635 -1.414432 0.226049
v 10.695217 -1.414476 0.181686
v 10.727047 -1.457880 0.171269
v 10.741499 -1.457880 0.215746
v 10.741499 -0.002505 0.215746
v 10.727075 -0.002505 0.171235
v 10.695213 -0.045952 0.181662
v 10.709635 -0.045952 0.226049
v 10.899378 -1.457880 0.341613
v 10.871917 -1.457880 0.303817
v 10.809843 -1.414432 0.406635
v 10.782421 -1.414476 0.368899
v 10.809475 -1.457880 0.349156
v 10.836962 -1.457880 0.386990
v 10.836962 -0.002505 0.386990
v 10.809491 -0.002505 0.349115
v 10.782410 -0.045952 0.368877
v 10.809843 -0.045952 0.406635
v 11.026010 -1.457880 0.457910
v 10.988214 -1.457880 0.430449
v 10.960950 -1.414432 0.547417
v 10.923209 -1.414476 0.520001
v 10.942838 -1.457880 0.492865
v 10.980671 -1.457880 0.520353
v 10.980671 -0.002505 0.520353
v 10.942840 -0.002505 0.492821
v 10.923192 -0.045952 0.519985
v 10.960950 -0.045952 0.547417
v 11.182382 -1.457880 0.529383
v 11.137950 -1.457880 0.514946
v 11.148165 -1.414432 0.634614
v 11.103799 -1.414476 0.620203
v 11.114082 -1.457880 0.588329
v 11.158558 -1.457880 0.602780
v 11.158558 -0.002505 0.602780
v 11.114071 -0.002505 0.588286
v 11.103778 -0.045952 0.620192
v 11.148165 -0.045952 0.634614
v 11.353187 -1.457880 0.549036
v 11.306468 -1.457880 0.549036
v 11.353163 -1.414432 0.659691
v 11.306515 -1.414476 0.659694
v 11.306445 -1.457880 0.626203
v 11.353210 -1.457880 0.626203
v 11.353210 -0.002505 0.626203
v 11.306421 -0.002505 0.626166
v 11.306492 -0.045952 0.659691
v 11.353163 -0.045952 0.659691
v 11.521705 -1.457880 0.514946
v 11.477273 -1.457880 0.529383
v 11.555877 -1.414432 0.620192
v 11.511513 -1.414476 0.634610
v 11.501097 -1.457880 0.602780
v 11.545573 -1.457880 0.588329
v 11.545573 -0.002505 0.588329
v 11.501063 -0.002505 0.602752
v 11.511490 -0.045952 0.634614
v 11.555877 -0.045952 0.620192
v 11.671440 -1.457880 0.430449
v 11.633645 -1.457880 0.457910
v 11.736462 -1.414432 0.519985
v 11.698726 -1.414476 0.547406
v 11.678983 -1.457880 0.520353
v 11.716817 -1.457880 0.492865
v 11.716817 -0.002505 0.492865
v 11.678942 -0.002505 0.520336
v 11.698705 -0.045952 0.547417
v 11.736462 -0.045952 0.519985
v 11.787737 -1.457880 0.303817
v 11.760277 -1.457880 0.341613
v 11.877245 -1.414432 0.368877
v 11.849829 -1.414476 0.406618
v 11.822692 -1.457880 0.386990
v 11.850180 -1.457880 0.349156
v 11.850180 -0.002505 0.349156
v 11.822648 -0.002505 0.386987
v 11.849812 -0.045952 0.406635
v 11.877245 -0.045952 0.368877
v 11.859210 -1.457880 0.147446
v 11.844773 -1.457880 0.191877
v 11.964442 -1.414432 0.181662
v 11.950030 -1.414476 0.226028
v 11.918156 -1.457880 0.215746
v 11.932607 -1.457880 0.171269
v 11.932607 -0.002505 0.171269
v 11.918113 -0.002505 0.215756
v 11.950020 -0.045952 0.226049
v 11.964442 -0.045952 0.181662
v 11.878864 -1.457880 -0.023359
v 11.878863 -1.457880 0.023359
v 11.989519 -1.414432 -0.023335
v 11.989522 -1.414476 0.023312
v 11.956030 -1.457880 0.023383
v 11.956030 -1.457880 -0.023383
v 11.956030 -0.002505 -0.023383
v 11.955993 -0.002505 0.023406
v 11.989518 -0.045952 0.023336
v 11.989519 -0.045952 -0.023335
vt 0.398791 0.981246
vt 0.400535 0.992822
vt 0.659379 0.207492
vt 0.649193 0.202273
vt 0.664697 0.197238
vt 0.654371 0.192235
vt 0.674184 0.166704
vt 0.397146 0.934008
vt 0.397208 0.947095
vt 0.632798 0.241893
vt 0.624773 0.233741
vt 0.567336 0.161401
vt 0.397181 0.884998
vt 0.397010 0.898520
vt 0.596779 0.266227
vt 0.591670 0.255992
vt 0.559499 0.169492
vt 0.397509 0.835447
vt 0.397305 0.849102
vt 0.554993 0.278221
vt 0.553298 0.266908
vt 0.549498 0.174746
vt 0.397850 0.785742
vt 0.397655 0.799433
vt 0.511552 0.276699
vt 0.513436 0.265416
vt 0.538336 0.176629
vt 0.398142 0.736003
vt 0.397963 0.749700
vt 0.470719 0.261821
vt 0.475997 0.251673
vt 0.527122 0.174947
vt 0.398375 0.686258
vt 0.398213 0.699957
vt 0.436492 0.235055
vt 0.444647 0.227034
vt 0.516971 0.169863
vt 0.398551 0.636516
vt 0.398405 0.650214
vt 0.412215 0.199028
vt 0.422449 0.193919
vt 0.508888 0.161877
vt 0.398671 0.586775
vt 0.398540 0.600473
vt 0.400257 0.157269
vt 0.411568 0.155571
vt 0.503672 0.151774
vt 0.398738 0.537035
vt 0.398622 0.550733
vt 0.401783 0.113860
vt 0.413065 0.115738
vt 0.501839 0.140549
vt 0.398753 0.487296
vt 0.398651 0.500994
vt 0.416643 0.073042
vt 0.426792 0.078314
vt 0.503569 0.129306
vt 0.398715 0.437556
vt 0.398627 0.451254
vt 0.443389 0.038808
vt 0.451411 0.046957
vt 0.508692 0.119153
vt 0.398622 0.387814
vt 0.398550 0.401513
vt 0.479411 0.014509
vt 0.484522 0.024739
vt 0.516703 0.111088
vt 0.398474 0.338070
vt 0.398418 0.351770
vt 0.521191 0.002535
vt 0.522888 0.013843
vt 0.526811 0.105905
vt 0.398266 0.288323
vt 0.398227 0.302023
vt 0.564637 0.004070
vt 0.562752 0.015347
vt 0.538014 0.104113
vt 0.397995 0.238576
vt 0.397974 0.252275
vt 0.605482 0.018977
vt 0.600199 0.029117
vt 0.549202 0.105888
vt 0.397664 0.188854
vt 0.397659 0.202537
vt 0.639702 0.045797
vt 0.631540 0.053802
vt 0.559258 0.111045
vt 0.397302 0.139253
vt 0.397304 0.152869
vt 0.663921 0.081882
vt 0.653680 0.086965
vt 0.567175 0.119058
vt 0.397065 0.090101
vt 0.397019 0.103482
vt 0.675738 0.123615
vt 0.664426 0.125310
vt 0.572160 0.129099
vt 0.397261 0.055024
vt 0.662929 0.164931
vt 0.572246 0.151306
vt 0.573559 0.140174
vt 0.002441 0.986873
vt 0.021271 0.991515
vt 0.023079 0.980219
vt 0.036450 0.982879
vt 0.373081 0.997559
vt 0.007292 0.943003
vt 0.025593 0.943612
vt 0.025988 0.932080
vt 0.039043 0.933334
vt 0.371207 0.936205
vt 0.384270 0.897744
vt 0.384431 0.947020
vt 0.385920 0.984037
vt 0.372659 0.986273
vt 0.387826 0.005462
vt 0.384848 0.041806
vt 0.008505 0.895487
vt 0.026745 0.894849
vt 0.026898 0.883154
vt 0.040075 0.883851
vt 0.371061 0.897559
vt 0.371113 0.886360
vt 0.384568 0.848149
vt 0.008952 0.846708
vt 0.027187 0.845684
vt 0.027276 0.833920
vt 0.040507 0.834416
vt 0.371313 0.847784
vt 0.371396 0.836594
vt 0.384918 0.798449
vt 0.009192 0.797495
vt 0.027425 0.796360
vt 0.027494 0.784570
vt 0.040740 0.784998
vt 0.371648 0.798043
vt 0.371728 0.786857
vt 0.385225 0.748720
vt 0.009366 0.748147
vt 0.027596 0.746979
vt 0.027657 0.735181
vt 0.040907 0.735583
vt 0.371952 0.748313
vt 0.372019 0.737129
vt 0.385474 0.698987
vt 0.009507 0.698763
vt 0.027736 0.697579
vt 0.027791 0.685778
vt 0.041041 0.686167
vt 0.372199 0.698590
vt 0.372253 0.687406
vt 0.385664 0.649256
vt 0.009621 0.649370
vt 0.027850 0.648173
vt 0.027899 0.636370
vt 0.041149 0.636748
vt 0.372389 0.648869
vt 0.372430 0.637686
vt 0.385798 0.599526
vt 0.009708 0.599976
vt 0.027937 0.598763
vt 0.027978 0.586961
vt 0.041229 0.587327
vt 0.372523 0.599150
vt 0.372552 0.587968
vt 0.385879 0.549797
vt 0.009766 0.550580
vt 0.027994 0.549353
vt 0.028028 0.537550
vt 0.041279 0.537906
vt 0.372603 0.549433
vt 0.372620 0.538250
vt 0.385907 0.500068
vt 0.009793 0.501185
vt 0.028020 0.499942
vt 0.028047 0.488139
vt 0.041298 0.488484
vt 0.372630 0.499715
vt 0.372636 0.488533
vt 0.385882 0.450339
vt 0.009790 0.451789
vt 0.028016 0.450532
vt 0.028036 0.438729
vt 0.041287 0.439063
vt 0.372606 0.449997
vt 0.372599 0.438815
vt 0.385804 0.400609
vt 0.009758 0.402395
vt 0.027983 0.401123
vt 0.027996 0.389320
vt 0.041247 0.389643
vt 0.372527 0.400278
vt 0.372508 0.389095
vt 0.385671 0.350876
vt 0.009698 0.353002
vt 0.027922 0.351715
vt 0.027929 0.339914
vt 0.041180 0.340225
vt 0.372394 0.350557
vt 0.372362 0.339374
vt 0.385479 0.301141
vt 0.009613 0.303612
vt 0.027836 0.302311
vt 0.027838 0.290511
vt 0.041089 0.290811
vt 0.372202 0.300833
vt 0.372156 0.289649
vt 0.385225 0.251403
vt 0.009506 0.254229
vt 0.027729 0.252915
vt 0.027727 0.241118
vt 0.040976 0.241400
vt 0.371948 0.251105
vt 0.371888 0.239919
vt 0.384910 0.201671
vt 0.009377 0.204875
vt 0.027598 0.203535
vt 0.027589 0.191748
vt 0.040830 0.191989
vt 0.371635 0.201371
vt 0.371563 0.190183
vt 0.384558 0.151977
vt 0.009201 0.155633
vt 0.027409 0.154205
vt 0.027378 0.142445
vt 0.040586 0.142560
vt 0.371293 0.151628
vt 0.371225 0.140435
vt 0.384291 0.102435
vt 0.008850 0.106767
vt 0.027013 0.105009
vt 0.026895 0.093317
vt 0.040006 0.093061
vt 0.371074 0.101876
vt 0.371068 0.090669
vt 0.384597 0.053368
vt 0.007779 0.059038
vt 0.025335 0.044622
vt 0.025849 0.056157
vt 0.038397 0.043362
vt 0.371738 0.040881
vt 0.371505 0.052116
vt 0.038664 0.944500
vt 0.371300 0.947431
vt 0.039885 0.894977
vt 0.040384 0.845526
vt 0.040640 0.796104
vt 0.040815 0.746688
vt 0.040955 0.697272
vt 0.041069 0.647854
vt 0.041155 0.598434
vt 0.041212 0.549013
vt 0.041238 0.499591
vt 0.041234 0.450169
vt 0.041201 0.400749
vt 0.041139 0.351331
vt 0.041053 0.301916
vt 0.040945 0.252505
vt 0.040809 0.203095
vt 0.040597 0.153673
vt 0.040119 0.104197
vt 0.038793 0.054552
vt 0.035247 0.004536
vt 0.374001 0.002441
vt 0.632614 0.225576
vt 0.601672 0.250675
vt 0.564457 0.264951
vt 0.524652 0.267010
vt 0.486168 0.256657
vt 0.452777 0.234917
vt 0.427745 0.203927
vt 0.413513 0.166725
vt 0.411469 0.126948
vt 0.421812 0.088484
vt 0.443532 0.055092
vt 0.474512 0.030042
vt 0.511726 0.015791
vt 0.551531 0.013748
vt 0.590022 0.024125
vt 0.623407 0.045908
vt 0.648391 0.076949
vt 0.662499 0.114167
vt 0.664452 0.153775
vt 0.004546 0.975476
vt 0.007360 0.929812
vt 0.384272 0.935314
vt 0.008169 0.881720
vt 0.384272 0.885890
vt 0.008512 0.832745
vt 0.384590 0.836242
vt 0.008723 0.783472
vt 0.384931 0.786525
vt 0.008885 0.734108
vt 0.385224 0.736793
vt 0.009018 0.684720
vt 0.385458 0.687060
vt 0.009125 0.635327
vt 0.385635 0.637329
vt 0.009204 0.585933
vt 0.385756 0.587599
vt 0.009254 0.536538
vt 0.385824 0.537870
vt 0.009273 0.487142
vt 0.385839 0.488142
vt 0.009261 0.437748
vt 0.385802 0.438413
vt 0.009220 0.388354
vt 0.385711 0.388682
vt 0.009153 0.338962
vt 0.385564 0.338949
vt 0.009061 0.289574
vt 0.385357 0.289213
vt 0.008950 0.240199
vt 0.385088 0.239476
vt 0.008817 0.190875
vt 0.384759 0.189750
vt 0.008632 0.141733
vt 0.384407 0.140083
vt 0.008237 0.093162
vt 0.384202 0.090632
vt 0.006829 0.046224
vt 0.003083 0.014776
vt 0.021341 0.008319
vt 0.400535 0.009339
vt 0.397637 0.042331
vt 0.664525 0.197560
vt 0.633064 0.241700
vt 0.640794 0.233571
vt 0.597067 0.266144
vt 0.606931 0.260830
vt 0.555292 0.278234
vt 0.566316 0.276234
vt 0.511828 0.276806
vt 0.522930 0.278314
vt 0.470946 0.262008
vt 0.481036 0.266875
vt 0.436648 0.235302
vt 0.444739 0.243049
vt 0.412286 0.199311
vt 0.417587 0.209179
vt 0.400237 0.157560
vt 0.402230 0.168583
vt 0.401673 0.114130
vt 0.400164 0.125230
vt 0.416454 0.073267
vt 0.411588 0.083359
vt 0.443137 0.038964
vt 0.435391 0.047061
vt 0.479120 0.014581
vt 0.469250 0.019888
vt 0.520887 0.002511
vt 0.509859 0.004509
vt 0.564350 0.003951
vt 0.553243 0.002441
vt 0.605242 0.018771
vt 0.595146 0.013902
vt 0.639536 0.045522
vt 0.631442 0.037772
vt 0.663848 0.081566
vt 0.658550 0.071699
vt 0.675768 0.123334
vt 0.673786 0.112323
vt 0.674288 0.166565
vt 0.675768 0.155488
vt 0.035775 0.994123
vt 0.387348 0.995386
vn 0.000000 1.000000 0.000000
vn 0.000000 1.000000 0.000000
vn 0.483887 0.870095 -0.093748
vn 0.446506 0.870139 -0.208545
vn 0.000000 1.000000 0.000000
vn 0.000000 1.000000 0.000000
vn 0.000000 1.000000 0.000000
vn 0.000000 1.000000 0.000000
vn 0.000000 1.000000 0.000000
vn 0.000000 1.000000 0.000000
vn 0.000000 1.000000 0.000000
vn 0.000000 1.000000 0.000000
vn 0.000000 1.000000 0.000000
vn 0.431039 0.870192 -0.238686
vn 0.360392 0.870031 -0.336399
vn 0.000000 1.000000 0.000000
vn 0.000000 1.000000 0.000000
vn 0.000000 1.000000 0.000000
vn 0.000000 1.000000 0.000000
vn 0.000000 1.000000 0.000000
vn 0.336311 0.870116 -0.360268
vn 0.238799 0.870030 -0.431303
vn 0.000000 1.000000 0.000000
vn 0.000000 1.000000 0.000000
vn 0.000000 1.000000 0.000000
vn 0.000000 1.000000 0.000000
vn 0.000000 1.000000 0.000000
vn 0.208521 0.870116 -0.446561
vn 0.093832 0.870030 -0.483986
vn 0.000000 1.000000 0.000000
vn 0.000000 1.000000 0.000000
vn 0.000000 1.000000 0.000000
vn 0.000000 1.000000 0.000000
vn 0.000000 1.000000 0.000000
vn 0.060321 0.870116 -0.489141
vn -0.060320 0.870030 -0.489294
vn 0.000000 1.000000 0.000000
vn 0.000000 1.000000 0.000000
vn 0.000000 1.000000 0.000000
vn 0.000000 1.000000 0.000000
vn 0.000000 1.000000 0.000000
vn -0.093784 0.870116 -0.483841
vn -0.208569 0.870030 -0.446707
vn 0.000000 1.000000 0.000000
vn 0.000000 1.000000 0.000000
vn 0.000000 1.000000 0.000000
vn 0.000000 1.000000 0.000000
vn 0.000000 1.000000 0.000000
vn -0.238710 0.870116 -0.431180
vn -0.336400 0.870030 -0.360392
vn 0.000000 1.000000 0.000000
vn 0.000000 1.000000 0.000000
vn 0.000000 1.000000 0.000000
vn 0.000000 1.000000 0.000000
vn 0.000000 1.000000 0.000000
vn -0.360268 0.870116 -0.336310
vn -0.431302 0.870031 -0.238800
vn 0.000000 1.000000 0.000000
vn 0.000000 1.000000 0.000000
vn 0.000000 1.000000 0.000000
vn 0.000000 1.000000 0.000000
vn 0.000000 1.000000 0.000000
vn -0.446560 0.870116 -0.208522
vn -0.483985 0.870031 -0.093832
vn 0.000000 1.000000 0.000000
vn 0.000000 1.000000 0.000000
vn 0.000000 1.000000 0.000000
vn 0.000000 1.000000 0.000000
vn 0.000000 1.000000 0.000000
vn -0.489141 0.870116 -0.060321
vn -0.489294 0.870031 0.060320
vn 0.000000 1.000000 0.000000
vn 0.000000 1.000000 0.000000
vn 0.000000 1.000000 0.000000
vn 0.000000 1.000000 0.000000
vn 0.000000 1.000000 0.000000
vn -0.483841 0.870116 0.093784
vn -0.446705 0.870031 0.208569
vn 0.000000 1.000000 0.000000
vn 0.000000 1.000000 0.000000
vn 0.000000 1.000000 0.000000
vn 0.000000 1.000000 0.000000
vn 0.000000 1.000000 0.000000
vn -0.431179 0.870117 0.238709
vn -0.360392 0.870030 0.336400
vn 0.000000 1.000000 0.000000
vn 0.000000 1.000000 0.000000
vn 0.000000 1.000000 0.000000
vn 0.000000 1.000000 0.000000
vn 0.000000 1.000000 0.000000
vn -0.336311 0.870116 0.360268
vn -0.238800 0.870030 0.431303
vn 0.000000 1.000000 0.000000
vn 0.000000 1.000000 0.000000
vn 0.000000 1.000000 0.000000
vn 0.000000 1.000000 0.000000
vn 0.000000 1.000000 0.000000
vn -0.208521 0.870116 0.446561
vn -0.093831 0.870030 0.483986
vn 0.000000 1.000000 0.000000
vn 0.000000 1.000000 0.000000
vn 0.000000 1.000000 0.000000
vn 0.000000 1.000000 0.000000
vn 0.000000 1.000000 0.000000
vn -0.060321 0.870116 0.489141
vn 0.060320 0.870030 0.489294
vn 0.000000 1.000000 0.000000
vn 0.000000 1.000000 0.000000
vn 0.000000 1.000000 0.000000
vn 0.000000 1.000000 0.000000
vn 0.000000 1.000000 0.000000
vn 0.093785 0.870116 0.483841
vn 0.208569 0.870030 0.446707
vn 0.000000 1.000000 0.000000
vn 0.000000 1.000000 0.000000
vn 0.000000 1.000000 0.000000
vn 0.000000 1.000000 0.000000
vn 0.000000 1.000000 0.000000
vn 0.238710 0.870116 0.431179
vn 0.336399 0.870030 0.360392
vn 0.000000 1.000000 0.000000
vn 0.000000 1.000000 0.000000
vn 0.000000 1.000000 0.000000
vn 0.000000 1.000000 0.000000
vn 0.000000 1.000000 0.000000
vn 0.360267 0.870116 0.336311
vn 0.431302 0.870031 0.238800
vn 0.000000 1.000000 0.000000
vn 0.000000 1.000000 0.000000
vn 0.000000 1.000000 0.000000
vn 0.000000 1.000000 0.000000
vn 0.000000 1.000000 0.000000
vn 0.446560 0.870116 0.208522
vn 0.483985 0.870031 0.093832
vn 0.000000 1.000000 0.000000
vn 0.000000 1.000000 0.000000
vn 0.000000 1.000000 0.000000
vn 0.000000 1.000000 0.000000
vn 0.489140 0.870117 0.060321
vn 0.489275 0.870044 -0.060275
vn 0.000000 -1.000000 0.000000
vn 0.000000 -1.000000 0.000000
vn 0.377690 -0.908990 -0.176319
vn 0.409433 -0.908878 -0.079413
vn 0.981294 -0.021740 -0.191281
vn 0.992377 -0.021731 -0.121309
vn 0.413833 -0.908919 -0.051071
vn 0.906320 -0.021737 -0.422033
vn 0.364764 -0.908946 -0.201900
vn 0.874156 -0.021743 -0.485158
vn 0.906317 0.021743 -0.422040
vn 0.981294 0.021731 -0.191287
vn 0.000000 -1.000000 0.000000
vn 0.000000 -1.000000 0.000000
vn 0.304718 -0.908974 -0.284451
vn 0.731543 -0.021727 -0.681449
vn 0.284477 -0.908959 -0.304739
vn 0.681447 -0.021738 -0.731545
vn 0.731538 0.021746 -0.681454
vn 0.874152 0.021737 -0.485165
vn 0.681442 0.021741 -0.731549
vn 0.992376 0.021740 -0.121314
vn 0.000000 -1.000000 0.000000
vn 0.000000 -1.000000 0.000000
vn 0.201904 -0.908974 -0.364692
vn 0.485159 -0.021727 -0.874156
vn 0.176383 -0.908960 -0.377732
vn 0.422035 -0.021738 -0.906319
vn 0.485153 0.021746 -0.874159
vn 0.422029 0.021741 -0.906322
vn 0.000000 -1.000000 0.000000
vn 0.000000 -1.000000 0.000000
vn 0.079326 -0.908974 -0.409234
vn 0.191284 -0.021727 -0.981294
vn 0.051025 -0.908959 -0.413750
vn 0.121311 -0.021738 -0.992376
vn 0.191277 0.021746 -0.981295
vn 0.121305 0.021741 -0.992377
vn 0.000000 -1.000000 0.000000
vn 0.000000 -1.000000 0.000000
vn -0.051017 -0.908974 -0.413718
vn -0.121314 -0.021727 -0.992376
vn -0.079328 -0.908959 -0.409268
vn -0.191287 -0.021738 -0.981293
vn -0.121321 0.021746 -0.992375
vn -0.191294 0.021741 -0.981292
vn 0.000000 -1.000000 0.000000
vn 0.000000 -1.000000 0.000000
vn -0.176366 -0.908975 -0.377704
vn -0.422038 -0.021727 -0.906318
vn -0.201916 -0.908959 -0.364723
vn -0.485162 -0.021738 -0.874154
vn -0.422044 0.021746 -0.906315
vn -0.485167 0.021741 -0.874151
vn 0.000000 -1.000000 0.000000
vn 0.000000 -1.000000 0.000000
vn -0.284451 -0.908975 -0.304718
vn -0.681449 -0.021727 -0.731543
vn -0.304740 -0.908959 -0.284477
vn -0.731545 -0.021738 -0.681446
vn -0.681454 0.021746 -0.731538
vn -0.731549 0.021741 -0.681442
vn 0.000000 -1.000000 0.000000
vn 0.000000 -1.000000 0.000000
vn -0.364692 -0.908975 -0.201903
vn -0.874156 -0.021727 -0.485159
vn -0.377733 -0.908959 -0.176385
vn -0.906318 -0.021738 -0.422037
vn -0.874159 0.021746 -0.485152
vn -0.906321 0.021741 -0.422031
vn 0.000000 -1.000000 0.000000
vn 0.000000 -1.000000 0.000000
vn -0.409233 -0.908975 -0.079326
vn -0.981294 -0.021727 -0.191284
vn -0.413750 -0.908959 -0.051025
vn -0.992377 -0.021738 -0.121310
vn -0.981295 0.021746 -0.191277
vn -0.992377 0.021741 -0.121303
vn 0.000000 -1.000000 0.000000
vn 0.000000 -1.000000 0.000000
vn -0.413717 -0.908975 0.051017
vn -0.992377 -0.021727 0.121312
vn -0.409267 -0.908960 0.079327
vn -0.981294 -0.021738 0.191286
vn -0.992375 0.021746 0.121319
vn -0.981292 0.021741 0.191292
vn 0.000000 -1.000000 0.000000
vn 0.000000 -1.000000 0.000000
vn -0.377703 -0.908975 0.176366
vn -0.906317 -0.021727 0.422039
vn -0.364722 -0.908960 0.201915
vn -0.874154 -0.021738 0.485162
vn -0.906314 0.021746 0.422045
vn -0.874151 0.021741 0.485167
vn 0.000000 -1.000000 0.000000
vn 0.000000 -1.000000 0.000000
vn -0.304718 -0.908974 0.284451
vn -0.731543 -0.021727 0.681449
vn -0.284477 -0.908959 0.304739
vn -0.681447 -0.021738 0.731544
vn -0.731538 0.021746 0.681454
vn -0.681442 0.021741 0.731549
vn 0.000000 -1.000000 0.000000
vn 0.000000 -1.000000 0.000000
vn -0.201904 -0.908974 0.364692
vn -0.485159 -0.021727 0.874156
vn -0.176383 -0.908960 0.377732
vn -0.422035 -0.021738 0.906319
vn -0.485153 0.021746 0.874159
vn -0.422029 0.021741 0.906322
vn 0.000000 -1.000000 0.000000
vn 0.000000 -1.000000 0.000000
vn -0.079326 -0.908974 0.409235
vn -0.191284 -0.021727 0.981294
vn -0.051025 -0.908959 0.413750
vn -0.121311 -0.021738 0.992376
vn -0.191277 0.021746 0.981295
vn -0.121305 0.021741 0.992377
vn 0.000000 -1.000000 0.000000
vn 0.000000 -1.000000 0.000000
vn 0.051017 -0.908974 0.413718
vn 0.121314 -0.021727 0.992376
vn 0.079328 -0.908959 0.409268
vn 0.191287 -0.021738 0.981293
vn 0.121321 0.021746 0.992375
vn 0.191294 0.021741 0.981292
vn 0.000000 -1.000000 0.000000
vn 0.000000 -1.000000 0.000000
vn 0.176366 -0.908975 0.377703
vn 0.422038 -0.021727 0.906318
vn 0.201916 -0.908959 0.364723
vn 0.485162 -0.021738 0.874154
vn 0.422044 0.021746 0.906315
vn 0.485168 0.021741 0.874151
vn 0.000000 -1.000000 0.000000
vn 0.000000 -1.000000 0.000000
vn 0.284450 -0.908975 0.304718
vn 0.681448 -0.021727 0.731544
vn 0.304739 -0.908959 0.284478
vn 0.731544 -0.021738 0.681448
vn 0.681453 0.021746 0.731539
vn 0.731548 0.021741 0.681443
vn 0.000000 -1.000000 0.000000
vn 0.000000 -1.000000 0.000000
vn 0.364692 -0.908975 0.201903
vn 0.874156 -0.021727 0.485159
vn 0.377732 -0.908959 0.176385
vn 0.906318 -0.021738 0.422037
vn 0.874159 0.021746 0.485152
vn 0.906321 0.021741 0.422031
vn 0.000000 -1.000000 0.000000
vn 0.000000 -1.000000 0.000000
vn 0.409233 -0.908975 0.079326
vn 0.981294 -0.021727 0.191284
vn 0.413750 -0.908960 0.051026
vn 0.992376 -0.021738 0.121312
vn 0.981295 0.021746 0.191277
vn 0.992377 0.021741 0.121306
vn 0.000000 -1.000000 0.000000
vn 0.000000 -1.000000 0.000000
g Pen_Holder
usemtl initialShadingGroup
f 1/1/1 4/2/2 120/366/3 119/114/4
f 2/4/5 1/3/1 8/328/6 7/265/7
f 3/6/8 2/4/5 82/12/9 81/100/10
f 4/5/2 3/6/8 78/99/11 77/7/12
f 5/8/13 8/9/6 114/113/14 113/286/15
f 6/11/16 5/10/13 12/330/17 11/266/18
f 7/265/7 6/11/16 83/17/19 82/12/9
f 9/13/20 12/14/17 128/112/21 127/288/22
f 10/16/23 9/15/20 16/332/24 15/267/25
f 11/266/18 10/16/23 84/22/26 83/17/19
f 13/18/27 16/19/24 138/124/28 137/290/29
f 14/21/30 13/20/27 20/334/31 19/268/32
f 15/267/25 14/21/30 85/27/33 84/22/26
f 17/23/34 20/24/31 148/131/35 147/292/36
f 18/26/37 17/25/34 24/336/38 23/269/39
f 19/268/32 18/26/37 86/32/40 85/27/33
f 21/28/41 24/29/38 158/138/42 157/294/43
f 22/31/44 21/30/41 28/338/45 27/270/46
f 23/269/39 22/31/44 87/37/47 86/32/40
f 25/33/48 28/34/45 168/145/49 167/296/50
f 26/36/51 25/35/48 32/340/52 31/271/53
f 27/270/46 26/36/51 88/42/54 87/37/47
f 29/38/55 32/39/52 178/152/56 177/298/57
f 30/41/58 29/40/55 36/342/59 35/272/60
f 31/271/53 30/41/58 89/47/61 88/42/54
f 33/43/62 36/44/59 188/159/63 187/300/64
f 34/46/65 33/45/62 40/344/66 39/273/67
f 35/272/60 34/46/65 90/52/68 89/47/61
f 37/48/69 40/49/66 198/166/70 197/302/71
f 38/51/72 37/50/69 44/346/73 43/274/74
f 39/273/67 38/51/72 91/57/75 90/52/68
f 41/53/76 44/54/73 208/173/77 207/304/78
f 42/56/79 41/55/76 48/348/80 47/275/81
f 43/274/74 42/56/79 92/62/82 91/57/75
f 45/58/83 48/59/80 218/180/84 217/306/85
f 46/61/86 45/60/83 52/350/87 51/276/88
f 47/275/81 46/61/86 93/67/89 92/62/82
f 49/63/90 52/64/87 228/187/91 227/308/92
f 50/66/93 49/65/90 56/352/94 55/277/95
f 51/276/88 50/66/93 94/72/96 93/67/89
f 53/68/97 56/69/94 238/194/98 237/310/99
f 54/71/100 53/70/97 60/354/101 59/278/102
f 55/277/95 54/71/100 95/77/103 94/72/96
f 57/73/104 60/74/101 248/201/105 247/312/106
f 58/76/107 57/75/104 64/356/108 63/279/109
f 59/278/102 58/76/107 96/82/110 95/77/103
f 61/78/111 64/79/108 258/208/112 257/314/113
f 62/81/114 61/80/111 68/358/115 67/280/116
f 63/279/109 62/81/114 97/87/117 96/82/110
f 65/83/118 68/84/115 268/215/119 267/316/120
f 66/86/121 65/85/118 72/360/122 71/281/123
f 67/280/116 66/86/121 98/92/124 97/87/117
f 69/88/125 72/89/122 278/222/126 277/318/127
f 70/91/128 69/90/125 76/362/129 75/282/130
f 71/281/123 70/91/128 99/97/131 98/92/124
f 73/93/132 76/94/129 288/229/133 287/320/134
f 74/96/135 73/95/132 80/364/136 79/283/137
f 75/282/130 74/96/135 100/101/138 99/97/131
f 77/325/12 80/98/136 298/236/139 297/117/140
f 79/283/137 78/99/11 81/100/10 100/101/138
f 102/102/141 101/284/142 104/104/143 103/103/144
f 103/323/144 106/263/145 293/240/146 296/238/147
f 105/105/148 104/104/143 111/108/149 110/243/150
f 106/365/145 105/105/148 118/115/151 117/106/152
f 108/107/153 107/285/154 112/109/155 111/108/149
f 109/110/156 112/109/155 125/119/157 124/245/158
f 110/243/150 109/110/156 116/111/159 115/244/160
f 113/286/15 116/111/159 129/122/161 128/112/21
f 115/244/160 114/113/14 119/114/4 118/115/151
f 117/264/152 120/116/3 297/117/140 300/241/162
f 122/118/163 121/287/164 126/120/165 125/119/157
f 123/121/166 126/120/165 135/126/167 134/246/168
f 124/245/158 123/121/166 130/123/169 129/122/161
f 127/288/22 130/123/169 139/129/170 138/124/28
f 132/125/171 131/289/172 136/127/173 135/126/167
f 133/128/174 136/127/173 145/133/175 144/247/176
f 134/246/168 133/128/174 140/130/177 139/129/170
f 137/290/29 140/130/177 149/136/178 148/131/35
f 142/132/179 141/291/180 146/134/181 145/133/175
f 143/135/182 146/134/181 155/140/183 154/248/184
f 144/247/176 143/135/182 150/137/185 149/136/178
f 147/292/36 150/137/185 159/143/186 158/138/42
f 152/139/187 151/293/188 156/141/189 155/140/183
f 153/142/190 156/141/189 165/147/191 164/249/192
f 154/248/184 153/142/190 160/144/193 159/143/186
f 157/294/43 160/144/193 169/150/194 168/145/49
f 162/146/195 161/295/196 166/148/197 165/147/191
f 163/149/198 166/148/197 175/154/199 174/250/200
f 164/249/192 163/149/198 170/151/201 169/150/194
f 167/296/50 170/151/201 179/157/202 178/152/56
f 172/153/203 171/297/204 176/155/205 175/154/199
f 173/156/206 176/155/205 185/161/207 184/251/208
f 174/250/200 173/156/206 180/158/209 179/157/202
f 177/298/57 180/158/209 189/164/210 188/159/63
f 182/160/211 181/299/212 186/162/213 185/161/207
f 183/163/214 186/162/213 195/168/215 194/252/216
f 184/251/208 183/163/214 190/165/217 189/164/210
f 187/300/64 190/165/217 199/171/218 198/166/70
f 192/167/219 191/301/220 196/169/221 195/168/215
f 193/170/222 196/169/221 205/175/223 204/253/224
f 194/252/216 193/170/222 200/172/225 199/171/218
f 197/302/71 200/172/225 209/178/226 208/173/77
f 202/174/227 201/303/228 206/176/229 205/175/223
f 203/177/230 206/176/229 215/182/231 214/254/232
f 204/253/224 203/177/230 210/179/233 209/178/226
f 207/304/78 210/179/233 219/185/234 218/180/84
f 212/181/235 211/305/236 216/183/237 215/182/231
f 213/184/238 216/183/237 225/189/239 224/255/240
f 214/254/232 213/184/238 220/186/241 219/185/234
f 217/306/85 220/186/241 229/192/242 228/187/91
f 222/188/243 221/307/244 226/190/245 225/189/239
f 223/191/246 226/190/245 235/196/247 234/256/248
f 224/255/240 223/191/246 230/193/249 229/192/242
f 227/308/92 230/193/249 239/199/250 238/194/98
f 232/195/251 231/309/252 236/197/253 235/196/247
f 233/198/254 236/197/253 245/203/255 244/257/256
f 234/256/248 233/198/254 240/200/257 239/199/250
f 237/310/99 240/200/257 249/206/258 248/201/105
f 242/202/259 241/311/260 246/204/261 245/203/255
f 243/205/262 246/204/261 255/210/263 254/258/264
f 244/257/256 243/205/262 250/207/265 249/206/258
f 247/312/106 250/207/265 259/213/266 258/208/112
f 252/209/267 251/313/268 256/211/269 255/210/263
f 253/212/270 256/211/269 265/217/271 264/259/272
f 254/258/264 253/212/270 260/214/273 259/213/266
f 257/314/113 260/214/273 269/220/274 268/215/119
f 262/216/275 261/315/276 266/218/277 265/217/271
f 263/219/278 266/218/277 275/224/279 274/260/280
f 264/259/272 263/219/278 270/221/281 269/220/274
f 267/316/120 270/221/281 279/227/282 278/222/126
f 272/223/283 271/317/284 276/225/285 275/224/279
f 273/226/286 276/225/285 285/231/287 284/261/288
f 274/260/280 273/226/286 280/228/289 279/227/282
f 277/318/127 280/228/289 289/234/290 288/229/133
f 282/230/291 281/319/292 286/232/293 285/231/287
f 283/233/294 286/232/293 295/239/295 294/262/296
f 284/261/288 283/233/294 290/235/297 289/234/290
f 287/320/134 290/235/297 299/242/298 298/236/139
f 292/237/299 291/321/300 296/238/147 295/239/295
f 294/262/296 293/240/146 300/241/162 299/242/298
f 105/105/148 110/243/150 115/244/160 118/115/151
f 109/110/156 124/245/158 129/122/161 116/111/159
f 123/121/166 134/246/168 139/129/170 130/123/169
f 133/128/174 144/247/176 149/136/178 140/130/177
f 143/135/182 154/248/184 159/143/186 150/137/185
f 153/142/190 164/249/192 169/150/194 160/144/193
f 163/149/198 174/250/200 179/157/202 170/151/201
f 173/156/206 184/251/208 189/164/210 180/158/209
f 183/163/214 194/252/216 199/171/218 190/165/217
f 193/170/222 204/253/224 209/178/226 200/172/225
f 203/177/230 214/254/232 219/185/234 210/179/233
f 213/184/238 224/255/240 229/192/242 220/186/241
f 223/191/246 234/256/248 239/199/250 230/193/249
f 233/198/254 244/257/256 249/206/258 240/200/257
f 243/205/262 254/258/264 259/213/266 250/207/265
f 253/212/270 264/259/272 269/220/274 260/214/273
f 263/219/278 274/260/280 279/227/282 270/221/281
f 273/226/286 284/261/288 289/234/290 280/228/289
f 283/233/294 294/262/296 299/242/298 290/235/297
f 293/240/146 106/263/145 117/264/152 300/241/162
f 2/4/5 7/265/7 82/12/9
f 6/11/16 11/266/18 83/17/19
f 10/16/23 15/267/25 84/22/26
f 14/21/30 19/268/32 85/27/33
f 18/26/37 23/269/39 86/32/40
f 22/31/44 27/270/46 87/37/47
f 26/36/51 31/271/53 88/42/54
f 30/41/58 35/272/60 89/47/61
f 34/46/65 39/273/67 90/52/68
f 38/51/72 43/274/74 91/57/75
f 42/56/79 47/275/81 92/62/82
f 46/61/86 51/276/88 93/67/89
f 50/66/93 55/277/95 94/72/96
f 54/71/100 59/278/102 95/77/103
f 58/76/107 63/279/109 96/82/110
f 62/81/114 67/280/116 97/87/117
f 66/86/121 71/281/123 98/92/124
f 70/91/128 75/282/130 99/97/131
f 74/96/135 79/283/137 100/101/138
f 78/99/11 3/6/8 81/100/10
f 104/104/143 101/284/142 108/107/153 111/108/149
f 8/9/6 1/1/1 119/114/4 114/113/14
f 112/109/155 107/285/154 122/118/163 125/119/157
f 12/14/17 5/8/13 113/286/15 128/112/21
f 126/120/165 121/287/164 132/125/171 135/126/167
f 16/19/24 9/13/20 127/288/22 138/124/28
f 136/127/173 131/289/172 142/132/179 145/133/175
f 20/24/31 13/18/27 137/290/29 148/131/35
f 146/134/181 141/291/180 152/139/187 155/140/183
f 24/29/38 17/23/34 147/292/36 158/138/42
f 156/141/189 151/293/188 162/146/195 165/147/191
f 28/34/45 21/28/41 157/294/43 168/145/49
f 166/148/197 161/295/196 172/153/203 175/154/199
f 32/39/52 25/33/48 167/296/50 178/152/56
f 176/155/205 171/297/204 182/160/211 185/161/207
f 36/44/59 29/38/55 177/298/57 188/159/63
f 186/162/213 181/299/212 192/167/219 195/168/215
f 40/49/66 33/43/62 187/300/64 198/166/70
f 196/169/221 191/301/220 202/174/227 205/175/223
f 44/54/73 37/48/69 197/302/71 208/173/77
f 206/176/229 201/303/228 212/181/235 215/182/231
f 48/59/80 41/53/76 207/304/78 218/180/84
f 216/183/237 211/305/236 222/188/243 225/189/239
f 52/64/87 45/58/83 217/306/85 228/187/91
f 226/190/245 221/307/244 232/195/251 235/196/247
f 56/69/94 49/63/90 227/308/92 238/194/98
f 236/197/253 231/309/252 242/202/259 245/203/255
f 60/74/101 53/68/97 237/310/99 248/201/105
f 246/204/261 241/311/260 252/209/267 255/210/263
f 64/79/108 57/73/104 247/312/106 258/208/112
f 256/211/269 251/313/268 262/216/275 265/217/271
f 68/84/115 61/78/111 257/314/113 268/215/119
f 266/218/277 261/315/276 272/223/283 275/224/279
f 72/89/122 65/83/118 267/316/120 278/222/126
f 276/225/285 271/317/284 282/230/291 285/231/287
f 76/94/129 69/88/125 277/318/127 288/229/133
f 286/232/293 281/319/292 292/237/299 295/239/295
f 80/98/136 73/93/132 287/320/134 298/236/139
f 296/238/147 291/321/300 102/322/141 103/323/144
f 4/324/2 77/325/12 297/117/140 120/116/3
f 1/3/1 2/4/5 3/6/8 4/326/2
f 5/327/13 6/11/16 7/265/7 8/328/6
f 9/329/20 10/16/23 11/266/18 12/330/17
f 13/331/27 14/21/30 15/267/25 16/332/24
f 17/333/34 18/26/37 19/268/32 20/334/31
f 21/335/41 22/31/44 23/269/39 24/336/38
f 25/337/48 26/36/51 27/270/46 28/338/45
f 29/339/55 30/41/58 31/271/53 32/340/52
f 33/341/62 34/46/65 35/272/60 36/342/59
f 37/343/69 38/51/72 39/273/67 40/344/66
f 41/345/76 42/56/79 43/274/74 44/346/73
f 45/347/83 46/61/86 47/275/81 48/348/80
f 49/349/90 50/66/93 51/276/88 52/350/87
f 53/351/97 54/71/100 55/277/95 56/352/94
f 57/353/104 58/76/107 59/278/102 60/354/101
f 61/355/111 62/81/114 63/279/109 64/356/108
f 65/357/118 66/86/121 67/280/116 68/358/115
f 69/359/125 70/91/128 71/281/123 72/360/122
f 73/361/132 74/96/135 75/282/130 76/362/129
f 77/363/12 78/99/11 79/283/137 80/364/136
f 81/100/10 82/12/9 83/17/19 84/22/26 85/27/33 86/32/40 87/37/47 88/42/54 89/47/61 90/52/68 91/57/75 92/62/82 93/67/89 94/72/96 95/77/103 96/82/110 97/87/117 98/92/124 99/97/131 100/101/138
f 103/103/144 104/104/143 105/105/148 106/365/145
f 109/110/156 110/243/150 111/108/149 112/109/155
f 113/286/15 114/113/14 115/244/160 116/111/159
f 117/106/152 118/115/151 119/114/4 120/366/3
f 123/121/166 124/245/158 125/119/157 126/120/165
f 127/288/22 128/112/21 129/122/161 130/123/169
f 133/128/174 134/246/168 135/126/167 136/127/173
f 137/290/29 138/124/28 139/129/170 140/130/177
f 143/135/182 144/247/176 145/133/175 146/134/181
f 147/292/36 148/131/35 149/136/178 150/137/185
f 153/142/190 154/248/184 155/140/183 156/141/189
f 157/294/43 158/138/42 159/143/186 160/144/193
f 163/149/198 164/249/192 165/147/191 166/148/197
f 167/296/50 168/145/49 169/150/194 170/151/201
f 173/156/206 174/250/200 175/154/199 176/155/205
f 177/298/57 178/152/56 179/157/202 180/158/209
f 183/163/214 184/251/208 185/161/207 186/162/213
f 187/300/64 188/159/63 189/164/210 190/165/217
f 193/170/222 194/252/216 195/168/215 196/169/221
f 197/302/71 198/166/70 199/171/218 200/172/225
f 203/177/230 204/253/224 205/175/223 206/176/229
f 207/304/78 208/173/77 209/178/226 210/179/233
f 213/184/238 214/254/232 215/182/231 216/183/237
f 217/306/85 218/180/84 219/185/234 220/186/241
f 223/191/246 224/255/240 225/189/239 226/190/245
f 227/308/92 228/187/91 229/192/242 230/193/249
f 233/198/254 234/256/248 235/196/247 236/197/253
f 237/310/99 238/194/98 239/199/250 240/200/257
f 243/205/262 244/257/256 245/203/255 246/204/261
f 247/312/106 248/201/105 249/206/258 250/207/265
f 253/212/270 254/258/264 255/210/263 256/211/269
f 257/314/113 258/208/112 259/213/266 260/214/273
f 263/219/278 264/259/272 265/217/271 266/218/277
f 267/316/120 268/215/119 269/220/274 270/221/281
f 273/226/286 274/260/280 275/224/279 276/225/285
f 277/318/127 278/222/126 279/227/282 280/228/289
f 283/233/294 284/261/288 285/231/287 286/232/293
f 287/320/134 288/229/133 289/234/290 290/235/297
f 293/240/146 294/262/296 295/239/295 296/238/147
f 297/117/140 298/236/139 299/242/298 300/241/162
