# This file uses centimeters as units for non-parametric coordinates.

mtllib Solo_Note.mtl
g default
v 0.496165 0.221738 1.876981
v 0.494336 0.192909 0.886660
v -0.494204 0.154462 0.887281
v -0.494204 0.154462 1.875688
v 0.000000 0.154462 1.381484
v 0.494204 0.154462 1.381484
v 0.000000 0.154462 0.887281
v -0.494204 0.154462 1.381484
v 0.000000 0.154462 1.875688
v 0.247102 0.154462 1.628586
v 0.247135 0.154475 1.875729
v 0.494215 0.154519 1.628606
v 0.247102 0.154462 1.381484
v 0.000000 0.154462 1.628586
v 0.247102 0.154462 1.134383
v 0.494242 0.154464 1.134370
v 0.247105 0.154517 0.887304
v 0.000000 0.154462 1.134383
v -0.247102 0.154462 1.134383
v -0.247102 0.154462 0.887281
v -0.494204 0.154462 1.134383
v -0.247102 0.154462 1.381484
v -0.247102 0.154462 1.628586
v -0.494204 0.154462 1.628586
v -0.247102 0.154462 1.875688
v 0.123551 0.154462 1.752137
v 0.000000 0.154462 1.752137
v 0.123551 0.154462 1.875688
v 0.247102 0.154462 1.752137
v 0.123551 0.154462 1.628586
v 0.370653 0.154462 1.257933
v 0.370653 0.154462 1.381484
v 0.494204 0.154462 1.257933
v 0.370653 0.154462 1.134383
v 0.247102 0.154462 1.257933
v -0.123551 0.154462 1.010832
v 0.000000 0.154462 1.010832
v -0.123551 0.154462 0.887281
v -0.247102 0.154462 1.010832
v -0.123551 0.154462 1.134383
v -0.370653 0.154462 1.505035
v -0.370653 0.154462 1.381484
v -0.494204 0.154462 1.505035
v -0.370653 0.154462 1.628586
v -0.247102 0.154462 1.505035
v 0.372696 0.158252 1.755097
v 0.376648 0.174663 1.881977
v 0.497288 0.179898 1.755690
v 0.370653 0.154462 1.628586
v 0.370653 0.154462 1.505035
v 0.494204 0.154462 1.505035
v 0.247102 0.154462 1.505035
v 0.123551 0.154462 1.505035
v 0.123551 0.154462 1.381484
v 0.000000 0.154462 1.505035
v 0.373049 0.157837 1.011675
v 0.499588 0.164976 1.008595
v 0.371183 0.171938 0.890301
v 0.247102 0.154462 1.010832
v 0.123551 0.154462 1.010832
v 0.123551 0.154462 0.887281
v 0.123551 0.154462 1.134383
v 0.123551 0.154462 1.257933
v 0.000000 0.154462 1.257933
v -0.370653 0.154462 1.010832
v -0.370653 0.154462 0.887281
v -0.494204 0.154462 1.010832
v -0.370653 0.154462 1.134383
v -0.370653 0.154462 1.257933
v -0.494204 0.154462 1.257933
v -0.247102 0.154462 1.257933
v -0.123551 0.154462 1.257933
v -0.123551 0.154462 1.381484
v -0.370653 0.154462 1.752137
v -0.494204 0.154462 1.752137
v -0.370653 0.154462 1.875688
v -0.247102 0.154462 1.752137
v -0.123551 0.154462 1.752137
v -0.123551 0.154462 1.875688
v -0.123551 0.154462 1.628586
v -0.123551 0.154462 1.505035
v 0.000000 0.162716 1.628586
v 0.123551 0.162716 1.628586
v 0.000000 0.162716 1.752137
v 0.123551 0.162716 1.752137
v 0.247102 0.162716 1.381484
v 0.247102 0.162716 1.257933
v 0.370653 0.162716 1.381484
v 0.370653 0.162716 1.257933
v 0.000000 0.162716 1.134383
v -0.123551 0.162716 1.134383
v 0.000000 0.162716 1.010832
v -0.123551 0.162716 1.010832
v -0.247102 0.162716 1.381484
v -0.247102 0.162716 1.505035
v -0.370653 0.162716 1.381484
v -0.370653 0.162716 1.505035
v 0.247131 0.162730 1.875727
v 0.247102 0.162716 1.752137
v 0.375628 0.182896 1.881346
v 0.372514 0.167081 1.755236
v 0.494211 0.162774 1.628604
v 0.370653 0.162716 1.628586
v 0.494204 0.162716 1.505035
v 0.370653 0.162716 1.505035
v 0.247102 0.162716 1.505035
v 0.123551 0.162716 1.381484
v 0.123551 0.162716 1.505035
v 0.494242 0.162719 1.134373
v 0.370653 0.162716 1.134383
v 0.499438 0.173204 1.009242
v 0.372981 0.166087 1.011951
v 0.247104 0.162772 0.887307
v 0.247102 0.162716 1.010832
v 0.123551 0.162716 0.887281
v 0.123551 0.162716 1.010832
v 0.123551 0.162716 1.134383
v 0.000000 0.162716 1.257933
v 0.123551 0.162716 1.257933
v -0.247102 0.162716 0.887281
v -0.247102 0.162716 1.010832
v -0.370653 0.162716 0.887281
v -0.370653 0.162716 1.010832
v -0.494204 0.162716 1.134383
v -0.370653 0.162716 1.134383
v -0.494204 0.162716 1.257933
v -0.370653 0.162716 1.257933
v -0.247102 0.162716 1.257933
v -0.123551 0.162716 1.381484
v -0.123551 0.162716 1.257933
v -0.494204 0.162716 1.628586
v -0.370653 0.162716 1.628586
v -0.494204 0.162716 1.752137
v -0.370653 0.162716 1.752137
v -0.247102 0.162716 1.875688
v -0.247102 0.162716 1.752137
v -0.123551 0.162716 1.875688
v -0.123551 0.162716 1.752137
v -0.123551 0.162716 1.628586
v 0.000000 0.162716 1.505035
v -0.123551 0.162716 1.505035
v 0.000000 0.162716 1.875688
v 0.123551 0.162716 1.875688
v 0.247102 0.162716 1.628586
v 0.494204 0.162716 1.381484
v 0.494204 0.162716 1.257933
v 0.247102 0.162716 1.134383
v 0.000000 0.162716 0.887281
v -0.123551 0.162716 0.887281
v -0.247102 0.162716 1.134383
v -0.494204 0.162716 1.381484
v -0.494204 0.162716 1.505035
v -0.247102 0.162716 1.628586
v 0.494204 0.229833 1.875688
v 0.496259 0.188144 1.755052
v 0.000000 0.162716 1.381484
v 0.494071 0.201065 0.887902
v 0.371033 0.180166 0.890949
v -0.494204 0.162716 0.887281
v -0.494204 0.162716 1.010832
v -0.494204 0.162716 1.875688
v -0.370653 0.162716 1.875688
vt 0.191888 0.371634
vt 0.252715 0.371838
vt 0.251931 0.433706
vt 0.191417 0.433527
vt 0.132061 0.187287
vt 0.131635 0.248483
vt 0.070187 0.248716
vt 0.070503 0.187406
vt 0.317782 0.127428
vt 0.255988 0.126619
vt 0.256520 0.065427
vt 0.318477 0.066142
vt 0.376231 0.312094
vt 0.377670 0.250934
vt 0.439194 0.252736
vt 0.437832 0.313916
vt 0.130807 0.433207
vt 0.130562 0.496037
vt 0.066615 0.495556
vt 0.069004 0.433561
vt 0.069852 0.371109
vt 0.008309 0.371684
vt 0.004041 0.686260
vt 0.069923 0.309863
vt 0.131251 0.309875
vt 0.193083 0.248680
vt 0.192470 0.309986
vt 0.070819 0.126177
vt 0.009348 0.126515
vt 0.007679 0.935476
vt 0.069785 0.065466
vt 0.132705 0.064736
vt 0.132952 0.003439
vt 0.198604 0.996754
vt 0.194593 0.064931
vt 0.194178 0.126205
vt 0.255318 0.187867
vt 0.193673 0.187377
vt 0.380316 0.067201
vt 0.381119 0.005855
vt 0.447011 0.991016
vt 0.442032 0.068413
vt 0.441178 0.129862
vt 0.502651 0.131324
vt 0.501723 0.193112
vt 0.440352 0.191297
vt 0.378683 0.189790
vt 0.316051 0.249817
vt 0.317028 0.188589
vt 0.435593 0.374835
vt 0.497213 0.378563
vt 0.494595 0.439631
vt 0.432451 0.434758
vt 0.372479 0.434323
vt 0.371117 0.495895
vt 0.311598 0.495763
vt 0.312263 0.433793
vt 0.313544 0.372314
vt 0.253654 0.310395
vt 0.314889 0.310917
vt 0.251469 0.495766
vt 0.191198 0.495784
vt 0.130973 0.371330
vt 0.008741 0.249263
vt 0.006070 0.811069
vt 0.132442 0.126009
vt 0.256983 0.004113
vt 0.323003 0.994569
vt 0.379574 0.128481
vt 0.500716 0.254979
vt 0.499121 0.316897
vt 0.374390 0.372943
vt 0.004411 0.496694
vt 0.002441 0.559568
vt 0.254551 0.249025
vt 0.011359 0.997559
vt 0.074614 0.996983
vt 0.504435 0.008278
vt 0.503468 0.069710
vt 0.486598 0.494086
vt 0.430137 0.496410
vt 0.191922 0.624366
vt 0.191376 0.562409
vt 0.251859 0.562048
vt 0.252734 0.623930
vt 0.133577 0.809076
vt 0.071729 0.809664
vt 0.070497 0.748287
vt 0.132182 0.747852
vt 0.320241 0.867842
vt 0.321653 0.929198
vt 0.259813 0.930345
vt 0.258535 0.869027
vt 0.376774 0.683052
vt 0.438376 0.680926
vt 0.440271 0.741759
vt 0.378690 0.744072
vt 0.130927 0.563008
vt 0.069288 0.562606
vt 0.067611 0.499624
vt 0.130850 0.500271
vt 0.069826 0.625307
vt 0.069663 0.686861
vt 0.008139 0.686337
vt 0.008450 0.624607
vt 0.131329 0.686471
vt 0.192707 0.686027
vt 0.193901 0.747284
vt 0.073568 0.871008
vt 0.074159 0.931788
vt 0.011760 0.934729
vt 0.011888 0.872486
vt 0.136592 0.931573
vt 0.198203 0.931153
vt 0.198627 0.992656
vt 0.137328 0.992851
vt 0.196825 0.869759
vt 0.195316 0.808522
vt 0.257016 0.807748
vt 0.383481 0.927530
vt 0.445210 0.925632
vt 0.446887 0.986921
vt 0.385023 0.988870
vt 0.443611 0.864260
vt 0.442059 0.803007
vt 0.505818 0.193230
vt 0.506746 0.131420
vt 0.380385 0.805061
vt 0.318714 0.806696
vt 0.317061 0.745527
vt 0.435980 0.620183
vt 0.433243 0.560571
vt 0.498611 0.440447
vt 0.501300 0.378852
vt 0.372701 0.561340
vt 0.312089 0.561862
vt 0.311542 0.499903
vt 0.371050 0.500041
vt 0.313679 0.623238
vt 0.315338 0.684525
vt 0.254049 0.685320
vt 0.191175 0.499954
vt 0.251422 0.499920
vt 0.130937 0.624974
vt 0.010169 0.810947
vt 0.008732 0.748714
vt 0.135180 0.870282
vt 0.322915 0.990474
vt 0.260738 0.991826
vt 0.381996 0.866304
vt 0.503213 0.317102
vt 0.504810 0.255135
vt 0.374646 0.622361
vt 0.006538 0.560619
vt 0.007049 0.499747
vt 0.255476 0.746622
vt 0.075455 0.992873
vt 0.014195 0.994681
vt 0.507564 0.069791
vt 0.508532 0.008354
vt 0.430721 0.500428
vt 0.488894 0.497107
vt 0.508532 0.989001
vt 0.442920 0.007071
vt 0.508403 0.984906
vt 0.260790 0.995922
vt 0.194884 0.003678
vt 0.136982 0.996928
vt 0.070424 0.005032
vt 0.008359 0.002441
vt 0.006793 0.064244
vt 0.004635 0.748751
vt 0.008533 0.310701
vt 0.004380 0.624133
vt 0.006278 0.435061
vt 0.385133 0.992965
vt 0.319077 0.004883
vt 0.007792 0.872817
vt 0.009101 0.187913
vt 0.493989 0.554949
vt 0.497617 0.616136
vt 0.503426 0.800347
vt 0.505084 0.861996
vt 0.506636 0.923505
vt 0.499731 0.677178
vt 0.501804 0.738805
vn 0.000000 1.000000 0.000000
vn 0.000000 1.000000 0.000000
vn 0.000000 1.000000 0.000000
vn -0.000014 1.000000 -0.000014
vn -0.000000 1.000000 0.000000
vn -0.000000 1.000000 0.000000
vn -0.000000 1.000000 0.000000
vn -0.000003 1.000000 0.000003
vn 0.000000 1.000000 0.000000
vn 0.000000 1.000000 0.000000
vn 0.000000 1.000000 0.000000
vn 0.000000 1.000000 0.000000
vn 0.000000 1.000000 0.000000
vn 0.000000 1.000000 0.000000
vn -0.000000 1.000000 0.000000
vn -0.000000 1.000000 0.000000
vn -0.028199 0.999401 -0.020079
vn -0.050558 0.998017 0.037491
vn -0.187839 0.979661 -0.070572
vn -0.116829 0.987740 -0.103536
vn -0.025899 0.999100 -0.033594
vn 0.027285 0.997814 -0.060182
vn 0.066556 0.997783 -0.000118
vn -0.000058 1.000000 -0.000058
vn 0.000000 1.000000 0.000000
vn 0.000000 1.000000 0.000000
vn 0.000000 1.000000 0.000000
vn -0.010381 0.999799 0.017168
vn 0.053497 0.998131 0.029552
vn 0.003779 0.993318 0.115345
vn -0.057640 0.995516 0.075004
vn -0.024588 0.999533 0.018120
vn -0.040927 0.998308 -0.041317
vn -0.000105 0.997782 -0.066568
vn -0.000056 1.000000 0.000056
vn 0.000000 1.000000 0.000000
vn 0.000000 1.000000 0.000000
vn 0.000000 1.000000 0.000000
vn 0.000000 1.000000 0.000000
vn 0.000000 0.997776 -0.066662
vn -0.000000 0.997776 -0.066662
vn -0.000000 1.000000 0.000000
vn -0.000000 1.000000 0.000000
vn -0.066662 0.997776 0.000000
vn -0.066662 0.997776 0.000000
vn -0.000000 1.000000 0.000000
vn 0.000000 1.000000 0.000000
vn 0.000000 1.000000 0.000000
vn 0.000000 1.000000 0.000000
vn -0.000000 1.000000 0.000000
vn -0.066662 0.997776 0.000000
vn -0.066662 0.997776 0.000000
vn -0.000000 1.000000 0.000000
vn 0.000000 1.000000 0.000000
vn 0.000000 0.997776 0.066662
vn 0.000000 0.997776 0.066662
vn 0.000000 1.000000 0.000000
vn 0.000000 1.000000 0.000000
vn 0.000000 1.000000 0.000000
vn 0.000000 1.000000 0.000000
vn 0.000000 0.997776 0.066662
vn -0.000038 0.997778 0.066629
vn -0.004394 0.999981 -0.004394
vn 0.066662 0.997776 0.000000
vn 0.066647 0.997777 0.000016
vn -0.003406 0.999988 0.003406
vn 0.000000 0.997776 -0.066662
vn 0.000000 0.997776 -0.066662
vn 0.000000 1.000000 0.000000
vn -0.066662 0.997776 0.000000
vn -0.066662 0.997776 0.000000
vn 0.000000 1.000000 0.000000
vn -0.210593 0.964412 -0.159874
vn -0.111619 0.978776 -0.171871
vn 0.000000 1.000000 0.000000
vn -0.045256 0.992900 0.110011
vn -0.096112 0.994101 0.050258
vn -0.066514 0.995566 -0.066514
vn -0.066662 0.997776 0.000000
vn -0.066514 0.995566 0.066514
vn -0.000000 0.997776 0.066662
vn 0.000000 -1.000000 0.000000
vn 0.000014 -1.000000 0.000014
vn 0.000000 -1.000000 0.000000
vn 0.000000 -1.000000 0.000000
vn 0.000000 -1.000000 0.000000
vn 0.000003 -1.000000 -0.000003
vn -0.000000 -1.000000 0.000000
vn 0.000000 -1.000000 0.000000
vn 0.000000 -1.000000 0.000000
vn 0.000000 -1.000000 0.000000
vn 0.000000 -1.000000 0.000000
vn 0.000000 -1.000000 0.000000
vn 0.000000 -1.000000 0.000000
vn 0.000000 -1.000000 0.000000
vn 0.000000 -1.000000 0.000000
vn 0.000000 -1.000000 0.000000
vn 0.027051 -0.999433 0.020073
vn 0.115898 -0.987935 0.102727
vn 0.185043 -0.971964 0.145071
vn 0.047503 -0.998318 0.033230
vn 0.025809 -0.999143 0.032371
vn 0.000058 -1.000000 0.000058
vn 0.000115 -1.000000 0.000116
vn 0.044569 -0.997329 0.057872
vn 0.000000 -1.000000 0.000000
vn 0.000000 -1.000000 0.000000
vn 0.000000 -1.000000 0.000000
vn 0.010397 -0.999798 -0.017176
vn 0.057523 -0.995532 -0.074888
vn 0.067669 -0.991050 -0.115067
vn 0.014241 -0.999503 -0.028108
vn 0.024555 -0.999534 -0.018120
vn 0.000056 -1.000000 -0.000056
vn 0.000112 -1.000000 -0.000112
vn 0.041831 -0.998701 -0.029112
vn 0.000000 -1.000000 0.000000
vn 0.000000 -1.000000 0.000000
vn 0.000000 -1.000000 0.000000
vn 0.000000 -1.000000 0.000000
vn 0.000000 -1.000000 0.000000
vn 0.000000 -1.000000 0.000000
vn 0.000000 -1.000000 0.000000
vn 0.000000 -1.000000 -0.000000
vn 0.000000 -1.000000 0.000000
vn 0.000000 -1.000000 0.000000
vn 0.000000 -1.000000 0.000000
vn 0.000000 -1.000000 0.000000
vn 0.000000 -1.000000 0.000000
vn 0.000000 -1.000000 0.000000
vn 0.000000 -1.000000 -0.000000
vn 0.000000 -1.000000 0.000000
vn 0.000000 -1.000000 0.000000
vn 0.000000 -1.000000 0.000000
vn 0.000000 -1.000000 0.000000
vn 0.000000 -1.000000 0.000000
vn 0.000000 -1.000000 0.000000
vn 0.000000 -1.000000 0.000000
vn 0.000000 -1.000000 0.000000
vn 0.000000 -1.000000 0.000000
vn 0.000000 -1.000000 0.000000
vn 0.000027 -1.000000 0.000027
vn 0.000000 -1.000000 0.000000
vn 0.003815 -0.999986 0.003815
vn 0.000005 -1.000000 -0.000005
vn -0.000000 -1.000000 0.000000
vn 0.003410 -0.999988 -0.003410
vn 0.000000 -1.000000 0.000000
vn 0.000000 -1.000000 0.000000
vn 0.000000 -1.000000 -0.000000
vn 0.000000 -1.000000 0.000000
vn 0.000000 -1.000000 -0.000000
vn 0.000000 -1.000000 -0.000000
vn 0.182275 -0.968794 0.167974
vn 0.268139 -0.938565 0.217248
vn 0.000000 -1.000000 0.000000
vn 0.094875 -0.988726 -0.115844
vn 0.105618 -0.979369 -0.172283
vn 0.000000 -1.000000 0.000000
vn 0.000000 -1.000000 -0.000000
vn 0.000000 -1.000000 0.000000
vn 0.000000 -1.000000 0.000000
vn -0.025236 0.017188 0.999534
vn -0.029267 0.071538 0.997008
vn 0.999454 0.029193 -0.015444
vn 1.000000 0.000108 -0.000039
vn 0.999771 0.003682 0.021075
vn 0.999827 0.017876 0.005170
vn 0.010230 0.018987 -0.999767
vn 0.000100 0.000072 -1.000000
vn 0.000000 0.000000 -1.000000
vn 0.000000 0.000000 -1.000000
vn -1.000000 0.000000 0.000000
vn -1.000000 0.000000 0.000000
vn -1.000000 0.000000 0.000000
vn -1.000000 0.000000 0.000000
vn 0.000000 0.000000 1.000000
vn 0.000000 0.000000 1.000000
vn 0.000000 0.000000 1.000000
vn -0.000163 0.000065 1.000000
vn 1.000000 0.000000 0.000000
vn 1.000000 0.000018 0.000156
vn 0.000000 0.000000 -1.000000
vn 0.000000 0.000000 -1.000000
vn -1.000000 0.000000 0.000000
vn -1.000000 0.000000 0.000000
vn 0.709201 0.209097 0.673285
vn 0.993092 0.110689 -0.038949
vn 0.664811 0.102154 -0.739994
vn -0.009546 0.073248 -0.997268
vn -0.707107 0.000000 -0.707107
vn -1.000000 0.000000 0.000000
vn -0.707107 0.000000 0.707106
vn 0.000000 0.000000 1.000000
g FCSET_Note_Solo_001_0p386_0p32_0p549 Note_Solo Post_Its group1
usemtl lambert1SG
f 83/1/1 82/2/2 84/3/3 85/4/4
f 87/5/5 86/6/6 88/7/7 89/8/8
f 91/9/9 90/10/10 92/11/11 93/12/12
f 95/13/13 94/14/14 96/15/15 97/16/16
f 99/17/17 98/18/18 100/19/19 101/20/20
f 103/21/21 102/22/22 104/173/23 105/24/24
f 106/25/25 86/6/6 107/26/26 108/27/27
f 110/28/28 109/29/29 111/171/30 112/31/31
f 114/32/32 113/33/33 115/167/34 116/35/35
f 117/36/36 90/10/10 118/37/37 119/38/38
f 121/39/39 120/40/40 122/164/41 123/42/42
f 125/43/43 124/44/44 126/45/45 127/46/46
f 128/47/47 94/14/14 129/48/48 130/49/49
f 132/50/50 131/51/51 133/52/52 134/53/53
f 136/54/54 135/55/55 137/56/56 138/57/57
f 139/58/58 82/2/2 140/59/59 141/60/60
f 84/3/3 142/61/61 143/62/62 85/4/4
f 143/62/62 98/18/18 99/17/17 85/4/4
f 99/17/17 144/63/63 83/1/1 85/4/4
f 88/7/7 145/64/64 146/179/65 89/8/8
f 146/179/65 109/29/29 110/28/28 89/8/8
f 110/28/28 147/66/66 87/5/5 89/8/8
f 92/11/11 148/67/67 149/177/68 93/12/12
f 149/177/68 120/40/40 121/39/39 93/12/12
f 121/39/39 150/69/69 91/9/9 93/12/12
f 96/15/15 151/70/70 152/71/71 97/16/16
f 152/71/71 131/51/51 132/50/50 97/16/16
f 132/50/50 153/72/72 95/13/13 97/16/16
f 100/19/19 154/73/73 155/175/74 101/20/20
f 155/175/74 102/22/22 103/21/21 101/20/20
f 103/21/21 144/63/63 99/17/17 101/20/20
f 104/173/23 145/64/64 88/7/7 105/24/24
f 88/7/7 86/6/6 106/25/25 105/24/24
f 106/25/25 144/63/63 103/21/21 105/24/24
f 107/26/26 156/75/75 140/59/59 108/27/27
f 140/59/59 82/2/2 83/1/1 108/27/27
f 83/1/1 144/63/63 106/25/25 108/27/27
f 111/171/30 157/170/76 158/169/77 112/31/31
f 158/169/77 113/33/33 114/32/32 112/31/31
f 114/32/32 147/66/66 110/28/28 112/31/31
f 115/167/34 148/67/67 92/11/11 116/35/35
f 92/11/11 90/10/10 117/36/36 116/35/35
f 117/36/36 147/66/66 114/32/32 116/35/35
f 118/37/37 156/75/75 107/26/26 119/38/38
f 107/26/26 86/6/6 87/5/5 119/38/38
f 87/5/5 147/66/66 117/36/36 119/38/38
f 122/164/41 159/78/78 160/79/79 123/42/42
f 160/79/79 124/44/44 125/43/43 123/42/42
f 125/43/43 150/69/69 121/39/39 123/42/42
f 126/45/45 151/70/70 96/15/15 127/46/46
f 96/15/15 94/14/14 128/47/47 127/46/46
f 128/47/47 150/69/69 125/43/43 127/46/46
f 129/48/48 156/75/75 118/37/37 130/49/49
f 118/37/37 90/10/10 91/9/9 130/49/49
f 91/9/9 150/69/69 128/47/47 130/49/49
f 133/52/52 161/80/80 162/81/81 134/53/53
f 162/81/81 135/55/55 136/54/54 134/53/53
f 136/54/54 153/72/72 132/50/50 134/53/53
f 137/56/56 142/61/61 84/3/3 138/57/57
f 84/3/3 82/2/2 139/58/58 138/57/57
f 139/58/58 153/72/72 136/54/54 138/57/57
f 140/59/59 156/75/75 129/48/48 141/60/60
f 129/48/48 94/14/14 95/13/13 141/60/60
f 95/13/13 153/72/72 139/58/58 141/60/60
f 30/82/82 26/83/83 27/84/84 14/85/85
f 35/86/86 31/87/87 32/88/88 13/89/89
f 40/90/90 36/91/91 37/92/92 18/93/93
f 45/94/94 41/95/95 42/96/96 22/97/97
f 29/98/98 46/99/99 47/100/100 11/101/101
f 49/102/102 50/103/103 51/104/104 12/105/105
f 52/106/106 53/107/107 54/108/108 13/89/89
f 34/109/109 56/110/110 57/111/111 16/112/112
f 59/113/113 60/114/114 61/115/115 17/116/116
f 62/117/117 63/118/118 64/119/119 18/93/93
f 39/120/120 65/121/121 66/122/122 20/123/123
f 68/124/124 69/125/125 70/182/126 21/183/127
f 71/128/128 72/129/129 73/130/130 22/97/97
f 44/131/131 74/132/132 75/180/133 24/181/134
f 77/135/135 78/136/136 79/137/137 25/138/138
f 80/139/139 81/140/140 55/141/141 14/85/85
f 27/84/84 26/83/83 28/142/142 9/143/143
f 28/142/142 26/83/83 29/98/98 11/101/101
f 29/98/98 26/83/83 30/82/82 10/144/144
f 32/88/88 31/87/87 33/145/145 6/146/146
f 33/145/145 31/87/87 34/109/109 16/112/112
f 34/109/109 31/87/87 35/86/86 15/147/147
f 37/92/92 36/91/91 38/148/148 7/149/149
f 38/148/148 36/91/91 39/120/120 20/123/123
f 39/120/120 36/91/91 40/90/90 19/150/150
f 42/96/96 41/95/95 43/185/151 8/186/152
f 43/185/151 41/95/95 44/131/131 24/181/134
f 44/131/131 41/95/95 45/94/94 23/153/153
f 47/100/100 46/99/99 48/154/154 1/155/155
f 48/154/154 46/99/99 49/102/102 12/105/105
f 49/102/102 46/99/99 29/98/98 10/144/144
f 51/104/104 50/103/103 32/88/88 6/146/146
f 32/88/88 50/103/103 52/106/106 13/89/89
f 52/106/106 50/103/103 49/102/102 10/144/144
f 54/108/108 53/107/107 55/141/141 5/156/156
f 55/141/141 53/107/107 30/82/82 14/85/85
f 30/82/82 53/107/107 52/106/106 10/144/144
f 57/111/111 56/110/110 58/157/157 2/158/158
f 58/157/157 56/110/110 59/113/113 17/116/116
f 59/113/113 56/110/110 34/109/109 15/147/147
f 61/115/115 60/114/114 37/92/92 7/149/149
f 37/92/92 60/114/114 62/117/117 18/93/93
f 62/117/117 60/114/114 59/113/113 15/147/147
f 64/119/119 63/118/118 54/108/108 5/156/156
f 54/108/108 63/118/118 35/86/86 13/89/89
f 35/86/86 63/118/118 62/117/117 15/147/147
f 66/122/122 65/121/121 67/184/159 3/165/160
f 67/184/159 65/121/121 68/124/124 21/183/127
f 68/124/124 65/121/121 39/120/120 19/150/150
f 70/182/126 69/125/125 42/96/96 8/186/152
f 42/96/96 69/125/125 71/128/128 22/97/97
f 71/128/128 69/125/125 68/124/124 19/150/150
f 73/130/130 72/129/129 64/119/119 5/156/156
f 64/119/119 72/129/129 40/90/90 18/93/93
f 40/90/90 72/129/129 71/128/128 19/150/150
f 75/180/133 74/132/132 76/161/161 4/162/162
f 76/161/161 74/132/132 77/135/135 25/138/138
f 77/135/135 74/132/132 44/131/131 23/153/153
f 79/137/137 78/136/136 27/84/84 9/143/143
f 27/84/84 78/136/136 80/139/139 14/85/85
f 80/139/139 78/136/136 77/135/135 23/153/153
f 55/141/141 81/140/140 73/130/130 5/156/156
f 73/130/130 81/140/140 45/94/94 22/97/97
f 45/94/94 81/140/140 80/139/139 23/153/153
f 11/101/163 47/100/164 100/19/19 98/18/18
f 12/105/165 51/104/166 104/23/23 102/174/22
f 16/112/167 57/111/168 111/30/30 109/178/29
f 17/116/169 61/115/170 115/34/34 113/168/33
f 20/123/171 66/122/172 122/41/41 120/176/40
f 21/127/173 70/126/174 126/45/45 124/44/44
f 24/134/175 75/133/176 133/52/52 131/51/51
f 25/138/177 79/137/178 137/56/56 135/55/55
f 9/143/179 28/142/180 143/62/62 142/61/61
f 28/142/180 11/101/163 98/18/18 143/62/62
f 6/146/181 33/145/182 146/65/65 145/172/64
f 33/145/182 16/112/167 109/178/29 146/65/65
f 7/149/183 38/148/184 149/68/68 148/166/67
f 38/148/184 20/123/171 120/176/40 149/68/68
f 8/152/185 43/151/186 152/71/71 151/70/70
f 43/151/186 24/134/175 131/51/51 152/71/71
f 47/100/164 1/155/187 154/73/73 100/19/19
f 1/155/187 48/154/188 155/74/74 154/73/73
f 48/154/188 12/105/165 102/174/22 155/74/74
f 51/104/166 6/146/181 145/172/64 104/23/23
f 57/111/168 2/158/189 157/76/76 111/30/30
f 2/158/189 58/157/190 158/77/77 157/76/76
f 58/157/190 17/116/169 113/168/33 158/77/77
f 61/115/170 7/149/183 148/166/67 115/34/34
f 66/122/172 3/165/191 159/163/78 122/41/41
f 3/160/191 67/159/192 160/79/79 159/78/78
f 67/159/192 21/127/173 124/44/44 160/79/79
f 70/126/174 8/152/185 151/70/70 126/45/45
f 75/133/176 4/162/193 161/80/80 133/52/52
f 4/162/193 76/161/194 162/81/81 161/80/80
f 76/161/194 25/138/177 135/55/55 162/81/81
f 79/137/178 9/143/179 142/61/61 137/56/56
