# This file uses centimeters as units for non-parametric coordinates.

mtllib Solo_Tack.mtl
g default
v -14.552473 2.288436 4.240702
v -14.532671 2.288436 4.211066
v -14.503035 2.288436 4.191264
v -14.468077 2.288436 4.184310
v -14.433119 2.288436 4.191264
v -14.403482 2.288436 4.211066
v -14.383682 2.288436 4.240702
v -14.376726 2.288436 4.275661
v -14.383682 2.288436 4.310619
v -14.403482 2.288436 4.340255
v -14.433119 2.288436 4.360057
v -14.468077 2.288436 4.367011
v -14.503035 2.288436 4.360057
v -14.532671 2.288436 4.340255
v -14.552473 2.288436 4.310619
v -14.559427 2.288436 4.275661
v -14.552473 2.105736 4.240702
v -14.532671 2.105736 4.211066
v -14.503035 2.105736 4.191264
v -14.468077 2.105736 4.184310
v -14.433119 2.105736 4.191264
v -14.403482 2.105736 4.211066
v -14.383682 2.105736 4.240702
v -14.376726 2.105736 4.275661
v -14.383682 2.105736 4.310619
v -14.403482 2.105736 4.340255
v -14.433119 2.105736 4.360057
v -14.468077 2.105736 4.367011
v -14.503035 2.105736 4.360057
v -14.532671 2.105736 4.340255
v -14.552473 2.105736 4.310619
v -14.559427 2.105736 4.275661
v -14.468077 2.288436 4.275661
v -14.468077 2.105736 4.275661
v -14.528490 2.232531 4.250637
v -14.533466 2.232531 4.275661
v -14.528490 2.232531 4.300684
v -14.514315 2.232531 4.321898
v -14.493101 2.232531 4.336072
v -14.468077 2.232531 4.341050
v -14.443054 2.232531 4.336072
v -14.421839 2.232531 4.321898
v -14.407665 2.232531 4.300684
v -14.402687 2.232531 4.275661
v -14.407665 2.232531 4.250637
v -14.421839 2.232531 4.229423
v -14.443054 2.232531 4.215249
v -14.468077 2.232531 4.210271
v -14.493101 2.232531 4.215249
v -14.514315 2.232531 4.229424
v -14.528490 2.174409 4.250637
v -14.533466 2.174409 4.275661
v -14.528490 2.174409 4.300684
v -14.514315 2.174409 4.321898
v -14.493101 2.174409 4.336072
v -14.468077 2.174409 4.341050
v -14.443054 2.174409 4.336072
v -14.421839 2.174409 4.321898
v -14.407665 2.174409 4.300684
v -14.402687 2.174409 4.275661
v -14.407665 2.174409 4.250637
v -14.421839 2.174409 4.229423
v -14.443054 2.174409 4.215249
v -14.468077 2.174409 4.210271
v -14.493101 2.174409 4.215249
v -14.514315 2.174409 4.229424
v -14.554352 2.275060 4.239924
v -14.561460 2.275060 4.275661
v -14.554352 2.275060 4.311397
v -14.534109 2.275060 4.341692
v -14.503813 2.275060 4.361936
v -14.468077 2.275060 4.369044
v -14.432341 2.275060 4.361936
v -14.402044 2.275060 4.341692
v -14.381802 2.275060 4.311397
v -14.374693 2.275060 4.275661
v -14.381802 2.275060 4.239924
v -14.402044 2.275060 4.209629
v -14.432341 2.275060 4.189385
v -14.468077 2.275060 4.182277
v -14.503813 2.275060 4.189385
v -14.534109 2.275060 4.209629
v -14.552473 2.118383 4.240702
v -14.559427 2.118383 4.275661
v -14.552473 2.118383 4.310619
v -14.532671 2.118383 4.340255
v -14.503035 2.118383 4.360057
v -14.468077 2.118383 4.367011
v -14.433119 2.118383 4.360057
v -14.403482 2.118383 4.340255
v -14.383682 2.118383 4.310618
v -14.376726 2.118383 4.275661
v -14.383682 2.118383 4.240702
v -14.403482 2.118383 4.211066
v -14.433119 2.118383 4.191264
v -14.468077 2.118383 4.184310
v -14.503035 2.118383 4.191264
v -14.532671 2.118383 4.211066
v -14.559139 2.285908 4.237941
v -14.566641 2.285908 4.275661
v -14.559139 2.285908 4.313380
v -14.537773 2.285908 4.345356
v -14.505796 2.285908 4.366723
v -14.468077 2.285908 4.374226
v -14.430357 2.285908 4.366723
v -14.398380 2.285908 4.345356
v -14.377014 2.285908 4.313380
v -14.369513 2.285908 4.275661
v -14.377014 2.285908 4.237941
v -14.398380 2.285908 4.205965
v -14.430357 2.285908 4.184598
v -14.468077 2.285908 4.177095
v -14.505796 2.285908 4.184598
v -14.537773 2.285908 4.205964
v -14.559139 2.281415 4.237941
v -14.566641 2.281415 4.275661
v -14.559139 2.281415 4.313380
v -14.537773 2.281415 4.345356
v -14.505796 2.281415 4.366723
v -14.468077 2.281415 4.374226
v -14.430357 2.281415 4.366723
v -14.398380 2.281415 4.345356
v -14.377014 2.281415 4.313380
v -14.369513 2.281415 4.275661
v -14.377014 2.281415 4.237941
v -14.398380 2.281415 4.205965
v -14.430357 2.281415 4.184598
v -14.468077 2.281415 4.177095
v -14.505796 2.281415 4.184598
v -14.537773 2.281415 4.205964
v -14.555504 2.277427 4.239448
v -14.562706 2.277427 4.275661
v -14.555504 2.277427 4.311873
v -14.534990 2.277427 4.342574
v -14.504290 2.277427 4.363087
v -14.468077 2.277427 4.370290
v -14.431864 2.277427 4.363087
v -14.401163 2.277427 4.342574
v -14.380651 2.277427 4.311874
v -14.373447 2.277427 4.275661
v -14.380651 2.277427 4.239447
v -14.401163 2.277427 4.208747
v -14.431864 2.277427 4.188234
v -14.468077 2.277427 4.181031
v -14.504290 2.277427 4.188234
v -14.534990 2.277427 4.208747
v -14.552473 2.271848 4.240702
v -14.559427 2.271848 4.275661
v -14.552473 2.271848 4.310619
v -14.532671 2.271848 4.340255
v -14.503035 2.271848 4.360057
v -14.468077 2.271848 4.367011
v -14.433119 2.271848 4.360057
v -14.403482 2.271848 4.340255
v -14.383682 2.271848 4.310618
v -14.376726 2.271848 4.275661
v -14.383682 2.271848 4.240702
v -14.403482 2.271848 4.211066
v -14.433119 2.271848 4.191264
v -14.468077 2.271848 4.184310
v -14.503035 2.271848 4.191264
v -14.532671 2.271848 4.211066
v -14.552473 2.121135 4.240702
v -14.559427 2.121135 4.275661
v -14.552473 2.121135 4.310619
v -14.532671 2.121135 4.340255
v -14.503035 2.121135 4.360057
v -14.468077 2.121135 4.367011
v -14.433119 2.121135 4.360057
v -14.403482 2.121135 4.340255
v -14.383682 2.121135 4.310618
v -14.376726 2.121135 4.275661
v -14.383682 2.121135 4.240702
v -14.403482 2.121135 4.211066
v -14.433119 2.121135 4.191264
v -14.468077 2.121135 4.184310
v -14.503035 2.121135 4.191264
v -14.532671 2.121135 4.211066
v -14.562876 2.115140 4.236394
v -14.570686 2.115140 4.275661
v -14.562876 2.115140 4.314927
v -14.540632 2.115140 4.348216
v -14.507343 2.115140 4.370459
v -14.468077 2.115140 4.378269
v -14.428810 2.115140 4.370459
v -14.395521 2.115140 4.348216
v -14.373280 2.115140 4.314927
v -14.365467 2.115140 4.275661
v -14.373280 2.115140 4.236393
v -14.395521 2.115140 4.203105
v -14.428810 2.115140 4.180862
v -14.468077 2.115140 4.173051
v -14.507343 2.115140 4.180862
v -14.540632 2.115140 4.203105
v -14.562876 2.108623 4.236394
v -14.570686 2.108623 4.275661
v -14.562876 2.108623 4.314927
v -14.540632 2.108623 4.348216
v -14.507343 2.108623 4.370459
v -14.468077 2.108623 4.378269
v -14.428810 2.108623 4.370459
v -14.395521 2.108623 4.348216
v -14.373280 2.108623 4.314927
v -14.365467 2.108623 4.275661
v -14.373280 2.108623 4.236393
v -14.395521 2.108623 4.203105
v -14.428810 2.108623 4.180862
v -14.468077 2.108623 4.173051
v -14.507343 2.108623 4.180862
v -14.540632 2.108623 4.203105
v -14.533243 2.157928 4.248667
v -14.538612 2.157928 4.275661
v -14.533243 2.157928 4.302654
v -14.517952 2.157928 4.325537
v -14.495070 2.157928 4.340827
v -14.468077 2.157928 4.346197
v -14.441084 2.157928 4.340827
v -14.418200 2.157928 4.325537
v -14.402910 2.157928 4.302653
v -14.397543 2.157928 4.275661
v -14.402910 2.157928 4.248668
v -14.418201 2.157928 4.225784
v -14.441084 2.157928 4.210494
v -14.468077 2.157928 4.205124
v -14.495070 2.157928 4.210494
v -14.517952 2.157928 4.225784
v -14.533915 2.245226 4.248390
v -14.539339 2.245226 4.275661
v -14.533915 2.245226 4.302931
v -14.518467 2.245226 4.326050
v -14.495348 2.245226 4.341497
v -14.468077 2.245226 4.346922
v -14.440805 2.245226 4.341497
v -14.417688 2.245226 4.326050
v -14.402241 2.245226 4.302931
v -14.396816 2.245226 4.275661
v -14.402241 2.245226 4.248390
v -14.417688 2.245226 4.225271
v -14.440805 2.245226 4.209823
v -14.468077 2.245226 4.204399
v -14.495348 2.245226 4.209824
v -14.518467 2.245226 4.225271
vt 0.412523 0.494525
vt 0.450015 0.508294
vt 0.446704 0.518096
vt 0.407032 0.503127
vt 0.491068 0.511635
vt 0.490030 0.522395
vt 0.533414 0.502003
vt 0.534675 0.513730
vt 0.574669 0.476345
vt 0.578811 0.489663
vt 0.612169 0.429426
vt 0.625553 0.441351
vt 0.593069 0.346407
vt 0.605662 0.341200
vt 0.534557 0.280892
vt 0.541270 0.268842
vt 0.451423 0.253136
vt 0.439827 0.240364
vt 0.398509 0.272288
vt 0.387506 0.265595
vt 0.363323 0.301646
vt 0.352399 0.297608
vt 0.342708 0.336590
vt 0.331640 0.334947
vt 0.335506 0.373796
vt 0.324578 0.374542
vt 0.340443 0.410311
vt 0.330148 0.413386
vt 0.356014 0.443806
vt 0.346891 0.449025
vt 0.380599 0.472433
vt 0.373120 0.479511
vt 0.478656 0.378026
vt 0.235511 0.698079
vt 0.275463 0.726690
vt 0.176457 0.829148
vt 0.309164 0.760890
vt 0.334732 0.800938
vt 0.349201 0.847691
vt 0.345456 0.902125
vt 0.293312 0.952241
vt 0.221729 0.976826
vt 0.145864 0.969563
vt 0.080104 0.930949
vt 0.036707 0.867712
vt 0.023433 0.791422
vt 0.042042 0.716234
vt 0.087768 0.658430
vt 0.141210 0.660643
vt 0.190524 0.675533
vt 0.316962 0.526508
vt 0.359767 0.558979
vt 0.311072 0.605916
vt 0.264485 0.571001
vt 0.281836 0.487558
vt 0.222378 0.532771
vt 0.256781 0.443039
vt 0.188261 0.488979
vt 0.243403 0.394399
vt 0.164627 0.437611
vt 0.242062 0.344034
vt 0.151866 0.381220
vt 0.251465 0.294640
vt 0.148959 0.323117
vt 0.268198 0.248178
vt 0.153760 0.265945
vt 0.286438 0.204645
vt 0.163427 0.211245
vt 0.299495 0.161359
vt 0.175320 0.159487
vt 0.308789 0.116623
vt 0.188241 0.110710
vt 0.602756 0.628116
vt 0.532267 0.752836
vt 0.556980 0.619798
vt 0.492270 0.728198
vt 0.508338 0.613211
vt 0.450730 0.700090
vt 0.457920 0.602221
vt 0.406188 0.670157
vt 0.407614 0.584321
vt 0.359098 0.638794
vt 0.296489 0.620259
vt 0.248435 0.586442
vt 0.203286 0.550898
vt 0.165670 0.509591
vt 0.138983 0.455832
vt 0.123292 0.395586
vt 0.117666 0.333247
vt 0.120216 0.271722
vt 0.128536 0.212680
vt 0.140481 0.156796
vt 0.155049 0.104336
vt 0.507193 0.793040
vt 0.469599 0.759004
vt 0.431561 0.723623
vt 0.389846 0.688506
vt 0.344360 0.654077
vt 0.360860 0.490859
vt 0.397641 0.516820
vt 0.394846 0.520641
vt 0.357329 0.494043
vt 0.332172 0.457620
vt 0.327986 0.460090
vt 0.313578 0.418859
vt 0.308863 0.420537
vt 0.306834 0.376648
vt 0.301734 0.377475
vt 0.313282 0.333580
vt 0.307893 0.333523
vt 0.333592 0.292674
vt 0.327873 0.291689
vt 0.367265 0.256773
vt 0.360749 0.254694
vt 0.409992 0.225825
vt 0.399909 0.222872
vt 0.407770 0.179339
vt 0.400719 0.177360
vt 0.412086 0.123228
vt 0.405030 0.122438
vt 0.633435 0.482922
vt 0.634686 0.495076
vt 0.582439 0.513403
vt 0.582780 0.520907
vt 0.534763 0.533558
vt 0.534245 0.539478
vt 0.486860 0.539983
vt 0.485576 0.545045
vt 0.440378 0.533796
vt 0.438341 0.538217
vt 0.209082 0.636072
vt 0.258523 0.664138
vt 0.249224 0.676693
vt 0.200831 0.650675
vt 0.157142 0.611338
vt 0.148750 0.629740
vt 0.106156 0.582232
vt 0.092158 0.609354
vt 0.070632 0.511036
vt 0.053741 0.525234
vt 0.047438 0.434798
vt 0.028192 0.444085
vt 0.036262 0.357903
vt 0.015679 0.363229
vt 0.035424 0.282853
vt 0.014262 0.284647
vt 0.042696 0.211143
vt 0.021516 0.209745
vt 0.056227 0.143249
vt 0.035494 0.138901
vt 0.075445 0.079083
vt 0.055716 0.071849
vt 0.420719 0.879016
vt 0.391074 0.896850
vt 0.401305 0.824869
vt 0.381423 0.835702
vt 0.376554 0.776662
vt 0.360983 0.786869
vt 0.343796 0.734136
vt 0.330853 0.744654
vt 0.303951 0.696733
vt 0.293040 0.708026
vt 0.403721 0.508158
vt 0.368709 0.483675
vt 0.341552 0.452147
vt 0.324128 0.415316
vt 0.318154 0.375180
vt 0.325058 0.334251
vt 0.345780 0.295553
vt 0.380668 0.262096
vt 0.432539 0.233138
vt 0.422223 0.184054
vt 0.427056 0.125253
vt 0.629539 0.455885
vt 0.580579 0.497804
vt 0.535082 0.520761
vt 0.489152 0.528755
vt 0.444583 0.523839
vt 0.399616 0.514060
vt 0.363383 0.488566
vt 0.335177 0.455858
vt 0.316960 0.417692
vt 0.310477 0.376122
vt 0.317099 0.333723
vt 0.337578 0.293524
vt 0.371708 0.258415
vt 0.417189 0.228019
vt 0.412609 0.180800
vt 0.416998 0.123831
vt 0.632354 0.474269
vt 0.581931 0.508235
vt 0.534933 0.529393
vt 0.487662 0.536366
vt 0.441777 0.530614
vt 0.370189 0.548860
vt 0.328413 0.517644
vt 0.294748 0.479376
vt 0.271470 0.435404
vt 0.260230 0.387578
vt 0.261640 0.338467
vt 0.274781 0.290909
vt 0.296427 0.247015
vt 0.319468 0.206409
vt 0.330858 0.163930
vt 0.338488 0.117491
vt 0.616654 0.589522
vt 0.568795 0.590324
vt 0.518965 0.591537
vt 0.467940 0.586169
vt 0.417547 0.571958
vt 0.211115 0.632656
vt 0.260742 0.661188
vt 0.159351 0.607041
vt 0.109467 0.576346
vt 0.074647 0.507588
vt 0.051995 0.432487
vt 0.041155 0.356506
vt 0.040493 0.282292
vt 0.047803 0.211354
vt 0.061240 0.144189
vt 0.080231 0.080743
vt 0.427627 0.874911
vt 0.406018 0.821948
vt 0.380242 0.774032
vt 0.346847 0.731547
vt 0.306524 0.694037
vt 0.244151 0.684391
vt 0.196791 0.659580
vt 0.145257 0.640591
vt 0.084946 0.625555
vt 0.025173 0.703264
vt 0.002441 0.788864
vt 0.016938 0.875152
vt 0.065876 0.946553
vt 0.140272 0.989947
vt 0.226206 0.997559
vt 0.307762 0.968142
vt 0.372829 0.903516
vt 0.369919 0.840760
vt 0.351685 0.792333
vt 0.323156 0.750721
vt 0.286724 0.714832
vt 0.342175 0.068097
vt 0.315165 0.070579
vt 0.172802 0.056048
vt 0.106037 0.021365
vt 0.044564 0.067880
vt 0.073391 0.002446
vt 0.023881 0.136493
vt 0.009674 0.208977
vt 0.002441 0.285669
vt 0.004207 0.366241
vt 0.017531 0.449306
vt 0.044553 0.533001
vt 0.084284 0.007249
vt 0.101513 0.019355
vt 0.406124 0.060466
vt 0.417963 0.059650
vt 0.413086 0.059929
vt 0.428095 0.058723
vt 0.201564 0.065168
vt 0.613025 0.338095
vt 0.633628 0.440125
vt 0.545162 0.261900
vn -0.056029 0.998159 -0.023205
vn -0.042882 0.998159 -0.042884
vn -0.519520 0.678377 -0.519523
vn -0.678825 0.678336 -0.281171
vn -0.023207 0.998159 -0.056030
vn -0.281170 0.678358 -0.678803
vn -0.000000 0.998159 -0.060645
vn 0.000002 0.678342 -0.734747
vn 0.023206 0.998159 -0.056028
vn 0.281170 0.678361 -0.678800
vn 0.042879 0.998160 -0.042882
vn 0.519510 0.678389 -0.519517
vn 0.056023 0.998160 -0.023201
vn 0.678788 0.678383 -0.281145
vn 0.060649 0.998159 0.000001
vn 0.734709 0.678382 0.000002
vn 0.056025 0.998160 0.023204
vn 0.678775 0.678395 0.281148
vn 0.042884 0.998159 0.042885
vn 0.519510 0.678398 0.519505
vn 0.023207 0.998159 0.056030
vn 0.281167 0.678369 0.678794
vn -0.000000 0.998159 0.060644
vn -0.000001 0.678374 0.734717
vn -0.023207 0.998159 0.056031
vn -0.281164 0.678373 0.678791
vn -0.042881 0.998159 0.042886
vn -0.519516 0.678379 0.519525
vn -0.056027 0.998160 0.023204
vn -0.678819 0.678343 0.281169
vn -0.060646 0.998159 0.000000
vn -0.734781 0.678304 0.000001
vn 0.000000 1.000000 0.000000
vn -0.059355 -0.997934 -0.024589
vn -0.045429 -0.997934 -0.045427
vn 0.000000 -1.000000 -0.000000
vn -0.024587 -0.997934 -0.059358
vn -0.000000 -0.997934 -0.064250
vn 0.024586 -0.997934 -0.059355
vn 0.045431 -0.997934 -0.045430
vn 0.059355 -0.997934 -0.024590
vn 0.064249 -0.997934 0.000000
vn 0.059350 -0.997934 0.024587
vn 0.045430 -0.997934 0.045430
vn 0.024586 -0.997934 0.059357
vn -0.000000 -0.997934 0.064250
vn -0.024586 -0.997934 0.059356
vn -0.045431 -0.997934 0.045429
vn -0.059355 -0.997934 0.024591
vn -0.064245 -0.997934 -0.000000
vn -0.996013 -0.089210 0.000000
vn -0.920198 -0.089208 -0.381153
vn -0.921424 0.072886 -0.381661
vn -0.997341 0.072882 0.000000
vn -0.920200 -0.089199 0.381150
vn -0.921426 0.072881 0.381658
vn -0.704283 -0.089199 0.704293
vn -0.705221 0.072886 0.705231
vn -0.381146 -0.089211 0.920201
vn -0.381655 0.072899 0.921426
vn -0.000000 -0.089213 0.996013
vn -0.000002 0.072910 0.997339
vn 0.381145 -0.089207 0.920201
vn 0.381653 0.072916 0.921425
vn 0.704287 -0.089189 0.704290
vn 0.705220 0.072916 0.705229
vn 0.920202 -0.089176 0.381151
vn 0.921427 0.072897 0.381653
vn 0.996015 -0.089186 -0.000000
vn 0.997340 0.072887 -0.000000
vn 0.920202 -0.089184 -0.381150
vn 0.921426 0.072891 -0.381656
vn 0.704289 -0.089195 -0.704288
vn 0.705225 0.072896 -0.705227
vn 0.381142 -0.089211 -0.920202
vn 0.381653 0.072904 -0.921426
vn 0.000000 -0.089211 -0.996013
vn 0.000000 0.072908 -0.997339
vn -0.381151 -0.089214 -0.920198
vn -0.381664 0.072901 -0.921422
vn -0.704284 -0.089207 -0.704291
vn -0.705224 0.072889 -0.705228
vn -0.825939 0.448079 -0.342125
vn -0.893997 0.448074 0.000001
vn -0.825943 0.448071 0.342127
vn -0.632141 0.448076 0.632160
vn -0.342114 0.448084 0.825942
vn -0.000002 0.448084 0.893992
vn 0.342115 0.448088 0.825939
vn 0.632158 0.448077 0.632142
vn 0.825955 0.448070 0.342100
vn 0.893993 0.448082 -0.000001
vn 0.825948 0.448075 -0.342109
vn 0.632155 0.448077 -0.632145
vn 0.342116 0.448087 -0.825939
vn 0.000000 0.448089 -0.893989
vn -0.342117 0.448098 -0.825933
vn -0.632143 0.448089 -0.632149
vn -0.863526 -0.504305 0.000003
vn -0.797776 -0.504326 -0.330469
vn -0.743365 -0.593797 -0.307919
vn -0.804612 -0.593800 0.000000
vn -0.797778 -0.504336 0.330447
vn -0.743365 -0.593796 0.307922
vn -0.610557 -0.504403 0.610572
vn -0.568946 -0.593793 0.568955
vn -0.330441 -0.504367 0.797761
vn -0.307909 -0.593796 0.743370
vn -0.000002 -0.504326 0.863513
vn 0.000001 -0.593797 0.804615
vn 0.330438 -0.504325 0.797789
vn 0.307911 -0.593796 0.743369
vn 0.610570 -0.504398 0.610563
vn 0.568953 -0.593812 0.568928
vn 0.797751 -0.504394 0.330425
vn 0.743349 -0.593821 0.307911
vn 0.863513 -0.504327 -0.000001
vn 0.804594 -0.593825 0.000000
vn 0.797766 -0.504366 -0.330431
vn 0.743346 -0.593825 -0.307910
vn 0.610575 -0.504369 -0.610582
vn 0.568949 -0.593818 -0.568926
vn 0.330461 -0.504302 -0.797794
vn 0.307910 -0.593801 -0.743365
vn 0.000002 -0.504294 -0.863532
vn 0.000001 -0.593805 -0.804609
vn -0.330463 -0.504279 -0.797808
vn -0.307913 -0.593799 -0.743366
vn -0.610601 -0.504292 -0.610619
vn -0.568951 -0.593789 -0.568955
vn -0.442615 0.896712 -0.000001
vn -0.408901 0.896723 -0.169378
vn -0.647996 0.712782 -0.268408
vn -0.701408 0.712761 -0.000001
vn -0.408895 0.896725 0.169377
vn -0.647987 0.712791 0.268406
vn -0.312949 0.896731 0.312948
vn -0.495939 0.712801 0.495943
vn -0.169377 0.896716 0.408915
vn -0.268412 0.712768 0.648010
vn 0.000000 0.896712 0.442614
vn 0.000000 0.712759 0.701409
vn 0.169378 0.896717 0.408913
vn 0.268413 0.712769 0.648008
vn 0.312965 0.896724 0.312953
vn 0.495960 0.712779 0.495954
vn 0.408898 0.896724 0.169378
vn 0.647979 0.712798 0.268409
vn 0.442569 0.896734 -0.000001
vn 0.701373 0.712795 -0.000001
vn 0.408900 0.896723 -0.169375
vn 0.647982 0.712796 -0.268406
vn 0.312960 0.896727 -0.312949
vn 0.495954 0.712784 -0.495951
vn 0.169382 0.896715 -0.408915
vn 0.268417 0.712767 -0.648009
vn -0.000000 0.896712 -0.442615
vn -0.000000 0.712755 -0.701413
vn -0.169386 0.896711 -0.408922
vn -0.268421 0.712758 -0.648017
vn -0.312960 0.896723 -0.312961
vn -0.495952 0.712781 -0.495958
vn -0.846699 -0.400138 -0.350700
vn -0.916463 -0.400120 -0.000003
vn -0.846677 -0.400184 0.350701
vn -0.648007 -0.400222 0.648004
vn -0.350710 -0.400211 0.846661
vn -0.000000 -0.400214 0.916422
vn 0.350709 -0.400222 0.846656
vn 0.648015 -0.400208 0.648005
vn 0.846675 -0.400207 0.350680
vn 0.916414 -0.400230 -0.000001
vn 0.846681 -0.400194 -0.350679
vn 0.648008 -0.400228 -0.648000
vn 0.350704 -0.400251 -0.846644
vn 0.000004 -0.400220 -0.916419
vn -0.350697 -0.400255 -0.846645
vn -0.648003 -0.400234 -0.648000
vn -0.709817 -0.640103 -0.293987
vn -0.768327 -0.640057 -0.000001
vn -0.709787 -0.640136 0.293986
vn -0.543202 -0.640194 0.543215
vn -0.293990 -0.640175 0.709751
vn -0.000001 -0.640175 0.768229
vn 0.293977 -0.640189 0.709743
vn 0.543213 -0.640189 0.543211
vn 0.709749 -0.640177 0.293989
vn 0.768239 -0.640164 -0.000003
vn 0.709788 -0.640128 -0.294002
vn 0.543233 -0.640153 -0.543233
vn 0.293986 -0.640176 -0.709751
vn 0.000003 -0.640167 -0.768236
vn -0.293970 -0.640210 -0.709727
vn -0.543205 -0.640196 -0.543211
vn -0.764576 -0.561361 -0.316698
vn -0.827571 -0.561361 0.000001
vn -0.764585 -0.561346 0.316703
vn -0.585190 -0.561343 0.585189
vn -0.316698 -0.561358 0.764578
vn 0.000001 -0.561366 0.827568
vn 0.316703 -0.561365 0.764571
vn 0.585196 -0.561353 0.585174
vn 0.764582 -0.561350 0.316702
vn 0.827568 -0.561365 0.000000
vn 0.764581 -0.561352 -0.316700
vn 0.585194 -0.561352 -0.585177
vn 0.316700 -0.561364 -0.764573
vn 0.000000 -0.561371 -0.827564
vn -0.316695 -0.561379 -0.764564
vn -0.585180 -0.561365 -0.585178
vn -0.887564 0.460684 0.000001
vn -0.819999 0.460685 -0.339663
vn -0.820001 0.460680 0.339664
vn -0.627601 0.460680 0.627608
vn -0.339657 0.460678 0.820005
vn 0.000000 0.460669 0.887572
vn 0.339659 0.460669 0.820010
vn 0.627620 0.460656 0.627606
vn 0.820018 0.460662 0.339648
vn 0.887562 0.460688 -0.000001
vn 0.820008 0.460675 -0.339656
vn 0.627617 0.460675 -0.627595
vn 0.339657 0.460678 -0.820005
vn 0.000000 0.460677 -0.887568
vn -0.339659 0.460694 -0.819996
vn -0.627601 0.460694 -0.627597
vn -0.637441 -0.723848 -0.264034
vn -0.689969 -0.723839 -0.000001
vn -0.637431 -0.723855 0.264037
vn -0.487859 -0.723865 0.487865
vn -0.264033 -0.723848 0.637441
vn -0.000000 -0.723837 0.689971
vn 0.264035 -0.723846 0.637442
vn 0.487879 -0.723851 0.487867
vn 0.637420 -0.723868 0.264028
vn 0.689934 -0.723872 0.000001
vn 0.637417 -0.723870 -0.264030
vn 0.487871 -0.723858 -0.487864
vn 0.264039 -0.723844 -0.637443
vn -0.000001 -0.723833 -0.689975
vn -0.264042 -0.723838 -0.637449
vn -0.487874 -0.723848 -0.487876
g FCSET_head_001_0p502_0p477_0p55 head Tack group1
usemtl initialShadingGroup
f 1/1/1 2/2/2 114/3/3 99/4/4
f 2/2/2 3/5/5 113/6/6 114/3/3
f 3/5/5 4/7/7 112/8/8 113/6/6
f 4/7/7 5/9/9 111/10/10 112/8/8
f 5/9/9 6/11/11 110/12/12 111/10/10
f 6/11/11 7/13/13 109/14/14 110/12/12
f 7/13/13 8/15/15 108/16/16 109/14/14
f 8/15/15 9/17/17 107/18/18 108/16/16
f 9/17/17 10/19/19 106/20/20 107/18/18
f 10/19/19 11/21/21 105/22/22 106/20/20
f 11/21/21 12/23/23 104/24/24 105/22/22
f 12/23/23 13/25/25 103/26/26 104/24/24
f 13/25/25 14/27/27 102/28/28 103/26/26
f 14/27/27 15/29/29 101/30/30 102/28/28
f 15/29/29 16/31/31 100/32/32 101/30/30
f 16/31/31 1/1/1 99/4/4 100/32/32
f 2/2/2 1/1/1 33/33/33
f 3/5/5 2/2/2 33/33/33
f 4/7/7 3/5/5 33/33/33
f 5/9/9 4/7/7 33/33/33
f 6/11/11 5/9/9 33/33/33
f 7/13/13 6/11/11 33/33/33
f 8/15/15 7/13/13 33/33/33
f 9/17/17 8/15/15 33/33/33
f 10/19/19 9/17/17 33/33/33
f 11/21/21 10/19/19 33/33/33
f 12/23/23 11/21/21 33/33/33
f 13/25/25 12/23/23 33/33/33
f 14/27/27 13/25/25 33/33/33
f 15/29/29 14/27/27 33/33/33
f 16/31/31 15/29/29 33/33/33
f 1/1/1 16/31/31 33/33/33
f 17/34/34 18/35/35 34/36/36
f 18/35/35 19/37/37 34/36/36
f 19/37/37 20/38/38 34/36/36
f 20/38/38 21/39/39 34/36/36
f 21/39/39 22/40/40 34/36/36
f 22/40/40 23/41/41 34/36/36
f 23/41/41 24/42/42 34/36/36
f 24/42/42 25/43/43 34/36/36
f 25/43/43 26/44/44 34/36/36
f 26/44/44 27/45/45 34/36/36
f 27/45/45 28/46/46 34/36/36
f 28/46/46 29/47/47 34/36/36
f 29/47/47 30/48/48 34/36/36
f 30/48/48 31/49/49 34/36/36
f 31/49/49 32/50/50 34/36/36
f 32/50/50 17/34/34 34/36/36
f 36/51/51 35/52/52 51/53/53 52/54/54
f 37/55/55 36/51/51 52/54/54 53/56/56
f 38/57/57 37/55/55 53/56/56 54/58/58
f 39/59/59 38/57/57 54/58/58 55/60/60
f 40/61/61 39/59/59 55/60/60 56/62/62
f 41/63/63 40/61/61 56/62/62 57/64/64
f 42/65/65 41/63/63 57/64/64 58/66/66
f 43/67/67 42/65/65 58/66/66 59/68/68
f 44/69/69 43/67/67 59/68/68 60/70/70
f 45/71/71 44/69/69 60/70/70 61/72/72
f 46/244/73 45/71/71 61/72/72 62/261/74
f 47/75/75 46/73/73 62/74/74 63/76/76
f 48/77/77 47/75/75 63/76/76 64/78/78
f 49/79/79 48/77/77 64/78/78 65/80/80
f 50/81/81 49/79/79 65/80/80 66/82/82
f 35/52/52 50/81/81 66/82/82 51/53/53
f 52/54/54 51/53/53 211/83/83 212/84/84
f 53/56/56 52/54/54 212/84/84 213/85/85
f 54/58/58 53/56/56 213/85/85 214/86/86
f 55/60/60 54/58/58 214/86/86 215/87/87
f 56/62/62 55/60/60 215/87/87 216/88/88
f 57/64/64 56/62/62 216/88/88 217/89/89
f 58/66/66 57/64/64 217/89/89 218/90/90
f 59/68/68 58/66/66 218/90/90 219/91/91
f 60/70/70 59/68/68 219/91/91 220/92/92
f 61/72/72 60/70/70 220/92/92 221/93/93
f 62/261/74 61/72/72 221/93/93 222/245/94
f 63/76/76 62/74/74 222/94/94 223/95/95
f 64/78/78 63/76/76 223/95/95 224/96/96
f 65/80/80 64/78/78 224/96/96 225/97/97
f 66/82/82 65/80/80 225/97/97 226/98/98
f 51/53/53 66/82/82 226/98/98 211/83/83
f 68/99/99 67/100/100 147/101/101 148/102/102
f 69/103/103 68/99/99 148/102/102 149/104/104
f 70/105/105 69/103/103 149/104/104 150/106/106
f 71/107/107 70/105/105 150/106/106 151/108/108
f 72/109/109 71/107/107 151/108/108 152/110/110
f 73/111/111 72/109/109 152/110/110 153/112/112
f 74/113/113 73/111/111 153/112/112 154/114/114
f 75/115/115 74/113/113 154/114/114 155/116/116
f 76/117/117 75/115/115 155/116/116 156/118/118
f 77/119/119 76/117/117 156/118/118 157/120/120
f 78/259/121 77/119/119 157/120/120 158/257/122
f 79/123/123 78/121/121 158/122/122 159/124/124
f 80/125/125 79/123/123 159/124/124 160/126/126
f 81/127/127 80/125/125 160/126/126 161/128/128
f 82/129/129 81/127/127 161/128/128 162/130/130
f 67/100/100 82/129/129 162/130/130 147/101/101
f 84/131/131 83/132/132 179/133/133 180/134/134
f 85/135/135 84/131/131 180/134/134 181/136/136
f 86/137/137 85/135/135 181/136/136 182/138/138
f 87/139/139 86/137/137 182/138/138 183/140/140
f 88/141/141 87/139/139 183/140/140 184/142/142
f 89/143/143 88/141/141 184/142/142 185/144/144
f 90/145/145 89/143/143 185/144/144 186/146/146
f 91/147/147 90/145/145 186/146/146 187/148/148
f 92/149/149 91/147/147 187/148/148 188/150/150
f 93/151/151 92/149/149 188/150/150 189/152/152
f 94/256/153 93/151/151 189/152/152 190/255/154
f 95/155/155 94/153/153 190/154/154 191/156/156
f 96/157/157 95/155/155 191/156/156 192/158/158
f 97/159/159 96/157/157 192/158/158 193/160/160
f 98/161/161 97/159/159 193/160/160 194/162/162
f 83/132/132 98/161/161 194/162/162 179/133/133
f 100/32/32 99/4/4 115/163/163 116/164/164
f 101/30/30 100/32/32 116/164/164 117/165/165
f 102/28/28 101/30/30 117/165/165 118/166/166
f 103/26/26 102/28/28 118/166/166 119/167/167
f 104/24/24 103/26/26 119/167/167 120/168/168
f 105/22/22 104/24/24 120/168/168 121/169/169
f 106/20/20 105/22/22 121/169/169 122/170/170
f 107/18/18 106/20/20 122/170/170 123/171/171
f 108/16/16 107/18/18 123/171/171 124/264/172
f 109/14/14 108/16/16 124/264/172 125/262/173
f 110/12/12 109/14/14 125/262/173 126/263/174
f 111/10/10 110/12/12 126/174/174 127/175/175
f 112/8/8 111/10/10 127/175/175 128/176/176
f 113/6/6 112/8/8 128/176/176 129/177/177
f 114/3/3 113/6/6 129/177/177 130/178/178
f 99/4/4 114/3/3 130/178/178 115/163/163
f 116/164/164 115/163/163 131/179/179 132/180/180
f 117/165/165 116/164/164 132/180/180 133/181/181
f 118/166/166 117/165/165 133/181/181 134/182/182
f 119/167/167 118/166/166 134/182/182 135/183/183
f 120/168/168 119/167/167 135/183/183 136/184/184
f 121/169/169 120/168/168 136/184/184 137/185/185
f 122/170/170 121/169/169 137/185/185 138/186/186
f 123/171/171 122/170/170 138/186/186 139/187/187
f 124/172/172 123/171/171 139/187/187 140/188/188
f 125/173/173 124/172/172 140/188/188 141/189/189
f 126/260/174 125/173/173 141/189/189 142/258/190
f 127/175/175 126/174/174 142/190/190 143/191/191
f 128/176/176 127/175/175 143/191/191 144/192/192
f 129/177/177 128/176/176 144/192/192 145/193/193
f 130/178/178 129/177/177 145/193/193 146/194/194
f 115/163/163 130/178/178 146/194/194 131/179/179
f 132/180/180 131/179/179 67/100/100 68/99/99
f 133/181/181 132/180/180 68/99/99 69/103/103
f 134/182/182 133/181/181 69/103/103 70/105/105
f 135/183/183 134/182/182 70/105/105 71/107/107
f 136/184/184 135/183/183 71/107/107 72/109/109
f 137/185/185 136/184/184 72/109/109 73/111/111
f 138/186/186 137/185/185 73/111/111 74/113/113
f 139/187/187 138/186/186 74/113/113 75/115/115
f 140/188/188 139/187/187 75/115/115 76/117/117
f 141/189/189 140/188/188 76/117/117 77/119/119
f 142/258/190 141/189/189 77/119/119 78/259/121
f 143/191/191 142/190/190 78/121/121 79/123/123
f 144/192/192 143/191/191 79/123/123 80/125/125
f 145/193/193 144/192/192 80/125/125 81/127/127
f 146/194/194 145/193/193 81/127/127 82/129/129
f 131/179/179 146/194/194 82/129/129 67/100/100
f 148/102/102 147/101/101 227/195/195 228/196/196
f 149/104/104 148/102/102 228/196/196 229/197/197
f 150/106/106 149/104/104 229/197/197 230/198/198
f 151/108/108 150/106/106 230/198/198 231/199/199
f 152/110/110 151/108/108 231/199/199 232/200/200
f 153/112/112 152/110/110 232/200/200 233/201/201
f 154/114/114 153/112/112 233/201/201 234/202/202
f 155/116/116 154/114/114 234/202/202 235/203/203
f 156/118/118 155/116/116 235/203/203 236/204/204
f 157/120/120 156/118/118 236/204/204 237/205/205
f 158/257/122 157/120/120 237/205/205 238/243/206
f 159/124/124 158/122/122 238/206/206 239/207/207
f 160/126/126 159/124/124 239/207/207 240/208/208
f 161/128/128 160/126/126 240/208/208 241/209/209
f 162/130/130 161/128/128 241/209/209 242/210/210
f 147/101/101 162/130/130 242/210/210 227/195/195
f 164/211/211 163/212/212 83/132/132 84/131/131
f 165/213/213 164/211/211 84/131/131 85/135/135
f 166/214/214 165/213/213 85/135/135 86/137/137
f 167/215/215 166/214/214 86/137/137 87/139/139
f 168/216/216 167/215/215 87/139/139 88/141/141
f 169/217/217 168/216/216 88/141/141 89/143/143
f 170/218/218 169/217/217 89/143/143 90/145/145
f 171/219/219 170/218/218 90/145/145 91/147/147
f 172/220/220 171/219/219 91/147/147 92/149/149
f 173/221/221 172/220/220 92/149/149 93/151/151
f 174/246/222 173/221/221 93/151/151 94/256/153
f 175/223/223 174/222/222 94/153/153 95/155/155
f 176/224/224 175/223/223 95/155/155 96/157/157
f 177/225/225 176/224/224 96/157/157 97/159/159
f 178/226/226 177/225/225 97/159/159 98/161/161
f 163/212/212 178/226/226 98/161/161 83/132/132
f 180/134/134 179/133/133 195/227/227 196/228/228
f 181/136/136 180/134/134 196/228/228 197/229/229
f 182/138/138 181/136/136 197/229/229 198/230/230
f 183/140/140 182/138/138 198/230/230 199/254/231
f 184/142/142 183/140/140 199/254/231 200/253/232
f 185/144/144 184/142/142 200/253/232 201/252/233
f 186/146/146 185/144/144 201/252/233 202/251/234
f 187/148/148 186/146/146 202/251/234 203/250/235
f 188/150/150 187/148/148 203/250/235 204/249/236
f 189/152/152 188/150/150 204/249/236 205/247/237
f 190/255/154 189/152/152 205/247/237 206/248/238
f 191/156/156 190/154/154 206/238/238 207/239/239
f 192/158/158 191/156/156 207/239/239 208/240/240
f 193/160/160 192/158/158 208/240/240 209/241/241
f 194/162/162 193/160/160 209/241/241 210/242/242
f 179/133/133 194/162/162 210/242/242 195/227/227
f 196/228/228 195/227/227 17/34/34 32/50/50
f 197/229/229 196/228/228 32/50/50 31/49/49
f 198/230/230 197/229/229 31/49/49 30/48/48
f 199/231/231 198/230/230 30/48/48 29/47/47
f 200/232/232 199/231/231 29/47/47 28/46/46
f 201/233/233 200/232/232 28/46/46 27/45/45
f 202/234/234 201/233/233 27/45/45 26/44/44
f 203/235/235 202/234/234 26/44/44 25/43/43
f 204/236/236 203/235/235 25/43/43 24/42/42
f 205/237/237 204/236/236 24/42/42 23/41/41
f 206/238/238 205/237/237 23/41/41 22/40/40
f 207/239/239 206/238/238 22/40/40 21/39/39
f 208/240/240 207/239/239 21/39/39 20/38/38
f 209/241/241 208/240/240 20/38/38 19/37/37
f 210/242/242 209/241/241 19/37/37 18/35/35
f 195/227/227 210/242/242 18/35/35 17/34/34
f 212/84/84 211/83/83 163/212/212 164/211/211
f 213/85/85 212/84/84 164/211/211 165/213/213
f 214/86/86 213/85/85 165/213/213 166/214/214
f 215/87/87 214/86/86 166/214/214 167/215/215
f 216/88/88 215/87/87 167/215/215 168/216/216
f 217/89/89 216/88/88 168/216/216 169/217/217
f 218/90/90 217/89/89 169/217/217 170/218/218
f 219/91/91 218/90/90 170/218/218 171/219/219
f 220/92/92 219/91/91 171/219/219 172/220/220
f 221/93/93 220/92/92 172/220/220 173/221/221
f 222/245/94 221/93/93 173/221/221 174/246/222
f 223/95/95 222/94/94 174/222/222 175/223/223
f 224/96/96 223/95/95 175/223/223 176/224/224
f 225/97/97 224/96/96 176/224/224 177/225/225
f 226/98/98 225/97/97 177/225/225 178/226/226
f 211/83/83 226/98/98 178/226/226 163/212/212
f 228/196/196 227/195/195 35/52/52 36/51/51
f 229/197/197 228/196/196 36/51/51 37/55/55
f 230/198/198 229/197/197 37/55/55 38/57/57
f 231/199/199 230/198/198 38/57/57 39/59/59
f 232/200/200 231/199/199 39/59/59 40/61/61
f 233/201/201 232/200/200 40/61/61 41/63/63
f 234/202/202 233/201/201 41/63/63 42/65/65
f 235/203/203 234/202/202 42/65/65 43/67/67
f 236/204/204 235/203/203 43/67/67 44/69/69
f 237/205/205 236/204/204 44/69/69 45/71/71
f 238/243/206 237/205/205 45/71/71 46/244/73
f 239/207/207 238/206/206 46/73/73 47/75/75
f 240/208/208 239/207/207 47/75/75 48/77/77
f 241/209/209 240/208/208 48/77/77 49/79/79
f 242/210/210 241/209/209 49/79/79 50/81/81
f 227/195/195 242/210/210 50/81/81 35/52/52
g default
v -14.479525 2.142724 4.277422
v -14.477736 2.142724 4.273911
v -14.474949 2.142724 4.271124
v -14.471437 2.142724 4.269335
v -14.467545 2.142724 4.268719
v -14.463654 2.142724 4.269335
v -14.460142 2.142724 4.271124
v -14.457355 2.142724 4.273911
v -14.455566 2.142724 4.277422
v -14.454950 2.142724 4.281314
v -14.455566 2.142724 4.285207
v -14.457355 2.142724 4.288719
v -14.460142 2.142724 4.291505
v -14.463654 2.142724 4.293294
v -14.467545 2.142724 4.293911
v -14.471437 2.142724 4.293294
v -14.474949 2.142724 4.291505
v -14.477736 2.142724 4.288719
v -14.479525 2.142724 4.285207
v -14.480141 2.142724 4.281314
v -14.479525 1.953243 4.277422
v -14.477736 1.953243 4.273911
v -14.474949 1.953243 4.271124
v -14.471437 1.953243 4.269335
v -14.467545 1.953243 4.268719
v -14.463654 1.953243 4.269335
v -14.460142 1.953243 4.271124
v -14.457355 1.953243 4.273911
v -14.455566 1.953243 4.277422
v -14.454950 1.953243 4.281314
v -14.455566 1.953243 4.285207
v -14.457355 1.953243 4.288719
v -14.460142 1.953243 4.291505
v -14.463654 1.953243 4.293294
v -14.467545 1.953243 4.293911
v -14.471437 1.953243 4.293294
v -14.474949 1.953243 4.291505
v -14.477736 1.953243 4.288719
v -14.479525 1.953243 4.285207
v -14.480141 1.953243 4.281314
v -14.467545 2.142724 4.281314
v -14.467545 1.912631 4.281314
vt 0.679451 0.398885
vt 0.673716 0.399706
vt 0.661000 0.075946
vt 0.667895 0.076204
vt 0.667952 0.400824
vt 0.654120 0.075498
vt 0.662151 0.402264
vt 0.647258 0.074857
vt 0.656311 0.404046
vt 0.640422 0.074016
vt 0.650433 0.406188
vt 0.633623 0.072969
vt 0.644508 0.408704
vt 0.626861 0.071709
vt 0.638533 0.411591
vt 0.620147 0.070228
vt 0.632498 0.414861
vt 0.749734 0.064666
vt 0.743583 0.408713
vt 0.743106 0.066744
vt 0.737513 0.406209
vt 0.736422 0.068595
vt 0.731511 0.404053
vt 0.729688 0.070232
vt 0.725570 0.402250
vt 0.722912 0.071660
vt 0.719683 0.400792
vt 0.716099 0.072886
vt 0.713849 0.399664
vt 0.709258 0.073916
vt 0.708057 0.398844
vt 0.702391 0.074755
vt 0.702303 0.398315
vt 0.695506 0.075410
vt 0.696579 0.398060
vt 0.688609 0.075881
vt 0.690870 0.398071
vt 0.681705 0.076170
vt 0.685165 0.398344
vt 0.674799 0.076278
vt 0.691456 0.421743
vt 0.679683 0.002441
vt 0.613484 0.068520
vt 0.749734 0.411568
vn -0.951077 0.000000 -0.308954
vn -0.809032 0.000000 -0.587764
vn -0.809032 0.000000 -0.587764
vn -0.951077 0.000000 -0.308954
vn -0.587777 0.000000 -0.809023
vn -0.587777 0.000000 -0.809023
vn -0.308982 0.000000 -0.951068
vn -0.308982 0.000000 -0.951068
vn -0.000000 0.000000 -1.000000
vn -0.000000 0.000000 -1.000000
vn 0.309054 0.000000 -0.951045
vn 0.309054 0.000000 -0.951045
vn 0.587830 0.000000 -0.808984
vn 0.587830 0.000000 -0.808984
vn 0.809032 0.000000 -0.587764
vn 0.809032 0.000000 -0.587764
vn 0.951069 0.000000 -0.308978
vn 0.951069 0.000000 -0.308978
vn 1.000000 0.000000 0.000000
vn 1.000000 0.000000 0.000000
vn 0.951081 0.000000 0.308942
vn 0.951081 0.000000 0.308942
vn 0.809018 0.000000 0.587784
vn 0.809018 0.000000 0.587784
vn 0.587777 0.000000 0.809023
vn 0.587777 0.000000 0.809023
vn 0.309090 0.000000 0.951033
vn 0.309090 0.000000 0.951033
vn -0.000000 0.000000 1.000000
vn -0.000000 0.000000 1.000000
vn -0.309018 0.000000 0.951056
vn -0.309018 0.000000 0.951056
vn -0.587777 0.000000 0.809023
vn -0.587777 0.000000 0.809023
vn -0.809018 0.000000 0.587784
vn -0.809018 0.000000 0.587784
vn -0.951081 0.000000 0.308942
vn -0.951081 0.000000 0.308942
vn -1.000000 0.000000 0.000000
vn -1.000000 0.000000 0.000000
vn 0.000000 1.000000 0.000000
vn 0.000000 1.000000 -0.000038
vn 0.000000 1.000000 0.000000
vn 0.000000 1.000000 0.000000
vn 0.000000 1.000000 0.000000
vn 0.000000 1.000000 0.000000
vn 0.000000 1.000000 0.000000
vn 0.000000 1.000000 0.000000
vn 0.000000 1.000000 0.000000
vn 0.000000 1.000000 -0.000038
vn 0.000000 1.000000 0.000000
vn 0.000000 1.000000 0.000038
vn 0.000000 1.000000 0.000000
vn 0.000000 1.000000 0.000000
vn 0.000000 1.000000 0.000000
vn 0.000000 1.000000 0.000000
vn 0.000000 1.000000 0.000000
vn 0.000000 1.000000 0.000000
vn 0.000000 1.000000 0.000000
vn 0.000000 1.000000 0.000038
vn 0.000000 1.000000 0.000000
vn -0.908369 -0.296247 -0.295132
vn -0.772716 -0.296262 -0.561372
vn -0.000006 -1.000000 0.000012
vn -0.561427 -0.296244 -0.772683
vn -0.295024 -0.296284 -0.908392
vn -0.000001 -0.296243 -0.955113
vn 0.295099 -0.296183 -0.908401
vn 0.561435 -0.296204 -0.772693
vn 0.772732 -0.296201 -0.561382
vn 0.908375 -0.296226 -0.295136
vn 0.955117 -0.296229 0.000000
vn 0.908400 -0.296198 0.295087
vn 0.772739 -0.296159 0.561395
vn 0.561426 -0.296244 0.772684
vn 0.295173 -0.296257 0.908353
vn -0.000001 -0.296243 0.955113
vn -0.295108 -0.296277 0.908368
vn -0.561420 -0.296286 0.772672
vn -0.772712 -0.296282 0.561367
vn -0.908394 -0.296219 0.295085
vn -0.955111 -0.296249 0.000000
g FCSET_pin_001_0p073_0p7_0p812 Tack group1 pin
usemtl initialShadingGroup
f 243/265/243 244/266/244 264/267/245 263/268/246
f 244/266/244 245/269/247 265/270/248 264/267/245
f 245/269/247 246/271/249 266/272/250 265/270/248
f 246/271/249 247/273/251 267/274/252 266/272/250
f 247/273/251 248/275/253 268/276/254 267/274/252
f 248/275/253 249/277/255 269/278/256 268/276/254
f 249/277/255 250/279/257 270/280/258 269/278/256
f 250/279/257 251/281/259 271/307/260 270/280/258
f 251/308/259 252/283/261 272/284/262 271/282/260
f 252/283/261 253/285/263 273/286/264 272/284/262
f 253/285/263 254/287/265 274/288/266 273/286/264
f 254/287/265 255/289/267 275/290/268 274/288/266
f 255/289/267 256/291/269 276/292/270 275/290/268
f 256/291/269 257/293/271 277/294/272 276/292/270
f 257/293/271 258/295/273 278/296/274 277/294/272
f 258/295/273 259/297/275 279/298/276 278/296/274
f 259/297/275 260/299/277 280/300/278 279/298/276
f 260/299/277 261/301/279 281/302/280 280/300/278
f 261/301/279 262/303/281 282/304/282 281/302/280
f 262/303/281 243/265/243 263/268/246 282/304/282
f 244/266/283 243/265/284 283/305/285
f 245/269/286 244/266/283 283/305/285
f 246/271/287 245/269/286 283/305/285
f 247/273/288 246/271/287 283/305/285
f 248/275/289 247/273/288 283/305/285
f 249/277/290 248/275/289 283/305/285
f 250/279/291 249/277/290 283/305/285
f 251/281/292 250/279/291 283/305/285
f 252/283/293 251/308/292 283/305/285
f 253/285/294 252/283/293 283/305/285
f 254/287/295 253/285/294 283/305/285
f 255/289/296 254/287/295 283/305/285
f 256/291/297 255/289/296 283/305/285
f 257/293/298 256/291/297 283/305/285
f 258/295/299 257/293/298 283/305/285
f 259/297/300 258/295/299 283/305/285
f 260/299/301 259/297/300 283/305/285
f 261/301/302 260/299/301 283/305/285
f 262/303/303 261/301/302 283/305/285
f 243/265/284 262/303/303 283/305/285
f 263/268/304 264/267/305 284/306/306
f 264/267/305 265/270/307 284/306/306
f 265/270/307 266/272/308 284/306/306
f 266/272/308 267/274/309 284/306/306
f 267/274/309 268/276/310 284/306/306
f 268/276/310 269/278/311 284/306/306
f 269/278/311 270/280/312 284/306/306
f 270/280/312 271/307/313 284/306/306
f 271/282/313 272/284/314 284/306/306
f 272/284/314 273/286/315 284/306/306
f 273/286/315 274/288/316 284/306/306
f 274/288/316 275/290/317 284/306/306
f 275/290/317 276/292/318 284/306/306
f 276/292/318 277/294/319 284/306/306
f 277/294/319 278/296/320 284/306/306
f 278/296/320 279/298/321 284/306/306
f 279/298/321 280/300/322 284/306/306
f 280/300/322 281/302/323 284/306/306
f 281/302/323 282/304/324 284/306/306
f 282/304/324 263/268/304 284/306/306
