# This file uses centimeters as units for non-parametric coordinates.

mtllib mousepad.mtl
g default
v 1.695073 0.055535 1.682391
v 1.695075 -0.055535 1.682390
v -1.680800 0.055535 1.682391
v -1.680801 -0.055535 1.682390
v -1.880975 -0.055535 1.893522
v -1.902688 -0.027709 1.916083
v -1.680801 -0.027709 1.982257
v -1.676740 -0.055535 1.954431
v -1.902688 0.027709 1.916083
v -1.880975 0.055535 1.893522
v -1.680801 0.027709 1.982257
v -1.676740 0.055535 1.954431
v -1.865550 0.055535 -1.824225
v -1.886905 0.027709 -1.843389
v -1.700891 0.055535 -1.934463
v -1.660472 0.055535 -1.953506
v -1.680801 0.029296 -1.982257
v -1.886905 -0.027709 -1.843389
v -1.865550 -0.055535 -1.824225
v -1.701229 -0.055535 -1.933660
v -1.680801 -0.029296 -1.982257
v -1.660472 -0.055535 -1.953506
v -1.982257 0.027709 1.682391
v -1.954431 0.055535 1.677783
v 1.871860 0.027709 1.863109
v 1.851277 0.055535 1.843425
v 1.982257 0.027709 1.682391
v 1.954431 0.055535 1.674564
v -1.982257 -0.027709 -1.662387
v -1.954431 -0.055535 -1.655505
v 1.889110 -0.007290 -1.872927
v 1.867993 -0.036811 -1.853737
v 1.982257 -0.027358 -1.662387
v 1.953728 -0.055535 -1.662386
v -1.982257 0.027709 -1.662387
v -1.954431 0.055535 -1.655507
v -1.982257 -0.027709 1.682390
v -1.954431 -0.055535 1.677783
v 1.982257 -0.027709 1.682390
v 1.954431 -0.055535 1.674563
v 1.866847 0.074135 -1.852694
v 1.889110 0.047831 -1.872927
v 1.982257 0.026775 -1.662387
v 1.954431 0.055535 -1.662388
v 1.851277 -0.055535 1.843425
v 1.871860 -0.027709 1.863109
v 1.686574 -0.055535 1.954431
v 1.695075 -0.027709 1.982257
v 1.695075 0.027709 1.982257
v 1.686574 0.055535 1.954431
v 1.674989 0.055535 -1.953891
v 1.715401 0.057736 -1.936724
v 1.695075 0.028931 -1.982257
v 1.695075 -0.029635 -1.982257
v 1.715119 -0.053365 -1.939089
v 1.675149 -0.055535 -1.954117
v 1.675398 0.055535 -1.662388
v 1.695073 0.055535 -1.642712
v 1.714749 0.055535 -1.662388
v 1.675399 -0.055535 -1.662386
v 1.714751 -0.055535 -1.662386
v 1.695075 -0.055535 -1.642710
v -1.700476 0.055535 -1.662388
v -1.680800 0.055535 -1.642712
v -1.661124 0.055535 -1.662388
v -1.680801 -0.055535 -1.642710
v -1.700477 -0.055535 -1.662386
v -1.661126 -0.055535 -1.662386
vt 0.464533 0.931320
vt 0.045606 0.952866
vt 0.043005 0.950517
vt 0.049738 0.533248
vt 0.052302 0.530972
vt 0.442822 0.535063
vt 0.049721 0.042718
vt 0.052196 0.040336
vt 0.466265 0.054205
vt 0.448208 0.459435
vt 0.055271 0.454379
vt 0.052883 0.452055
vt 0.490671 0.952380
vt 0.494453 0.955478
vt 0.467564 0.969236
vt 0.466374 0.964514
vt 0.497732 0.928178
vt 0.502569 0.928461
vt 0.475368 0.529809
vt 0.479963 0.527822
vt 0.499616 0.959709
vt 0.492579 0.031723
vt 0.466252 0.020696
vt 0.468928 0.975830
vt 0.509287 0.928585
vt 0.499382 0.057507
vt 0.486321 0.525645
vt 0.480526 0.466237
vt 0.027752 0.019692
vt 0.023899 0.016466
vt 0.045484 0.997559
vt 0.049075 0.007230
vt 0.016246 0.040944
vt 0.009540 0.043658
vt 0.014294 0.045920
vt 0.049712 0.037885
vt 0.017832 0.456310
vt 0.013184 0.459386
vt 0.021935 0.980650
vt 0.024840 0.976633
vt 0.046524 0.986042
vt 0.045854 0.990857
vt 0.002441 0.043099
vt 0.009854 0.955056
vt 0.007216 0.949889
vt 0.043291 0.955369
vt 0.006274 0.460967
vt 0.014898 0.527142
vt 0.464257 0.495227
vt 0.462415 0.488828
vt 0.440417 0.493726
vt 0.440284 0.489144
vt 0.055355 0.489627
vt 0.055120 0.484971
vt 0.024093 0.489320
vt 0.031755 0.502476
vt 0.017357 0.521840
vt 0.055260 0.495934
vt 0.054786 0.500572
vt 0.439961 0.500215
vt 0.439204 0.504841
vt 0.461313 0.503401
vt 0.459068 0.508933
vt 0.032393 0.480534
vt 0.029893 0.486031
vt 0.020170 0.461689
vt 0.052934 0.456681
vt 0.050140 0.528609
vt 0.029886 0.496290
vt 0.010414 0.523578
vt 0.002441 0.952589
vt 0.017426 0.013748
vt 0.019801 0.987333
vt 0.485099 0.468430
vt 0.047859 0.002441
vt 0.467054 0.015924
vt 0.504198 0.057313
vt 0.496474 0.028329
vn 0.000000 -1.000000 0.000000
vn 0.000000 -1.000000 0.000000
vn 0.000000 -1.000000 -0.000000
vn 0.000018 -1.000000 -0.000002
vn 0.000000 -1.000000 0.000000
vn -0.000000 -1.000000 0.000000
vn 0.000000 1.000000 0.000000
vn 0.000000 1.000000 0.000000
vn 0.000000 1.000000 0.000000
vn 0.000000 1.000000 0.000000
vn 0.000000 1.000000 0.000000
vn -0.000018 1.000000 0.000002
vn -0.669369 -0.707108 0.227909
vn -0.669369 -0.707108 0.227909
vn -0.705766 -0.708283 0.015152
vn -0.705766 -0.708283 0.015152
vn -0.202084 -0.707109 0.677613
vn -0.202084 -0.707109 0.677613
vn -0.012524 -0.707969 0.706132
vn -0.012524 -0.707969 0.706132
vn 0.022864 -0.710410 0.703416
vn 0.022864 -0.710410 0.703416
vn -0.669368 0.707110 0.227909
vn -0.669368 0.707110 0.227909
vn -0.705768 0.708281 0.015152
vn -0.705768 0.708281 0.015152
vn -0.202084 0.707109 0.677613
vn -0.202084 0.707109 0.677613
vn -0.012524 0.707969 0.706132
vn -0.012524 0.707969 0.706133
vn 0.022864 0.710411 0.703416
vn 0.022864 0.710411 0.703416
vn -0.507872 0.724668 -0.465750
vn -0.517169 0.724180 -0.456179
vn -0.704697 0.709268 -0.018473
vn -0.704697 0.709268 -0.018474
vn -0.376777 0.728453 -0.572186
vn -0.027411 0.736994 -0.675343
vn 0.000000 1.000000 0.000000
vn 0.000000 1.000000 0.000000
vn 0.000000 1.000000 0.000000
vn -0.001866 0.734719 -0.678369
vn 0.002460 0.734833 -0.678244
vn 0.002917 0.734425 -0.678683
vn -0.515774 -0.725774 -0.455225
vn -0.506379 -0.726382 -0.464705
vn -0.704694 -0.709271 -0.018473
vn -0.704694 -0.709271 -0.018473
vn -0.027738 -0.740182 -0.671834
vn -0.375045 -0.731364 -0.569604
vn 0.000000 -1.000000 0.000000
vn 0.000000 -1.000000 -0.000000
vn 0.000000 -1.000000 0.000000
vn -0.002060 -0.737914 -0.674891
vn 0.040720 -0.739131 -0.672329
vn 0.000441 -0.737401 -0.675455
vn 0.504794 0.715271 0.483292
vn 0.504794 0.715271 0.483292
vn 0.709558 0.704334 0.020991
vn 0.709536 0.704352 0.021118
vn 0.712757 0.701405 -0.002831
vn 0.710855 0.702910 -0.024543
vn 0.549974 -0.694631 -0.463699
vn 0.541563 -0.695553 -0.472139
vn 0.336030 -0.746319 -0.574537
vn 0.703181 -0.710024 -0.037459
vn 0.704739 -0.709451 -0.004704
vn 0.701870 -0.711994 0.021036
vn 0.701863 -0.712000 0.021084
vn 0.504795 -0.715269 0.483293
vn 0.504795 -0.715269 0.483293
vn 0.267887 0.742327 -0.614155
vn 0.267887 0.742327 -0.614155
vn 0.266699 0.743163 -0.613662
vn 0.674527 0.699887 -0.234886
vn 0.674527 0.699887 -0.234886
vn -0.048872 0.997782 0.045196
vn -0.000286 1.000000 0.000039
vn -0.001964 0.999996 0.001795
vn 0.000287 -1.000000 -0.000039
vn 0.049209 -0.997771 -0.045065
vn 0.001994 -0.999996 -0.001804
vn -0.285792 0.000000 0.958292
vn -0.018390 0.000000 0.999831
vn -0.018390 0.000000 0.999831
vn -0.285792 0.000000 0.958292
vn 0.000000 1.000000 -0.000000
vn 0.000000 1.000000 0.000000
vn 0.000000 1.000000 -0.000000
vn -0.713945 -0.000001 -0.700201
vn -0.558776 0.000000 -0.829319
vn -0.558776 0.000000 -0.829319
vn -0.713946 -0.000001 -0.700201
vn 0.000000 -1.000000 -0.000000
vn 0.000000 -1.000000 -0.000000
vn 0.000000 -1.000000 -0.000000
vn 0.722217 -0.000001 0.691666
vn 0.853370 -0.000002 0.521306
vn 0.853370 -0.000002 0.521306
vn 0.722217 -0.000001 0.691666
vn -0.999753 -0.000000 0.022230
vn -0.999753 -0.000000 0.022230
vn -0.946633 -0.000002 0.322314
vn -0.946633 -0.000002 0.322313
vn -0.999635 -0.000000 -0.027034
vn -0.999635 -0.000000 -0.027035
vn 0.000000 -1.000000 0.000000
vn 0.000000 -1.000000 0.000000
vn 0.998993 -0.000000 -0.044856
vn 0.999985 -0.000000 -0.005418
vn 0.914497 -0.000002 -0.404593
vn 0.914497 -0.000002 -0.404593
vn 0.000000 1.000000 0.000000
vn 0.000000 1.000000 0.000000
vn 1.000000 0.000000 0.000000
vn 1.000000 0.000000 0.000000
vn 0.558888 0.000000 0.829243
vn 0.558888 0.000000 0.829243
vn 0.000000 1.000000 0.000000
vn 0.000000 1.000000 0.000000
vn 0.000000 1.000000 0.000000
vn -0.002376 0.999994 0.002425
vn -0.053546 0.997069 0.054654
vn 0.005408 0.000000 -0.999985
vn 0.051147 0.000000 -0.998691
vn 0.490894 0.000000 -0.871219
vn 0.490894 0.000000 -0.871219
vn 0.053959 -0.997063 -0.054351
vn 0.002425 -0.999994 -0.002443
vn -0.000000 -1.000000 -0.000000
vn -0.000000 -1.000000 -0.000000
vn -0.000000 -1.000000 -0.000000
vn 0.000000 0.000000 1.000000
vn 0.000000 0.000000 1.000000
vn 0.000000 0.000000 -1.000000
vn 0.000000 0.000000 -1.000000
g FCSET_pCube3_001_0p734_0p137_0p826 pCube3
usemtl initialShadingGroup
f 4/1/1 66/2/2 68/3/3 60/4/4 62/5/5 2/6/6
f 65/7/7 64/8/8 3/9/9 1/10/10 58/11/11 57/12/12
f 5/13/13 6/14/14 37/15/15 38/16/16
f 6/14/17 5/13/18 8/17/19 7/18/20
f 7/18/20 8/17/19 47/19/21 48/20/22
f 9/78/23 10/22/24 24/23/25 23/76/26
f 10/22/27 9/78/28 11/77/29 12/26/30
f 12/26/30 11/77/29 49/74/31 50/28/32
f 13/29/33 14/30/34 35/75/35 36/32/36
f 14/30/34 13/29/33 15/33/37 17/34/38
f 16/35/39 15/33/40 63/36/41 65/7/7
f 17/34/38 16/35/42 51/37/43 53/38/44
f 18/39/45 19/40/46 30/41/47 29/42/48
f 19/40/46 18/39/45 21/71/49 20/44/50
f 20/44/51 22/45/52 68/3/3 67/46/53
f 22/45/54 21/71/49 54/70/55 56/48/56
f 23/76/26 24/23/25 36/32/36 35/75/35
f 25/49/57 26/50/58 50/28/32 49/74/31
f 26/50/58 25/49/57 27/51/59 28/52/60
f 28/52/60 27/51/59 43/53/61 44/54/62
f 29/42/48 30/41/47 38/16/16 37/15/15
f 31/69/63 32/56/64 55/57/65 54/70/55
f 32/56/64 31/69/63 33/58/66 34/59/67
f 34/59/67 33/58/66 39/60/68 40/61/69
f 40/61/69 39/60/68 46/62/70 45/63/71
f 41/64/72 42/65/73 53/38/44 52/66/74
f 42/65/75 41/64/76 44/54/62 43/53/61
f 45/63/71 46/62/70 48/20/22 47/19/21
f 52/66/77 51/37/78 57/12/12 59/67/79
f 56/48/80 55/57/81 61/68/82 60/4/4
f 6/14/83 7/18/84 11/25/85 9/21/86
f 10/22/87 12/26/88 3/9/9 24/23/89
f 14/30/90 17/34/91 21/43/92 18/72/93
f 38/16/94 4/1/1 8/17/95 5/13/96
f 46/62/97 39/60/98 27/51/99 25/49/100
f 23/24/101 37/15/102 6/14/103 9/21/104
f 18/39/93 29/42/105 35/31/106 14/73/90
f 19/40/107 20/44/51 67/46/53 30/41/108
f 43/53/109 33/58/110 31/69/111 42/65/112
f 36/32/113 63/36/41 15/33/40 13/29/114
f 35/31/106 29/42/105 37/15/102 23/24/101
f 30/41/108 67/46/53 66/2/2 4/1/1 38/16/94
f 27/51/115 39/60/116 33/58/110 43/53/109
f 24/23/89 3/9/9 64/8/8 63/36/41 36/32/113
f 49/27/117 48/20/118 46/62/97 25/49/100
f 1/10/10 50/28/119 26/50/120 28/52/121
f 52/66/77 59/67/79 44/54/122 41/64/123
f 54/47/124 53/38/125 42/65/126 31/55/127
f 61/68/82 55/57/81 32/56/128 34/59/129
f 2/6/6 62/5/5 61/68/82 34/59/129 40/61/130
f 47/19/131 2/6/6 40/61/130 45/63/132
f 11/25/85 7/18/84 48/20/133 49/27/134
f 3/9/9 12/26/88 50/28/119 1/10/10
f 16/35/39 65/7/7 57/12/12 51/37/78
f 21/43/135 17/34/136 53/38/125 54/47/124
f 68/3/3 22/45/52 56/48/80 60/4/4
f 8/17/95 4/1/1 2/6/6 47/19/131
f 59/67/79 58/11/11 1/10/10 28/52/121 44/54/122
f 15/33/37 16/35/42 17/34/38
f 20/44/50 21/71/49 22/45/54
f 51/37/43 52/66/74 53/38/44
f 54/70/55 55/57/65 56/48/56
f 57/12/12 58/11/11 59/67/79
f 60/4/4 61/68/82 62/5/5
f 63/36/41 64/8/8 65/7/7
f 66/2/2 67/46/53 68/3/3
