# This file uses centimeters as units for non-parametric coordinates.

v -0.857193 -0.000249 -0.518679
v 0.923775 -0.000249 -0.518679
v -0.857193 1.061168 -0.001251
v 0.923775 1.061168 -0.001251
v -0.857193 1.061168 -0.013871
v 0.923775 1.061168 -0.013871
v -0.857193 -0.000249 -0.531298
v 0.923775 -0.000249 -0.531298
v -0.857193 1.074105 0.004052
v 0.923775 1.074105 0.004052
v 0.923775 1.078020 -0.013871
v -0.857193 1.078020 -0.013871
v -0.857193 -0.032991 0.523102
v 0.923775 -0.032991 0.523102
v 0.923775 -0.012224 0.527109
v -0.857193 -0.012224 0.527109
vt 0.008155 0.566096
vt 0.428676 0.566096
vt 0.428676 0.284723
vt 0.727172 0.193171
vt 0.010499 0.284723
vt 0.450257 0.284723
vt 0.450257 0.287059
vt 0.010499 0.287059
vt 0.008155 0.289190
vt 0.385768 0.289190
vt 0.385768 0.564623
vt 0.008155 0.564623
vt 0.008155 0.007552
vt 0.428676 0.007553
vt 0.450257 0.011526
vt 0.010499 0.011526
vt 0.448272 0.193171
vt 0.448272 0.602555
vt 0.002441 0.997559
vt 0.727172 0.602555
vt 0.002441 0.588174
vt 0.008155 0.284723
vt 0.273872 0.997559
vt 0.273872 0.588174
vn 0.000000 -0.438193 0.898881
vn 0.000000 -0.438193 0.898881
vn 0.000000 -0.438193 0.898881
vn 0.000000 -0.438193 0.898881
vn 0.000000 0.976959 0.213426
vn 0.000000 0.976959 0.213426
vn 0.000000 0.976959 0.213426
vn 0.000000 0.976959 0.213426
vn 0.000000 0.438193 -0.898881
vn 0.000000 0.438193 -0.898881
vn 0.000000 0.438193 -0.898881
vn 0.000000 0.438193 -0.898881
vn 0.000000 -1.000000 0.000000
vn 0.000000 -1.000000 0.000000
vn 0.000000 -1.000000 0.000000
vn 0.000000 -1.000000 0.000000
vn 1.000000 0.000000 0.000000
vn 1.000000 0.000000 0.000000
vn 1.000000 0.000000 0.000000
vn 1.000000 0.000000 0.000000
vn -1.000000 0.000142 0.000000
vn -1.000000 0.000142 0.000000
vn -1.000000 0.000142 0.000000
vn -1.000000 0.000142 0.000000
vn 0.000000 -0.189472 0.981886
vn 0.000000 -0.189472 0.981886
vn 0.000000 -0.189472 0.981886
vn 0.000000 -0.189472 0.981886
vn 1.000000 0.000000 0.000000
vn 1.000000 0.000000 0.000000
vn 1.000000 0.000000 0.000000
vn 1.000000 0.000000 0.000000
vn 0.000000 0.000000 -1.000000
vn 0.000000 0.000000 -1.000000
vn 0.000000 0.000000 -1.000000
vn 0.000000 0.000000 -1.000000
vn -1.000000 0.000000 0.000000
vn -1.000000 0.000000 0.000000
vn -1.000000 0.000000 0.000000
vn -1.000000 0.000000 0.000000
vn 0.000000 -0.432166 -0.901794
vn 0.000000 -0.432166 -0.901794
vn 0.000000 -0.432166 -0.901794
vn 0.000000 -0.432166 -0.901794
vn 1.000000 0.000000 0.000000
vn 1.000000 0.000000 0.000000
vn 1.000000 0.000000 0.000000
vn 1.000000 0.000000 0.000000
vn 0.000000 0.433823 0.900998
vn 0.000000 0.433823 0.900998
vn 0.000000 0.433823 0.900998
vn 0.000000 0.433823 0.900998
vn -1.000000 0.000000 0.000000
vn -1.000000 0.000000 0.000000
vn -1.000000 0.000000 0.000000
vn -1.000000 0.000000 0.000000
f 1/24/1 2/23/2 4/19/3 3/21/4
f 9/5/5 10/6/6 11/7/7 12/8/8
f 5/9/9 6/10/10 8/11/11 7/12/12
f 7/12/13 8/11/14 2/2/15 1/1/16
f 2/2/17 8/11/18 6/10/19 4/3/20
f 7/12/21 1/1/22 3/22/23 5/9/24
f 13/13/25 14/14/26 15/15/27 16/16/28
f 4/3/29 6/10/30 11/7/31 10/6/32
f 6/10/33 5/9/34 12/8/35 11/7/36
f 5/9/37 3/22/38 9/5/39 12/8/40
f 3/4/41 4/20/42 14/18/43 13/17/44
f 4/3/45 10/6/46 15/15/47 14/14/48
f 10/6/49 9/5/50 16/16/51 15/15/52
f 9/5/53 3/22/54 13/13/55 16/16/56
