# This file uses centimeters as units for non-parametric coordinates.

mtllib CoffeeCupEmpty.mtl
g default
v 39.120083 0.008899 0.945866
v 39.120083 0.008899 0.429578
v 38.855198 0.008899 0.945866
v 38.855198 0.008899 0.429578
v 38.590313 0.008899 0.945866
v 38.590313 0.008899 0.429578
v 38.590313 0.008899 0.687721
v 38.855198 0.008899 0.687721
v 39.120083 0.008899 0.687721
v 39.464748 0.008899 0.441658
v 39.321747 0.008899 0.233046
v 39.107689 0.008899 0.093682
v 38.855198 0.008899 0.044720
v 38.602707 0.008899 0.093682
v 38.388649 0.008899 0.233046
v 38.245647 0.008899 0.441658
v 38.195408 0.008899 0.687721
v 38.245647 0.008899 0.933786
v 38.388649 0.008899 1.142398
v 38.602707 0.008899 1.281762
v 38.855198 0.008899 1.330723
v 39.107689 0.008899 1.281762
v 39.321747 0.008899 1.142398
v 39.464748 0.008899 0.933786
v 39.514992 0.008899 0.687721
v 39.339859 0.048183 0.209288
v 39.488434 0.048183 0.428796
v 39.540615 0.048183 0.687721
v 39.117492 0.048183 0.062619
v 38.855198 0.048183 0.011112
v 38.592903 0.048183 0.062619
v 38.370537 0.048183 0.209288
v 38.221962 0.048183 0.428796
v 38.169784 0.048183 0.687721
v 38.221962 0.048183 0.946647
v 38.370537 0.048183 1.166155
v 38.592903 0.048183 1.312824
v 38.855198 0.048183 1.364331
v 39.117492 0.048183 1.312824
v 39.339859 0.048183 1.166155
v 39.488434 0.048183 0.946647
v 39.101478 0.021480 0.934001
v 39.101478 0.021480 0.441442
v 38.855198 0.021480 0.934001
v 38.855198 0.021480 0.441442
v 38.608917 0.021480 0.934001
v 38.608917 0.021480 0.441442
v 38.608917 0.021480 0.687721
v 38.855198 0.021480 0.687721
v 39.101478 0.021480 0.687721
v 39.421936 0.021480 0.452967
v 39.288978 0.021481 0.253942
v 39.089950 0.021480 0.120982
v 38.855198 0.021480 0.074271
v 38.620445 0.021480 0.120982
v 38.421417 0.021480 0.253942
v 38.288460 0.021480 0.452967
v 38.241749 0.021480 0.687721
v 38.288460 0.021481 0.922476
v 38.421417 0.021481 1.121501
v 38.620445 0.021480 1.254461
v 38.855198 0.021480 1.301172
v 39.089950 0.021480 1.254461
v 39.288978 0.021481 1.121501
v 39.421936 0.021480 0.922476
v 39.468651 0.021480 0.687721
v 39.310673 0.051165 0.232246
v 39.450302 0.051165 0.441221
v 39.499340 0.051165 0.687721
v 39.101700 0.051165 0.092615
v 38.855198 0.051165 0.043580
v 38.608696 0.051165 0.092615
v 38.399723 0.051165 0.232246
v 38.260094 0.051165 0.441221
v 38.211056 0.051165 0.687721
v 38.260094 0.051165 0.934222
v 38.399723 0.051165 1.143197
v 38.608696 0.051165 1.282828
v 38.855198 0.051165 1.331863
v 39.101700 0.051165 1.282828
v 39.310673 0.051165 1.143197
v 39.450302 0.051165 0.934222
v 39.712986 2.457488 0.687721
v 39.647690 2.457488 0.359460
v 39.461746 2.457488 0.081174
v 39.183456 2.457488 -0.104770
v 38.855198 2.457488 -0.170066
v 38.526935 2.457488 -0.104770
v 38.248649 2.457488 0.081174
v 38.062706 2.457488 0.359460
v 37.997410 2.457488 0.687722
v 38.062706 2.457488 1.015983
v 38.248649 2.457488 1.294269
v 38.526939 2.457488 1.480213
v 38.855198 2.457488 1.545509
v 39.183460 2.457488 1.480213
v 39.461746 2.457488 1.294268
v 39.647690 2.457488 1.015982
v 39.758133 2.457488 0.687721
v 39.689400 2.457488 0.342183
v 39.493667 2.457488 0.049251
v 39.200737 2.457488 -0.146481
v 38.855198 2.457488 -0.215213
v 38.509659 2.457488 -0.146480
v 38.216728 2.457488 0.049251
v 38.020996 2.457488 0.342183
v 37.952263 2.457488 0.687722
v 38.020996 2.457488 1.033260
v 38.216728 2.457488 1.326193
v 38.509659 2.457488 1.521924
v 38.855198 2.457488 1.590656
v 39.200737 2.457488 1.521923
v 39.493667 2.457488 1.326192
v 39.689400 2.457488 1.033259
v 39.787800 2.416672 0.687721
v 39.716808 2.416672 0.330892
v 39.514644 2.416672 0.028385
v 39.212089 2.416672 -0.173742
v 38.855198 2.416672 -0.244720
v 38.498306 2.416672 -0.173742
v 38.195751 2.416672 0.028385
v 37.993587 2.416672 0.330892
v 37.922596 2.416672 0.687722
v 37.993587 2.416672 1.044551
v 38.195751 2.416672 1.347058
v 38.498310 2.416672 1.549186
v 38.855198 2.416672 1.620164
v 39.212089 2.416672 1.549185
v 39.514644 2.416672 1.347057
v 39.716808 2.416672 1.044551
v 39.782059 2.353083 0.687721
v 39.711502 2.353083 0.333177
v 39.510586 2.353083 0.032609
v 39.209892 2.353083 -0.168223
v 38.855198 2.353083 -0.238746
v 38.500503 2.353083 -0.168223
v 38.199810 2.353083 0.032609
v 37.998894 2.353083 0.333178
v 37.928337 2.353083 0.687722
v 37.998894 2.353083 1.042266
v 38.199810 2.353083 1.342834
v 38.500503 2.353083 1.543667
v 38.855198 2.353083 1.614190
v 39.209892 2.353083 1.543666
v 39.510586 2.353083 1.342833
v 39.711502 2.353083 1.042264
v 39.744392 2.305293 0.687721
v 39.676704 2.305293 0.347655
v 39.483951 2.305293 0.059361
v 39.195480 2.305293 -0.133272
v 38.855198 2.305293 -0.200915
v 38.514919 2.305293 -0.133271
v 38.226444 2.305293 0.059361
v 38.033691 2.305293 0.347656
v 37.966003 2.305293 0.687722
v 38.033691 2.305293 1.027788
v 38.226444 2.305293 1.316083
v 38.514919 2.305293 1.508715
v 38.855198 2.305293 1.576359
v 39.195480 2.305293 1.508714
v 39.483951 2.305293 1.316082
v 39.676704 2.305293 1.027787
vt 0.407673 0.875096
vt 0.450376 0.881813
vt 0.442773 0.926204
vt 0.400329 0.919003
vt 0.414204 0.831212
vt 0.457912 0.836818
vt 0.501175 0.846103
vt 0.492810 0.889562
vt 0.485151 0.933544
vt 0.969927 0.311225
vt 0.473321 0.990430
vt 0.511581 0.972952
vt 0.969927 0.363721
vt 0.969927 0.259217
vt 0.431377 0.991720
vt 0.540663 0.942051
vt 0.969927 0.416513
vt 0.556443 0.902364
vt 0.969927 0.468979
vt 0.556443 0.859518
vt 0.969927 0.523538
vt 0.540908 0.819992
vt 0.969927 0.575516
vt 0.511977 0.789366
vt 0.969927 0.627164
vt 0.473854 0.771500
vt 0.969927 0.678181
vt 0.423507 0.774019
vt 0.969927 0.729730
vt 0.385845 0.793078
vt 0.969927 0.780195
vt 0.357791 0.825187
vt 0.969927 0.002449
vt 0.343449 0.865618
vt 0.969927 0.053520
vt 0.345049 0.908372
vt 0.969927 0.105155
vt 0.362152 0.947191
vt 0.969927 0.155943
vt 0.392344 0.976436
vt 0.969927 0.207459
vt 0.546309 0.365256
vt 0.508094 0.571226
vt 0.488151 0.521036
vt 0.516617 0.457353
vt 0.504495 0.345442
vt 0.489938 0.397922
vt 0.468373 0.460041
vt 0.453288 0.417771
vt 0.456243 0.500776
vt 0.416782 0.549056
vt 0.405073 0.519755
vt 0.411830 0.517477
vt 0.423438 0.545634
vt 0.438528 0.573046
vt 0.432736 0.577599
vt 0.398090 0.489837
vt 0.405348 0.488700
vt 0.395223 0.459547
vt 0.402275 0.459516
vt 0.397213 0.429276
vt 0.404484 0.430341
vt 0.403449 0.399378
vt 0.410101 0.401572
vt 0.414662 0.370195
vt 0.421438 0.373578
vt 0.429869 0.341757
vt 0.435909 0.346307
vt 0.449455 0.314142
vt 0.455287 0.319615
vt 0.472597 0.287268
vt 0.477377 0.293973
vt 0.500041 0.261003
vt 0.504703 0.269316
vt 0.530488 0.233871
vt 0.544911 0.669925
vt 0.507950 0.657210
vt 0.512127 0.648679
vt 0.478409 0.631568
vt 0.482951 0.624604
vt 0.453650 0.605066
vt 0.459318 0.599460
vt 0.549317 0.259217
vt 0.549317 0.311225
vt 0.549317 0.363721
vt 0.549317 0.416513
vt 0.549317 0.468979
vt 0.549317 0.523538
vt 0.550278 0.575516
vt 0.550278 0.627164
vt 0.550278 0.678181
vt 0.550278 0.729730
vt 0.550278 0.780195
vt 0.550278 0.830139
vt 0.549317 0.053520
vt 0.549317 0.105155
vt 0.549317 0.155943
vt 0.549317 0.207459
vt 0.557151 0.259217
vt 0.557151 0.311225
vt 0.557151 0.363721
vt 0.557151 0.416513
vt 0.557151 0.468979
vt 0.557151 0.523538
vt 0.557151 0.575516
vt 0.557151 0.627164
vt 0.557151 0.678181
vt 0.557151 0.729730
vt 0.557151 0.780195
vt 0.557151 0.830139
vt 0.557151 0.053520
vt 0.557151 0.105155
vt 0.557151 0.155943
vt 0.557151 0.207459
vt 0.565721 0.259217
vt 0.565721 0.311225
vt 0.565721 0.363721
vt 0.565721 0.416513
vt 0.565721 0.468979
vt 0.565721 0.523538
vt 0.565721 0.575516
vt 0.565721 0.627164
vt 0.578977 0.678181
vt 0.578977 0.729730
vt 0.578977 0.780195
vt 0.565721 0.002449
vt 0.565721 0.053520
vt 0.565721 0.105155
vt 0.565721 0.155943
vt 0.565721 0.207459
vt 0.576792 0.259217
vt 0.576792 0.311225
vt 0.576792 0.363721
vt 0.576792 0.416513
vt 0.576792 0.468979
vt 0.576792 0.523538
vt 0.576792 0.575516
vt 0.576792 0.627164
vt 0.589746 0.678181
vt 0.589746 0.729730
vt 0.589746 0.780195
vt 0.576792 0.002449
vt 0.576792 0.053520
vt 0.576792 0.105155
vt 0.576792 0.155943
vt 0.576792 0.207459
vt 0.587435 0.259217
vt 0.587435 0.311225
vt 0.587435 0.363721
vt 0.587435 0.416513
vt 0.587435 0.468979
vt 0.587435 0.523538
vt 0.587435 0.575516
vt 0.587435 0.627164
vt 0.587435 0.678181
vt 0.587435 0.729730
vt 0.587435 0.780195
vt 0.587435 0.002449
vt 0.587435 0.053520
vt 0.587435 0.105155
vt 0.587435 0.155943
vt 0.587435 0.207459
vt 0.170382 0.932094
vt 0.541451 0.683023
vt 0.535159 0.246550
vt 0.546309 0.551819
vt 0.987165 0.053520
vt 0.139771 0.882570
vt 0.967670 0.105155
vt 0.587435 0.830139
vt 0.969927 0.830139
vt 0.589746 0.830139
vt 0.578977 0.830139
vt 0.557151 0.002449
vt 0.549317 0.002449
vt 0.139786 0.002441
vt 0.997559 0.002449
vt 0.550278 0.523538
vt 0.083222 0.109349
vt 0.110743 0.054835
vt 0.058410 0.166119
vt 0.037239 0.225086
vt 0.020525 0.285965
vt 0.008891 0.348341
vt 0.576792 0.678181
vt 0.565721 0.678181
vt 0.967670 0.678181
vt 0.988413 0.678181
vt 0.465601 0.770559
vt 0.988413 0.729730
vt 0.967670 0.207459
vt 0.967670 0.259217
vt 0.967670 0.155943
vt 0.987165 0.105155
vt 0.997559 0.053520
vt 0.988413 0.830139
vt 0.988413 0.780195
vt 0.967670 0.627164
vt 0.967670 0.575516
vt 0.967670 0.523538
vt 0.967670 0.468979
vt 0.967670 0.416513
vt 0.967670 0.363721
vt 0.967670 0.311225
vt 0.081546 0.776983
vt 0.056465 0.720504
vt 0.109700 0.830991
vt 0.002787 0.411643
vt 0.002441 0.475265
vt 0.007895 0.538541
vt 0.018996 0.600871
vt 0.035366 0.661678
vn 0.000000 -1.000000 0.000000
vn 0.000000 -1.000000 0.000000
vn 0.000000 -1.000000 0.000000
vn 0.000000 -1.000000 0.000000
vn 0.000000 -1.000000 0.000000
vn 0.000000 -1.000000 0.000000
vn 0.000000 -1.000000 0.000000
vn 0.000000 -1.000000 0.000000
vn 0.000000 -1.000000 0.000000
vn 0.000000 -1.000000 0.000000
vn 0.000000 -1.000000 0.000000
vn 0.000000 -1.000000 0.000000
vn 0.000000 -1.000000 0.000000
vn 0.000000 -1.000000 0.000000
vn 0.000000 -1.000000 0.000000
vn 0.000000 -1.000000 0.000000
vn 0.678588 -0.675524 -0.288420
vn 0.678588 -0.675524 -0.288420
vn 0.516767 -0.672143 -0.530260
vn 0.516766 -0.672143 -0.530261
vn 0.678588 -0.675524 -0.288420
vn 0.678588 -0.675524 -0.288420
vn 0.736035 -0.676943 0.000001
vn 0.736035 -0.676943 0.000001
vn 0.516766 -0.672143 -0.530261
vn 0.516767 -0.672143 -0.530260
vn 0.278287 -0.668809 -0.689384
vn 0.278287 -0.668810 -0.689384
vn 0.278287 -0.668810 -0.689384
vn 0.278287 -0.668809 -0.689384
vn 0.000002 -0.667442 -0.744661
vn 0.000002 -0.667442 -0.744661
vn 0.000002 -0.667442 -0.744661
vn 0.000002 -0.667442 -0.744661
vn -0.278286 -0.668810 -0.689384
vn -0.278287 -0.668809 -0.689384
vn -0.278287 -0.668809 -0.689384
vn -0.278286 -0.668810 -0.689384
vn -0.516765 -0.672146 -0.530259
vn -0.516766 -0.672146 -0.530257
vn -0.516766 -0.672146 -0.530257
vn -0.516765 -0.672146 -0.530259
vn -0.678581 -0.675532 -0.288418
vn -0.678582 -0.675532 -0.288416
vn -0.678582 -0.675532 -0.288416
vn -0.678581 -0.675532 -0.288418
vn -0.736032 -0.676947 0.000000
vn -0.736032 -0.676947 0.000000
vn -0.736032 -0.676947 0.000000
vn -0.736032 -0.676947 0.000000
vn -0.678581 -0.675531 0.288418
vn -0.678582 -0.675531 0.288416
vn -0.678582 -0.675531 0.288416
vn -0.678581 -0.675531 0.288418
vn -0.516764 -0.672149 0.530255
vn -0.516762 -0.672150 0.530256
vn -0.516762 -0.672150 0.530256
vn -0.516764 -0.672149 0.530255
vn -0.278285 -0.668817 0.689377
vn -0.278283 -0.668817 0.689378
vn -0.278283 -0.668817 0.689378
vn -0.278285 -0.668817 0.689377
vn -0.000000 -0.667450 0.744654
vn -0.000000 -0.667450 0.744654
vn -0.000000 -0.667450 0.744654
vn -0.000000 -0.667450 0.744654
vn 0.278285 -0.668818 0.689376
vn 0.278283 -0.668818 0.689377
vn 0.278283 -0.668818 0.689377
vn 0.278285 -0.668818 0.689376
vn 0.516761 -0.672151 0.530255
vn 0.516761 -0.672151 0.530255
vn 0.516761 -0.672151 0.530255
vn 0.516761 -0.672151 0.530255
vn 0.678580 -0.675532 0.288419
vn 0.678582 -0.675532 0.288415
vn 0.678582 -0.675532 0.288415
vn 0.678580 -0.675532 0.288419
vn 0.736035 -0.676943 0.000001
vn 0.736035 -0.676943 0.000001
vn -0.000000 -1.000000 0.000000
vn -0.000000 -1.000000 0.000000
vn -0.000000 -1.000000 0.000000
vn -0.000000 -1.000000 0.000000
vn -0.000000 -1.000000 0.000000
vn -0.000000 -1.000000 0.000000
vn -0.000000 -1.000000 0.000000
vn -0.000000 -1.000000 0.000000
vn 0.000000 -1.000000 -0.000000
vn 0.000000 -1.000000 -0.000000
vn 0.000000 -1.000000 -0.000000
vn 0.000000 -1.000000 -0.000000
vn 0.000000 -1.000000 0.000000
vn 0.000000 -1.000000 0.000000
vn 0.000000 -1.000000 0.000000
vn 0.000000 -1.000000 0.000000
vn 0.000000 -1.000000 0.000000
vn 0.000000 -1.000000 0.000000
vn 0.000000 -1.000000 0.000000
vn 0.000000 -1.000000 0.000000
vn 0.000000 -1.000000 0.000000
vn 0.000000 -1.000000 0.000000
vn 0.000000 -1.000000 0.000000
vn 0.000000 -1.000000 0.000000
vn 0.000000 -1.000000 0.000000
vn 0.000000 -1.000000 0.000000
vn 0.000000 -1.000000 0.000000
vn 0.000000 -1.000000 0.000000
vn -0.000000 -1.000000 0.000000
vn -0.000000 -1.000000 0.000000
vn -0.000000 -1.000000 0.000000
vn -0.000000 -1.000000 0.000000
vn -0.000000 -1.000000 0.000000
vn -0.000000 -1.000000 0.000000
vn -0.000000 -1.000000 0.000000
vn -0.000000 -1.000000 0.000000
vn 0.000000 -1.000000 -0.000000
vn 0.000000 -1.000000 -0.000000
vn 0.000000 -1.000000 -0.000000
vn 0.000000 -1.000000 -0.000000
vn 0.000000 -1.000000 0.000000
vn 0.000000 -1.000000 0.000000
vn 0.000000 -1.000000 0.000000
vn 0.000000 -1.000000 0.000000
vn 0.000000 -1.000000 0.000000
vn 0.000000 -1.000000 0.000000
vn 0.000000 -1.000000 0.000000
vn 0.000000 -1.000000 0.000000
vn 0.000000 1.000000 0.000000
vn 0.000000 1.000000 0.000000
vn 0.000000 1.000000 0.000000
vn 0.000000 1.000000 0.000000
vn -0.000002 1.000000 0.000000
vn -0.000002 1.000000 0.000000
vn -0.000002 1.000000 0.000000
vn -0.000002 1.000000 0.000000
vn -0.000001 1.000000 -0.000001
vn -0.000001 1.000000 -0.000001
vn -0.000001 1.000000 -0.000001
vn -0.000001 1.000000 -0.000001
vn 0.000000 1.000000 -0.000002
vn 0.000000 1.000000 -0.000002
vn 0.000000 1.000000 -0.000002
vn 0.000000 1.000000 -0.000002
vn -0.919519 0.097037 0.380880
vn -0.703770 0.097037 0.703770
vn -0.583866 0.711993 0.390085
vn -0.583866 0.711993 0.390085
vn -0.688623 0.712058 0.137011
vn -0.688623 0.712058 0.137011
vn -0.995281 0.097038 -0.000000
vn -0.380879 0.097037 0.919519
vn -0.390055 0.712045 0.583823
vn -0.390055 0.712045 0.583823
vn 0.000000 0.097038 0.995281
vn -0.136999 0.712082 0.688600
vn -0.136999 0.712082 0.688600
vn 0.380879 0.097037 0.919519
vn 0.137000 0.712079 0.688603
vn 0.137000 0.712079 0.688603
vn 0.703771 0.097037 0.703768
vn 0.390069 0.712020 0.583843
vn 0.390069 0.712020 0.583843
vn 0.919519 0.097038 0.380879
vn 0.583856 0.712005 0.390078
vn 0.583856 0.712005 0.390078
vn 0.995281 0.097039 0.000000
vn 0.688605 0.712077 0.137002
vn 0.688605 0.712077 0.137002
vn 0.919519 0.097038 -0.380880
vn 0.688599 0.712083 -0.137002
vn 0.688599 0.712083 -0.137002
vn 0.703770 0.097037 -0.703770
vn 0.583840 0.712025 -0.390067
vn 0.583840 0.712025 -0.390067
vn 0.380877 0.097037 -0.919519
vn 0.390072 0.712019 -0.583844
vn 0.390072 0.712019 -0.583844
vn 0.000000 0.097038 -0.995281
vn 0.136998 0.712082 -0.688600
vn 0.136998 0.712082 -0.688600
vn -0.380877 0.097038 -0.919520
vn -0.136998 0.712082 -0.688600
vn -0.136998 0.712082 -0.688600
vn -0.703771 0.097038 -0.703768
vn -0.390061 0.712039 -0.583827
vn -0.390061 0.712038 -0.583827
vn -0.919519 0.097037 -0.380879
vn -0.583855 0.712006 -0.390078
vn -0.583855 0.712006 -0.390078
vn -0.688621 0.712059 -0.137011
vn -0.688621 0.712059 -0.137011
vn -0.000002 1.000000 0.000002
vn -0.000002 1.000000 0.000002
vn -0.000002 1.000000 0.000002
vn -0.000002 1.000000 0.000002
vn -0.000001 1.000000 -0.000001
vn -0.000001 1.000000 -0.000001
vn -0.000001 1.000000 -0.000001
vn -0.000001 1.000000 -0.000001
vn 0.000001 1.000000 0.000000
vn 0.000001 1.000000 0.000000
vn 0.000001 1.000000 0.000000
vn 0.000001 1.000000 0.000000
vn 0.000000 1.000000 0.000001
vn 0.000000 1.000000 0.000001
vn 0.000000 1.000000 0.000001
vn 0.000000 1.000000 0.000001
vn 0.000000 1.000000 -0.000000
vn 0.000000 1.000000 -0.000000
vn 0.000000 1.000000 -0.000000
vn 0.000000 1.000000 -0.000000
vn -0.000001 1.000000 0.000001
vn -0.000001 1.000000 0.000001
vn -0.000001 1.000000 0.000001
vn -0.000001 1.000000 0.000001
vn 0.000000 1.000000 0.000000
vn 0.000000 1.000000 0.000000
vn 0.000000 1.000000 0.000000
vn 0.000000 1.000000 0.000000
vn 0.000003 1.000000 -0.000001
vn 0.000003 1.000000 -0.000001
vn 0.000003 1.000000 -0.000001
vn 0.000003 1.000000 -0.000001
vn 0.000001 1.000000 -0.000002
vn 0.000001 1.000000 -0.000002
vn 0.000001 1.000000 -0.000002
vn 0.000001 1.000000 -0.000002
vn 0.000000 1.000000 0.000000
vn 0.000000 1.000000 0.000000
vn 0.000000 1.000000 0.000000
vn 0.000000 1.000000 0.000000
vn 0.000000 1.000000 0.000000
vn 0.000000 1.000000 0.000000
vn 0.000000 1.000000 0.000000
vn 0.000000 1.000000 0.000000
vn 0.000001 1.000000 -0.000001
vn 0.000001 1.000000 -0.000001
vn 0.000001 1.000000 -0.000001
vn 0.000001 1.000000 -0.000001
vn -0.993587 0.113075 -0.000000
vn -0.917953 0.113075 0.380231
vn -0.702572 0.113075 0.702572
vn -0.380230 0.113075 0.917954
vn 0.000000 0.113075 0.993587
vn 0.380230 0.113074 0.917954
vn 0.702573 0.113075 0.702570
vn 0.917954 0.113074 0.380231
vn 0.993587 0.113075 -0.000000
vn 0.917953 0.113075 -0.380231
vn 0.702572 0.113076 -0.702572
vn 0.380229 0.113075 -0.917954
vn 0.000000 0.113075 -0.993586
vn -0.380229 0.113074 -0.917954
vn -0.702573 0.113076 -0.702570
vn -0.917953 0.113076 -0.380231
vn 0.531954 0.846773 -0.000000
vn 0.491540 0.846697 -0.203698
vn 0.376351 0.846518 -0.376519
vn 0.203759 0.846334 -0.492140
vn -0.000000 0.846255 -0.532777
vn -0.203762 0.846329 -0.492147
vn -0.376361 0.846509 -0.376529
vn -0.491541 0.846696 -0.203699
vn -0.531948 0.846777 0.000001
vn -0.491535 0.846701 0.203693
vn -0.376350 0.846519 0.376520
vn -0.203761 0.846335 0.492137
vn 0.000001 0.846259 0.532772
vn 0.203761 0.846332 0.492142
vn 0.376353 0.846516 0.376523
vn 0.491534 0.846702 0.203693
vn 0.977848 0.209317 -0.000000
vn 0.903460 0.208852 -0.374353
vn 0.691563 0.207745 -0.691797
vn 0.374315 0.206648 -0.903983
vn -0.000000 0.206180 -0.978514
vn -0.374315 0.206642 -0.903984
vn -0.691561 0.207758 -0.691795
vn -0.903456 0.208871 -0.374353
vn -0.977845 0.209332 0.000000
vn -0.903456 0.208875 0.374350
vn -0.691559 0.207761 0.691796
vn -0.374307 0.206646 0.903987
vn 0.000001 0.206186 0.978513
vn 0.374316 0.206648 0.903983
vn 0.691559 0.207764 0.691795
vn 0.903457 0.208863 0.374354
vn 0.937754 -0.347300 -0.000000
vn 0.866199 -0.347703 -0.358889
vn 0.662659 -0.348638 -0.662824
vn 0.358461 -0.349565 -0.865627
vn -0.000000 -0.349963 -0.936764
vn -0.358462 -0.349576 -0.865622
vn -0.662660 -0.348634 -0.662825
vn -0.866204 -0.347690 -0.358890
vn -0.937751 -0.347307 -0.000000
vn -0.866201 -0.347698 0.358889
vn -0.662660 -0.348629 0.662827
vn -0.358466 -0.349570 0.865623
vn 0.000001 -0.349960 0.936765
vn 0.358461 -0.349567 0.865626
vn 0.662664 -0.348621 0.662827
vn 0.866208 -0.347682 0.358889
vn 0.994152 -0.107987 0.000000
vn 0.917583 -0.108456 -0.382464
vn 0.700649 -0.109585 -0.705040
vn 0.378305 -0.110709 -0.919037
vn -0.000001 -0.111173 -0.993801
vn -0.378304 -0.110709 -0.919037
vn -0.700648 -0.109586 -0.705042
vn -0.917584 -0.108456 -0.382461
vn -0.994152 -0.107987 0.000000
vn -0.917584 -0.108457 0.382462
vn -0.700647 -0.109586 0.705043
vn -0.378306 -0.110709 0.919037
vn 0.000001 -0.111173 0.993801
vn 0.378307 -0.110709 0.919036
vn 0.700648 -0.109586 0.705041
vn 0.917583 -0.108456 0.382465
vn 0.995935 -0.090076 0.000000
vn 0.919317 -0.090561 -0.382956
vn 0.702136 -0.091728 -0.706110
vn 0.379193 -0.092890 -0.920643
vn -0.000001 -0.093370 -0.995632
vn -0.379194 -0.092889 -0.920643
vn -0.702134 -0.091727 -0.706112
vn -0.919318 -0.090561 -0.382952
vn -0.995935 -0.090076 -0.000000
vn -0.919318 -0.090561 0.382953
vn -0.702133 -0.091728 0.706112
vn -0.379195 -0.092889 0.920643
vn 0.000001 -0.093370 0.995632
vn 0.379196 -0.092889 0.920642
vn 0.702135 -0.091728 0.706111
vn 0.919317 -0.090561 0.382956
g FCSET_Empty_Cup_001_0p906_0p778_0p35 Empty_Cup Coffee_Cup1 group1
usemtl lambert3SG
f 3/1/1 8/2/2 9/3/3 1/4/4
f 5/5/5 7/6/6 8/2/7 3/1/8
f 8/2/9 7/6/10 6/7/11 4/8/12
f 9/3/13 8/2/14 4/8/15 2/9/16
f 27/10/17 10/204/18 11/203/19 26/13/20
f 10/204/21 27/10/22 28/14/23 25/192/24
f 26/13/25 11/203/26 12/202/27 29/17/28
f 29/17/29 12/202/30 13/201/31 30/19/32
f 30/19/33 13/201/34 14/200/35 31/21/36
f 31/21/37 14/200/38 15/199/39 32/23/40
f 32/23/41 15/199/42 16/198/43 33/25/44
f 33/25/45 16/198/46 17/187/47 34/27/48
f 34/27/49 17/188/50 18/190/51 35/29/52
f 35/29/53 18/190/54 19/197/55 36/31/56
f 36/31/57 19/197/58 20/196/59 37/171/60
f 37/33/61 20/177/62 21/195/63 38/35/64
f 38/35/65 21/167/66 22/194/67 39/37/68
f 39/37/69 22/169/70 23/193/71 40/39/72
f 40/39/73 23/193/74 24/191/75 41/41/76
f 41/41/77 24/191/78 25/192/79 28/14/80
f 11/12/81 10/11/82 2/9/83 12/16/84
f 22/36/85 1/4/86 24/40/87 23/38/88
f 1/4/89 9/3/90 25/15/91 24/40/92
f 21/34/93 3/1/94 1/4/95 22/36/96
f 12/16/97 2/9/98 4/8/99 13/18/100
f 20/32/101 5/5/102 3/1/103 21/34/104
f 13/18/105 4/8/106 6/7/107 14/20/108
f 18/28/109 5/5/110 20/32/111 19/30/112
f 17/189/113 7/6/114 5/5/115 18/28/116
f 14/20/117 6/7/118 16/24/119 15/22/120
f 16/24/121 6/7/122 7/6/123 17/26/124
f 25/15/125 9/3/126 2/9/127 10/11/128
f 44/166/129 42/43/130 50/44/131 49/45/132
f 46/46/133 44/42/134 49/45/135 48/47/136
f 49/45/137 45/48/138 47/49/139 48/47/140
f 50/44/141 43/50/142 45/48/143 49/45/144
f 68/51/145 67/52/146 52/53/147 51/54/148
f 51/54/149 66/55/150 69/56/151 68/51/145
f 67/52/146 70/57/152 53/58/153 52/53/154
f 70/57/152 71/59/155 54/60/156 53/58/157
f 71/59/155 72/61/158 55/62/159 54/60/160
f 72/61/158 73/63/161 56/64/162 55/62/163
f 73/63/161 74/65/164 57/66/165 56/64/166
f 74/65/164 75/67/167 58/68/168 57/66/169
f 75/67/167 76/69/170 59/70/171 58/68/172
f 76/69/170 77/71/173 60/72/174 59/70/175
f 77/71/173 78/73/176 61/74/177 60/72/178
f 78/73/176 79/75/179 62/165/180 61/74/181
f 79/164/179 80/77/182 63/78/183 62/76/184
f 80/77/182 81/79/185 64/80/186 63/78/187
f 81/79/185 82/81/188 65/82/189 64/80/190
f 82/81/188 69/56/151 66/55/191 65/82/192
f 52/53/193 53/58/194 43/50/195 51/54/196
f 63/78/197 64/80/198 65/82/199 42/43/200
f 42/43/201 65/82/202 66/55/203 50/44/204
f 62/76/205 63/78/206 42/43/207 44/166/208
f 53/58/209 54/60/210 45/48/211 43/50/212
f 61/74/213 62/165/214 44/42/215 46/46/216
f 54/60/217 55/62/218 47/49/219 45/48/220
f 59/70/221 60/72/222 61/74/223 46/46/224
f 58/68/225 59/70/226 46/46/227 48/47/228
f 55/62/229 56/64/230 57/66/231 47/49/232
f 57/66/233 58/68/234 48/47/235 47/49/236
f 66/55/237 51/54/238 43/50/239 50/44/240
f 68/51/145 69/56/151 83/206/241 84/212/242
f 67/52/146 68/51/145 84/212/242 85/211/243
f 70/57/152 67/52/146 85/211/243 86/210/244
f 71/59/155 70/57/152 86/210/244 87/209/245
f 72/61/158 71/59/155 87/209/245 88/208/246
f 73/63/161 72/61/158 88/208/246 89/184/247
f 74/65/164 73/63/161 89/184/247 90/183/248
f 75/67/167 74/65/164 90/183/248 91/182/249
f 76/69/170 75/67/167 91/182/249 92/181/250
f 77/71/173 76/69/170 92/181/250 93/179/251
f 78/73/176 77/71/173 93/179/251 94/180/252
f 79/75/179 78/73/176 94/180/252 95/176/253
f 80/77/182 79/164/179 95/163/253 96/168/254
f 81/79/185 80/77/182 96/168/254 97/207/255
f 82/81/188 81/79/185 97/207/255 98/205/256
f 69/56/151 82/81/188 98/205/256 83/206/241
f 84/84/242 83/83/241 99/99/257 100/100/258
f 85/85/243 84/84/242 100/100/258 101/101/259
f 86/86/244 85/85/243 101/101/259 102/102/260
f 87/87/245 86/86/244 102/102/260 103/103/261
f 88/88/246 87/87/245 103/103/261 104/104/262
f 89/89/247 88/178/246 104/104/262 105/105/263
f 90/90/248 89/89/247 105/105/263 106/106/264
f 91/91/249 90/90/248 106/106/264 107/107/265
f 92/92/250 91/91/249 107/107/265 108/108/266
f 93/93/251 92/92/250 108/108/266 109/109/267
f 94/94/252 93/93/251 109/109/267 110/110/268
f 95/95/253 94/175/252 110/174/268 111/111/269
f 96/96/254 95/95/253 111/111/269 112/112/270
f 97/97/255 96/96/254 112/112/270 113/113/271
f 98/98/256 97/97/255 113/113/271 114/114/272
f 83/83/241 98/98/256 114/114/272 99/99/257
f 100/100/258 99/99/257 115/115/273 116/116/274
f 101/101/259 100/100/258 116/116/274 117/117/275
f 102/102/260 101/101/259 117/117/275 118/118/276
f 103/103/261 102/102/260 118/118/276 119/119/277
f 104/104/262 103/103/261 119/119/277 120/120/278
f 105/105/263 104/104/262 120/120/278 121/121/279
f 106/106/264 105/105/263 121/121/279 122/122/280
f 107/107/265 106/106/264 122/122/280 123/186/281
f 108/108/266 107/107/265 123/123/281 124/124/282
f 109/109/267 108/108/266 124/124/282 125/125/283
f 110/110/268 109/109/267 125/125/283 126/173/284
f 111/111/269 110/174/268 126/126/284 127/127/285
f 112/112/270 111/111/269 127/127/285 128/128/286
f 113/113/271 112/112/270 128/128/286 129/129/287
f 114/114/272 113/113/271 129/129/287 130/130/288
f 99/99/257 114/114/272 130/130/288 115/115/273
f 116/116/274 115/115/273 131/131/289 132/132/290
f 117/117/275 116/116/274 132/132/290 133/133/291
f 118/118/276 117/117/275 133/133/291 134/134/292
f 119/119/277 118/118/276 134/134/292 135/135/293
f 120/120/278 119/119/277 135/135/293 136/136/294
f 121/121/279 120/120/278 136/136/294 137/137/295
f 122/122/280 121/121/279 137/137/295 138/138/296
f 123/186/281 122/122/280 138/138/296 139/185/297
f 124/124/282 123/123/281 139/139/297 140/140/298
f 125/125/283 124/124/282 140/140/298 141/141/299
f 126/173/284 125/125/283 141/141/299 142/172/300
f 127/127/285 126/126/284 142/142/300 143/143/301
f 128/128/286 127/127/285 143/143/301 144/144/302
f 129/129/287 128/128/286 144/144/302 145/145/303
f 130/130/288 129/129/287 145/145/303 146/146/304
f 115/115/273 130/130/288 146/146/304 131/131/289
f 132/132/290 131/131/289 147/147/305 148/148/306
f 133/133/291 132/132/290 148/148/306 149/149/307
f 134/134/292 133/133/291 149/149/307 150/150/308
f 135/135/293 134/134/292 150/150/308 151/151/309
f 136/136/294 135/135/293 151/151/309 152/152/310
f 137/137/295 136/136/294 152/152/310 153/153/311
f 138/138/296 137/137/295 153/153/311 154/154/312
f 139/185/297 138/138/296 154/154/312 155/155/313
f 140/140/298 139/139/297 155/155/313 156/156/314
f 141/141/299 140/140/298 156/156/314 157/157/315
f 142/172/300 141/141/299 157/157/315 158/170/316
f 143/143/301 142/142/300 158/158/316 159/159/317
f 144/144/302 143/143/301 159/159/317 160/160/318
f 145/145/303 144/144/302 160/160/318 161/161/319
f 146/146/304 145/145/303 161/161/319 162/162/320
f 131/131/289 146/146/304 162/162/320 147/147/305
f 148/148/306 147/147/305 28/14/321 27/10/322
f 149/149/307 148/148/306 27/10/322 26/13/323
f 150/150/308 149/149/307 26/13/323 29/17/324
f 151/151/309 150/150/308 29/17/324 30/19/325
f 152/152/310 151/151/309 30/19/325 31/21/326
f 153/153/311 152/152/310 31/21/326 32/23/327
f 154/154/312 153/153/311 32/23/327 33/25/328
f 155/155/313 154/154/312 33/25/328 34/27/329
f 156/156/314 155/155/313 34/27/329 35/29/330
f 157/157/315 156/156/314 35/29/330 36/31/331
f 158/170/316 157/157/315 36/31/331 37/171/332
f 159/159/317 158/158/316 37/33/332 38/35/333
f 160/160/318 159/159/317 38/35/333 39/37/334
f 161/161/319 160/160/318 39/37/334 40/39/335
f 162/162/320 161/161/319 40/39/335 41/41/336
f 147/147/305 162/162/320 41/41/336 28/14/321
