# This file uses centimeters as units for non-parametric coordinates.

v -0.054604 -0.035469 1.426624
v -0.054604 -0.035469 1.413234
v -0.049404 -0.045699 1.413234
v -0.049404 -0.045699 1.426624
v -0.004586 -0.045699 1.429083
v -0.012097 -0.045699 1.427132
v -0.013390 -0.045699 1.413172
v -0.008141 -0.035659 1.410636
v -0.003037 -0.035659 1.419929
v -0.049404 0.045699 1.426624
v -0.049404 0.045699 1.413234
v -0.054604 0.035469 1.413234
v -0.054604 0.035469 1.426624
v -0.003037 0.035659 1.419929
v -0.008141 0.035848 1.410811
v -0.013169 0.045699 1.413456
v -0.012097 0.045699 1.427132
v -0.004586 0.045699 1.429083
v -0.054604 0.035469 0.919355
v -0.049404 0.045699 0.919355
v -0.049404 0.035469 0.909886
v -0.013340 0.035469 0.909886
v -0.013340 0.045699 0.919355
v -0.008141 0.035469 0.919355
v -0.054604 -0.035469 0.919355
v -0.049404 -0.035469 0.909886
v -0.049404 -0.045699 0.919355
v -0.013340 -0.045699 0.919355
v -0.013340 -0.035469 0.909886
v -0.008141 -0.035469 0.919355
v -0.054604 -0.035469 1.489198
v -0.049404 -0.045699 1.489198
v -0.049404 -0.035469 1.498667
v -0.004464 -0.035469 1.498667
v -0.011818 -0.035469 1.498667
v -0.011818 -0.045699 1.489198
v -0.004464 -0.045699 1.489198
v -0.004464 0.045699 1.489198
v -0.011818 0.045699 1.489198
v -0.011818 0.035469 1.498667
v -0.004464 0.035469 1.498667
v -0.049404 0.035469 1.498667
v -0.049404 0.045699 1.489198
v -0.054604 0.035469 1.489198
v 0.061519 -0.045699 1.429398
v 0.061519 -0.035469 1.419929
v 0.066723 -0.035469 1.429398
v 0.061519 0.035469 1.419929
v 0.061519 0.045699 1.429398
v 0.061519 0.045699 1.489198
v 0.061519 0.035469 1.498667
v 0.066723 -0.035469 1.489198
v 0.061519 -0.035469 1.498667
v 0.006771 -0.045699 1.489198
v 0.034145 -0.040584 1.493932
v -0.004464 -0.040584 1.493932
v -0.011818 -0.040584 1.493932
v -0.049404 -0.040584 1.493932
v -0.052002 -0.040584 1.489198
v -0.052002 -0.040584 1.426624
v -0.052002 -0.040584 1.413234
v -0.052002 -0.040584 0.919355
v -0.049404 -0.040584 0.914621
v -0.013340 -0.040584 0.914621
v -0.010743 -0.040584 0.919355
v -0.010765 -0.040679 1.411904
v -0.008141 0.000095 1.410724
v -0.008141 0.000000 0.919355
v -0.013340 0.000000 0.909886
v -0.049404 0.000000 0.909886
v -0.054604 0.000000 0.919355
v -0.054604 0.000000 1.413234
v -0.054604 0.000000 1.426624
v -0.054604 0.000000 1.489198
v -0.049404 0.000000 1.498667
v -0.011818 0.000000 1.498667
v -0.004464 0.000000 1.498667
v 0.061519 0.000000 1.498667
v 0.220825 0.039049 0.887798
v 0.198703 0.072152 0.887798
v 0.165600 0.094272 0.887798
v 0.126552 0.102039 0.887798
v 0.087505 0.094272 0.887798
v 0.054397 0.072152 0.887798
v 0.032276 0.039049 0.887798
v 0.024513 0.000000 0.887798
v 0.032276 -0.039049 0.887798
v 0.054397 -0.072152 0.887798
v 0.087505 -0.094272 0.887798
v 0.126552 -0.102039 0.887798
v 0.165600 -0.094272 0.887798
v 0.198703 -0.072152 0.887798
v 0.220825 -0.039049 0.887798
v 0.228584 0.000000 0.887798
v 0.126552 0.000000 -0.887798
v 0.220825 0.039048 -0.866074
v 0.200363 0.030572 -0.887798
v 0.198703 0.072152 -0.866074
v 0.183040 0.056490 -0.887798
v 0.165600 0.094272 -0.866074
v 0.157127 0.073808 -0.887798
v 0.126552 0.102039 -0.866074
v 0.126552 0.079889 -0.887798
v 0.087505 0.094272 -0.866074
v 0.095981 0.073808 -0.887798
v 0.054397 0.072152 -0.866074
v 0.070060 0.056490 -0.887798
v 0.032276 0.039049 -0.866074
v 0.052738 0.030572 -0.887798
v 0.024513 0.000000 -0.866074
v 0.046657 0.000000 -0.887798
v 0.032276 -0.039049 -0.866074
v 0.052738 -0.030572 -0.887798
v 0.054397 -0.072152 -0.866074
v 0.070060 -0.056490 -0.887798
v 0.087505 -0.094272 -0.866074
v 0.095981 -0.073808 -0.887798
v 0.126552 -0.102039 -0.866074
v 0.126552 -0.079889 -0.887798
v 0.165600 -0.094272 -0.866074
v 0.157127 -0.073808 -0.887798
v 0.198703 -0.072152 -0.866074
v 0.183040 -0.056490 -0.887798
v 0.220825 -0.039049 -0.866074
v 0.200363 -0.030572 -0.887798
v 0.228584 0.000000 -0.866074
v 0.206443 0.000000 -0.887798
v 0.126552 0.000000 1.547010
v 0.237823 0.046093 0.874329
v 0.224796 0.040696 0.860497
v 0.211719 0.085168 0.874329
v 0.201748 0.075196 0.860497
v 0.172638 0.111278 0.874329
v 0.167247 0.098249 0.860497
v 0.126552 0.120446 0.874329
v 0.126552 0.106344 0.860497
v 0.080459 0.111278 0.874329
v 0.085853 0.098249 0.860497
v 0.041385 0.085168 0.874329
v 0.051349 0.075196 0.860498
v 0.015274 0.046093 0.874329
v 0.028305 0.040696 0.860497
v 0.006107 0.000000 0.874329
v 0.020210 0.000000 0.860497
v 0.015274 -0.046093 0.874329
v 0.028305 -0.040696 0.860497
v 0.041385 -0.085168 0.874329
v 0.051349 -0.075196 0.860497
v 0.080459 -0.111278 0.874329
v 0.085853 -0.098249 0.860497
v 0.126552 -0.120446 0.874329
v 0.126552 -0.106344 0.860497
v 0.172638 -0.111278 0.874329
v 0.167247 -0.098249 0.860497
v 0.211719 -0.085168 0.874329
v 0.201748 -0.075196 0.860497
v 0.237823 -0.046093 0.874329
v 0.224796 -0.040696 0.860497
v 0.246994 0.000000 0.874329
v 0.232895 0.000000 0.860497
v 0.237823 0.046093 1.533179
v 0.224796 0.040696 1.547010
v 0.211719 0.085168 1.533179
v 0.201748 0.075196 1.547010
v 0.172638 0.111278 1.533179
v 0.167247 0.098249 1.547010
v 0.126552 0.120446 1.533179
v 0.126552 0.106344 1.547010
v 0.080459 0.111278 1.533179
v 0.085853 0.098249 1.547010
v 0.041385 0.085168 1.533179
v 0.051349 0.075196 1.547010
v 0.015274 0.046093 1.533179
v 0.028305 0.040696 1.547010
v 0.006107 0.000000 1.533179
v 0.020210 0.000000 1.547010
v 0.015274 -0.046093 1.533179
v 0.028305 -0.040696 1.547010
v 0.041385 -0.085168 1.533179
v 0.051349 -0.075196 1.547010
v 0.080459 -0.111278 1.533179
v 0.085853 -0.098249 1.547010
v 0.126552 -0.120446 1.533179
v 0.126552 -0.106344 1.547010
v 0.172638 -0.111278 1.533179
v 0.167247 -0.098249 1.547010
v 0.211719 -0.085168 1.533179
v 0.201748 -0.075196 1.547010
v 0.237823 -0.046093 1.533179
v 0.224796 -0.040696 1.547010
v 0.246994 0.000000 1.533179
v 0.232895 0.000000 1.547010
v 0.149765 0.023212 0.860497
v 0.135406 0.021370 0.860498
v 0.126552 0.020236 0.860497
v 0.118591 0.019215 0.860498
v 0.108616 0.017936 0.860497
v 0.089248 0.015452 0.860497
v 0.089966 0.000000 0.860497
v 0.090656 -0.014869 0.860497
v 0.091591 -0.034960 0.860497
v 0.112415 -0.034130 0.860497
v 0.126552 -0.033566 0.860497
v 0.140228 -0.033020 0.860497
v 0.158832 -0.032278 0.860497
v 0.158157 -0.013092 0.860497
v 0.157699 0.000000 0.860497
v 0.157249 0.012716 0.860497
vt 0.623697 0.588347
vt 0.630936 0.590402
vt 0.622840 0.615688
vt 0.618563 0.613879
vt 0.622528 0.580837
vt 0.583803 0.590920
vt 0.582790 0.585195
vt 0.670734 0.054393
vt 0.579712 0.317105
vt 0.585743 0.315819
vt 0.652299 0.048319
vt 0.654333 0.041066
vt 0.653524 0.611928
vt 0.347703 0.007271
vt 0.648914 0.008732
vt 0.340537 0.041332
vt 0.630058 0.633672
vt 0.628838 0.630542
vt 0.646004 0.047684
vt 0.556067 0.295044
vt 0.550066 0.296252
vt 0.607075 0.045174
vt 0.606380 0.039433
vt 0.577695 0.593074
vt 0.590711 0.615147
vt 0.586394 0.616833
vt 0.576390 0.586477
vt 0.597510 0.041436
vt 0.557022 0.591857
vt 0.542328 0.331814
vt 0.547704 0.330899
vt 0.599127 0.037653
vt 0.538698 0.646771
vt 0.612553 0.004008
vt 0.520299 0.324631
vt 0.525097 0.327936
vt 0.580131 0.630294
vt 0.578875 0.633208
vt 0.544811 0.328004
vt 0.573719 0.310958
vt 0.527524 0.323127
vt 0.553580 0.300079
vt 0.618192 0.618280
vt 0.590956 0.619824
vt 0.622715 0.633850
vt 0.623492 0.636739
vt 0.631635 0.638803
vt 0.629896 0.668279
vt 0.586029 0.636394
vt 0.586763 0.633408
vt 0.580821 0.668151
vt 0.571639 0.665181
vt 0.670521 0.655095
vt 0.636980 0.669226
vt 0.631170 0.653347
vt 0.626932 0.635367
vt 0.625860 0.632346
vt 0.620501 0.617016
vt 0.620748 0.614694
vt 0.627275 0.589234
vt 0.625656 0.580649
vt 0.582697 0.316408
vt 0.573944 0.307559
vt 0.554708 0.297386
vt 0.552849 0.294554
vt 0.649131 0.048008
vt 0.355058 0.114779
vt 0.534469 0.309062
vt 0.539849 0.311146
vt 0.558218 0.319708
vt 0.563113 0.323718
vt 0.602697 0.581855
vt 0.603415 0.587172
vt 0.604442 0.615002
vt 0.604550 0.620102
vt 0.604921 0.636955
vt 0.604894 0.640319
vt 0.605385 0.670677
vt 0.626337 0.046367
vt 0.550813 0.590921
vt 0.340537 0.127517
vt 0.371563 0.099517
vt 0.350352 0.022212
vt 0.646088 0.042044
vt 0.556051 0.609177
vt 0.558270 0.603689
vt 0.601390 0.047512
vt 0.605417 0.002441
vt 0.369717 0.102031
vt 0.347886 0.041308
vt 0.357703 0.021430
vt 0.580658 0.313352
vt 0.574258 0.303983
vt 0.651422 0.606943
vt 0.341225 0.002443
vt 0.340537 0.006477
vt 0.670734 0.648346
vt 0.350352 0.002541
vt 0.628761 0.580466
vt 0.357412 0.002445
vt 0.338310 0.927170
vt 0.336032 0.943368
vt 0.319595 0.943369
vt 0.317318 0.927170
vt 0.004722 0.943367
vt 0.002441 0.927170
vt 0.023432 0.927170
vt 0.021157 0.943366
vt 0.315039 0.943369
vt 0.298605 0.943368
vt 0.296326 0.927170
vt 0.294049 0.943368
vt 0.277614 0.943368
vt 0.275335 0.927170
vt 0.273057 0.943368
vt 0.256622 0.943368
vt 0.254343 0.927170
vt 0.252066 0.943368
vt 0.235629 0.943368
vt 0.233350 0.927170
vt 0.231072 0.943369
vt 0.214636 0.943368
vt 0.212358 0.927170
vt 0.210077 0.943367
vt 0.193642 0.943366
vt 0.191367 0.927170
vt 0.189091 0.943366
vt 0.172656 0.943367
vt 0.170376 0.927170
vt 0.168097 0.943368
vt 0.151661 0.943369
vt 0.149383 0.927170
vt 0.147104 0.943368
vt 0.130668 0.943368
vt 0.128390 0.927170
vt 0.126112 0.943368
vt 0.109676 0.943368
vt 0.107398 0.927170
vt 0.105119 0.943368
vt 0.088684 0.943368
vt 0.086408 0.927170
vt 0.084128 0.943368
vt 0.067694 0.943368
vt 0.065416 0.927170
vt 0.063138 0.943369
vt 0.046702 0.943368
vt 0.044423 0.927170
vt 0.042143 0.943367
vt 0.025708 0.943366
vt 0.317318 0.002445
vt 0.338310 0.002445
vt 0.296326 0.002445
vt 0.275335 0.002445
vt 0.254343 0.002445
vt 0.233350 0.002445
vt 0.212358 0.002445
vt 0.191367 0.002445
vt 0.170376 0.002445
vt 0.149383 0.002445
vt 0.128390 0.002445
vt 0.107398 0.002445
vt 0.086408 0.002445
vt 0.065416 0.002445
vt 0.044423 0.002445
vt 0.023432 0.002445
vt 0.002441 0.002445
vt 0.755804 0.051974
vt 0.749517 0.067160
vt 0.714492 0.043759
vt 0.755804 0.035539
vt 0.749514 0.020355
vt 0.737892 0.008734
vt 0.722707 0.002446
vt 0.706270 0.002445
vt 0.691087 0.008736
vt 0.679466 0.020357
vt 0.673179 0.035544
vt 0.673180 0.051979
vt 0.679470 0.067163
vt 0.691092 0.078784
vt 0.706277 0.085072
vt 0.722713 0.085072
vt 0.737896 0.078781
vt 0.987245 0.167980
vt 0.997559 0.169431
vt 0.997558 0.191306
vt 0.987245 0.192758
vt 0.997559 0.562980
vt 0.987245 0.564430
vt 0.987245 0.539652
vt 0.997556 0.541102
vt 0.997558 0.194209
vt 0.997557 0.216086
vt 0.987245 0.217538
vt 0.997558 0.218986
vt 0.997558 0.240862
vt 0.987245 0.242313
vt 0.997558 0.243764
vt 0.997558 0.265644
vt 0.987245 0.267092
vt 0.997557 0.268545
vt 0.997557 0.290422
vt 0.987245 0.291869
vt 0.997556 0.293322
vt 0.997558 0.315197
vt 0.987245 0.316649
vt 0.997559 0.318099
vt 0.997559 0.339977
vt 0.987245 0.341427
vt 0.997559 0.342878
vt 0.997559 0.364755
vt 0.987245 0.366205
vt 0.997558 0.367657
vt 0.997556 0.389532
vt 0.987245 0.390985
vt 0.997557 0.392432
vt 0.997557 0.414309
vt 0.987245 0.415762
vt 0.997558 0.417210
vt 0.997558 0.439090
vt 0.987245 0.440541
vt 0.997558 0.441992
vt 0.997558 0.463868
vt 0.987245 0.465316
vt 0.997557 0.466768
vt 0.997558 0.488645
vt 0.987245 0.490097
vt 0.997558 0.491548
vt 0.997559 0.513423
vt 0.987245 0.514874
vt 0.997559 0.516324
vt 0.997556 0.538202
vt 0.639868 0.564430
vt 0.629554 0.562980
vt 0.629556 0.541102
vt 0.639868 0.539652
vt 0.629554 0.169431
vt 0.639868 0.167980
vt 0.639868 0.192758
vt 0.629554 0.191306
vt 0.629554 0.194209
vt 0.639868 0.217538
vt 0.629555 0.216086
vt 0.629555 0.218986
vt 0.639868 0.242313
vt 0.629554 0.240862
vt 0.629554 0.243764
vt 0.639868 0.267092
vt 0.629555 0.265644
vt 0.629555 0.268545
vt 0.639868 0.291869
vt 0.629556 0.290422
vt 0.629556 0.293322
vt 0.639868 0.316649
vt 0.629554 0.315197
vt 0.629554 0.318099
vt 0.639868 0.341427
vt 0.629554 0.339977
vt 0.629554 0.342878
vt 0.639868 0.366205
vt 0.629554 0.364755
vt 0.629554 0.367657
vt 0.639868 0.390985
vt 0.629556 0.389532
vt 0.629556 0.392432
vt 0.639868 0.415762
vt 0.629555 0.414309
vt 0.629555 0.417210
vt 0.639868 0.440541
vt 0.629554 0.439090
vt 0.629554 0.441992
vt 0.639868 0.465316
vt 0.629555 0.463868
vt 0.629555 0.466768
vt 0.639868 0.490097
vt 0.629554 0.488645
vt 0.629554 0.491548
vt 0.639868 0.514874
vt 0.629554 0.513423
vt 0.629554 0.516324
vt 0.629556 0.538202
vt 0.425000 0.002445
vt 0.445214 0.010814
vt 0.423684 0.043046
vt 0.416448 0.045477
vt 0.403124 0.002448
vt 0.411988 0.046975
vt 0.382911 0.010824
vt 0.407977 0.048322
vt 0.367444 0.026295
vt 0.402950 0.050010
vt 0.359077 0.046508
vt 0.393190 0.053288
vt 0.359081 0.068385
vt 0.395152 0.061205
vt 0.367456 0.088596
vt 0.397040 0.068822
vt 0.382925 0.104064
vt 0.399591 0.079115
vt 0.403138 0.112433
vt 0.410273 0.076542
vt 0.425018 0.112429
vt 0.417526 0.074795
vt 0.445228 0.104054
vt 0.424542 0.073105
vt 0.460695 0.088582
vt 0.434085 0.070807
vt 0.469061 0.068369
vt 0.431761 0.060955
vt 0.469061 0.046492
vt 0.430176 0.054232
vt 0.460683 0.026282
vt 0.428636 0.047703
vt 0.581396 0.046507
vt 0.581396 0.068383
vt 0.526406 0.057438
vt 0.573021 0.088594
vt 0.557551 0.104061
vt 0.537336 0.112433
vt 0.515458 0.112430
vt 0.495250 0.104054
vt 0.479783 0.088583
vt 0.471412 0.068370
vt 0.471412 0.046494
vt 0.479787 0.026283
vt 0.495260 0.010814
vt 0.515472 0.002445
vt 0.537350 0.002447
vt 0.557558 0.010823
vt 0.573029 0.026293
vt 0.445214 0.010814
vt 0.423684 0.043046
vn -0.891420 -0.453179 0.000000
vn -0.891585 -0.452853 0.000000
vn -0.891543 -0.452936 0.000000
vn -0.891409 -0.453200 0.000000
vn -1.000000 0.000000 0.000000
vn -1.000000 0.000000 0.000000
vn -1.000000 0.000000 0.000000
vn -1.000000 0.000000 0.000000
vn -0.891775 -0.452478 0.000000
vn -0.891502 -0.453016 0.000000
vn -0.891503 -0.453014 0.000000
vn -0.891775 -0.452479 0.000000
vn 0.000000 -1.000000 -0.000000
vn 0.000000 -1.000000 0.000000
vn 0.000000 -1.000000 0.000000
vn 0.000000 -1.000000 -0.000000
vn 0.013240 -0.677297 -0.735590
vn 0.053749 -0.696249 -0.715785
vn 0.002757 -0.676647 -0.736302
vn 0.002757 -0.676647 -0.736302
vn 0.000000 -1.000000 0.000000
vn 0.000000 -1.000000 0.000000
vn 0.000000 -1.000000 -0.000000
vn 0.888453 -0.458962 -0.002282
vn 0.888566 -0.458740 -0.002861
vn 0.888972 -0.457962 0.000021
vn 0.888730 -0.458432 -0.000045
vn 0.874562 0.000634 -0.484913
vn 0.874562 0.000634 -0.484913
vn 0.874562 0.000634 -0.484913
vn 0.874562 0.000634 -0.484913
vn 0.874562 0.000634 -0.484913
vn -0.891420 0.453179 0.000000
vn -0.891420 0.453179 0.000000
vn -0.891409 0.453200 0.000000
vn -0.891409 0.453200 0.000000
vn 0.000000 1.000000 0.000000
vn 0.000000 1.000000 0.000000
vn 0.000000 1.000000 0.000000
vn 0.000000 1.000000 0.000000
vn -0.891503 0.453016 0.000000
vn -0.891503 0.453016 0.000000
vn -0.891503 0.453014 0.000000
vn -0.891503 0.453014 0.000000
vn 0.064070 0.680240 -0.730184
vn 0.025039 0.691571 -0.721874
vn 0.002758 0.676652 -0.736298
vn 0.002758 0.676652 -0.736298
vn 0.891091 0.453825 -0.000330
vn 0.891091 0.453825 -0.000330
vn 0.891091 0.453825 -0.000330
vn 0.891091 0.453825 -0.000330
vn 0.000000 1.000000 -0.000000
vn 0.000000 1.000000 -0.000000
vn 0.000000 1.000000 -0.000000
vn -0.876538 0.000000 -0.481333
vn -0.876538 0.000000 -0.481333
vn -0.876538 0.000000 -0.481333
vn -0.876538 0.000000 -0.481333
vn 0.000000 0.679274 -0.733884
vn 0.000000 0.679274 -0.733884
vn 0.000000 0.679274 -0.733884
vn 0.000000 0.679274 -0.733884
vn 0.876538 0.000000 -0.481333
vn 0.876538 0.000000 -0.481333
vn 0.876538 0.000000 -0.481333
vn 0.876538 0.000000 -0.481333
vn 0.000000 -0.679274 -0.733884
vn 0.000000 -0.679274 -0.733884
vn 0.000000 -0.679274 -0.733884
vn 0.000000 -0.679274 -0.733884
vn -0.876538 0.000000 0.481333
vn -0.876538 0.000000 0.481333
vn -0.876538 0.000000 0.481333
vn -0.876538 0.000000 0.481333
vn 0.000000 -0.679257 0.733901
vn 0.000000 -0.679257 0.733901
vn 0.000000 -0.679268 0.733891
vn 0.000000 -0.679268 0.733891
vn 0.000000 -0.679285 0.733875
vn 0.000000 -0.679292 0.733868
vn 0.000000 -0.679282 0.733877
vn 0.000000 -0.679276 0.733883
vn 0.000000 0.000000 1.000000
vn 0.000000 0.000000 1.000000
vn 0.000000 0.000000 1.000000
vn 0.000000 0.000000 1.000000
vn 0.000000 0.679271 0.733887
vn 0.000000 0.679271 0.733887
vn 0.000000 0.679265 0.733893
vn 0.000000 0.679265 0.733893
vn 0.000000 0.679268 0.733891
vn 0.000000 0.679268 0.733891
vn 0.000000 0.679257 0.733901
vn 0.000000 0.679257 0.733901
vn 0.296784 -0.945231 0.135856
vn 0.296785 -0.945231 0.135856
vn 0.296785 -0.945231 0.135856
vn 0.296785 -0.945231 0.135856
vn 0.000000 0.000000 1.000000
vn 0.000000 0.000000 1.000000
vn 0.000000 1.000000 0.000000
vn 0.000000 1.000000 0.000000
vn 0.000000 0.000000 -1.000000
vn 0.000000 0.000000 -1.000000
vn 0.000000 0.000000 -1.000000
vn 0.000000 0.000000 -1.000000
vn 0.000000 -1.000000 0.000000
vn 0.000000 -1.000000 0.000000
vn 1.000000 0.000040 0.000000
vn 1.000000 0.000040 0.000000
vn 1.000000 0.000040 0.000000
vn 1.000000 0.000040 0.000000
vn -1.000000 0.000000 0.000000
vn -1.000000 0.000000 0.000000
vn 0.000000 -1.000000 -0.000000
vn 0.000000 1.000000 -0.000000
vn -1.000000 0.000000 0.000000
vn -1.000000 0.000000 0.000000
vn 0.000000 0.000000 -1.000000
vn 0.000000 0.000000 -1.000000
vn 0.000000 0.000000 -1.000000
vn 0.000000 0.000000 -1.000000
vn 0.000000 1.000000 0.000000
vn 0.000000 1.000000 0.000000
vn 0.000000 0.000000 1.000000
vn 0.000000 0.000000 1.000000
vn 0.000000 -1.000000 0.000000
vn 0.000000 -1.000000 0.000000
vn 0.575698 -0.696067 -0.429026
vn 0.885790 -0.464055 -0.005468
vn 0.881065 0.467926 -0.069063
vn 0.373964 0.831454 -0.410895
vn 0.730033 0.617807 -0.292175
vn -0.800507 0.407381 -0.439579
vn -0.800507 0.407381 -0.439579
vn -0.800507 0.407381 -0.439579
vn 0.800668 0.406970 -0.439667
vn 0.800668 0.406970 -0.439667
vn 0.800668 0.406970 -0.439667
vn -0.800550 -0.407435 -0.439451
vn -0.800527 -0.407474 -0.439456
vn -0.800781 -0.407028 -0.439407
vn 0.801102 -0.406205 -0.439583
vn 0.800661 -0.407133 -0.439529
vn 0.800700 -0.407051 -0.439534
vn -0.800635 -0.407216 0.439498
vn -0.800781 -0.407028 0.439407
vn -0.800621 -0.407234 0.439507
vn -0.800507 0.407381 0.439579
vn -0.800507 0.407381 0.439579
vn -0.800507 0.407381 0.439579
vn 0.167492 -0.981568 0.092041
vn 0.167492 -0.981568 0.092041
vn 0.167492 -0.981568 0.092041
vn 0.167492 -0.981568 0.092041
vn 0.000000 -0.679281 0.733878
vn 0.000000 -0.679275 0.733883
vn 0.000000 -0.679268 0.733891
vn 0.000000 -0.679257 0.733901
vn -0.800598 -0.407263 0.439522
vn -0.800598 -0.407263 0.439522
vn -0.891254 -0.453505 0.000000
vn -0.891275 -0.453464 0.000000
vn -0.891230 -0.453553 0.000000
vn -0.891231 -0.453549 0.000000
vn -0.800491 -0.407537 -0.439463
vn -0.800491 -0.407537 -0.439463
vn 0.000000 -0.679274 -0.733884
vn 0.000000 -0.679274 -0.733884
vn 0.800598 -0.407263 -0.439521
vn 0.800598 -0.407263 -0.439521
vn 0.888487 -0.458903 -0.000112
vn 1.000000 0.000040 0.000000
vn 1.000000 0.000040 0.000000
vn 0.876538 0.000000 -0.481333
vn 0.876538 0.000000 -0.481333
vn 0.000000 0.000000 -1.000000
vn 0.000000 0.000000 -1.000000
vn -0.876538 0.000000 -0.481333
vn -0.876538 0.000000 -0.481333
vn -1.000000 0.000000 0.000000
vn -1.000000 0.000000 0.000000
vn -1.000000 0.000000 0.000000
vn -1.000000 0.000000 0.000000
vn -0.876538 0.000000 0.481333
vn -0.876538 0.000000 0.481333
vn 0.000000 0.000000 1.000000
vn 0.000000 0.000000 1.000000
vn 0.000000 0.000000 1.000000
vn 0.000000 0.000000 1.000000
vn 0.646945 0.267976 -0.713899
vn 0.646946 0.267972 -0.713899
vn 0.495132 0.495122 -0.713932
vn 0.495136 0.495117 -0.713932
vn 0.700304 -0.000001 -0.713844
vn 0.700304 -0.000001 -0.713844
vn 0.267982 0.646908 -0.713930
vn 0.267962 0.646917 -0.713930
vn -0.000001 0.700230 -0.713917
vn 0.000000 0.700230 -0.713917
vn -0.267950 0.646920 -0.713931
vn -0.267953 0.646919 -0.713931
vn -0.495085 0.495166 -0.713934
vn -0.495093 0.495157 -0.713934
vn -0.646931 0.267962 -0.713916
vn -0.646931 0.267964 -0.713916
vn -0.700269 -0.000025 -0.713879
vn -0.700269 -0.000025 -0.713879
vn -0.646929 -0.267961 -0.713919
vn -0.646928 -0.267963 -0.713919
vn -0.495090 -0.495146 -0.713944
vn -0.495099 -0.495138 -0.713944
vn -0.267951 -0.646921 -0.713930
vn -0.267953 -0.646919 -0.713930
vn -0.000001 -0.700231 -0.713917
vn -0.000000 -0.700231 -0.713917
vn 0.267982 -0.646908 -0.713930
vn 0.267962 -0.646916 -0.713930
vn 0.495131 -0.495122 -0.713933
vn 0.495135 -0.495117 -0.713933
vn 0.646946 -0.267971 -0.713899
vn 0.646944 -0.267976 -0.713899
vn 0.923907 0.382616 -0.000000
vn 0.707103 0.707110 -0.000000
vn 0.707103 0.707110 -0.000000
vn 0.923907 0.382617 -0.000000
vn 0.382694 0.923875 0.000000
vn 0.382694 0.923875 0.000000
vn 0.000004 1.000000 0.000000
vn 0.000005 1.000000 0.000000
vn -0.382656 0.923891 0.000000
vn -0.382656 0.923891 0.000000
vn -0.707074 0.707140 0.000000
vn -0.707074 0.707139 0.000000
vn -0.923888 0.382662 0.000000
vn -0.923888 0.382662 0.000000
vn -1.000000 0.000056 0.000000
vn -1.000000 0.000056 0.000000
vn -0.923908 -0.382616 0.000000
vn -0.923908 -0.382616 0.000000
vn -0.707076 -0.707138 0.000000
vn -0.707076 -0.707138 0.000000
vn -0.382657 -0.923891 0.000000
vn -0.382657 -0.923891 0.000000
vn 0.000000 -1.000000 0.000000
vn -0.000000 -1.000000 0.000000
vn 0.382696 -0.923874 0.000000
vn 0.382696 -0.923874 0.000000
vn 0.707103 -0.707110 0.000000
vn 0.707103 -0.707110 0.000000
vn 0.923907 -0.382616 0.000000
vn 0.923907 -0.382616 0.000000
vn 1.000000 0.000000 -0.000000
vn 1.000000 -0.000000 -0.000000
vn 0.000000 0.000000 -1.000000
vn 0.000000 -0.000001 -1.000000
vn 0.000000 -0.000000 -1.000000
vn 0.000000 0.000000 -1.000000
vn 0.000000 0.000000 -1.000000
vn 0.000000 0.000000 -1.000000
vn -0.000001 0.000000 -1.000000
vn -0.000000 0.000000 -1.000000
vn 0.000000 0.000000 -1.000000
vn 0.000000 0.000000 -1.000000
vn 0.000000 0.000000 -1.000000
vn 0.000000 -0.000000 -1.000000
vn 0.000000 -0.000001 -1.000000
vn 0.000000 -0.000001 -1.000000
vn 0.000001 -0.000001 -1.000000
vn 0.000001 0.000000 -1.000000
vn 0.000000 0.000000 -1.000000
vn 0.646964 0.267980 -0.713880
vn 0.646967 0.267973 -0.713880
vn 0.495149 0.495177 -0.713882
vn 0.495145 0.495181 -0.713882
vn 0.700279 -0.000000 -0.713870
vn 0.700279 0.000000 -0.713870
vn 0.268006 0.646928 -0.713903
vn 0.267956 0.646948 -0.713903
vn 0.000001 0.700225 -0.713922
vn -0.000001 0.700225 -0.713922
vn -0.267976 0.646967 -0.713879
vn -0.267955 0.646975 -0.713879
vn -0.495208 0.495134 -0.713871
vn -0.495170 0.495172 -0.713871
vn -0.646939 0.267962 -0.713909
vn -0.646940 0.267961 -0.713909
vn -0.700188 -0.000000 -0.713959
vn -0.700188 0.000000 -0.713959
vn -0.646941 -0.267962 -0.713908
vn -0.646941 -0.267961 -0.713908
vn -0.495209 -0.495133 -0.713871
vn -0.495171 -0.495171 -0.713870
vn -0.267975 -0.646966 -0.713880
vn -0.267954 -0.646974 -0.713880
vn 0.000001 -0.700222 -0.713925
vn -0.000001 -0.700222 -0.713925
vn 0.268004 -0.646926 -0.713905
vn 0.267955 -0.646947 -0.713905
vn 0.495148 -0.495177 -0.713882
vn 0.495144 -0.495181 -0.713882
vn 0.646967 -0.267973 -0.713880
vn 0.646963 -0.267980 -0.713880
vn 0.646971 0.267948 0.713886
vn 0.646974 0.267940 0.713886
vn 0.700279 -0.000011 0.713869
vn 0.700279 -0.000011 0.713869
vn 0.495143 0.495182 0.713883
vn 0.495148 0.495177 0.713883
vn 0.267949 0.646965 0.713891
vn 0.267999 0.646944 0.713891
vn 0.000000 0.700220 0.713927
vn 0.000002 0.700220 0.713927
vn -0.267959 0.646955 0.713896
vn -0.267979 0.646947 0.713896
vn -0.495170 0.495172 0.713871
vn -0.495208 0.495134 0.713871
vn -0.646942 0.267960 0.713908
vn -0.646941 0.267962 0.713908
vn -0.700188 0.000000 0.713959
vn -0.700188 0.000000 0.713959
vn -0.646941 -0.267960 0.713908
vn -0.646940 -0.267962 0.713908
vn -0.495171 -0.495171 0.713871
vn -0.495209 -0.495133 0.713871
vn -0.267956 -0.646975 0.713879
vn -0.267976 -0.646967 0.713879
vn -0.000001 -0.700224 0.713923
vn 0.000001 -0.700224 0.713923
vn 0.267955 -0.646948 0.713904
vn 0.268004 -0.646927 0.713904
vn 0.495143 -0.495181 0.713883
vn 0.495148 -0.495177 0.713883
vn 0.646967 -0.267958 0.713885
vn 0.646971 -0.267951 0.713885
vn 0.923890 0.382658 -0.000000
vn 0.707102 0.707111 -0.000000
vn 0.707102 0.707111 -0.000000
vn 0.923890 0.382658 -0.000000
vn 0.382700 0.923873 0.000000
vn 0.382700 0.923873 0.000000
vn 0.000000 1.000000 -0.000000
vn 0.000000 1.000000 -0.000000
vn -0.382677 0.923882 -0.000000
vn -0.382677 0.923882 -0.000000
vn -0.707102 0.707112 0.000000
vn -0.707102 0.707112 0.000000
vn -0.923879 0.382685 0.000000
vn -0.923879 0.382685 0.000000
vn -1.000000 -0.000000 0.000000
vn -1.000000 -0.000000 0.000000
vn -0.923879 -0.382685 0.000000
vn -0.923879 -0.382685 0.000000
vn -0.707102 -0.707111 -0.000000
vn -0.707102 -0.707112 -0.000000
vn -0.382688 -0.923877 0.000000
vn -0.382688 -0.923877 0.000000
vn 0.000000 -1.000000 0.000000
vn 0.000000 -1.000000 0.000000
vn 0.382688 -0.923878 0.000000
vn 0.382688 -0.923878 0.000000
vn 0.707102 -0.707112 -0.000000
vn 0.707102 -0.707112 -0.000000
vn 0.923890 -0.382658 -0.000000
vn 0.923890 -0.382658 -0.000000
vn 1.000000 0.000000 -0.000000
vn 1.000000 0.000000 -0.000000
vn 0.000000 -0.000000 -1.000000
vn 0.000000 0.000000 -1.000000
vn 0.000000 0.000000 -1.000000
vn 0.000000 -0.000000 -1.000000
vn -0.000002 -0.000000 -1.000000
vn -0.000002 -0.000000 -1.000000
vn -0.000001 0.000000 -1.000000
vn -0.000001 0.000000 -1.000000
vn 0.000001 0.000001 -1.000000
vn 0.000002 0.000001 -1.000000
vn 0.000000 0.000000 -1.000000
vn 0.000000 0.000000 -1.000000
vn -0.000000 0.000000 -1.000000
vn -0.000000 0.000000 -1.000000
vn 0.000000 0.000000 -1.000000
vn 0.000000 0.000000 -1.000000
vn 0.000001 0.000000 -1.000000
vn 0.000001 0.000000 -1.000000
vn -0.000001 0.000000 -1.000000
vn -0.000002 0.000000 -1.000000
vn -0.000001 0.000000 -1.000000
vn -0.000001 0.000000 -1.000000
vn 0.000001 0.000000 -1.000000
vn 0.000001 0.000000 -1.000000
vn 0.000001 0.000000 -1.000000
vn 0.000001 0.000000 -1.000000
vn 0.000000 0.000000 -1.000000
vn 0.000000 0.000000 -1.000000
vn 0.000000 0.000000 -1.000000
vn 0.000000 0.000000 -1.000000
vn 0.000000 0.000000 -1.000000
vn 0.000000 0.000000 -1.000000
vn 0.000000 -0.000001 1.000000
vn 0.000002 0.000000 1.000000
vn -0.000000 0.000000 1.000000
vn -0.000002 0.000001 1.000000
vn 0.000000 0.000001 1.000000
vn 0.000003 0.000002 1.000000
vn 0.000002 0.000001 1.000000
vn 0.000000 0.000000 1.000000
vn -0.000002 0.000000 1.000000
vn -0.000001 0.000000 1.000000
vn -0.000002 0.000000 1.000000
vn -0.000002 0.000000 1.000000
vn 0.000000 0.000000 1.000000
vn 0.000000 0.000000 1.000000
vn -0.000002 0.000000 1.000000
vn -0.000002 0.000001 1.000000
vn 0.000000 0.000000 1.000000
f 60/60/1 4/2/2 32/3/3 59/59/4
f 72/72/5 73/73/6 13/6/7 12/7/8
f 3/99/9 61/61/10 62/62/11 27/10/12
f 4/98/13 3/100/14 7/91/15 6/83/16
f 5/96/17 9/14/18 46/90/19 45/16/20
f 6/94/16 5/13/21 37/17/22 36/18/23
f 66/66/24 7/11/25 28/20/26 65/65/27
f 9/84/28 8/19/29 67/79/30 15/22/31 14/23/32
f 10/24/33 13/6/34 44/25/35 43/26/36
f 11/27/37 10/24/38 17/86/39 16/29/40
f 12/7/41 11/27/42 20/30/43 19/31/44
f 14/23/45 18/32/46 49/88/47 48/34/48
f 16/29/49 15/80/50 24/35/51 23/36/52
f 18/85/53 17/86/39 39/37/54 38/38/55
f 19/31/56 21/39/57 70/70/58 71/71/59
f 21/39/60 20/30/61 23/36/62 22/41/63
f 22/41/64 24/35/65 68/68/66 69/69/67
f 27/93/68 63/63/69 64/64/70 28/20/71
f 74/74/72 75/75/73 42/44/74 44/25/75
f 58/58/76 32/3/77 36/18/78 57/57/79
f 56/56/80 37/17/81 54/47/82 55/55/83
f 76/76/84 77/77/85 41/49/86 40/50/87
f 38/38/88 41/49/89 51/51/90 50/52/91
f 40/50/92 39/37/93 43/26/94 42/44/95
f 45/97/96 47/53/97 52/54/98 54/47/99
f 75/75/100 76/76/84 40/50/87 42/44/101
f 11/27/37 16/29/40 23/36/102 20/30/103
f 21/39/104 22/41/105 69/69/106 70/70/107
f 27/93/108 28/20/109 7/11/15 3/8/14
f 67/67/110 68/68/111 24/35/112 15/81/113
f 71/71/114 72/72/5 12/7/8 19/31/115
f 4/2/13 6/94/16 36/18/23 32/3/116
f 17/86/39 10/24/38 43/26/117 39/37/54
f 13/6/7 73/73/6 74/74/118 44/25/119
f 9/84/120 14/23/121 48/34/122 46/15/123
f 18/85/53 38/38/55 50/52/124 49/33/125
f 41/49/86 77/77/85 78/78/126 51/51/127
f 37/17/22 5/13/21 45/97/128 54/47/129
f 60/60/1 61/61/10 3/99/9 4/2/2
f 5/96/17 6/95/130 9/14/18
f 7/11/25 66/66/24 8/19/131 6/12/130
f 6/12/130 8/19/131 9/84/18
f 10/24/33 11/27/42 12/7/41 13/6/34
f 16/87/132 17/28/133 15/22/134
f 17/28/133 18/32/46 15/22/134
f 14/23/45 15/22/134 18/32/46
f 19/31/135 20/30/136 21/39/137
f 22/41/138 23/36/139 24/35/140
f 62/62/141 63/92/142 27/10/143
f 28/20/144 64/64/145 65/65/146
f 59/59/147 32/3/148 58/58/149
f 56/56/80 57/57/79 36/18/78 37/17/81
f 38/38/88 39/37/93 40/50/92 41/49/89
f 42/44/150 43/26/151 44/25/152
f 52/54/153 53/48/154 55/55/155 54/47/156
f 34/46/157 56/56/80 55/55/83 53/48/158
f 34/46/157 35/45/159 57/57/79 56/56/80
f 33/43/160 58/58/76 57/57/79 35/45/159
f 31/4/161 59/59/147 58/58/149 33/43/162
f 1/1/163 60/60/1 59/59/4 31/4/164
f 1/1/163 2/5/165 61/61/10 60/60/1
f 62/62/11 61/61/10 2/5/165 25/9/166
f 25/9/167 26/40/168 63/92/142 62/62/141
f 64/64/70 63/63/69 26/40/169 29/42/170
f 65/65/146 64/64/145 29/42/171 30/21/172
f 8/89/131 66/82/24 65/65/27 30/21/173
f 8/89/174 30/21/175 68/68/111 67/67/110
f 69/69/67 68/68/66 30/21/176 29/42/177
f 70/70/107 69/69/106 29/42/178 26/40/179
f 71/71/59 70/70/58 26/40/180 25/9/181
f 25/9/182 2/5/183 72/72/5 71/71/114
f 2/5/183 1/1/184 73/73/6 72/72/5
f 74/74/118 73/73/6 1/1/184 31/4/185
f 31/4/186 33/43/187 75/75/73 74/74/72
f 33/43/188 35/45/189 76/76/84 75/75/100
f 35/45/189 34/46/190 77/77/85 76/76/84
f 78/78/126 77/77/85 34/46/190 53/48/191
f 96/101/192 97/102/193 99/103/194 98/104/195
f 97/105/193 96/106/192 126/107/196 127/108/197
f 98/104/195 99/109/194 101/110/198 100/111/199
f 100/111/199 101/112/198 103/113/200 102/114/201
f 102/114/201 103/115/200 105/116/202 104/117/203
f 104/117/203 105/118/202 107/119/204 106/120/205
f 106/120/205 107/121/204 109/122/206 108/123/207
f 108/123/207 109/124/206 111/125/208 110/126/209
f 110/126/209 111/127/208 113/128/210 112/129/211
f 112/129/211 113/130/210 115/131/212 114/132/213
f 114/132/213 115/133/212 117/134/214 116/135/215
f 116/135/215 117/136/214 119/137/216 118/138/217
f 118/138/217 119/139/216 121/140/218 120/141/219
f 120/141/219 121/142/218 123/143/220 122/144/221
f 122/144/221 123/145/220 125/146/222 124/147/223
f 124/147/223 125/148/222 127/149/197 126/107/196
f 96/101/224 98/104/225 80/150/226 79/151/227
f 98/104/225 100/111/228 81/152/229 80/150/226
f 100/111/228 102/114/230 82/153/231 81/152/229
f 102/114/230 104/117/232 83/154/233 82/153/231
f 104/117/232 106/120/234 84/155/235 83/154/233
f 106/120/234 108/123/236 85/156/237 84/155/235
f 108/123/236 110/126/238 86/157/239 85/156/237
f 110/126/238 112/129/240 87/158/241 86/157/239
f 112/129/240 114/132/242 88/159/243 87/158/241
f 114/132/242 116/135/244 89/160/245 88/159/243
f 116/135/244 118/138/246 90/161/247 89/160/245
f 118/138/246 120/141/248 91/162/249 90/161/247
f 120/141/248 122/144/250 92/163/251 91/162/249
f 122/144/250 124/147/252 93/164/253 92/163/251
f 124/147/252 126/107/254 94/165/255 93/164/253
f 126/107/254 96/106/224 79/166/227 94/165/255
f 99/167/256 97/168/257 95/169/258
f 101/170/259 99/167/256 95/169/258
f 103/171/260 101/170/259 95/169/258
f 105/172/261 103/171/260 95/169/258
f 107/173/262 105/172/261 95/169/258
f 109/174/263 107/173/262 95/169/258
f 111/175/264 109/174/263 95/169/258
f 113/176/265 111/175/264 95/169/258
f 115/177/266 113/176/265 95/169/258
f 117/178/267 115/177/266 95/169/258
f 119/179/268 117/178/267 95/169/258
f 121/180/269 119/179/268 95/169/258
f 123/181/270 121/180/269 95/169/258
f 125/182/271 123/181/270 95/169/258
f 127/183/272 125/182/271 95/169/258
f 97/168/257 127/183/272 95/169/258
f 129/184/273 130/185/274 132/186/275 131/187/276
f 130/188/274 129/189/273 159/190/277 160/191/278
f 131/187/276 132/192/275 134/193/279 133/194/280
f 133/194/280 134/195/279 136/196/281 135/197/282
f 135/197/282 136/198/281 138/199/283 137/200/284
f 137/200/284 138/201/283 140/202/285 139/203/286
f 139/203/286 140/204/285 142/205/287 141/206/288
f 141/206/288 142/207/287 144/208/289 143/209/290
f 143/209/290 144/210/289 146/211/291 145/212/292
f 145/212/292 146/213/291 148/214/293 147/215/294
f 147/215/294 148/216/293 150/217/295 149/218/296
f 149/218/296 150/219/295 152/220/297 151/221/298
f 151/221/298 152/222/297 154/223/299 153/224/300
f 153/224/300 154/225/299 156/226/301 155/227/302
f 155/227/302 156/228/301 158/229/303 157/230/304
f 157/230/304 158/231/303 160/232/278 159/190/277
f 161/233/305 162/234/306 192/235/307 191/236/308
f 162/237/306 161/238/305 163/239/309 164/240/310
f 164/241/310 163/239/309 165/242/311 166/243/312
f 166/244/312 165/242/311 167/245/313 168/246/314
f 168/247/314 167/245/313 169/248/315 170/249/316
f 170/250/316 169/248/315 171/251/317 172/252/318
f 172/253/318 171/251/317 173/254/319 174/255/320
f 174/256/320 173/254/319 175/257/321 176/258/322
f 176/259/322 175/257/321 177/260/323 178/261/324
f 178/262/324 177/260/323 179/263/325 180/264/326
f 180/265/326 179/263/325 181/266/327 182/267/328
f 182/268/328 181/266/327 183/269/329 184/270/330
f 184/271/330 183/269/329 185/272/331 186/273/332
f 186/274/332 185/272/331 187/275/333 188/276/334
f 188/277/334 187/275/333 189/278/335 190/279/336
f 190/280/336 189/278/335 191/236/308 192/281/307
f 129/184/337 131/187/338 163/239/339 161/238/340
f 131/187/338 133/194/341 165/242/342 163/239/339
f 133/194/341 135/197/343 167/245/344 165/242/342
f 135/197/343 137/200/345 169/248/346 167/245/344
f 137/200/345 139/203/347 171/251/348 169/248/346
f 139/203/347 141/206/349 173/254/350 171/251/348
f 141/206/349 143/209/351 175/257/352 173/254/350
f 143/209/351 145/212/353 177/260/354 175/257/352
f 145/212/353 147/215/355 179/263/356 177/260/354
f 147/215/355 149/218/357 181/266/358 179/263/356
f 149/218/357 151/221/359 183/269/360 181/266/358
f 151/221/359 153/224/361 185/272/362 183/269/360
f 153/224/361 155/227/363 187/275/364 185/272/362
f 155/227/363 157/230/365 189/278/366 187/275/364
f 157/230/365 159/190/367 191/236/368 189/278/366
f 159/190/367 129/189/337 161/233/340 191/236/368
f 134/282/369 132/283/370 193/284/371 194/285/372
f 136/286/373 134/282/369 194/285/372 195/287/374
f 138/288/375 136/286/373 195/287/374 196/289/376
f 140/290/377 138/288/375 196/289/376 197/291/378
f 142/292/379 140/290/377 197/291/378 198/293/380
f 144/294/381 142/292/379 198/293/380 199/295/382
f 146/296/383 144/294/381 199/295/382 200/297/384
f 148/298/385 146/296/383 200/297/384 201/299/386
f 150/300/387 148/298/385 201/299/386 202/301/388
f 152/302/389 150/300/387 202/301/388 203/303/390
f 154/304/391 152/302/389 203/303/390 204/305/392
f 156/306/393 154/304/391 204/305/392 205/307/394
f 158/308/395 156/306/393 205/307/394 206/309/396
f 160/310/397 158/308/395 206/309/396 207/311/398
f 130/312/399 160/310/397 207/311/398 208/313/400
f 162/314/401 164/315/402 128/316/403
f 164/315/402 166/317/404 128/316/403
f 166/317/404 168/318/405 128/316/403
f 168/318/405 170/319/406 128/316/403
f 170/319/406 172/320/407 128/316/403
f 172/320/407 174/321/408 128/316/403
f 174/321/408 176/322/409 128/316/403
f 176/322/409 178/323/410 128/316/403
f 178/323/410 180/324/411 128/316/403
f 180/324/411 182/325/412 128/316/403
f 182/325/412 184/326/413 128/316/403
f 184/326/413 186/327/414 128/316/403
f 186/327/414 188/328/415 128/316/403
f 188/328/415 190/329/416 128/316/403
f 190/329/416 192/330/417 128/316/403
f 192/330/417 162/314/401 128/316/403
f 132/331/370 130/312/399 208/313/400 193/332/371
