# This file uses centimeters as units for non-parametric coordinates.

mtllib PillBottle1.mtl
g default
v 0.010166 1.257134 0.461473
v -0.193508 1.257134 0.257794
v 0.213848 1.257134 0.257794
v 0.010166 1.257134 0.054115
v -0.352848 1.388244 0.257794
v -0.325214 1.388244 0.396715
v -0.246525 1.388244 0.514487
v -0.128750 1.388244 0.593179
v 0.010166 1.388244 0.620812
v 0.149090 1.388244 0.593179
v 0.266861 1.388244 0.514487
v 0.345554 1.388244 0.396715
v 0.373188 1.388244 0.257794
v 0.345554 1.388244 0.118873
v 0.266861 1.388244 0.001101
v 0.149090 1.388244 -0.077591
v 0.010166 1.388244 -0.105224
v -0.128750 1.388244 -0.077591
v -0.246525 1.388244 0.001101
v -0.325214 1.388244 0.118873
v -0.286743 1.478076 0.257794
v -0.264141 1.478076 0.371418
v -0.199780 1.478076 0.467743
v -0.103451 1.478076 0.532106
v 0.010166 1.478076 0.554707
v 0.123791 1.478076 0.532106
v 0.220119 1.478076 0.467743
v 0.284481 1.478076 0.371418
v 0.307087 1.478076 0.257794
v 0.284481 1.478076 0.144171
v 0.220119 1.478076 0.047845
v 0.123791 1.478076 -0.016518
v 0.010166 1.478076 -0.039119
v -0.103451 1.478076 -0.016518
v -0.199780 1.478076 0.047845
v -0.264141 1.478076 0.144171
v -0.138287 1.496991 0.257794
v -0.116547 1.496991 0.384510
v 0.010166 1.496991 0.406250
v 0.010166 1.496991 0.257794
v 0.136883 1.496991 0.384510
v 0.158627 1.496991 0.257794
v 0.136883 1.496991 0.131079
v 0.010166 1.496991 0.109338
v -0.116547 1.496991 0.131079
v -0.389023 1.257134 0.257794
v -0.397190 1.265142 0.257794
v -0.358639 1.257134 0.410559
v -0.366180 1.265142 0.413683
v -0.272102 1.257134 0.540066
v -0.277874 1.265142 0.545840
v -0.142597 1.257134 0.626600
v -0.145721 1.265142 0.634144
v 0.010166 1.257134 0.656987
v 0.010166 1.265142 0.665152
v 0.162937 1.257134 0.626600
v 0.166058 1.265142 0.634144
v 0.292442 1.257134 0.540066
v 0.298214 1.265142 0.545840
v 0.378979 1.257134 0.410559
v 0.386520 1.265142 0.413683
v 0.409363 1.257134 0.257794
v 0.417530 1.265142 0.257794
v 0.378979 1.257134 0.105030
v 0.386520 1.265142 0.101905
v 0.292442 1.257134 -0.024477
v 0.298214 1.265142 -0.030251
v 0.162937 1.257134 -0.111012
v 0.166058 1.265142 -0.118555
v 0.010166 1.257134 -0.141398
v 0.010166 1.265142 -0.149564
v -0.142597 1.257134 -0.111012
v -0.145721 1.265142 -0.118555
v -0.272102 1.257134 -0.024477
v -0.277874 1.265142 -0.030251
v -0.358639 1.257134 0.105030
v -0.366180 1.265142 0.101905
v -0.397190 1.280103 0.257794
v -0.389023 1.288111 0.257794
v -0.366180 1.280103 0.413683
v -0.358639 1.288111 0.410559
v -0.277874 1.280103 0.545840
v -0.272102 1.288111 0.540066
v -0.145721 1.280103 0.634144
v -0.142597 1.288111 0.626600
v 0.010166 1.280103 0.665152
v 0.010166 1.288111 0.656987
v 0.166058 1.280103 0.634144
v 0.162937 1.288111 0.626600
v 0.298214 1.280103 0.545840
v 0.292442 1.288111 0.540066
v 0.386520 1.280103 0.413683
v 0.378979 1.288111 0.410559
v 0.417530 1.280103 0.257794
v 0.409363 1.288111 0.257794
v 0.386520 1.280103 0.101905
v 0.378979 1.288111 0.105030
v 0.298214 1.280103 -0.030251
v 0.292442 1.288111 -0.024477
v 0.166058 1.280103 -0.118555
v 0.162937 1.288111 -0.111012
v 0.010166 1.280103 -0.149564
v 0.010166 1.288111 -0.141398
v -0.145721 1.280103 -0.118555
v -0.142597 1.288111 -0.111012
v -0.277874 1.280103 -0.030251
v -0.272102 1.288111 -0.024477
v -0.366180 1.280103 0.101905
v -0.358639 1.288111 0.105030
v -0.361015 1.288111 0.257794
v -0.352848 1.296119 0.257794
v -0.332760 1.288111 0.399840
v -0.325214 1.296119 0.396715
v -0.252300 1.288111 0.520260
v -0.246525 1.296119 0.514487
v -0.131874 1.288111 0.600723
v -0.128750 1.296119 0.593179
v 0.010166 1.288111 0.628978
v 0.010166 1.296119 0.620812
v 0.152218 1.288111 0.600723
v 0.149090 1.296119 0.593179
v 0.272633 1.288111 0.520260
v 0.266861 1.296119 0.514487
v 0.353100 1.288111 0.399840
v 0.345554 1.296119 0.396715
v 0.381355 1.288111 0.257794
v 0.373188 1.296119 0.257794
v 0.353100 1.288111 0.115748
v 0.345554 1.296119 0.118873
v 0.272633 1.288111 -0.004672
v 0.266861 1.296119 0.001101
v 0.152218 1.288111 -0.085135
v 0.149090 1.296119 -0.077591
v 0.010166 1.288111 -0.113389
v 0.010166 1.296119 -0.105224
v -0.131874 1.288111 -0.085135
v -0.128750 1.296119 -0.077591
v -0.252300 1.288111 -0.004672
v -0.246525 1.296119 0.001101
v -0.332760 1.288111 0.115748
v -0.325214 1.296119 0.118873
v -0.352848 1.408399 0.257794
v -0.344685 1.416407 0.257794
v -0.325214 1.408399 0.396715
v -0.317673 1.416407 0.393590
v -0.246525 1.408399 0.514487
v -0.240749 1.416407 0.508713
v -0.128750 1.408399 0.593179
v -0.125629 1.416407 0.585636
v 0.010166 1.408399 0.620812
v 0.010166 1.416407 0.612648
v 0.149090 1.408399 0.593179
v 0.145966 1.416407 0.585636
v 0.266861 1.408399 0.514487
v 0.261089 1.416407 0.508713
v 0.345554 1.408399 0.396715
v 0.338013 1.416407 0.393590
v 0.373188 1.408399 0.257794
v 0.365025 1.416407 0.257794
v 0.345554 1.408399 0.118873
v 0.338013 1.416407 0.121998
v 0.266861 1.408399 0.001101
v 0.261089 1.416407 0.006875
v 0.149090 1.408399 -0.077591
v 0.145966 1.416407 -0.070047
v 0.010166 1.408399 -0.105224
v 0.010166 1.416407 -0.097059
v -0.128750 1.408399 -0.077591
v -0.125629 1.416407 -0.070047
v -0.246525 1.408399 0.001101
v -0.240749 1.416407 0.006875
v -0.325214 1.408399 0.118873
v -0.317673 1.416407 0.121998
v -0.294910 1.416407 0.257794
v -0.286743 1.424416 0.257794
v -0.271687 1.416407 0.374542
v -0.264141 1.424416 0.371418
v -0.205555 1.416407 0.473517
v -0.199780 1.424416 0.467743
v -0.106579 1.416407 0.539649
v -0.103451 1.424416 0.532106
v 0.010166 1.416407 0.562872
v 0.010166 1.424416 0.554707
v 0.126919 1.416407 0.539649
v 0.123791 1.424416 0.532106
v 0.225891 1.416407 0.473517
v 0.220119 1.424416 0.467743
v 0.292027 1.416407 0.374542
v 0.284481 1.424416 0.371418
v 0.315250 1.416407 0.257794
v 0.307087 1.424416 0.257794
v 0.292027 1.416407 0.141046
v 0.284481 1.424416 0.144171
v 0.225891 1.416407 0.042071
v 0.220119 1.424416 0.047845
v 0.126919 1.416407 -0.024061
v 0.123791 1.424416 -0.016518
v 0.010166 1.416407 -0.047284
v 0.010166 1.424416 -0.039119
v -0.106579 1.416407 -0.024061
v -0.103451 1.424416 -0.016518
v -0.205555 1.416407 0.042071
v -0.199780 1.424416 0.047845
v -0.271687 1.416407 0.141046
v -0.264141 1.424416 0.144171
v -0.286743 1.488982 0.257794
v -0.278576 1.496991 0.257794
v -0.256599 1.496991 0.368293
v -0.264141 1.488982 0.371418
v -0.194004 1.496991 0.461970
v -0.199780 1.488982 0.467743
v -0.100330 1.496991 0.524562
v -0.103451 1.488982 0.532106
v 0.010166 1.496991 0.546542
v 0.010166 1.488982 0.554707
v 0.120670 1.496991 0.524562
v 0.123791 1.488982 0.532106
v 0.214344 1.496991 0.461970
v 0.220119 1.488982 0.467743
v 0.276939 1.496991 0.368293
v 0.284481 1.488982 0.371418
v 0.298920 1.496991 0.257794
v 0.307087 1.488982 0.257794
v 0.276939 1.496991 0.147295
v 0.284481 1.488982 0.144171
v 0.214344 1.496991 0.053618
v 0.220119 1.488982 0.047845
v 0.120670 1.496991 -0.008974
v 0.123791 1.488982 -0.016518
v 0.010166 1.496991 -0.030954
v 0.010166 1.488982 -0.039119
v -0.100330 1.496991 -0.008974
v -0.103451 1.488982 -0.016518
v -0.194004 1.496991 0.053618
v -0.199780 1.488982 0.047845
v -0.256599 1.496991 0.147295
v -0.264141 1.488982 0.144171
v 0.010166 1.188614 0.257794
v 0.010166 1.224042 0.461473
v 0.010166 1.188614 0.425527
v -0.157566 1.188614 0.257794
v -0.193508 1.224042 0.257794
v 0.213848 1.224042 0.257794
v 0.177906 1.188614 0.257794
v 0.010166 1.224042 0.054115
v 0.010166 1.188614 0.090061
v 0.166042 1.188614 0.326938
v 0.079311 1.188614 0.413663
v 0.109997 1.224042 0.444345
v 0.196720 1.224042 0.357620
v -0.145702 1.188614 0.326938
v -0.058971 1.188614 0.413663
v -0.176384 1.224042 0.357620
v -0.089657 1.224042 0.444345
v -0.058971 1.188614 0.101925
v -0.145702 1.188614 0.188651
v -0.089657 1.224042 0.071243
v -0.176384 1.224042 0.157968
v 0.079311 1.188614 0.101925
v 0.166042 1.188614 0.188651
v 0.196720 1.224042 0.157968
v 0.109997 1.224042 0.071243
v -0.089657 1.257134 0.444345
v -0.156155 1.257134 0.501260
v -0.233295 1.257134 0.424115
v -0.176384 1.257134 0.357620
v 0.196720 1.257134 0.357620
v 0.253635 1.257134 0.424115
v 0.176495 1.257134 0.501260
v 0.109997 1.257134 0.444345
v 0.109997 1.257134 0.071243
v 0.176495 1.257134 0.014328
v 0.253635 1.257134 0.091473
v 0.196720 1.257134 0.157968
v -0.176384 1.257134 0.157968
v -0.233295 1.257134 0.091473
v -0.156155 1.257134 0.014328
v -0.089657 1.257134 0.071243
v 0.010166 1.188614 0.326938
v 0.010166 1.188614 0.188651
v -0.099461 0.141657 0.305321
v -0.099461 0.141657 0.357504
v -0.177704 0.141657 0.305321
v -0.166248 0.141657 0.349862
v -0.021217 0.141657 0.305321
v -0.032677 0.141657 0.349862
v -0.099461 0.141657 0.253139
v -0.032677 0.141657 0.260781
v -0.166248 0.141657 0.260781
v -0.177704 0.248743 0.305321
v -0.166248 0.248743 0.349862
v -0.099461 0.248743 0.357504
v -0.099461 0.248743 0.305321
v -0.032677 0.248743 0.349862
v -0.021217 0.248743 0.305321
v -0.032677 0.248743 0.260781
v -0.099461 0.248743 0.253139
v -0.166248 0.248743 0.260781
v -0.236248 0.141657 0.305321
v -0.255947 0.167100 0.305321
v -0.227318 0.141657 0.335278
v -0.244038 0.167100 0.345260
v -0.199242 0.141657 0.363293
v -0.210114 0.167100 0.379119
v -0.154156 0.141657 0.383386
v -0.159348 0.167100 0.401742
v -0.099461 0.141657 0.390642
v -0.099461 0.167100 0.409687
v -0.044769 0.141657 0.383386
v -0.039577 0.167100 0.401742
v 0.000320 0.141657 0.363293
v 0.011189 0.167100 0.379119
v 0.028389 0.141657 0.335278
v 0.045113 0.167100 0.345260
v 0.037327 0.141657 0.305321
v 0.057026 0.167100 0.305321
v 0.028389 0.141657 0.275365
v 0.045113 0.167100 0.265382
v 0.000320 0.141657 0.247350
v 0.011189 0.167100 0.231524
v -0.044769 0.141657 0.227256
v -0.039577 0.167100 0.208900
v -0.099461 0.141657 0.220001
v -0.099461 0.167100 0.200956
v -0.154156 0.141657 0.227256
v -0.159348 0.167100 0.208900
v -0.199242 0.141657 0.247350
v -0.210114 0.167100 0.231524
v -0.227318 0.141657 0.275365
v -0.244038 0.167100 0.265382
v -0.255947 0.223300 0.305321
v -0.236248 0.248743 0.305321
v -0.227318 0.248743 0.335278
v -0.244038 0.223300 0.345260
v -0.199242 0.248743 0.363293
v -0.210114 0.223300 0.379119
v -0.154156 0.248743 0.383386
v -0.159348 0.223300 0.401742
v -0.099461 0.248743 0.390642
v -0.099461 0.223300 0.409687
v -0.044769 0.248743 0.383386
v -0.039577 0.223300 0.401742
v 0.000320 0.248743 0.363293
v 0.011189 0.223300 0.379119
v 0.028389 0.248743 0.335278
v 0.045113 0.223300 0.345260
v 0.037327 0.248743 0.305321
v 0.057026 0.223300 0.305321
v 0.028389 0.248743 0.275365
v 0.045113 0.223300 0.265382
v 0.000320 0.248743 0.247350
v 0.011189 0.223300 0.231524
v -0.044769 0.248743 0.227256
v -0.039577 0.223300 0.208900
v -0.099461 0.248743 0.220001
v -0.099461 0.223300 0.200956
v -0.154156 0.248743 0.227256
v -0.159348 0.223300 0.208900
v -0.199242 0.248743 0.247350
v -0.210114 0.223300 0.231524
v -0.227318 0.248743 0.275365
v -0.244038 0.223300 0.265382
v 0.116127 0.141657 0.416496
v 0.159286 0.141657 0.445827
v 0.072147 0.141657 0.481209
v 0.115425 0.141657 0.496769
v 0.160107 0.141657 0.351782
v 0.190506 0.141657 0.386294
v 0.072968 0.141657 0.387164
v 0.116829 0.141657 0.336222
v 0.041748 0.141657 0.446697
v 0.072147 0.248743 0.481209
v 0.115425 0.248743 0.496769
v 0.159286 0.248743 0.445827
v 0.116127 0.248743 0.416496
v 0.190506 0.248743 0.386294
v 0.160107 0.248743 0.351782
v 0.116829 0.248743 0.336222
v 0.072968 0.248743 0.387164
v 0.041748 0.248743 0.446697
v 0.039238 0.141657 0.529629
v 0.028168 0.167100 0.545922
v 0.069035 0.141657 0.539081
v 0.067894 0.167100 0.558520
v 0.107986 0.141657 0.531608
v 0.114967 0.167100 0.549493
v 0.149948 0.141657 0.505612
v 0.162212 0.167100 0.520223
v 0.186691 0.141657 0.464453
v 0.202442 0.167100 0.475158
v 0.211433 0.141657 0.415138
v 0.229534 0.167100 0.421163
v 0.220158 0.141657 0.366554
v 0.239357 0.167100 0.366460
v 0.212765 0.141657 0.327590
v 0.230423 0.167100 0.319369
v 0.193012 0.141657 0.303362
v 0.204086 0.167100 0.287069
v 0.163216 0.141657 0.293914
v 0.164356 0.167100 0.274471
v 0.124264 0.141657 0.301383
v 0.117287 0.167100 0.283498
v 0.082302 0.141657 0.327379
v 0.070038 0.167100 0.312768
v 0.045559 0.141657 0.368538
v 0.029808 0.167100 0.357833
v 0.020817 0.141657 0.417853
v 0.002716 0.167100 0.411828
v 0.012093 0.141657 0.466437
v -0.007107 0.167100 0.466531
v 0.019482 0.141657 0.505404
v 0.001827 0.167100 0.513622
v 0.028168 0.223300 0.545922
v 0.039238 0.248743 0.529629
v 0.069035 0.248743 0.539081
v 0.067894 0.223300 0.558520
v 0.107986 0.248743 0.531608
v 0.114967 0.223300 0.549493
v 0.149948 0.248743 0.505612
v 0.162212 0.223300 0.520223
v 0.186691 0.248743 0.464453
v 0.202442 0.223300 0.475158
v 0.211433 0.248743 0.415138
v 0.229534 0.223300 0.421163
v 0.220158 0.248743 0.366554
v 0.239357 0.223300 0.366460
v 0.212765 0.248743 0.327590
v 0.230423 0.223300 0.319369
v 0.193012 0.248743 0.303362
v 0.204086 0.223300 0.287069
v 0.163216 0.248743 0.293914
v 0.164356 0.223300 0.274471
v 0.124264 0.248743 0.301383
v 0.117287 0.223300 0.283498
v 0.082302 0.248743 0.327379
v 0.070038 0.223300 0.312768
v 0.045559 0.248743 0.368538
v 0.029808 0.223300 0.357833
v 0.020817 0.248743 0.417853
v 0.002716 0.223300 0.411828
v 0.012093 0.248743 0.466437
v -0.007107 0.223300 0.466531
v 0.019482 0.248743 0.505404
v 0.001827 0.223300 0.513622
v -0.054153 0.203349 0.135431
v -0.002747 0.205474 0.144145
v -0.067356 0.235831 0.205378
v -0.021545 0.232889 0.202575
v -0.040951 0.170867 0.065483
v 0.000992 0.177437 0.083164
v -0.105560 0.201223 0.126715
v -0.086761 0.173809 0.068286
v -0.109299 0.229261 0.187697
v -0.063828 0.333156 0.160847
v -0.018017 0.330214 0.158044
v 0.000778 0.302799 0.099615
v -0.050629 0.300674 0.090900
v 0.004520 0.274762 0.038633
v -0.037426 0.268191 0.020953
v -0.083237 0.271133 0.023756
v -0.102032 0.298548 0.082185
v -0.105774 0.326586 0.143167
v -0.077232 0.260135 0.257715
v -0.079720 0.291437 0.264745
v -0.046215 0.257648 0.254734
v -0.038364 0.288119 0.260768
v -0.013878 0.247134 0.234314
v 0.000713 0.275414 0.236094
v 0.013523 0.229235 0.197364
v 0.031567 0.255261 0.194490
v 0.029896 0.206824 0.149680
v 0.049496 0.230723 0.142281
v 0.031979 0.183822 0.099573
v 0.051773 0.205538 0.087418
v 0.019791 0.164286 0.055911
v 0.038052 0.183542 0.038257
v -0.003071 0.151492 0.026137
v 0.010422 0.168079 0.002274
v -0.031075 0.146562 0.013147
v -0.026913 0.161508 -0.015044
v -0.062092 0.149052 0.016131
v -0.068268 0.164825 -0.011067
v -0.094425 0.159564 0.036547
v -0.107346 0.177531 0.013607
v -0.121826 0.177463 0.073497
v -0.138195 0.197684 0.055211
v -0.138203 0.199874 0.121181
v -0.156128 0.222221 0.107420
v -0.140285 0.222875 0.171288
v -0.158405 0.247406 0.162283
v -0.128098 0.242411 0.214950
v -0.144684 0.269402 0.211444
v -0.105236 0.255208 0.244728
v -0.117054 0.284866 0.247427
v -0.077869 0.342515 0.241375
v -0.073708 0.357460 0.213184
v -0.042690 0.354973 0.210204
v -0.036514 0.339197 0.237397
v -0.010353 0.344459 0.189784
v 0.002563 0.326492 0.212723
v 0.017048 0.326560 0.152833
v 0.033417 0.306339 0.171120
v 0.033424 0.304149 0.105150
v 0.051346 0.281801 0.118910
v 0.035503 0.281147 0.055042
v 0.053623 0.256616 0.064047
v 0.023315 0.261611 0.011380
v 0.039902 0.234620 0.014887
v 0.000454 0.248817 -0.018393
v 0.012272 0.219157 -0.021097
v -0.027550 0.243887 -0.031384
v -0.025063 0.212586 -0.038415
v -0.058567 0.246376 -0.028399
v -0.066418 0.215903 -0.034437
v -0.090900 0.256889 -0.007984
v -0.105495 0.228608 -0.009763
v -0.118301 0.274788 0.028966
v -0.136345 0.248761 0.031840
v -0.134678 0.297198 0.076651
v -0.154278 0.273299 0.084050
v -0.136757 0.320200 0.126758
v -0.156555 0.298484 0.138913
v -0.124573 0.339736 0.170420
v -0.142834 0.320480 0.188073
v -0.101711 0.352533 0.200197
v -0.115204 0.335944 0.224057
vt 0.591075 0.860684
vt 0.625225 0.863118
vt 0.625549 0.895117
vt 0.596092 0.889502
vt 0.627077 0.831365
vt 0.598131 0.832914
vt 0.659500 0.863215
vt 0.655210 0.836556
vt 0.654756 0.890348
vt 0.662732 0.541887
vt 0.662876 0.538944
vt 0.707591 0.551865
vt 0.706326 0.554514
vt 0.618176 0.547358
vt 0.617123 0.544603
vt 0.579952 0.569565
vt 0.577865 0.567477
vt 0.553627 0.604832
vt 0.550862 0.603792
vt 0.543215 0.647562
vt 0.540265 0.647769
vt 0.550106 0.689690
vt 0.547518 0.691167
vt 0.570863 0.725646
vt 0.568873 0.728793
vt 0.605916 0.731210
vt 0.605213 0.733672
vt 0.642088 0.736527
vt 0.641665 0.738702
vt 0.679096 0.740750
vt 0.678777 0.743181
vt 0.716819 0.747872
vt 0.717826 0.751717
vt 0.747516 0.714604
vt 0.753485 0.799501
vt 0.764510 0.671945
vt 0.767357 0.852447
vt 0.762941 0.624851
vt 0.760006 0.906200
vt 0.741858 0.582604
vt 0.744146 0.580697
vt 0.663046 0.535124
vt 0.632355 0.994597
vt 0.684486 0.981870
vt 0.709220 0.548403
vt 0.615743 0.541036
vt 0.579475 0.986352
vt 0.575151 0.564781
vt 0.533971 0.959015
vt 0.547275 0.602457
vt 0.502147 0.918112
vt 0.536447 0.648061
vt 0.485883 0.872518
vt 0.544192 0.693112
vt 0.524323 0.759296
vt 0.566395 0.732931
vt 0.566226 0.736561
vt 0.604439 0.736908
vt 0.603924 0.739357
vt 0.641114 0.741593
vt 0.640683 0.743772
vt 0.678243 0.746392
vt 0.677728 0.748833
vt 0.716384 0.756063
vt 0.715211 0.759375
vt 0.750225 0.801492
vt 0.747704 0.803012
vt 0.763575 0.852940
vt 0.760662 0.853305
vt 0.756312 0.905238
vt 0.753488 0.904485
vt 0.730225 0.951418
vt 0.727819 0.949641
vt 0.631811 0.987457
vt 0.631589 0.984599
vt 0.679822 0.972983
vt 0.681158 0.975521
vt 0.581730 0.979557
vt 0.582626 0.976835
vt 0.538585 0.953544
vt 0.540422 0.951343
vt 0.508330 0.914503
vt 0.510800 0.913014
vt 0.492832 0.870680
vt 0.495683 0.869802
vt 0.486769 0.832333
vt 0.529323 0.768564
vt 0.565958 0.745331
vt 0.565951 0.748852
vt 0.602879 0.745339
vt 0.602531 0.747783
vt 0.639624 0.748980
vt 0.639190 0.751109
vt 0.676309 0.754636
vt 0.675636 0.756994
vt 0.712147 0.767127
vt 0.710837 0.770139
vt 0.741610 0.806753
vt 0.739164 0.808268
vt 0.753628 0.854195
vt 0.750808 0.854557
vt 0.746676 0.902658
vt 0.743944 0.901920
vt 0.722040 0.945330
vt 0.719734 0.943593
vt 0.629320 0.958597
vt 0.629122 0.955969
vt 0.666214 0.947634
vt 0.667436 0.949977
vt 0.590561 0.951924
vt 0.591398 0.949427
vt 0.557057 0.930940
vt 0.558780 0.928940
vt 0.533665 0.898673
vt 0.536011 0.897407
vt 0.523551 0.858901
vt 0.526419 0.858404
vt 0.517776 0.826010
vt 0.539763 0.806503
vt 0.569436 0.779444
vt 0.570224 0.782272
vt 0.602204 0.772104
vt 0.602332 0.774572
vt 0.635353 0.772796
vt 0.634925 0.775053
vt 0.667433 0.779221
vt 0.666392 0.781466
vt 0.695650 0.793751
vt 0.693956 0.795944
vt 0.716526 0.822317
vt 0.714179 0.823665
vt 0.724885 0.858154
vt 0.722241 0.858462
vt 0.718830 0.895184
vt 0.716291 0.894439
vt 0.698971 0.927517
vt 0.696906 0.925845
vt 0.628280 0.944725
vt 0.628100 0.942196
vt 0.659815 0.935336
vt 0.660986 0.937599
vt 0.594983 0.938753
vt 0.595805 0.936362
vt 0.566174 0.920415
vt 0.567866 0.918527
vt 0.546115 0.892112
vt 0.548451 0.891008
vt 0.538615 0.857204
vt 0.541356 0.857092
vt 0.549327 0.816886
vt 0.551533 0.819007
vt 0.574360 0.794057
vt 0.575442 0.796611
vt 0.603252 0.785160
vt 0.603543 0.787552
vt 0.633144 0.784754
vt 0.632759 0.786973
vt 0.661799 0.790995
vt 0.660725 0.793154
vt 0.686486 0.805008
vt 0.684749 0.806997
vt 0.704041 0.829320
vt 0.701727 0.830566
vt 0.710879 0.859730
vt 0.708304 0.859995
vt 0.705403 0.891216
vt 0.702946 0.890473
vt 0.688085 0.918660
vt 0.686106 0.917029
vt 0.627129 0.928255
vt 0.626996 0.925734
vt 0.652238 0.920577
vt 0.653368 0.922850
vt 0.600371 0.923212
vt 0.601241 0.920853
vt 0.577314 0.908252
vt 0.579075 0.906437
vt 0.561422 0.885321
vt 0.563814 0.884367
vt 0.556145 0.857605
vt 0.558825 0.857758
vt 0.563786 0.829083
vt 0.566040 0.830736
vt 0.582477 0.809887
vt 0.583856 0.812174
vt 0.605849 0.800992
vt 0.606331 0.803409
vt 0.630869 0.799745
vt 0.630544 0.802072
vt 0.654686 0.805314
vt 0.653569 0.807511
vt 0.674873 0.817558
vt 0.673050 0.819403
vt 0.688788 0.837188
vt 0.686427 0.838323
vt 0.694006 0.861315
vt 0.691417 0.861497
vt 0.689333 0.886306
vt 0.686884 0.885510
vt 0.675205 0.907978
vt 0.673265 0.906308
vt 0.660387 0.589993
vt 0.629592 0.593083
vt 0.611771 0.579107
vt 0.587831 0.599649
vt 0.601263 0.616338
vt 0.592981 0.643638
vt 0.596398 0.670977
vt 0.581666 0.690276
vt 0.601868 0.706514
vt 0.620494 0.692247
vt 0.649171 0.697267
vt 0.678587 0.699863
vt 0.691880 0.718943
vt 0.716625 0.707999
vt 0.707001 0.684808
vt 0.717093 0.657788
vt 0.714448 0.627832
vt 0.730019 0.613040
vt 0.709323 0.587682
vt 0.690077 0.599069
vt 0.589132 0.956304
vt 0.629695 0.963191
vt 0.554085 0.934477
vt 0.529598 0.901008
vt 0.518624 0.861131
vt 0.512682 0.826997
vt 0.568227 0.774389
vt 0.602062 0.767751
vt 0.636107 0.768830
vt 0.669202 0.775265
vt 0.698550 0.789841
vt 0.720600 0.819910
vt 0.729500 0.857572
vt 0.723277 0.896448
vt 0.702606 0.930408
vt 0.669600 0.954059
vt 0.599568 0.925443
vt 0.627271 0.930632
vt 0.575669 0.909976
vt 0.559178 0.886235
vt 0.553628 0.857468
vt 0.561674 0.827503
vt 0.581201 0.807706
vt 0.605414 0.798698
vt 0.631184 0.797542
vt 0.655736 0.803231
vt 0.676584 0.815798
vt 0.691011 0.836096
vt 0.696448 0.861124
vt 0.691649 0.887043
vt 0.677048 0.909541
vt 0.654448 0.924987
vt 0.613622 0.643455
vt 0.617972 0.628202
vt 0.641632 0.609970
vt 0.638328 0.644219
vt 0.634744 0.677342
vt 0.615247 0.658551
vt 0.672813 0.648204
vt 0.668382 0.681468
vt 0.651335 0.681222
vt 0.655679 0.645601
vt 0.659048 0.608706
vt 0.676042 0.613354
vt 0.624834 0.686076
vt 0.604150 0.667001
vt 0.608270 0.619812
vt 0.633094 0.600072
vt 0.695645 0.636783
vt 0.685832 0.605194
vt 0.706713 0.630148
vt 0.692115 0.667880
vt 0.700721 0.679047
vt 0.675852 0.692469
vt 0.600759 0.643431
vt 0.659908 0.596997
vt 0.650044 0.691304
vt 0.709588 0.655826
vt 0.696955 0.653042
vt 0.746412 0.577520
vt 0.685859 0.984504
vt 0.476702 0.831879
vt 0.483029 0.873228
vt 0.499585 0.919586
vt 0.532054 0.961275
vt 0.578535 0.989167
vt 0.632576 0.997559
vt 0.733814 0.952998
vt 0.765853 0.624282
vt 0.767357 0.672772
vt 0.749635 0.716670
vt 0.489652 0.832304
vt 0.535478 0.797008
vt 0.537592 0.803867
vt 0.479652 0.831907
vt 0.528008 0.765675
vt 0.522897 0.756741
vt 0.839729 0.023047
vt 0.839729 0.043651
vt 0.819125 0.043651
vt 0.822142 0.026064
vt 0.860333 0.043651
vt 0.857316 0.026064
vt 0.839729 0.064255
vt 0.857316 0.061238
vt 0.822142 0.061238
vt 0.839729 0.023047
vt 0.822142 0.026064
vt 0.819125 0.043651
vt 0.839729 0.043651
vt 0.860333 0.043651
vt 0.857316 0.026064
vt 0.839729 0.064255
vt 0.857316 0.061238
vt 0.822142 0.061238
vt 0.803708 0.043651
vt 0.798521 0.043651
vt 0.801658 0.059421
vt 0.806060 0.055479
vt 0.806060 0.031823
vt 0.801658 0.027881
vt 0.813453 0.020761
vt 0.810591 0.014513
vt 0.825326 0.012828
vt 0.823959 0.005580
vt 0.839729 0.009963
vt 0.839729 0.002443
vt 0.854132 0.012828
vt 0.855499 0.005580
vt 0.866005 0.020761
vt 0.868867 0.014513
vt 0.873396 0.031823
vt 0.877800 0.027881
vt 0.875750 0.043651
vt 0.880937 0.043651
vt 0.873396 0.055479
vt 0.877800 0.059421
vt 0.866005 0.066541
vt 0.868867 0.072789
vt 0.854132 0.074474
vt 0.855499 0.081722
vt 0.839729 0.077339
vt 0.839729 0.084859
vt 0.825326 0.074474
vt 0.823959 0.081722
vt 0.813453 0.066541
vt 0.810591 0.072789
vt 0.798521 0.043651
vt 0.803708 0.043651
vt 0.806060 0.055479
vt 0.801658 0.059421
vt 0.801658 0.027881
vt 0.806060 0.031823
vt 0.810591 0.014513
vt 0.813453 0.020761
vt 0.823959 0.005580
vt 0.825326 0.012828
vt 0.839729 0.002443
vt 0.839729 0.009963
vt 0.855499 0.005580
vt 0.854132 0.012828
vt 0.868867 0.014513
vt 0.866005 0.020761
vt 0.877800 0.027881
vt 0.873396 0.031823
vt 0.880937 0.043651
vt 0.875750 0.043651
vt 0.877800 0.059421
vt 0.873396 0.055479
vt 0.868867 0.072789
vt 0.866005 0.066541
vt 0.855499 0.081722
vt 0.854132 0.074474
vt 0.839729 0.084859
vt 0.839729 0.077339
vt 0.823959 0.081722
vt 0.825326 0.074474
vt 0.810591 0.072789
vt 0.813453 0.066541
vt 0.670350 0.023047
vt 0.670350 0.043651
vt 0.649746 0.043651
vt 0.652764 0.026064
vt 0.690954 0.043651
vt 0.687937 0.026064
vt 0.670350 0.064255
vt 0.687937 0.061238
vt 0.652764 0.061238
vt 0.670350 0.023047
vt 0.652764 0.026064
vt 0.649746 0.043651
vt 0.670350 0.043651
vt 0.690954 0.043651
vt 0.687937 0.026064
vt 0.670350 0.064255
vt 0.687937 0.061238
vt 0.652764 0.061238
vt 0.634330 0.043651
vt 0.629142 0.043651
vt 0.632279 0.059421
vt 0.636682 0.055479
vt 0.636682 0.031823
vt 0.632279 0.027881
vt 0.644075 0.020761
vt 0.641212 0.014513
vt 0.655948 0.012828
vt 0.654581 0.005580
vt 0.670350 0.009963
vt 0.670350 0.002443
vt 0.684753 0.012828
vt 0.686120 0.005580
vt 0.696626 0.020761
vt 0.699489 0.014513
vt 0.704018 0.031823
vt 0.708422 0.027881
vt 0.706371 0.043651
vt 0.711559 0.043651
vt 0.704018 0.055479
vt 0.708422 0.059421
vt 0.696626 0.066541
vt 0.699489 0.072790
vt 0.684753 0.074474
vt 0.686120 0.081722
vt 0.670350 0.077339
vt 0.670350 0.084859
vt 0.655948 0.074474
vt 0.654581 0.081722
vt 0.644075 0.066541
vt 0.641212 0.072790
vt 0.629142 0.043651
vt 0.634330 0.043651
vt 0.636682 0.055479
vt 0.632279 0.059421
vt 0.632279 0.027881
vt 0.636682 0.031823
vt 0.641212 0.014513
vt 0.644075 0.020761
vt 0.654581 0.005580
vt 0.655948 0.012828
vt 0.670350 0.002443
vt 0.670350 0.009963
vt 0.686120 0.005580
vt 0.684753 0.012828
vt 0.699489 0.014513
vt 0.696626 0.020761
vt 0.708422 0.027881
vt 0.704018 0.031823
vt 0.711559 0.043651
vt 0.706371 0.043651
vt 0.708422 0.059421
vt 0.704018 0.055479
vt 0.699489 0.072790
vt 0.696626 0.066541
vt 0.686120 0.081722
vt 0.684753 0.074474
vt 0.670350 0.084859
vt 0.670350 0.077339
vt 0.654581 0.081722
vt 0.655948 0.074474
vt 0.641212 0.072790
vt 0.644075 0.066541
vt 0.775644 0.043651
vt 0.755040 0.043651
vt 0.755040 0.023047
vt 0.772626 0.026064
vt 0.755040 0.064255
vt 0.772626 0.061238
vt 0.734436 0.043651
vt 0.737453 0.061238
vt 0.737453 0.026064
vt 0.775644 0.043651
vt 0.772626 0.026064
vt 0.755040 0.023047
vt 0.755040 0.043651
vt 0.755040 0.064255
vt 0.772626 0.061238
vt 0.734436 0.043651
vt 0.737453 0.061238
vt 0.737453 0.026064
vt 0.755040 0.007630
vt 0.755040 0.002443
vt 0.739270 0.005580
vt 0.743212 0.009982
vt 0.766868 0.009982
vt 0.770809 0.005580
vt 0.777929 0.017375
vt 0.784178 0.014513
vt 0.785863 0.029248
vt 0.793111 0.027881
vt 0.788728 0.043651
vt 0.796248 0.043651
vt 0.785863 0.058054
vt 0.793111 0.059421
vt 0.777929 0.069927
vt 0.784178 0.072789
vt 0.766868 0.077318
vt 0.770809 0.081722
vt 0.755040 0.079672
vt 0.755040 0.084859
vt 0.743212 0.077318
vt 0.739270 0.081722
vt 0.732150 0.069927
vt 0.725901 0.072789
vt 0.724216 0.058054
vt 0.716968 0.059421
vt 0.721351 0.043651
vt 0.713832 0.043651
vt 0.724216 0.029248
vt 0.716968 0.027881
vt 0.732150 0.017375
vt 0.725901 0.014513
vt 0.755040 0.002443
vt 0.755040 0.007630
vt 0.743212 0.009982
vt 0.739270 0.005580
vt 0.770809 0.005580
vt 0.766868 0.009982
vt 0.784178 0.014513
vt 0.777929 0.017375
vt 0.793111 0.027881
vt 0.785863 0.029248
vt 0.796248 0.043651
vt 0.788728 0.043651
vt 0.793111 0.059421
vt 0.785863 0.058054
vt 0.784178 0.072789
vt 0.777929 0.069927
vt 0.770809 0.081722
vt 0.766868 0.077318
vt 0.755040 0.084859
vt 0.755040 0.079672
vt 0.739270 0.081722
vt 0.743212 0.077318
vt 0.725901 0.072789
vt 0.732150 0.069927
vt 0.716968 0.059421
vt 0.724216 0.058054
vt 0.713832 0.043651
vt 0.721351 0.043651
vt 0.716968 0.027881
vt 0.724216 0.029248
vt 0.725901 0.014513
vt 0.732150 0.017375
vn -0.000000 1.000000 0.000000
vn 0.000000 1.000000 -0.000000
vn -0.000000 1.000000 -0.000000
vn -0.000000 1.000000 0.000000
vn 0.000000 1.000000 0.000000
vn 0.000000 1.000000 0.000000
vn -0.000000 1.000000 -0.000000
vn 0.000000 1.000000 -0.000000
vn -0.000000 1.000000 -0.000001
vn -0.092804 -0.995685 -0.000000
vn -0.949070 -0.315065 0.000000
vn -0.876829 -0.315041 -0.363208
vn -0.119766 -0.991562 -0.049609
vn -0.119766 -0.991562 0.049609
vn -0.876830 -0.315038 0.363207
vn -0.124876 -0.984283 0.124872
vn -0.671102 -0.315025 0.671104
vn -0.049610 -0.991562 0.119765
vn -0.363199 -0.315054 0.876828
vn -0.000000 -0.995684 0.092805
vn -0.000000 -0.315061 0.949071
vn 0.049613 -0.991562 0.119764
vn 0.363182 -0.315031 0.876844
vn 0.124877 -0.984283 0.124874
vn 0.671102 -0.315005 0.671114
vn 0.119765 -0.991562 0.049609
vn 0.876830 -0.315038 0.363207
vn 0.092804 -0.995685 0.000000
vn 0.949070 -0.315065 0.000000
vn 0.119766 -0.991562 -0.049608
vn 0.876829 -0.315041 -0.363208
vn 0.124877 -0.984283 -0.124874
vn 0.671101 -0.315007 -0.671114
vn 0.049613 -0.991562 -0.119764
vn 0.363182 -0.315027 -0.876845
vn -0.000000 -0.995684 -0.092805
vn 0.000000 -0.315053 -0.949074
vn -0.049610 -0.991562 -0.119765
vn -0.363200 -0.315050 -0.876829
vn -0.124876 -0.984283 -0.124871
vn -0.671101 -0.315027 -0.671105
vn -0.949069 0.315069 -0.000000
vn -0.260644 0.965435 -0.000001
vn -0.240816 0.965432 -0.099748
vn -0.876828 0.315044 -0.363207
vn -0.876830 0.315042 0.363206
vn -0.240815 0.965432 0.099748
vn -0.671101 0.315028 0.671104
vn -0.184312 0.965433 0.184307
vn -0.363198 0.315057 0.876827
vn -0.099747 0.965434 0.240806
vn 0.000000 0.315066 0.949070
vn -0.000000 0.965435 0.260644
vn 0.363182 0.315035 0.876842
vn 0.099755 0.965433 0.240806
vn 0.671100 0.315008 0.671114
vn 0.184306 0.965434 0.184304
vn 0.876830 0.315042 0.363206
vn 0.240805 0.965435 0.099745
vn 0.949069 0.315069 0.000000
vn 0.260644 0.965435 0.000001
vn 0.876828 0.315045 -0.363206
vn 0.240805 0.965435 -0.099744
vn 0.671099 0.315010 -0.671114
vn 0.184307 0.965434 -0.184304
vn 0.363182 0.315031 -0.876843
vn 0.099755 0.965433 -0.240808
vn 0.000000 0.315058 -0.949072
vn -0.000000 0.965435 -0.260646
vn -0.363199 0.315054 -0.876828
vn -0.099747 0.965434 -0.240806
vn -0.671099 0.315030 -0.671105
vn -0.184312 0.965433 -0.184307
vn -0.177276 0.984161 -0.000000
vn -0.986837 0.161721 0.000000
vn -0.911722 0.161715 -0.377640
vn -0.163787 0.984160 -0.067840
vn -0.163787 0.984160 0.067839
vn -0.911721 0.161715 0.377641
vn -0.125356 0.984161 0.125353
vn -0.697798 0.161701 0.697804
vn -0.067844 0.984159 0.163791
vn -0.377651 0.161684 0.911723
vn 0.000000 0.984160 0.177281
vn -0.000000 0.161686 0.986842
vn 0.067847 0.984161 0.163780
vn 0.377641 0.161689 0.911726
vn 0.125354 0.984160 0.125358
vn 0.697805 0.161682 0.697802
vn 0.163778 0.984162 0.067839
vn 0.911719 0.161701 0.377653
vn 0.177276 0.984161 0.000000
vn 0.986837 0.161721 -0.000000
vn 0.163779 0.984162 -0.067839
vn 0.911718 0.161701 -0.377654
vn 0.125355 0.984160 -0.125359
vn 0.697805 0.161682 -0.697802
vn 0.067847 0.984161 -0.163782
vn 0.377641 0.161688 -0.911726
vn 0.000000 0.984160 -0.177282
vn -0.000000 0.161684 -0.986843
vn -0.067844 0.984160 -0.163790
vn -0.377651 0.161682 -0.911723
vn -0.125357 0.984161 -0.125353
vn -0.697798 0.161701 -0.697804
vn -0.920243 0.391347 -0.000000
vn -0.175471 0.984485 0.000000
vn -0.162112 0.984485 -0.067147
vn -0.850180 0.391384 -0.352155
vn -0.850179 0.391384 0.352156
vn -0.162112 0.984485 0.067147
vn -0.650700 0.391401 0.650688
vn -0.124072 0.984486 0.124075
vn -0.352140 0.391394 0.850181
vn -0.067155 0.984486 0.162106
vn 0.000000 0.391406 0.920218
vn -0.000000 0.984486 0.175464
vn 0.352149 0.391402 0.850174
vn 0.067148 0.984486 0.162108
vn 0.650696 0.391372 0.650710
vn 0.124075 0.984485 0.124073
vn 0.850190 0.391350 0.352168
vn 0.162112 0.984485 0.067149
vn 0.920243 0.391348 0.000000
vn 0.175471 0.984485 -0.000000
vn 0.850189 0.391350 -0.352169
vn 0.162112 0.984485 -0.067149
vn 0.650696 0.391373 -0.650709
vn 0.124075 0.984485 -0.124073
vn 0.352148 0.391404 -0.850174
vn 0.067147 0.984486 -0.162109
vn 0.000000 0.391410 -0.920216
vn 0.000000 0.984486 -0.175464
vn -0.352141 0.391398 -0.850179
vn -0.067155 0.984486 -0.162106
vn -0.650698 0.391399 -0.650691
vn -0.124072 0.984486 -0.124075
vn -0.105410 0.994429 0.000000
vn -0.969510 0.245052 -0.000000
vn -0.895712 0.245044 -0.371017
vn -0.097389 0.994429 -0.040339
vn -0.097389 0.994429 0.040339
vn -0.895712 0.245044 0.371017
vn -0.074539 0.994429 0.074537
vn -0.685543 0.245037 0.685556
vn -0.040344 0.994429 0.097387
vn -0.371017 0.245018 0.895719
vn 0.000000 0.994429 0.105412
vn -0.000000 0.245004 0.969522
vn 0.040343 0.994429 0.097386
vn 0.371006 0.245001 0.895728
vn 0.074539 0.994428 0.074541
vn 0.685556 0.244996 0.685559
vn 0.097389 0.994429 0.040341
vn 0.895718 0.244992 0.371037
vn 0.105415 0.994428 -0.000000
vn 0.969524 0.244998 0.000000
vn 0.097389 0.994428 -0.040341
vn 0.895718 0.244992 -0.371036
vn 0.074539 0.994428 -0.074542
vn 0.685555 0.244995 -0.685560
vn 0.040343 0.994429 -0.097387
vn 0.371007 0.245002 -0.895727
vn 0.000000 0.994429 -0.105413
vn -0.000000 0.245004 -0.969522
vn -0.040344 0.994429 -0.097387
vn -0.371016 0.245017 -0.895720
vn -0.074539 0.994429 -0.074537
vn -0.685544 0.245037 -0.685555
vn -0.865023 0.501732 0.000001
vn -0.063378 0.997990 -0.000000
vn -0.063477 0.997637 -0.026292
vn -0.799172 0.501737 -0.331033
vn -0.799175 0.501733 0.331033
vn -0.063477 0.997637 0.026292
vn -0.611675 0.501707 0.611673
vn -0.059423 0.996463 0.059426
vn -0.331020 0.501707 0.799197
vn -0.026295 0.997637 0.063474
vn 0.000000 0.501714 0.865033
vn -0.000000 0.997990 0.063377
vn 0.331008 0.501704 0.799204
vn 0.026294 0.997637 0.063475
vn 0.611674 0.501707 0.611673
vn 0.059421 0.996463 0.059425
vn 0.799171 0.501734 0.331043
vn 0.063474 0.997637 0.026293
vn 0.865023 0.501733 0.000001
vn 0.063379 0.997990 0.000000
vn 0.799168 0.501737 -0.331046
vn 0.063474 0.997637 -0.026293
vn 0.611672 0.501713 -0.611671
vn 0.059421 0.996463 -0.059425
vn 0.331007 0.501710 -0.799200
vn 0.026294 0.997637 -0.063475
vn 0.000000 0.501722 -0.865029
vn -0.000000 0.997990 -0.063378
vn -0.331016 0.501709 -0.799198
vn -0.026295 0.997637 -0.063474
vn -0.611672 0.501713 -0.611671
vn -0.059423 0.996463 -0.059426
vn -0.243787 -0.969829 0.000000
vn -0.272433 -0.950147 0.151660
vn 0.000000 -1.000000 -0.000000
vn 0.000000 -1.000000 -0.000001
vn -0.000000 -0.969830 0.243782
vn -0.151666 -0.950146 0.272436
vn 0.151659 -0.950148 0.272430
vn 0.000000 -1.000000 -0.000000
vn 0.000000 -1.000000 0.000000
vn 0.243780 -0.969831 -0.000000
vn 0.272431 -0.950148 0.151660
vn 0.272431 -0.950148 -0.151660
vn 0.000000 -1.000000 0.000000
vn 0.000000 -1.000000 0.000001
vn -0.000000 -0.969830 -0.243782
vn 0.151659 -0.950148 -0.272430
vn -0.151666 -0.950145 -0.272436
vn 0.000000 -1.000000 0.000000
vn 0.000000 -1.000000 0.000000
vn -0.272433 -0.950147 -0.151660
vn -0.923882 0.000000 0.382676
vn -1.000000 0.000000 0.000000
vn -0.707106 0.000000 0.707107
vn -0.382686 0.000000 0.923879
vn 0.000000 0.000000 1.000000
vn 0.382681 0.000000 0.923880
vn 0.707106 0.000000 0.707107
vn 0.923878 0.000000 0.382688
vn 1.000000 0.000000 -0.000000
vn 0.923878 0.000000 -0.382688
vn 0.707106 0.000000 -0.707107
vn 0.382681 0.000000 -0.923881
vn -0.000000 0.000000 -1.000000
vn -0.382686 0.000000 -0.923878
vn -0.707106 0.000000 -0.707108
vn -0.923883 0.000000 -0.382676
vn -0.923880 0.000000 0.382683
vn -1.000000 0.000000 0.000000
vn -0.707102 0.000000 0.707112
vn -0.382689 0.000000 0.923877
vn 0.000000 0.000000 1.000000
vn 0.382675 0.000000 0.923883
vn 0.707103 0.000000 0.707111
vn 0.923874 0.000000 0.382697
vn 1.000000 0.000000 0.000001
vn 0.923874 0.000000 -0.382697
vn 0.707102 0.000000 -0.707112
vn 0.382677 0.000000 -0.923882
vn -0.000000 0.000000 -1.000000
vn -0.382687 0.000000 -0.923878
vn -0.707103 0.000000 -0.707111
vn -0.923880 0.000000 -0.382683
vn -0.000000 -0.967528 0.252764
vn -0.139494 -0.955655 0.259353
vn -0.249289 -0.959102 0.134085
vn 0.000000 -1.000000 -0.000000
vn 0.249284 -0.959104 0.134081
vn 0.139488 -0.955656 0.259353
vn 0.000000 -1.000000 -0.000001
vn 0.249284 -0.959104 -0.134081
vn 0.236409 -0.971654 -0.000000
vn 0.000000 -1.000000 0.000000
vn -0.236414 -0.971652 0.000000
vn -0.249289 -0.959102 -0.134084
vn 0.745773 -0.490079 0.451270
vn 0.451261 -0.490086 0.745774
vn -0.451266 -0.490096 0.745765
vn -0.745769 -0.490089 0.451266
vn -0.139494 -0.955656 -0.259353
vn -0.745769 -0.490090 -0.451266
vn -0.451266 -0.490098 -0.745763
vn 0.139488 -0.955656 -0.259353
vn 0.451261 -0.490088 -0.745773
vn 0.745772 -0.490080 -0.451271
vn 0.000000 -0.419495 0.907758
vn -0.907767 -0.419476 0.000000
vn 0.907775 -0.419457 -0.000000
vn 0.000000 -0.419496 -0.907757
vn -0.000000 -0.967528 -0.252763
vn 0.000000 -1.000000 0.000001
vn 0.000000 -1.000000 0.000000
vn 0.000000 1.000000 -0.000000
vn 0.000000 1.000000 -0.000000
vn 0.000000 1.000000 -0.000000
vn 0.000000 1.000000 -0.000000
vn 0.000000 1.000000 -0.000000
vn 0.000000 1.000000 0.000000
vn 0.000000 1.000000 0.000000
vn 0.000000 1.000000 -0.000000
vn 0.000000 1.000000 0.000000
vn 0.000000 -1.000000 0.000000
vn 0.000000 -1.000000 -0.000000
vn 0.000000 -1.000000 -0.000000
vn 0.000000 -1.000000 0.000000
vn 0.000000 -1.000000 0.000000
vn 0.000000 -1.000000 0.000000
vn 0.000000 -1.000000 0.000000
vn 0.000000 -1.000000 0.000000
vn 0.000000 -1.000000 -0.000000
vn -0.365023 -0.930999 -0.000000
vn -0.980302 -0.197507 0.000000
vn -0.831364 -0.201186 -0.518033
vn -0.337975 -0.916858 -0.212470
vn -0.337975 -0.916859 0.212470
vn -0.831364 -0.201186 0.518033
vn -0.288079 -0.853211 0.434790
vn -0.542062 -0.207713 0.814263
vn -0.125844 -0.880391 0.457248
vn -0.259972 -0.211885 0.942083
vn 0.000000 -0.888191 0.459474
vn -0.000000 -0.213153 0.977019
vn 0.125848 -0.880388 0.457252
vn 0.259981 -0.211883 0.942080
vn 0.288093 -0.853208 0.434787
vn 0.542062 -0.207709 0.814264
vn 0.337941 -0.916872 0.212465
vn 0.831348 -0.201188 0.518058
vn 0.365079 -0.930977 0.000000
vn 0.980297 -0.197528 0.000000
vn 0.337942 -0.916872 -0.212465
vn 0.831349 -0.201189 -0.518057
vn 0.288092 -0.853209 -0.434784
vn 0.542062 -0.207710 -0.814264
vn 0.125847 -0.880388 -0.457252
vn 0.259980 -0.211882 -0.942081
vn 0.000000 -0.888192 -0.459472
vn -0.000000 -0.213151 -0.977019
vn -0.125844 -0.880391 -0.457248
vn -0.259972 -0.211884 -0.942083
vn -0.288078 -0.853212 -0.434788
vn -0.542062 -0.207713 -0.814263
vn -0.980302 0.197507 0.000000
vn -0.365023 0.930999 -0.000000
vn -0.337975 0.916858 -0.212471
vn -0.831364 0.201186 -0.518033
vn -0.831364 0.201186 0.518033
vn -0.337975 0.916859 0.212470
vn -0.542061 0.207713 0.814263
vn -0.288079 0.853211 0.434789
vn -0.259972 0.211885 0.942083
vn -0.125843 0.880391 0.457248
vn -0.000000 0.213153 0.977019
vn 0.000000 0.888192 0.459474
vn 0.259981 0.211883 0.942080
vn 0.125848 0.880388 0.457252
vn 0.542062 0.207709 0.814264
vn 0.288092 0.853208 0.434787
vn 0.831348 0.201188 0.518058
vn 0.337941 0.916872 0.212465
vn 0.980297 0.197528 0.000000
vn 0.365079 0.930977 -0.000000
vn 0.831349 0.201189 -0.518057
vn 0.337941 0.916872 -0.212465
vn 0.542062 0.207710 -0.814264
vn 0.288091 0.853209 -0.434784
vn 0.259980 0.211882 -0.942081
vn 0.125847 0.880388 -0.457252
vn -0.000000 0.213151 -0.977019
vn 0.000000 0.888192 -0.459472
vn -0.259972 0.211884 -0.942083
vn -0.125844 0.880391 -0.457248
vn -0.542062 0.207713 -0.814263
vn -0.288078 0.853212 -0.434787
vn 0.000000 1.000000 -0.000000
vn 0.000000 1.000000 0.000000
vn 0.000000 1.000000 -0.000000
vn 0.000000 1.000000 0.000000
vn 0.000000 1.000000 0.000000
vn 0.000000 1.000000 -0.000000
vn 0.000000 1.000000 0.000000
vn 0.000000 1.000000 -0.000000
vn 0.000000 1.000000 -0.000000
vn 0.000000 -1.000000 -0.000000
vn 0.000000 -1.000000 -0.000000
vn 0.000000 -1.000000 0.000000
vn 0.000000 -1.000000 -0.000000
vn 0.000000 -1.000000 0.000000
vn 0.000000 -1.000000 0.000000
vn 0.000000 -1.000000 0.000000
vn 0.000000 -1.000000 0.000000
vn 0.000000 -1.000000 0.000000
vn -0.205179 -0.930997 0.301903
vn -0.551009 -0.197499 0.810792
vn -0.895757 -0.201176 0.396419
vn -0.365701 -0.916859 0.160102
vn -0.014242 -0.916859 0.398958
vn -0.038830 -0.201178 0.978785
vn 0.197672 -0.853211 0.482657
vn 0.368775 -0.207709 0.906014
vn 0.307450 -0.880386 0.361102
vn 0.633053 -0.211882 0.744547
vn 0.380031 -0.888186 0.258268
vn 0.808072 -0.213151 0.549168
vn 0.448929 -0.880382 0.152937
vn 0.925300 -0.211884 0.314522
vn 0.521547 -0.853200 0.006115
vn 0.978143 -0.207721 0.009365
vn 0.365685 -0.916869 -0.160080
vn 0.895764 -0.201204 -0.396388
vn 0.205201 -0.930982 -0.301934
vn 0.551013 -0.197530 -0.810782
vn 0.014241 -0.916866 -0.398941
vn 0.038828 -0.201195 -0.978781
vn -0.197665 -0.853213 -0.482655
vn -0.368767 -0.207712 -0.906017
vn -0.307438 -0.880393 -0.361096
vn -0.633040 -0.211875 -0.744560
vn -0.380013 -0.888197 -0.258256
vn -0.808072 -0.213151 -0.549168
vn -0.448908 -0.880395 -0.152930
vn -0.925300 -0.211885 -0.314523
vn -0.521520 -0.853217 -0.006127
vn -0.978145 -0.207712 -0.009371
vn -0.551009 0.197499 0.810792
vn -0.205179 0.930997 0.301903
vn -0.365701 0.916859 0.160102
vn -0.895757 0.201176 0.396419
vn -0.038830 0.201179 0.978785
vn -0.014242 0.916859 0.398958
vn 0.368775 0.207709 0.906014
vn 0.197672 0.853211 0.482657
vn 0.633053 0.211882 0.744547
vn 0.307450 0.880386 0.361102
vn 0.808072 0.213151 0.549168
vn 0.380031 0.888186 0.258268
vn 0.925300 0.211884 0.314522
vn 0.448929 0.880382 0.152937
vn 0.978143 0.207721 0.009365
vn 0.521547 0.853201 0.006115
vn 0.895764 0.201204 -0.396388
vn 0.365685 0.916869 -0.160080
vn 0.551013 0.197531 -0.810782
vn 0.205201 0.930983 -0.301934
vn 0.038828 0.201195 -0.978781
vn 0.014241 0.916866 -0.398941
vn -0.368767 0.207712 -0.906017
vn -0.197665 0.853213 -0.482655
vn -0.633040 0.211875 -0.744560
vn -0.307438 0.880393 -0.361096
vn -0.808072 0.213151 -0.549168
vn -0.380013 0.888197 -0.258255
vn -0.925300 0.211885 -0.314523
vn -0.448907 0.880395 -0.152930
vn -0.978145 0.207712 -0.009371
vn -0.521520 0.853217 -0.006127
vn 0.032921 0.908843 -0.415837
vn 0.032921 0.908843 -0.415837
vn 0.032921 0.908843 -0.415837
vn 0.032922 0.908843 -0.415837
vn 0.032921 0.908843 -0.415838
vn 0.032920 0.908843 -0.415837
vn 0.032921 0.908843 -0.415837
vn 0.032922 0.908843 -0.415837
vn 0.032920 0.908843 -0.415837
vn -0.032921 -0.908843 0.415838
vn -0.032919 -0.908843 0.415838
vn -0.032920 -0.908843 0.415837
vn -0.032921 -0.908843 0.415837
vn -0.032921 -0.908843 0.415838
vn -0.032921 -0.908843 0.415838
vn -0.032921 -0.908843 0.415837
vn -0.032921 -0.908843 0.415837
vn -0.032921 -0.908843 0.415837
vn -0.092236 -0.694590 0.713469
vn -0.171904 0.227465 0.958493
vn -0.657238 0.141186 0.740341
vn -0.296522 -0.701623 0.647920
vn 0.122100 -0.684316 0.718890
vn 0.363445 0.183397 0.913386
vn 0.351617 -0.638132 0.684948
vn 0.703847 0.069440 0.706950
vn 0.400233 -0.729267 0.554962
vn 0.877222 -0.046257 0.477852
vn 0.423384 -0.788519 0.446076
vn 0.955461 -0.153927 0.251794
vn 0.442707 -0.833750 0.329958
vn 0.964949 -0.262115 0.013027
vn 0.448833 -0.877323 0.169864
vn 0.886767 -0.380634 -0.262225
vn 0.236147 -0.964933 0.114628
vn 0.643986 -0.506881 -0.573022
vn 0.030944 -0.997671 0.060785
vn 0.158896 -0.586490 -0.794217
vn -0.182467 -0.982242 0.043666
vn -0.376690 -0.549090 -0.746060
vn -0.407796 -0.912740 0.024646
vn -0.717536 -0.446976 -0.534186
vn -0.458198 -0.871003 0.177226
vn -0.891167 -0.338873 -0.301640
vn -0.481873 -0.825945 0.292597
vn -0.969489 -0.233524 -0.074551
vn -0.500668 -0.766511 0.402234
vn -0.978897 -0.123007 0.163184
vn -0.505006 -0.673550 0.539722
vn -0.900443 0.003097 0.434963
vn -0.158899 0.586468 0.794234
vn -0.030938 0.997669 -0.060826
vn -0.236150 0.964934 -0.114615
vn -0.643992 0.506868 0.573027
vn 0.376691 0.549073 0.746072
vn 0.182469 0.982243 -0.043634
vn 0.717521 0.446967 0.534213
vn 0.407804 0.912737 -0.024633
vn 0.891171 0.338855 0.301650
vn 0.458197 0.871003 -0.177226
vn 0.969497 0.233495 0.074531
vn 0.481889 0.825933 -0.292607
vn 0.978899 0.122995 -0.163184
vn 0.500673 0.766504 -0.402242
vn 0.900442 -0.003095 -0.434966
vn 0.505029 0.673525 -0.539730
vn 0.657233 -0.141176 -0.740348
vn 0.296508 0.701645 -0.647902
vn 0.171902 -0.227440 -0.958499
vn 0.092239 0.694568 -0.713490
vn -0.363443 -0.183379 -0.913390
vn -0.122098 0.684336 -0.718871
vn -0.703860 -0.069415 -0.706939
vn -0.351620 0.638127 -0.684950
vn -0.877218 0.046266 -0.477859
vn -0.400226 0.729267 -0.554968
vn -0.955455 0.153925 -0.251820
vn -0.423393 0.788512 -0.446081
vn -0.964944 0.262131 -0.013034
vn -0.442678 0.833762 -0.329966
vn -0.886769 0.380636 0.262216
vn -0.448843 0.877315 -0.169877
g FCSET_pDisc2_001_0p554_0p709_0p556 pill_bottle1 PillBottle
usemtl lambert1SG
f 39/1/1 40/2/2 37/3/3 38/4/4
f 42/5/5 40/2/2 39/1/1 41/6/6
f 44/7/7 40/2/2 42/5/5 43/8/8
f 37/3/3 40/2/2 44/7/7 45/9/9
f 46/10/10 47/11/11 77/12/12 76/13/13
f 47/11/11 46/10/10 48/14/14 49/15/15
f 49/15/15 48/14/14 50/16/16 51/17/17
f 51/17/17 50/16/16 52/18/18 53/19/19
f 53/19/19 52/18/18 54/20/20 55/21/21
f 55/21/21 54/20/20 56/22/22 57/23/23
f 57/23/23 56/22/22 58/24/24 59/25/25
f 59/25/25 58/24/24 60/26/26 61/27/27
f 61/27/27 60/26/26 62/28/28 63/29/29
f 63/29/29 62/28/28 64/30/30 65/31/31
f 65/31/31 64/30/30 66/32/32 67/33/33
f 67/33/33 66/32/32 68/34/34 69/292/35
f 69/292/35 68/34/34 70/36/36 71/291/37
f 71/291/37 70/36/36 72/38/38 73/290/39
f 73/290/39 72/38/38 74/40/40 75/41/41
f 75/41/41 74/40/40 76/13/13 77/12/12
f 78/288/42 79/43/43 109/44/44 108/282/45
f 79/43/43 78/288/42 80/287/46 81/47/47
f 81/47/47 80/287/46 82/286/48 83/49/49
f 83/49/49 82/286/48 84/285/50 85/51/51
f 85/51/51 84/285/50 86/284/52 87/53/53
f 87/53/53 86/284/52 88/283/54 89/296/55
f 89/55/55 88/298/54 90/56/56 91/57/57
f 91/57/57 90/56/56 92/58/58 93/59/59
f 93/59/59 92/58/58 94/60/60 95/61/61
f 95/61/61 94/60/60 96/62/62 97/63/63
f 97/63/63 96/62/62 98/64/64 99/65/65
f 99/65/65 98/64/64 100/66/66 101/67/67
f 101/67/67 100/66/66 102/68/68 103/69/69
f 103/69/69 102/68/68 104/70/70 105/71/71
f 105/71/71 104/70/70 106/72/72 107/73/73
f 107/73/73 106/72/72 108/282/45 109/44/44
f 110/74/74 111/75/75 141/76/76 140/77/77
f 111/75/75 110/74/74 112/78/78 113/79/79
f 113/79/79 112/78/78 114/80/80 115/81/81
f 115/81/81 114/80/80 116/82/82 117/83/83
f 117/83/83 116/82/82 118/84/84 119/85/85
f 119/85/85 118/84/84 120/86/86 121/293/87
f 121/87/87 120/297/86 122/88/88 123/89/89
f 123/89/89 122/88/88 124/90/90 125/91/91
f 125/91/91 124/90/90 126/92/92 127/93/93
f 127/93/93 126/92/92 128/94/94 129/95/95
f 129/95/95 128/94/94 130/96/96 131/97/97
f 131/97/97 130/96/96 132/98/98 133/99/99
f 133/99/99 132/98/98 134/100/100 135/101/101
f 135/101/101 134/100/100 136/102/102 137/103/103
f 137/103/103 136/102/102 138/104/104 139/105/105
f 139/105/105 138/104/104 140/77/77 141/76/76
f 142/106/106 143/107/107 173/108/108 172/109/109
f 143/107/107 142/106/106 144/110/110 145/111/111
f 145/111/111 144/110/110 146/112/112 147/113/113
f 147/113/113 146/112/112 148/114/114 149/115/115
f 149/115/115 148/114/114 150/116/116 151/117/117
f 151/117/117 150/116/116 152/295/118 153/119/119
f 153/119/119 152/295/118 154/120/120 155/121/121
f 155/121/121 154/120/120 156/122/122 157/123/123
f 157/123/123 156/122/122 158/124/124 159/125/125
f 159/125/125 158/124/124 160/126/126 161/127/127
f 161/127/127 160/126/126 162/128/128 163/129/129
f 163/129/129 162/128/128 164/130/130 165/131/131
f 165/131/131 164/130/130 166/132/132 167/133/133
f 167/133/133 166/132/132 168/134/134 169/135/135
f 169/135/135 168/134/134 170/136/136 171/137/137
f 171/137/137 170/136/136 172/109/109 173/108/108
f 174/138/138 175/139/139 205/140/140 204/141/141
f 175/139/139 174/138/138 176/142/142 177/143/143
f 177/143/143 176/142/142 178/144/144 179/145/145
f 179/145/145 178/144/144 180/146/146 181/147/147
f 181/147/147 180/146/146 182/148/148 183/149/149
f 183/149/149 182/148/148 184/150/150 185/151/151
f 185/151/151 184/150/150 186/152/152 187/153/153
f 187/153/153 186/152/152 188/154/154 189/155/155
f 189/155/155 188/154/154 190/156/156 191/157/157
f 191/157/157 190/156/156 192/158/158 193/159/159
f 193/159/159 192/158/158 194/160/160 195/161/161
f 195/161/161 194/160/160 196/162/162 197/163/163
f 197/163/163 196/162/162 198/164/164 199/165/165
f 199/165/165 198/164/164 200/166/166 201/167/167
f 201/167/167 200/166/166 202/168/168 203/169/169
f 203/169/169 202/168/168 204/141/141 205/140/140
f 206/170/170 207/171/171 236/172/172 237/173/173
f 207/171/171 206/170/170 209/174/174 208/175/175
f 208/175/175 209/174/174 211/176/176 210/177/177
f 210/177/177 211/176/176 213/178/178 212/179/179
f 212/179/179 213/178/178 215/180/180 214/181/181
f 214/181/181 215/180/180 217/182/182 216/183/183
f 216/183/183 217/182/182 219/184/184 218/185/185
f 218/185/185 219/184/184 221/186/186 220/187/187
f 220/187/187 221/186/186 223/188/188 222/189/189
f 222/189/189 223/188/188 225/190/190 224/191/191
f 224/191/191 225/190/190 227/192/192 226/193/193
f 226/193/193 227/192/192 229/194/194 228/195/195
f 228/195/195 229/194/194 231/196/196 230/197/197
f 230/197/197 231/196/196 233/198/198 232/199/199
f 232/199/199 233/198/198 235/200/200 234/201/201
f 234/201/201 235/200/200 237/173/173 236/172/172
f 37/3/3 207/171/171 208/175/175 38/4/4
f 208/175/175 210/177/177 212/179/179 38/4/4
f 212/179/179 214/181/181 39/1/1 38/4/4
f 39/1/1 214/181/181 216/183/183 41/6/6
f 216/183/183 218/185/185 220/187/187 41/6/6
f 220/187/187 222/189/189 42/5/5 41/6/6
f 42/5/5 222/189/189 224/191/191 43/8/8
f 224/191/191 226/193/193 228/195/195 43/8/8
f 228/195/195 230/197/197 44/7/7 43/8/8
f 44/7/7 230/197/197 232/199/199 45/9/9
f 232/199/199 234/201/201 236/172/172 45/9/9
f 236/172/172 207/171/171 37/3/3 45/9/9
f 46/10/10 2/202/202 48/14/14
f 2/202/202 266/203/203 48/14/14
f 266/203/203 265/204/204 48/14/14
f 48/14/14 265/204/204 50/16/16
f 52/18/18 50/16/16 264/205/205
f 265/204/204 264/205/205 50/16/16
f 54/20/20 52/18/18 1/207/206
f 1/207/206 52/18/18 263/206/207
f 52/18/18 264/205/205 263/206/207
f 54/20/20 1/207/206 56/22/22
f 1/207/206 270/208/208 56/22/22
f 270/208/208 269/209/209 56/22/22
f 56/22/22 269/209/209 58/24/24
f 60/26/26 58/24/24 268/210/210
f 269/209/209 268/210/210 58/24/24
f 62/28/28 60/26/26 3/212/211
f 3/212/211 60/26/26 267/211/212
f 60/26/26 268/210/210 267/211/212
f 62/28/28 3/212/211 64/30/30
f 3/212/211 274/213/213 64/30/30
f 274/213/213 273/214/214 64/30/30
f 64/30/30 273/214/214 66/32/32
f 68/34/34 66/32/32 272/215/215
f 273/214/214 272/215/215 66/32/32
f 70/36/36 68/34/34 4/217/216
f 4/217/216 68/34/34 271/216/217
f 68/34/34 272/215/215 271/216/217
f 70/36/36 4/217/216 72/38/38
f 4/217/216 278/218/218 72/38/38
f 278/218/218 277/219/219 72/38/38
f 72/38/38 277/219/219 74/40/40
f 76/13/13 74/40/40 276/220/220
f 277/219/219 276/220/220 74/40/40
f 46/10/10 76/13/13 2/202/202
f 2/202/202 76/13/13 275/221/221
f 76/13/13 276/220/220 275/221/221
f 47/11/11 49/15/15 80/46/46 78/42/42
f 49/15/15 51/17/17 82/48/48 80/46/46
f 51/17/17 53/19/19 84/50/50 82/48/48
f 53/19/19 55/21/21 86/52/52 84/50/50
f 55/21/21 57/23/23 88/54/54 86/52/52
f 57/23/23 59/25/25 90/56/56 88/54/54
f 59/25/25 61/27/27 92/58/58 90/56/56
f 61/27/27 63/29/29 94/60/60 92/58/58
f 63/29/29 65/31/31 96/62/62 94/60/60
f 65/31/31 67/33/33 98/64/64 96/62/62
f 67/33/33 69/35/35 100/66/66 98/64/64
f 69/35/35 71/37/37 102/68/68 100/66/66
f 71/37/37 73/39/39 104/70/70 102/68/68
f 73/39/39 75/289/41 106/72/72 104/70/70
f 75/41/41 77/12/12 108/45/45 106/281/72
f 77/12/12 47/11/11 78/42/42 108/45/45
f 79/43/43 81/47/47 112/78/78 110/74/74
f 81/47/47 83/49/49 114/80/80 112/78/78
f 83/49/49 85/51/51 116/82/82 114/80/80
f 85/51/51 87/53/53 118/84/84 116/82/82
f 87/53/53 89/296/55 120/86/86 118/84/84
f 89/55/55 91/57/57 122/88/88 120/297/86
f 91/57/57 93/59/59 124/90/90 122/88/88
f 93/59/59 95/61/61 126/92/92 124/90/90
f 95/61/61 97/63/63 128/94/94 126/92/92
f 97/63/63 99/65/65 130/96/96 128/94/94
f 99/65/65 101/67/67 132/98/98 130/96/96
f 101/67/67 103/69/69 134/100/100 132/98/98
f 103/69/69 105/71/71 136/102/102 134/100/100
f 105/71/71 107/73/73 138/104/104 136/102/102
f 107/73/73 109/44/44 140/77/77 138/104/104
f 109/44/44 79/43/43 110/74/74 140/77/77
f 144/110/110 142/106/106 6/222/222
f 142/106/106 5/223/223 6/222/222
f 6/222/222 5/223/223 113/79/79
f 5/223/223 111/75/75 113/79/79
f 146/112/112 144/110/110 7/224/224
f 144/110/110 6/222/222 7/224/224
f 7/224/224 6/222/222 115/81/81
f 6/222/222 113/79/79 115/81/81
f 148/114/114 146/112/112 8/225/225
f 146/112/112 7/224/224 8/225/225
f 8/225/225 7/224/224 117/83/83
f 7/224/224 115/81/81 117/83/83
f 150/116/116 148/114/114 9/226/226
f 148/114/114 8/225/225 9/226/226
f 9/226/226 8/225/225 119/85/85
f 8/225/225 117/83/83 119/85/85
f 152/118/118 150/116/116 10/227/227
f 150/116/116 9/226/226 10/227/227
f 10/227/227 9/226/226 121/293/87
f 9/226/226 119/85/85 121/293/87
f 154/120/120 152/295/118 11/228/228
f 152/295/118 10/294/227 11/228/228
f 11/228/228 10/294/227 123/89/89
f 10/294/227 121/87/87 123/89/89
f 156/122/122 154/120/120 12/229/229
f 154/120/120 11/228/228 12/229/229
f 12/229/229 11/228/228 125/91/91
f 11/228/228 123/89/89 125/91/91
f 158/124/124 156/122/122 13/230/230
f 156/122/122 12/229/229 13/230/230
f 13/230/230 12/229/229 127/93/93
f 12/229/229 125/91/91 127/93/93
f 160/126/126 158/124/124 14/231/231
f 158/124/124 13/230/230 14/231/231
f 14/231/231 13/230/230 129/95/95
f 13/230/230 127/93/93 129/95/95
f 162/128/128 160/126/126 15/232/232
f 160/126/126 14/231/231 15/232/232
f 15/232/232 14/231/231 131/97/97
f 14/231/231 129/95/95 131/97/97
f 164/130/130 162/128/128 16/233/233
f 162/128/128 15/232/232 16/233/233
f 16/233/233 15/232/232 133/99/99
f 15/232/232 131/97/97 133/99/99
f 166/132/132 164/130/130 17/234/234
f 164/130/130 16/233/233 17/234/234
f 17/234/234 16/233/233 135/101/101
f 16/233/233 133/99/99 135/101/101
f 168/134/134 166/132/132 18/235/235
f 166/132/132 17/234/234 18/235/235
f 18/235/235 17/234/234 137/103/103
f 17/234/234 135/101/101 137/103/103
f 170/136/136 168/134/134 19/236/236
f 168/134/134 18/235/235 19/236/236
f 19/236/236 18/235/235 139/105/105
f 18/235/235 137/103/103 139/105/105
f 172/109/109 170/136/136 20/237/237
f 170/136/136 19/236/236 20/237/237
f 20/237/237 19/236/236 141/76/76
f 19/236/236 139/105/105 141/76/76
f 142/106/106 172/109/109 5/223/223
f 172/109/109 20/237/237 5/223/223
f 5/223/223 20/237/237 111/75/75
f 20/237/237 141/76/76 111/75/75
f 143/107/107 145/111/111 176/142/142 174/138/138
f 145/111/111 147/113/113 178/144/144 176/142/142
f 147/113/113 149/115/115 180/146/146 178/144/144
f 149/115/115 151/117/117 182/148/148 180/146/146
f 151/117/117 153/119/119 184/150/150 182/148/148
f 153/119/119 155/121/121 186/152/152 184/150/150
f 155/121/121 157/123/123 188/154/154 186/152/152
f 157/123/123 159/125/125 190/156/156 188/154/154
f 159/125/125 161/127/127 192/158/158 190/156/156
f 161/127/127 163/129/129 194/160/160 192/158/158
f 163/129/129 165/131/131 196/162/162 194/160/160
f 165/131/131 167/133/133 198/164/164 196/162/162
f 167/133/133 169/135/135 200/166/166 198/164/164
f 169/135/135 171/137/137 202/168/168 200/166/166
f 171/137/137 173/108/108 204/141/141 202/168/168
f 173/108/108 143/107/107 174/138/138 204/141/141
f 209/174/174 206/170/170 22/238/238
f 206/170/170 21/239/239 22/238/238
f 22/238/238 21/239/239 177/143/143
f 21/239/239 175/139/139 177/143/143
f 211/176/176 209/174/174 23/240/240
f 209/174/174 22/238/238 23/240/240
f 23/240/240 22/238/238 179/145/145
f 22/238/238 177/143/143 179/145/145
f 213/178/178 211/176/176 24/241/241
f 211/176/176 23/240/240 24/241/241
f 24/241/241 23/240/240 181/147/147
f 23/240/240 179/145/145 181/147/147
f 215/180/180 213/178/178 25/242/242
f 213/178/178 24/241/241 25/242/242
f 25/242/242 24/241/241 183/149/149
f 24/241/241 181/147/147 183/149/149
f 217/182/182 215/180/180 26/243/243
f 215/180/180 25/242/242 26/243/243
f 26/243/243 25/242/242 185/151/151
f 25/242/242 183/149/149 185/151/151
f 219/184/184 217/182/182 27/244/244
f 217/182/182 26/243/243 27/244/244
f 27/244/244 26/243/243 187/153/153
f 26/243/243 185/151/151 187/153/153
f 221/186/186 219/184/184 28/245/245
f 219/184/184 27/244/244 28/245/245
f 28/245/245 27/244/244 189/155/155
f 27/244/244 187/153/153 189/155/155
f 223/188/188 221/186/186 29/246/246
f 221/186/186 28/245/245 29/246/246
f 29/246/246 28/245/245 191/157/157
f 28/245/245 189/155/155 191/157/157
f 225/190/190 223/188/188 30/247/247
f 223/188/188 29/246/246 30/247/247
f 30/247/247 29/246/246 193/159/159
f 29/246/246 191/157/157 193/159/159
f 227/192/192 225/190/190 31/248/248
f 225/190/190 30/247/247 31/248/248
f 31/248/248 30/247/247 195/161/161
f 30/247/247 193/159/159 195/161/161
f 229/194/194 227/192/192 32/249/249
f 227/192/192 31/248/248 32/249/249
f 32/249/249 31/248/248 197/163/163
f 31/248/248 195/161/161 197/163/163
f 231/196/196 229/194/194 33/250/250
f 229/194/194 32/249/249 33/250/250
f 33/250/250 32/249/249 199/165/165
f 32/249/249 197/163/163 199/165/165
f 233/198/198 231/196/196 34/251/251
f 231/196/196 33/250/250 34/251/251
f 34/251/251 33/250/250 201/167/167
f 33/250/250 199/165/165 201/167/167
f 235/200/200 233/198/198 35/252/252
f 233/198/198 34/251/251 35/252/252
f 35/252/252 34/251/251 203/169/169
f 34/251/251 201/167/167 203/169/169
f 237/173/173 235/200/200 36/253/253
f 235/200/200 35/252/252 36/253/253
f 36/253/253 35/252/252 205/140/140
f 35/252/252 203/169/169 205/140/140
f 206/170/170 237/173/173 21/239/239
f 237/173/173 36/253/253 21/239/239
f 21/239/239 36/253/253 175/139/139
f 36/253/253 205/140/140 175/139/139
f 240/254/254 252/255/255 251/256/256 279/257/257
f 279/257/257 247/258/258 248/259/259 240/254/254
f 280/260/260 260/261/261 244/262/262 238/263/263
f 241/264/264 256/265/265 280/260/260 238/263/263
f 248/259/259 247/258/258 250/266/266 249/267/267
f 249/267/267 250/266/266 267/211/212 270/208/208
f 251/256/256 252/255/255 254/268/268 253/269/269
f 253/269/269 254/268/268 263/206/207 266/203/203
f 255/270/270 256/265/265 258/271/271 257/272/272
f 257/272/272 258/271/271 275/221/221 278/218/218
f 260/261/261 259/273/273 262/274/274 261/275/275
f 261/275/275 262/274/274 271/216/217 274/213/213
f 239/276/276 240/254/254 248/259/259 249/267/267
f 240/254/254 239/276/276 254/268/268 252/255/255
f 251/256/256 253/269/269 242/277/277 241/264/264
f 241/264/264 242/277/277 258/271/271 256/265/265
f 243/278/278 244/262/262 260/261/261 261/275/275
f 244/262/262 243/278/278 250/266/266 247/258/258
f 245/279/279 246/280/280 255/270/270 257/272/272
f 246/280/280 245/279/279 262/274/274 259/273/273
f 1/207/206 263/206/207 254/268/268 239/276/276
f 253/269/269 266/203/203 2/202/202 242/277/277
f 3/212/211 267/211/212 250/266/266 243/278/278
f 249/267/267 270/208/208 1/207/206 239/276/276
f 4/217/216 271/216/217 262/274/274 245/279/279
f 261/275/275 274/213/213 3/212/211 243/278/278
f 2/202/202 275/221/221 258/271/271 242/277/277
f 257/272/272 278/218/218 4/217/216 245/279/279
f 263/206/207 264/205/205 265/204/204 266/203/203
f 267/211/212 268/210/210 269/209/209 270/208/208
f 271/216/217 272/215/215 273/214/214 274/213/213
f 275/221/221 276/220/220 277/219/219 278/218/218
f 279/257/281 251/256/256 241/264/264 238/263/263
f 244/262/262 247/258/258 279/257/281 238/263/263
f 280/260/282 256/265/265 255/270/270 246/280/280
f 246/280/280 259/273/273 260/261/261 280/260/282
g pill_bottle1 PillBottle
f 292/299/283 293/300/284 290/301/285 291/302/286
f 295/303/287 293/300/284 292/299/283 294/304/288
f 297/305/289 293/300/284 295/303/287 296/306/290
f 290/301/285 293/300/284 297/305/289 298/307/291
f 282/308/292 284/309/293 283/310/294 281/311/295
f 285/312/296 286/313/297 282/308/292 281/311/295
f 287/314/298 288/315/299 285/312/296 281/311/295
f 283/310/294 289/316/300 287/314/298 281/311/295
f 299/317/301 300/318/302 330/319/303 329/320/304
f 300/318/302 299/317/301 301/321/305 302/322/306
f 302/322/306 301/321/305 303/323/307 304/324/308
f 304/324/308 303/323/307 305/325/309 306/326/310
f 306/326/310 305/325/309 307/327/311 308/328/312
f 308/328/312 307/327/311 309/329/313 310/330/314
f 310/330/314 309/329/313 311/331/315 312/332/316
f 312/332/316 311/331/315 313/333/317 314/334/318
f 314/334/318 313/333/317 315/335/319 316/336/320
f 316/336/320 315/335/319 317/337/321 318/338/322
f 318/338/322 317/337/321 319/339/323 320/340/324
f 320/340/324 319/339/323 321/341/325 322/342/326
f 322/342/326 321/341/325 323/343/327 324/344/328
f 324/344/328 323/343/327 325/345/329 326/346/330
f 326/346/330 325/345/329 327/347/331 328/348/332
f 328/348/332 327/347/331 329/320/304 330/319/303
f 331/349/333 332/350/334 361/351/335 362/352/336
f 332/350/334 331/349/333 334/353/337 333/354/338
f 333/354/338 334/353/337 336/355/339 335/356/340
f 335/356/340 336/355/339 338/357/341 337/358/342
f 337/358/342 338/357/341 340/359/343 339/360/344
f 339/360/344 340/359/343 342/361/345 341/362/346
f 341/362/346 342/361/345 344/363/347 343/364/348
f 343/364/348 344/363/347 346/365/349 345/366/350
f 345/366/350 346/365/349 348/367/351 347/368/352
f 347/368/352 348/367/351 350/369/353 349/370/354
f 349/370/354 350/369/353 352/371/355 351/372/356
f 351/372/356 352/371/355 354/373/357 353/374/358
f 353/374/358 354/373/357 356/375/359 355/376/360
f 355/376/360 356/375/359 358/377/361 357/378/362
f 357/378/362 358/377/361 360/379/363 359/380/364
f 359/380/364 360/379/363 362/352/336 361/351/335
f 290/301/285 332/350/334 333/354/338 291/302/286
f 333/354/338 335/356/340 337/358/342 291/302/286
f 337/358/342 339/360/344 292/299/283 291/302/286
f 292/299/283 339/360/344 341/362/346 294/304/288
f 341/362/346 343/364/348 345/366/350 294/304/288
f 345/366/350 347/368/352 295/303/287 294/304/288
f 295/303/287 347/368/352 349/370/354 296/306/290
f 349/370/354 351/372/356 353/374/358 296/306/290
f 353/374/358 355/376/360 297/305/289 296/306/290
f 297/305/289 355/376/360 357/378/362 298/307/291
f 357/378/362 359/380/364 361/351/335 298/307/291
f 361/351/335 332/350/334 290/301/285 298/307/291
f 283/310/294 284/309/293 301/321/305 299/317/301
f 301/321/305 284/309/293 305/325/309 303/323/307
f 305/325/309 284/309/293 282/308/292 307/327/311
f 282/308/292 286/313/297 309/329/313 307/327/311
f 309/329/313 286/313/297 313/333/317 311/331/315
f 313/333/317 286/313/297 285/312/296 315/335/319
f 285/312/296 288/315/299 317/337/321 315/335/319
f 317/337/321 288/315/299 321/341/325 319/339/323
f 321/341/325 288/315/299 287/314/298 323/343/327
f 287/314/298 289/316/300 325/345/329 323/343/327
f 325/345/329 289/316/300 329/320/304 327/347/331
f 329/320/304 289/316/300 283/310/294 299/317/301
f 300/318/302 302/322/306 334/353/337 331/349/333
f 302/322/306 304/324/308 336/355/339 334/353/337
f 304/324/308 306/326/310 338/357/341 336/355/339
f 306/326/310 308/328/312 340/359/343 338/357/341
f 308/328/312 310/330/314 342/361/345 340/359/343
f 310/330/314 312/332/316 344/363/347 342/361/345
f 312/332/316 314/334/318 346/365/349 344/363/347
f 314/334/318 316/336/320 348/367/351 346/365/349
f 316/336/320 318/338/322 350/369/353 348/367/351
f 318/338/322 320/340/324 352/371/355 350/369/353
f 320/340/324 322/342/326 354/373/357 352/371/355
f 322/342/326 324/344/328 356/375/359 354/373/357
f 324/344/328 326/346/330 358/377/361 356/375/359
f 326/346/330 328/348/332 360/379/363 358/377/361
f 328/348/332 330/319/303 362/352/336 360/379/363
f 330/319/303 300/318/302 331/349/333 362/352/336
f 374/381/365 375/382/366 372/383/367 373/384/368
f 377/385/369 375/382/366 374/381/365 376/386/370
f 379/387/371 375/382/366 377/385/369 378/388/372
f 372/383/367 375/382/366 379/387/371 380/389/373
f 364/390/374 366/391/375 365/392/376 363/393/377
f 367/394/378 368/395/379 364/390/374 363/393/377
f 369/396/380 370/397/381 367/394/378 363/393/377
f 365/392/376 371/398/382 369/396/380 363/393/377
f 381/399/383 382/400/384 412/401/385 411/402/386
f 382/400/384 381/399/383 383/403/387 384/404/388
f 384/404/388 383/403/387 385/405/389 386/406/390
f 386/406/390 385/405/389 387/407/391 388/408/392
f 388/408/392 387/407/391 389/409/393 390/410/394
f 390/410/394 389/409/393 391/411/395 392/412/396
f 392/412/396 391/411/395 393/413/397 394/414/398
f 394/414/398 393/413/397 395/415/399 396/416/400
f 396/416/400 395/415/399 397/417/401 398/418/402
f 398/418/402 397/417/401 399/419/403 400/420/404
f 400/420/404 399/419/403 401/421/405 402/422/406
f 402/422/406 401/421/405 403/423/407 404/424/408
f 404/424/408 403/423/407 405/425/409 406/426/410
f 406/426/410 405/425/409 407/427/411 408/428/412
f 408/428/412 407/427/411 409/429/413 410/430/414
f 410/430/414 409/429/413 411/402/386 412/401/385
f 413/431/415 414/432/416 443/433/417 444/434/418
f 414/432/416 413/431/415 416/435/419 415/436/420
f 415/436/420 416/435/419 418/437/421 417/438/422
f 417/438/422 418/437/421 420/439/423 419/440/424
f 419/440/424 420/439/423 422/441/425 421/442/426
f 421/442/426 422/441/425 424/443/427 423/444/428
f 423/444/428 424/443/427 426/445/429 425/446/430
f 425/446/430 426/445/429 428/447/431 427/448/432
f 427/448/432 428/447/431 430/449/433 429/450/434
f 429/450/434 430/449/433 432/451/435 431/452/436
f 431/452/436 432/451/435 434/453/437 433/454/438
f 433/454/438 434/453/437 436/455/439 435/456/440
f 435/456/440 436/455/439 438/457/441 437/458/442
f 437/458/442 438/457/441 440/459/443 439/460/444
f 439/460/444 440/459/443 442/461/445 441/462/446
f 441/462/446 442/461/445 444/434/418 443/433/417
f 372/383/367 414/432/416 415/436/420 373/384/368
f 415/436/420 417/438/422 419/440/424 373/384/368
f 419/440/424 421/442/426 374/381/365 373/384/368
f 374/381/365 421/442/426 423/444/428 376/386/370
f 423/444/428 425/446/430 427/448/432 376/386/370
f 427/448/432 429/450/434 377/385/369 376/386/370
f 377/385/369 429/450/434 431/452/436 378/388/372
f 431/452/436 433/454/438 435/456/440 378/388/372
f 435/456/440 437/458/442 379/387/371 378/388/372
f 379/387/371 437/458/442 439/460/444 380/389/373
f 439/460/444 441/462/446 443/433/417 380/389/373
f 443/433/417 414/432/416 372/383/367 380/389/373
f 365/392/376 366/391/375 383/403/387 381/399/383
f 383/403/387 366/391/375 387/407/391 385/405/389
f 387/407/391 366/391/375 364/390/374 389/409/393
f 364/390/374 368/395/379 391/411/395 389/409/393
f 391/411/395 368/395/379 395/415/399 393/413/397
f 395/415/399 368/395/379 367/394/378 397/417/401
f 367/394/378 370/397/381 399/419/403 397/417/401
f 399/419/403 370/397/381 403/423/407 401/421/405
f 403/423/407 370/397/381 369/396/380 405/425/409
f 369/396/380 371/398/382 407/427/411 405/425/409
f 407/427/411 371/398/382 411/402/386 409/429/413
f 411/402/386 371/398/382 365/392/376 381/399/383
f 382/400/384 384/404/388 416/435/419 413/431/415
f 384/404/388 386/406/390 418/437/421 416/435/419
f 386/406/390 388/408/392 420/439/423 418/437/421
f 388/408/392 390/410/394 422/441/425 420/439/423
f 390/410/394 392/412/396 424/443/427 422/441/425
f 392/412/396 394/414/398 426/445/429 424/443/427
f 394/414/398 396/416/400 428/447/431 426/445/429
f 396/416/400 398/418/402 430/449/433 428/447/431
f 398/418/402 400/420/404 432/451/435 430/449/433
f 400/420/404 402/422/406 434/453/437 432/451/435
f 402/422/406 404/424/408 436/455/439 434/453/437
f 404/424/408 406/426/410 438/457/441 436/455/439
f 406/426/410 408/428/412 440/459/443 438/457/441
f 408/428/412 410/430/414 442/461/445 440/459/443
f 410/430/414 412/401/385 444/434/418 442/461/445
f 412/401/385 382/400/384 413/431/415 444/434/418
f 456/463/447 457/464/448 454/465/449 455/466/450
f 459/467/451 457/464/448 456/463/447 458/468/452
f 461/469/453 457/464/448 459/467/451 460/470/454
f 454/465/449 457/464/448 461/469/453 462/471/455
f 446/472/456 448/473/457 447/474/458 445/475/459
f 449/476/460 450/477/461 446/472/456 445/475/459
f 451/478/462 452/479/463 449/476/460 445/475/459
f 447/474/458 453/480/464 451/478/462 445/475/459
f 463/481/465 464/482/466 494/483/467 493/484/468
f 464/482/466 463/481/465 465/485/469 466/486/470
f 466/486/470 465/485/469 467/487/471 468/488/472
f 468/488/472 467/487/471 469/489/473 470/490/474
f 470/490/474 469/489/473 471/491/475 472/492/476
f 472/492/476 471/491/475 473/493/477 474/494/478
f 474/494/478 473/493/477 475/495/479 476/496/480
f 476/496/480 475/495/479 477/497/481 478/498/482
f 478/498/482 477/497/481 479/499/483 480/500/484
f 480/500/484 479/499/483 481/501/485 482/502/486
f 482/502/486 481/501/485 483/503/487 484/504/488
f 484/504/488 483/503/487 485/505/489 486/506/490
f 486/506/490 485/505/489 487/507/491 488/508/492
f 488/508/492 487/507/491 489/509/493 490/510/494
f 490/510/494 489/509/493 491/511/495 492/512/496
f 492/512/496 491/511/495 493/484/468 494/483/467
f 495/513/497 496/514/498 525/515/499 526/516/500
f 496/514/498 495/513/497 498/517/501 497/518/502
f 497/518/502 498/517/501 500/519/503 499/520/504
f 499/520/504 500/519/503 502/521/505 501/522/506
f 501/522/506 502/521/505 504/523/507 503/524/508
f 503/524/508 504/523/507 506/525/509 505/526/510
f 505/526/510 506/525/509 508/527/511 507/528/512
f 507/528/512 508/527/511 510/529/513 509/530/514
f 509/530/514 510/529/513 512/531/515 511/532/516
f 511/532/516 512/531/515 514/533/517 513/534/518
f 513/534/518 514/533/517 516/535/519 515/536/520
f 515/536/520 516/535/519 518/537/521 517/538/522
f 517/538/522 518/537/521 520/539/523 519/540/524
f 519/540/524 520/539/523 522/541/525 521/542/526
f 521/542/526 522/541/525 524/543/527 523/544/528
f 523/544/528 524/543/527 526/516/500 525/515/499
f 454/465/449 496/514/498 497/518/502 455/466/450
f 497/518/502 499/520/504 501/522/506 455/466/450
f 501/522/506 503/524/508 456/463/447 455/466/450
f 456/463/447 503/524/508 505/526/510 458/468/452
f 505/526/510 507/528/512 509/530/514 458/468/452
f 509/530/514 511/532/516 459/467/451 458/468/452
f 459/467/451 511/532/516 513/534/518 460/470/454
f 513/534/518 515/536/520 517/538/522 460/470/454
f 517/538/522 519/540/524 461/469/453 460/470/454
f 461/469/453 519/540/524 521/542/526 462/471/455
f 521/542/526 523/544/528 525/515/499 462/471/455
f 525/515/499 496/514/498 454/465/449 462/471/455
f 447/474/458 448/473/457 465/485/469 463/481/465
f 465/485/469 448/473/457 469/489/473 467/487/471
f 469/489/473 448/473/457 446/472/456 471/491/475
f 446/472/456 450/477/461 473/493/477 471/491/475
f 473/493/477 450/477/461 477/497/481 475/495/479
f 477/497/481 450/477/461 449/476/460 479/499/483
f 449/476/460 452/479/463 481/501/485 479/499/483
f 481/501/485 452/479/463 485/505/489 483/503/487
f 485/505/489 452/479/463 451/478/462 487/507/491
f 451/478/462 453/480/464 489/509/493 487/507/491
f 489/509/493 453/480/464 493/484/468 491/511/495
f 493/484/468 453/480/464 447/474/458 463/481/465
f 464/482/466 466/486/470 498/517/501 495/513/497
f 466/486/470 468/488/472 500/519/503 498/517/501
f 468/488/472 470/490/474 502/521/505 500/519/503
f 470/490/474 472/492/476 504/523/507 502/521/505
f 472/492/476 474/494/478 506/525/509 504/523/507
f 474/494/478 476/496/480 508/527/511 506/525/509
f 476/496/480 478/498/482 510/529/513 508/527/511
f 478/498/482 480/500/484 512/531/515 510/529/513
f 480/500/484 482/502/486 514/533/517 512/531/515
f 482/502/486 484/504/488 516/535/519 514/533/517
f 484/504/488 486/506/490 518/537/521 516/535/519
f 486/506/490 488/508/492 520/539/523 518/537/521
f 488/508/492 490/510/494 522/541/525 520/539/523
f 490/510/494 492/512/496 524/543/527 522/541/525
f 492/512/496 494/483/467 526/516/500 524/543/527
f 494/483/467 464/482/466 495/513/497 526/516/500
g default
v 0.340241 0.109678 0.250999
v 0.315224 0.109678 0.125238
v 0.243985 0.109678 0.018624
v 0.137371 0.109678 -0.052613
v 0.011612 0.109678 -0.077629
v -0.114147 0.109678 -0.052613
v -0.220760 0.109678 0.018624
v -0.291999 0.109678 0.125238
v -0.317016 0.109678 0.250999
v -0.291999 0.109678 0.376759
v -0.220760 0.109678 0.483373
v -0.114147 0.109678 0.554610
v 0.011612 0.109678 0.579626
v 0.137371 0.109678 0.554610
v 0.243985 0.109678 0.483373
v 0.315224 0.109678 0.376759
v 0.340241 1.293519 0.250999
v 0.315224 1.293519 0.125238
v 0.243985 1.293519 0.018624
v 0.137371 1.293519 -0.052613
v 0.011612 1.293519 -0.077629
v -0.114147 1.293519 -0.052613
v -0.220760 1.293519 0.018624
v -0.291999 1.293519 0.125238
v -0.317016 1.293519 0.250999
v -0.291999 1.293519 0.376759
v -0.220760 1.293519 0.483373
v -0.114147 1.293519 0.554610
v 0.011612 1.293519 0.579626
v 0.137371 1.293519 0.554610
v 0.243985 1.293519 0.483373
v 0.315224 1.293519 0.376759
v 0.362145 1.280563 0.250999
v 0.335465 1.280563 0.116854
v 0.259480 1.280563 0.003132
v 0.145760 1.280563 -0.072854
v 0.011612 1.280563 -0.099537
v -0.122528 1.280563 -0.072854
v -0.236255 1.280563 0.003132
v -0.312240 1.280563 0.116854
v -0.338920 1.280563 0.250999
v -0.312240 1.280563 0.385143
v -0.236255 1.280563 0.498865
v -0.122528 1.280563 0.574851
v 0.011612 1.280563 0.601534
v 0.145760 1.280563 0.574851
v 0.259480 1.280563 0.498864
v 0.335465 1.280563 0.385143
v 0.362145 0.109678 0.250999
v 0.335465 0.109678 0.116854
v 0.259480 0.109678 0.003132
v 0.145760 0.109678 -0.072854
v 0.011612 0.109678 -0.099537
v -0.122528 0.109678 -0.072854
v -0.236255 0.109678 0.003132
v -0.312240 0.109678 0.116854
v -0.338920 0.109678 0.250999
v -0.312240 0.109678 0.385143
v -0.236255 0.109678 0.498865
v -0.122528 0.109678 0.574851
v 0.011612 0.109678 0.601534
v 0.145760 0.109678 0.574851
v 0.259480 0.109678 0.498864
v 0.335465 0.109678 0.385143
v 0.383809 1.254314 0.250999
v 0.355477 1.254314 0.108565
v 0.274796 1.254314 -0.012184
v 0.154045 1.254314 -0.092867
v 0.011612 1.254314 -0.121198
v -0.130821 1.254314 -0.092867
v -0.251567 1.254314 -0.012184
v -0.332252 1.254314 0.108565
v -0.360584 1.254314 0.250999
v -0.332252 1.254314 0.393432
v -0.251567 1.254314 0.514181
v -0.130821 1.254314 0.594864
v 0.011612 1.254314 0.623195
v 0.154045 1.254314 0.594863
v 0.274796 1.254314 0.514181
v 0.355477 1.254314 0.393432
v 0.383809 1.225004 0.250999
v 0.355477 1.225004 0.108565
v 0.274796 1.225004 -0.012184
v 0.154045 1.225004 -0.092867
v 0.011612 1.225004 -0.121198
v -0.130821 1.225004 -0.092867
v -0.251567 1.225004 -0.012184
v -0.332252 1.225004 0.108565
v -0.360584 1.225004 0.250999
v -0.332252 1.225004 0.393432
v -0.251567 1.225004 0.514181
v -0.130821 1.225004 0.594864
v 0.011612 1.225004 0.623195
v 0.154045 1.225004 0.594863
v 0.274796 1.225004 0.514181
v 0.355477 1.225004 0.393432
v 0.362145 1.198598 0.250999
v 0.335465 1.198598 0.116854
v 0.259480 1.198598 0.003132
v 0.145760 1.198598 -0.072854
v 0.011612 1.198598 -0.099537
v -0.122528 1.198598 -0.072854
v -0.236255 1.198598 0.003133
v -0.312240 1.198598 0.116854
v -0.338920 1.198598 0.250999
v -0.312240 1.198598 0.385143
v -0.236255 1.198598 0.498865
v -0.122528 1.198598 0.574851
v 0.011612 1.198598 0.601534
v 0.145760 1.198598 0.574851
v 0.259480 1.198598 0.498864
v 0.335465 1.198598 0.385143
v 0.340241 0.154592 0.250999
v 0.315224 0.154592 0.125238
v 0.243985 0.154592 0.018624
v 0.137371 0.154592 -0.052613
v 0.011612 0.154592 -0.077629
v -0.114147 0.154592 -0.052613
v -0.220760 0.154592 0.018624
v -0.291999 0.154592 0.125238
v -0.317016 0.154592 0.250999
v -0.291999 0.154592 0.376759
v -0.220760 0.154592 0.483373
v -0.114147 0.154592 0.554610
v 0.011612 0.154592 0.579626
v 0.137371 0.154592 0.554610
v 0.243985 0.154592 0.483373
v 0.315224 0.154592 0.376759
v 0.092282 0.126624 0.250999
v 0.086125 0.126624 0.220135
v 0.092282 0.137647 0.250999
v 0.086125 0.137647 0.220135
v 0.068638 0.126624 0.193970
v 0.068638 0.137647 0.193970
v 0.042473 0.126624 0.176487
v 0.042473 0.137647 0.176487
v 0.011612 0.126624 0.170347
v 0.011612 0.137647 0.170347
v -0.019249 0.126624 0.176487
v -0.019249 0.137647 0.176487
v -0.045414 0.126624 0.193970
v -0.045414 0.137647 0.193970
v -0.062900 0.126624 0.220135
v -0.062900 0.137647 0.220135
v -0.069019 0.126624 0.250999
v -0.069019 0.137647 0.250999
v -0.062900 0.126624 0.281862
v -0.062900 0.137647 0.281862
v -0.045414 0.126624 0.308027
v -0.045414 0.137647 0.308027
v -0.019249 0.126624 0.325510
v -0.019249 0.137647 0.325510
v 0.011612 0.126624 0.331650
v 0.011612 0.137647 0.331650
v 0.042473 0.126624 0.325510
v 0.042473 0.137647 0.325510
v 0.068638 0.126624 0.308027
v 0.068638 0.137647 0.308027
v 0.086125 0.126624 0.281862
v 0.086125 0.137647 0.281862
vt 0.403097 0.181835
vt 0.394357 0.218947
vt 0.041392 0.013316
vt 0.006330 0.008798
vt 0.411697 0.144862
vt 0.192114 0.759509
vt 0.423907 0.109063
vt 0.228741 0.751409
vt 0.438144 0.074525
vt 0.265302 0.742568
vt 0.453714 0.041434
vt 0.301328 0.733168
vt 0.415646 0.580693
vt 0.336242 0.724420
vt 0.409775 0.547523
vt 0.378563 0.087320
vt 0.403116 0.513527
vt 0.343372 0.074037
vt 0.396530 0.478685
vt 0.307290 0.060870
vt 0.390661 0.443018
vt 0.270302 0.048767
vt 0.386051 0.406593
vt 0.232614 0.038260
vt 0.383181 0.369535
vt 0.194551 0.029481
vt 0.382485 0.332047
vt 0.156037 0.021634
vt 0.384057 0.294305
vt 0.115668 0.017342
vt 0.388000 0.256527
vt 0.077624 0.015593
vt 0.039968 0.021968
vt 0.153076 0.758905
vt 0.190096 0.750957
vt 0.226754 0.742873
vt 0.263296 0.734037
vt 0.299365 0.724658
vt 0.412555 0.107739
vt 0.376461 0.095901
vt 0.341055 0.082460
vt 0.304960 0.069247
vt 0.268046 0.057140
vt 0.230455 0.046643
vt 0.192433 0.037858
vt 0.154043 0.030274
vt 0.114553 0.026003
vt 0.076573 0.024188
vt 0.089292 0.456784
vt 0.032069 0.327923
vt 0.036150 0.333494
vt 0.011752 0.351711
vt 0.123900 0.460609
vt 0.123975 0.455609
vt 0.158885 0.458760
vt 0.157784 0.454371
vt 0.193981 0.451029
vt 0.191885 0.447007
vt 0.228752 0.436875
vt 0.225154 0.433243
vt 0.262178 0.413700
vt 0.253168 0.412167
vt 0.250806 0.382037
vt 0.245837 0.384496
vt 0.233532 0.357757
vt 0.229790 0.360935
vt 0.213335 0.338393
vt 0.210411 0.342035
vt 0.190921 0.323595
vt 0.188775 0.327662
vt 0.166798 0.313233
vt 0.165468 0.317650
vt 0.141377 0.307257
vt 0.140891 0.311926
vt 0.115002 0.305695
vt 0.115370 0.310549
vt 0.087979 0.308622
vt 0.089226 0.313648
vt 0.060396 0.316051
vt 0.062703 0.321283
vt 0.038912 0.029529
vt 0.151333 0.751268
vt 0.188377 0.743573
vt 0.224999 0.735473
vt 0.261519 0.726637
vt 0.297570 0.717279
vt 0.410548 0.115894
vt 0.374526 0.103301
vt 0.339045 0.089761
vt 0.302961 0.076513
vt 0.266118 0.064402
vt 0.228615 0.053911
vt 0.190663 0.045144
vt 0.152431 0.037801
vt 0.113565 0.033555
vt 0.075669 0.031665
vt 0.037783 0.038357
vt 0.150486 0.742285
vt 0.186505 0.735025
vt 0.223023 0.726937
vt 0.259513 0.718096
vt 0.295469 0.708696
vt 0.406991 0.125050
vt 0.372091 0.111810
vt 0.336647 0.098142
vt 0.300603 0.084849
vt 0.263854 0.072732
vt 0.226460 0.062247
vt 0.188611 0.053526
vt 0.150577 0.046488
vt 0.112358 0.042277
vt 0.074588 0.040284
vt 0.673149 0.251302
vt 0.665244 0.273593
vt 0.684505 0.230033
vt 0.699426 0.209907
vt 0.718010 0.191077
vt 0.740349 0.173601
vt 0.732380 0.512752
vt 0.715020 0.485386
vt 0.700499 0.459365
vt 0.688489 0.434385
vt 0.678742 0.410288
vt 0.671076 0.386994
vt 0.665408 0.364473
vt 0.661366 0.341993
vt 0.659687 0.319284
vt 0.660809 0.296376
vt 0.119324 0.383546
vt 0.122032 0.392469
vt 0.724891 0.288819
vt 0.721336 0.298444
vt 0.131932 0.397918
vt 0.730004 0.280551
vt 0.143136 0.400451
vt 0.736091 0.274083
vt 0.154084 0.400241
vt 0.742925 0.270224
vt 0.163337 0.397624
vt 0.749934 0.270109
vt 0.169458 0.393102
vt 0.766517 0.409182
vt 0.171305 0.387582
vt 0.759052 0.403194
vt 0.169591 0.381670
vt 0.758491 0.305654
vt 0.164837 0.376200
vt 0.754954 0.321918
vt 0.157851 0.371826
vt 0.748071 0.336762
vt 0.149605 0.368888
vt 0.738539 0.348673
vt 0.141004 0.367583
vt 0.731044 0.340470
vt 0.132852 0.368164
vt 0.725081 0.330787
vt 0.125827 0.370954
vt 0.721189 0.320135
vt 0.120934 0.376179
vt 0.719998 0.309099
vt 0.330093 0.699402
vt 0.333489 0.707916
vt 0.335342 0.715528
vt 0.413538 0.098182
vt 0.159116 0.015533
vt 0.150121 0.008507
vt 0.413830 0.091250
vt 0.196194 0.023261
vt 0.234237 0.032003
vt 0.271996 0.042520
vt 0.309040 0.054628
vt 0.345106 0.067768
vt 0.380102 0.080927
vt 0.091983 0.449049
vt 0.002514 0.035559
vt 0.002441 0.344842
vt 0.002441 0.025870
vt 0.003592 0.017732
vt 0.396399 0.182160
vt 0.008715 0.002450
vt 0.078390 0.009135
vt 0.042566 0.006893
vt 0.115010 0.010725
vt 0.147420 0.002441
vt 0.742375 0.365300
vt 0.747024 0.380307
vt 0.752564 0.393183
vt 0.758766 0.289511
vt 0.756184 0.274832
vt 0.766517 0.157061
vt 0.470588 0.010390
vt 0.447781 0.038432
vt 0.465469 0.006155
vt 0.431961 0.072123
vt 0.417560 0.107104
vt 0.405129 0.143552
vt 0.156268 0.767388
vn 0.470261 0.860762 -0.194790
vn 0.509090 0.860713 0.000001
vn 0.509090 0.860713 0.000001
vn 0.470261 0.860762 -0.194791
vn 0.359909 0.860775 -0.359906
vn 0.359918 0.860775 -0.359897
vn 0.194772 0.860767 -0.470260
vn 0.194791 0.860767 -0.470252
vn -0.000001 0.860763 -0.509005
vn -0.000000 0.860763 -0.509005
vn -0.194799 0.860756 -0.470269
vn -0.194786 0.860756 -0.470274
vn -0.359920 0.860759 -0.359933
vn -0.359929 0.860759 -0.359924
vn -0.470289 0.860744 -0.194802
vn -0.470288 0.860744 -0.194803
vn -0.509052 0.860736 -0.000002
vn -0.509052 0.860736 -0.000002
vn -0.470240 0.860776 0.194780
vn -0.470240 0.860776 0.194780
vn -0.359889 0.860783 0.359908
vn -0.359899 0.860782 0.359898
vn -0.194802 0.860753 0.470273
vn -0.194788 0.860753 0.470279
vn 0.000002 0.860754 0.509021
vn 0.000002 0.860754 0.509021
vn 0.194794 0.860746 0.470288
vn 0.194814 0.860746 0.470280
vn 0.359913 0.860765 0.359926
vn 0.359923 0.860765 0.359917
vn 0.470290 0.860743 0.194803
vn 0.470290 0.860743 0.194803
vn 0.712621 0.636434 -0.295168
vn 0.771310 0.636459 0.000001
vn 0.771310 0.636459 0.000001
vn 0.712620 0.636434 -0.295169
vn 0.545406 0.636451 -0.545400
vn 0.545404 0.636451 -0.545403
vn 0.295169 0.636483 -0.712576
vn 0.295150 0.636483 -0.712584
vn -0.000002 0.636493 -0.771283
vn -0.000002 0.636493 -0.771283
vn -0.295143 0.636511 -0.712561
vn -0.295161 0.636511 -0.712554
vn -0.545397 0.636469 -0.545389
vn -0.545385 0.636469 -0.545402
vn -0.712610 0.636444 -0.295170
vn -0.712610 0.636444 -0.295170
vn -0.771309 0.636461 0.000004
vn -0.771309 0.636461 0.000004
vn -0.712620 0.636435 0.295168
vn -0.712619 0.636435 0.295169
vn -0.545394 0.636470 0.545391
vn -0.545381 0.636470 0.545404
vn -0.295149 0.636508 0.712562
vn -0.295167 0.636508 0.712555
vn 0.000003 0.636485 0.771289
vn 0.000003 0.636485 0.771289
vn 0.295171 0.636475 0.712583
vn 0.295152 0.636475 0.712591
vn 0.545398 0.636472 0.545385
vn 0.545394 0.636472 0.545388
vn 0.712590 0.636472 0.295158
vn 0.712590 0.636472 0.295159
vn 0.000000 -1.000000 -0.000000
vn 0.000000 -1.000000 0.000000
vn 0.000000 -1.000000 0.000000
vn 0.000000 -1.000000 -0.000000
vn 0.000000 -1.000000 -0.000000
vn 0.000000 -1.000000 -0.000000
vn 0.000000 -1.000000 0.000000
vn 0.000000 -1.000000 0.000000
vn 0.000000 -1.000000 -0.000000
vn 0.000000 -1.000000 -0.000000
vn 0.000000 -1.000000 -0.000000
vn 0.000000 -1.000000 -0.000000
vn 0.000000 -1.000000 -0.000000
vn 0.000000 -1.000000 -0.000000
vn 0.000000 -1.000000 -0.000000
vn 0.000000 -1.000000 -0.000000
vn 0.000000 -1.000000 0.000000
vn 0.000000 -1.000000 0.000000
vn 0.000000 -1.000000 0.000000
vn 0.000000 -1.000000 0.000000
vn 0.000000 -1.000000 0.000000
vn 0.000000 -1.000000 0.000000
vn 0.000000 -1.000000 0.000000
vn 0.000000 -1.000000 0.000000
vn 0.000000 -1.000000 0.000000
vn 0.000000 -1.000000 0.000000
vn 0.000000 -1.000000 0.000000
vn 0.000000 -1.000000 0.000000
vn 0.000000 -1.000000 0.000000
vn 0.000000 -1.000000 0.000000
vn 0.000000 -1.000000 0.000000
vn 0.000000 -1.000000 0.000000
vn 0.923881 0.000000 -0.382680
vn 1.000000 0.000000 -0.000000
vn 1.000000 0.000000 -0.000000
vn 0.923881 0.000000 -0.382680
vn 0.707106 0.000000 -0.707107
vn 0.707106 0.000000 -0.707107
vn 0.382682 0.000000 -0.923880
vn 0.382682 0.000000 -0.923880
vn -0.000000 0.000000 -1.000000
vn -0.000000 0.000000 -1.000000
vn -0.382688 0.000000 -0.923878
vn -0.382688 0.000000 -0.923878
vn -0.707107 0.000005 -0.707107
vn -0.707107 0.000005 -0.707107
vn -0.923877 0.000005 -0.382690
vn -0.923876 0.000005 -0.382692
vn -1.000000 0.000000 0.000000
vn -1.000000 0.000000 0.000000
vn -0.923876 0.000000 0.382691
vn -0.923876 0.000000 0.382691
vn -0.707107 0.000000 0.707106
vn -0.707107 0.000000 0.707106
vn -0.382687 0.000000 0.923878
vn -0.382687 0.000000 0.923878
vn 0.000001 0.000000 1.000000
vn 0.000001 0.000000 1.000000
vn 0.382682 0.000000 0.923880
vn 0.382682 0.000000 0.923880
vn 0.707107 0.000000 0.707107
vn 0.707107 0.000000 0.707107
vn 0.923881 0.000000 0.382680
vn 0.923881 0.000000 0.382680
vn 0.714341 -0.634169 -0.295882
vn 0.773173 -0.634195 0.000001
vn 0.773173 -0.634195 0.000001
vn 0.714342 -0.634169 -0.295881
vn 0.546721 -0.634187 -0.546720
vn 0.546724 -0.634187 -0.546717
vn 0.295862 -0.634226 -0.714299
vn 0.295881 -0.634226 -0.714291
vn -0.000001 -0.634242 -0.773134
vn -0.000002 -0.634242 -0.773134
vn -0.295874 -0.634242 -0.714280
vn -0.295856 -0.634242 -0.714287
vn -0.546709 -0.634194 -0.546724
vn -0.546722 -0.634194 -0.546711
vn -0.714352 -0.634152 -0.295893
vn -0.714352 -0.634152 -0.295892
vn -0.773197 -0.634166 -0.000001
vn -0.773197 -0.634166 -0.000001
vn -0.714338 -0.634170 0.295887
vn -0.714339 -0.634170 0.295886
vn -0.546701 -0.634205 0.546719
vn -0.546714 -0.634205 0.546706
vn -0.295874 -0.634243 0.714280
vn -0.295855 -0.634243 0.714287
vn 0.000002 -0.634228 0.773146
vn 0.000002 -0.634228 0.773146
vn 0.295862 -0.634218 0.714306
vn 0.295881 -0.634218 0.714298
vn 0.546712 -0.634208 0.546705
vn 0.546715 -0.634208 0.546702
vn 0.714312 -0.634207 0.295871
vn 0.714312 -0.634207 0.295871
vn 0.923886 0.000000 -0.382669
vn 1.000000 0.000000 0.000000
vn 1.000000 0.000000 0.000000
vn 0.923886 0.000000 -0.382669
vn 0.707113 0.000000 -0.707100
vn 0.707113 0.000000 -0.707100
vn 0.382681 0.000000 -0.923881
vn 0.382681 0.000000 -0.923881
vn -0.000001 0.000000 -1.000000
vn -0.000001 0.000000 -1.000000
vn -0.382681 0.000000 -0.923881
vn -0.382681 0.000000 -0.923881
vn -0.707099 0.000000 -0.707115
vn -0.707099 0.000000 -0.707115
vn -0.923886 0.000000 -0.382669
vn -0.923886 0.000000 -0.382669
vn -1.000000 0.000000 0.000000
vn -1.000000 0.000000 0.000000
vn -0.923886 0.000000 0.382669
vn -0.923886 0.000000 0.382669
vn -0.707099 -0.000000 0.707115
vn -0.707099 -0.000000 0.707115
vn -0.382681 -0.000000 0.923880
vn -0.382681 -0.000000 0.923881
vn -0.000000 0.000000 1.000000
vn -0.000000 0.000000 1.000000
vn 0.382682 0.000000 0.923880
vn 0.382682 0.000000 0.923880
vn 0.707113 0.000000 0.707100
vn 0.707113 0.000000 0.707100
vn 0.923886 0.000000 0.382669
vn 0.923886 0.000000 0.382669
vn -0.923874 0.000000 0.382696
vn -1.000000 0.000000 0.000000
vn -1.000000 0.000000 0.000000
vn -0.923874 0.000000 0.382696
vn -0.707105 0.000000 0.707108
vn -0.707105 0.000000 0.707108
vn -0.382687 0.000000 0.923878
vn -0.382687 0.000000 0.923878
vn 0.000001 0.000000 1.000000
vn 0.000001 0.000000 1.000000
vn 0.382687 0.000000 0.923878
vn 0.382687 0.000000 0.923878
vn 0.707105 0.000000 0.707109
vn 0.707105 0.000000 0.707109
vn 0.923874 0.000000 0.382696
vn 0.923874 0.000000 0.382696
vn 1.000000 0.000000 0.000000
vn 1.000000 0.000000 0.000000
vn 0.923874 0.000000 -0.382696
vn 0.923874 0.000000 -0.382696
vn 0.707105 0.000000 -0.707109
vn 0.707105 0.000000 -0.707109
vn 0.382687 0.000000 -0.923878
vn 0.382687 0.000000 -0.923878
vn 0.000000 0.000000 -1.000000
vn 0.000000 0.000000 -1.000000
vn -0.382687 0.000000 -0.923878
vn -0.382687 0.000000 -0.923878
vn -0.707105 0.000000 -0.707109
vn -0.707105 0.000000 -0.707109
vn -0.923874 0.000000 -0.382696
vn -0.923874 0.000000 -0.382696
vn -0.068170 -0.997582 0.013568
vn -0.068170 -0.997582 0.013568
vn -0.068170 -0.997582 0.013568
vn -0.068170 -0.997582 0.013568
vn -0.068170 0.997581 0.013568
vn -0.068170 0.997582 0.013568
vn -0.068170 0.997582 0.013568
vn -0.068170 0.997582 0.013568
vn -0.057792 -0.997581 0.038618
vn -0.057792 -0.997582 0.038618
vn -0.057792 -0.997582 0.038618
vn -0.057792 -0.997581 0.038618
vn -0.057793 0.997581 0.038619
vn -0.057793 0.997581 0.038619
vn -0.057793 0.997581 0.038619
vn -0.057793 0.997581 0.038619
vn -0.038615 -0.997582 0.057791
vn -0.038615 -0.997582 0.057791
vn -0.038615 -0.997582 0.057791
vn -0.038615 -0.997582 0.057791
vn -0.038616 0.997582 0.057791
vn -0.038616 0.997582 0.057791
vn -0.038616 0.997582 0.057791
vn -0.038616 0.997582 0.057791
vn -0.013560 -0.997582 0.068168
vn -0.013560 -0.997582 0.068168
vn -0.013560 -0.997582 0.068168
vn -0.013560 -0.997582 0.068168
vn -0.013560 0.997582 0.068169
vn -0.013560 0.997582 0.068169
vn -0.013560 0.997582 0.068168
vn -0.013560 0.997582 0.068169
vn 0.013561 -0.997581 0.068172
vn 0.013561 -0.997581 0.068172
vn 0.013561 -0.997582 0.068172
vn 0.013561 -0.997581 0.068172
vn 0.013561 0.997582 0.068172
vn 0.013561 0.997582 0.068172
vn 0.013561 0.997582 0.068172
vn 0.013561 0.997582 0.068172
vn 0.038617 -0.997581 0.057794
vn 0.038617 -0.997581 0.057794
vn 0.038617 -0.997581 0.057794
vn 0.038617 -0.997581 0.057794
vn 0.038615 0.997582 0.057791
vn 0.038615 0.997582 0.057791
vn 0.038615 0.997582 0.057791
vn 0.038615 0.997582 0.057791
vn 0.057789 -0.997582 0.038616
vn 0.057789 -0.997582 0.038616
vn 0.057789 -0.997582 0.038616
vn 0.057789 -0.997582 0.038616
vn 0.057789 0.997582 0.038616
vn 0.057789 0.997582 0.038616
vn 0.057789 0.997582 0.038616
vn 0.057789 0.997582 0.038616
vn 0.068170 -0.997582 0.013552
vn 0.068170 -0.997582 0.013552
vn 0.068170 -0.997582 0.013552
vn 0.068170 -0.997582 0.013552
vn 0.068170 0.997582 0.013552
vn 0.068170 0.997582 0.013552
vn 0.068170 0.997582 0.013552
vn 0.068170 0.997582 0.013552
vn 0.068170 -0.997582 -0.013552
vn 0.068170 -0.997582 -0.013552
vn 0.068170 -0.997582 -0.013552
vn 0.068170 -0.997582 -0.013552
vn 0.068170 0.997582 -0.013552
vn 0.068170 0.997582 -0.013552
vn 0.068170 0.997582 -0.013552
vn 0.068170 0.997582 -0.013552
vn 0.057792 -0.997582 -0.038618
vn 0.057792 -0.997581 -0.038618
vn 0.057792 -0.997581 -0.038618
vn 0.057792 -0.997582 -0.038618
vn 0.057790 0.997582 -0.038617
vn 0.057790 0.997582 -0.038617
vn 0.057790 0.997582 -0.038617
vn 0.057790 0.997582 -0.038617
vn 0.038615 -0.997582 -0.057791
vn 0.038615 -0.997582 -0.057791
vn 0.038615 -0.997582 -0.057791
vn 0.038615 -0.997582 -0.057791
vn 0.038617 0.997581 -0.057794
vn 0.038617 0.997581 -0.057794
vn 0.038617 0.997581 -0.057794
vn 0.038617 0.997581 -0.057794
vn 0.013561 -0.997581 -0.068172
vn 0.013561 -0.997581 -0.068172
vn 0.013561 -0.997581 -0.068172
vn 0.013561 -0.997582 -0.068172
vn 0.013561 0.997582 -0.068172
vn 0.013561 0.997582 -0.068172
vn 0.013561 0.997582 -0.068172
vn 0.013561 0.997582 -0.068172
vn -0.013560 -0.997582 -0.068168
vn -0.013560 -0.997582 -0.068168
vn -0.013560 -0.997582 -0.068168
vn -0.013560 -0.997582 -0.068168
vn -0.013560 0.997582 -0.068168
vn -0.013560 0.997582 -0.068168
vn -0.013560 0.997582 -0.068168
vn -0.013560 0.997582 -0.068168
vn -0.038615 -0.997582 -0.057791
vn -0.038615 -0.997582 -0.057791
vn -0.038615 -0.997582 -0.057791
vn -0.038615 -0.997582 -0.057791
vn -0.038615 0.997582 -0.057791
vn -0.038615 0.997582 -0.057791
vn -0.038615 0.997582 -0.057791
vn -0.038615 0.997582 -0.057791
vn -0.057793 -0.997581 -0.038619
vn -0.057793 -0.997581 -0.038619
vn -0.057793 -0.997581 -0.038619
vn -0.057793 -0.997581 -0.038619
vn -0.057792 0.997581 -0.038618
vn -0.057792 0.997582 -0.038618
vn -0.057792 0.997582 -0.038618
vn -0.057792 0.997581 -0.038618
vn -0.068170 -0.997581 -0.013568
vn -0.068170 -0.997581 -0.013568
vn -0.068170 -0.997582 -0.013568
vn -0.068170 -0.997582 -0.013568
vn -0.068170 0.997581 -0.013568
vn -0.068170 0.997581 -0.013568
vn -0.068170 0.997581 -0.013568
vn -0.068170 0.997581 -0.013568
vn 0.000000 1.000000 -0.000000
vn 0.000000 1.000000 -0.000000
vn 0.000000 1.000000 -0.000000
vn 0.000000 1.000000 -0.000000
vn 0.000000 1.000000 0.000000
vn 0.000000 1.000000 0.000000
vn 0.000000 1.000000 0.000000
vn 0.000000 1.000000 0.000000
vn 0.000000 1.000000 0.000000
vn 0.000000 1.000000 0.000000
vn 0.000000 1.000000 0.000000
vn 0.000000 1.000000 0.000000
vn 0.000000 1.000000 -0.000000
vn 0.000000 1.000000 -0.000000
vn 0.000000 1.000000 -0.000000
vn 0.000000 1.000000 -0.000000
vn 0.000000 1.000000 -0.000000
vn 0.000000 1.000000 -0.000000
vn 0.000000 1.000000 -0.000000
vn 0.000000 1.000000 -0.000000
vn 0.000000 1.000000 0.000000
vn 0.000000 1.000000 0.000000
vn 0.000000 1.000000 0.000000
vn 0.000000 1.000000 0.000000
vn 0.000000 1.000000 0.000000
vn 0.000000 1.000000 0.000000
vn 0.000000 1.000000 0.000000
vn 0.000000 1.000000 0.000000
vn 0.000000 -1.000000 0.000000
vn 0.000000 -1.000000 0.000000
vn 0.000000 -1.000000 0.000000
vn 0.000000 -1.000000 0.000000
vn 0.000000 -1.000000 0.000000
vn 0.000000 -1.000000 0.000000
vn 0.000000 -1.000000 0.000000
vn 0.000000 -1.000000 0.000000
vn 0.000000 -1.000000 -0.000000
vn 0.000000 -1.000000 -0.000000
vn 0.000000 -1.000000 -0.000000
vn 0.000000 -1.000000 -0.000000
vn 0.000000 -1.000000 0.000000
vn 0.000000 -1.000000 0.000000
vn 0.000000 -1.000000 0.000000
vn 0.000000 -1.000000 0.000000
vn 0.000000 -1.000000 -0.000000
vn 0.000000 -1.000000 -0.000000
vn 0.000000 -1.000000 -0.000000
vn 0.000000 -1.000000 -0.000000
vn 0.000000 -1.000000 0.000000
vn 0.000000 -1.000000 0.000000
vn 0.000000 -1.000000 0.000000
vn 0.000000 -1.000000 0.000000
vn 0.000000 -1.000000 -0.000000
vn 0.000000 -1.000000 -0.000000
vn 0.000000 -1.000000 -0.000000
vn 0.000000 -1.000000 -0.000000
g FCSET_pPipe3_001_0p253_0p528_0p84 PillBottle pPipe3
usemtl lambert5SG
f 544/724/529 543/726/530 559/547/531 560/548/532
f 545/549/533 544/545/529 560/723/532 561/740/534
f 546/551/535 545/549/533 561/740/534 562/739/536
f 547/553/537 546/551/535 562/739/536 563/738/538
f 548/555/539 547/553/537 563/738/538 564/736/540
f 549/735/541 548/555/539 564/736/540 565/737/542
f 550/717/543 549/711/541 565/708/542 566/560/544
f 551/716/545 550/717/543 566/560/544 567/562/546
f 552/715/547 551/716/545 567/562/546 568/564/548
f 553/714/549 552/715/547 568/564/548 569/566/550
f 554/713/551 553/714/549 569/566/550 570/568/552
f 555/712/553 554/713/551 570/568/552 571/570/554
f 556/709/555 555/712/553 571/570/554 572/572/556
f 557/727/557 556/728/555 572/710/556 573/574/558
f 558/725/559 557/727/557 573/574/558 574/576/560
f 543/726/530 558/725/559 574/576/560 559/547/531
f 560/548/561 559/547/562 591/577/563 592/722/564
f 561/550/565 560/741/561 592/578/564 593/579/566
f 562/552/567 561/550/565 593/579/566 594/580/568
f 563/554/569 562/552/567 594/580/568 595/581/570
f 564/556/571 563/554/569 595/581/570 596/582/572
f 565/558/573 564/556/571 596/582/572 597/707/574
f 566/560/575 565/708/573 597/583/574 598/584/576
f 567/562/577 566/560/575 598/584/576 599/585/578
f 568/564/579 567/562/577 599/585/578 600/586/580
f 569/566/581 568/564/579 600/586/580 601/587/582
f 570/568/583 569/566/581 601/587/582 602/588/584
f 571/570/585 570/568/583 602/588/584 603/589/586
f 572/572/587 571/570/585 603/589/586 604/590/588
f 573/574/589 572/572/587 604/590/588 605/591/590
f 574/576/591 573/574/589 605/591/590 606/592/592
f 559/547/562 574/576/591 606/592/592 591/577/563
f 576/720/593 575/594/594 527/595/595 528/596/596
f 577/597/597 576/593/593 528/718/596 529/598/598
f 578/599/599 577/597/597 529/598/598 530/600/600
f 579/601/601 578/599/599 530/600/600 531/602/602
f 580/603/603 579/601/601 531/602/602 532/604/604
f 581/605/605 580/603/603 532/604/604 533/606/606
f 582/607/607 581/605/605 533/606/606 534/608/608
f 583/609/609 582/607/607 534/608/608 535/610/610
f 584/611/611 583/609/609 535/610/610 536/612/612
f 585/613/613 584/611/611 536/612/612 537/614/614
f 586/615/615 585/613/613 537/614/614 538/616/616
f 587/617/617 586/615/615 538/616/616 539/618/618
f 588/619/619 587/617/617 539/618/618 540/620/620
f 589/621/621 588/619/619 540/620/620 541/622/622
f 590/623/623 589/621/621 541/622/622 542/624/624
f 575/594/594 590/623/623 542/624/624 527/595/595
f 592/722/625 591/577/626 607/625/627 608/721/628
f 593/579/629 592/578/625 608/626/628 609/627/630
f 594/580/631 593/579/629 609/627/630 610/628/632
f 595/581/633 594/580/631 610/628/632 611/629/634
f 596/582/635 595/581/633 611/629/634 612/630/636
f 597/707/637 596/582/635 612/630/636 613/706/638
f 598/584/639 597/583/637 613/631/638 614/632/640
f 599/585/641 598/584/639 614/632/640 615/633/642
f 600/586/643 599/585/641 615/633/642 616/634/644
f 601/587/645 600/586/643 616/634/644 617/635/646
f 602/588/647 601/587/645 617/635/646 618/636/648
f 603/589/649 602/588/647 618/636/648 619/637/650
f 604/590/651 603/589/649 619/637/650 620/638/652
f 605/591/653 604/590/651 620/638/652 621/639/654
f 606/592/655 605/591/653 621/639/654 622/640/656
f 591/577/626 606/592/655 622/640/656 607/625/627
f 608/721/657 607/625/658 623/641/659 624/719/660
f 609/627/661 608/626/657 624/642/660 625/643/662
f 610/628/663 609/627/661 625/643/662 626/644/664
f 611/629/665 610/628/663 626/644/664 627/645/666
f 612/630/667 611/629/665 627/645/666 628/646/668
f 613/706/669 612/630/667 628/646/668 629/705/670
f 614/632/671 613/631/669 629/647/670 630/648/672
f 615/633/673 614/632/671 630/648/672 631/649/674
f 616/634/675 615/633/673 631/649/674 632/650/676
f 617/635/677 616/634/675 632/650/676 633/651/678
f 618/636/679 617/635/677 633/651/678 634/652/680
f 619/637/681 618/636/679 634/652/680 635/653/682
f 620/638/683 619/637/681 635/653/682 636/654/684
f 621/639/685 620/638/683 636/654/684 637/655/686
f 622/640/687 621/639/685 637/655/686 638/656/688
f 607/625/658 622/640/687 638/656/688 623/641/659
f 624/719/689 623/641/690 575/594/691 576/720/692
f 625/643/693 624/642/689 576/593/692 577/597/694
f 626/644/695 625/643/693 577/597/694 578/599/696
f 627/645/697 626/644/695 578/599/696 579/601/698
f 628/646/699 627/645/697 579/601/698 580/603/700
f 629/705/701 628/646/699 580/603/700 581/605/702
f 630/648/703 629/647/701 581/605/702 582/607/704
f 631/649/705 630/648/703 582/607/704 583/609/706
f 632/650/707 631/649/705 583/609/706 584/611/708
f 633/651/709 632/650/707 584/611/708 585/613/710
f 634/652/711 633/651/709 585/613/710 586/615/712
f 635/653/713 634/652/711 586/615/712 587/617/714
f 636/654/715 635/653/713 587/617/714 588/619/716
f 637/655/717 636/654/715 588/619/716 589/621/718
f 638/656/719 637/655/717 589/621/718 590/623/720
f 623/641/690 638/656/719 590/623/720 575/594/691
f 640/657/721 639/658/722 543/546/723 544/545/724
f 641/659/725 640/657/721 544/545/724 545/549/726
f 642/660/727 641/659/725 545/549/726 546/551/728
f 643/661/729 642/660/727 546/551/728 547/553/730
f 644/662/731 643/661/729 547/553/730 548/555/732
f 645/734/733 644/662/731 548/555/732 549/735/734
f 646/664/735 645/663/733 549/557/734 550/559/736
f 647/665/737 646/664/735 550/559/736 551/561/738
f 648/666/739 647/665/737 551/561/738 552/563/740
f 649/667/741 648/666/739 552/563/740 553/565/742
f 650/668/743 649/667/741 553/565/742 554/567/744
f 651/669/745 650/668/743 554/567/744 555/569/746
f 652/670/747 651/669/745 555/569/746 556/571/748
f 653/671/749 652/670/747 556/571/748 557/573/750
f 654/672/751 653/671/749 557/573/750 558/575/752
f 639/658/722 654/672/751 558/575/752 543/546/723
f 528/596/753 527/595/754 655/673/755 656/674/756
f 639/658/757 640/657/758 658/675/759 657/676/760
f 529/598/761 528/718/762 656/674/763 659/677/764
f 640/657/765 641/659/766 660/678/767 658/675/768
f 530/600/769 529/598/770 659/677/771 661/679/772
f 641/659/773 642/660/774 662/680/775 660/678/776
f 531/602/777 530/600/778 661/679/779 663/681/780
f 642/660/781 643/661/782 664/682/783 662/680/784
f 532/604/785 531/602/786 663/681/787 665/683/788
f 643/661/789 644/662/790 666/684/791 664/682/792
f 533/606/793 532/604/794 665/683/795 667/685/796
f 644/662/797 645/734/798 668/733/799 666/684/800
f 534/608/801 533/606/802 667/685/803 669/687/804
f 645/663/805 646/664/806 670/688/807 668/686/808
f 535/610/809 534/608/810 669/687/811 671/689/812
f 646/664/813 647/665/814 672/731/815 670/688/816
f 536/612/817 535/610/818 671/689/819 673/691/820
f 647/665/821 648/666/822 674/730/823 672/731/824
f 537/614/825 536/612/826 673/691/827 675/693/828
f 648/666/829 649/667/830 676/729/831 674/730/832
f 538/616/833 537/614/834 675/693/835 677/695/836
f 649/667/837 650/668/838 678/696/839 676/729/840
f 539/618/841 538/616/842 677/695/843 679/697/844
f 650/668/845 651/669/846 680/698/847 678/696/848
f 540/620/849 539/618/850 679/697/851 681/699/852
f 651/669/853 652/670/854 682/700/855 680/698/856
f 541/622/857 540/620/858 681/699/859 683/701/860
f 652/670/861 653/671/862 684/702/863 682/700/864
f 542/624/865 541/622/866 683/701/867 685/703/868
f 653/671/869 654/672/870 686/704/871 684/702/872
f 527/595/873 542/624/874 685/703/875 655/673/876
f 654/672/877 639/658/878 657/676/879 686/704/880
f 660/678/881 662/680/882 676/694/883 678/696/884
f 658/675/885 660/678/886 678/696/887 680/698/888
f 657/676/889 658/675/890 680/698/891 682/700/892
f 657/676/893 682/700/894 684/702/895 686/704/896
f 662/680/897 664/682/898 674/692/899 676/694/900
f 664/682/901 666/684/902 672/690/903 674/692/904
f 668/733/905 670/732/906 672/690/907 666/684/908
f 669/687/909 667/685/910 665/683/911 671/689/912
f 671/689/913 665/683/914 663/681/915 673/691/916
f 673/691/917 663/681/918 661/679/919 675/693/920
f 685/703/921 683/701/922 681/699/923 655/673/924
f 655/673/925 681/699/926 679/697/927 656/674/928
f 656/674/929 679/697/930 677/695/931 659/677/932
f 659/677/933 677/695/934 675/693/935 661/679/936
