# This file uses centimeters as units for non-parametric coordinates.

v -15.283952 9.000679 -3.504892
v -15.312080 8.997331 -3.504797
v -15.313253 8.968471 -3.504482
v -15.293521 8.962801 -3.524106
v -15.273837 8.980780 -3.524233
v -15.603223 8.980782 -3.524232
v -15.583541 8.963164 -3.523743
v -15.564640 8.969059 -3.504482
v -15.564940 8.997364 -3.504797
v -15.593111 9.000681 -3.504892
v -15.293521 8.477680 -3.524034
v -15.313071 8.477680 -3.504482
v -15.313071 8.458128 -3.524034
v -15.563989 8.458128 -3.524034
v -15.563989 8.477680 -3.504482
v -15.583541 8.477680 -3.524034
v -15.293521 8.477680 -3.577620
v -15.313071 8.458128 -3.577620
v -15.313071 8.477680 -3.597172
v -15.563989 8.477680 -3.597172
v -15.563989 8.458128 -3.577620
v -15.583541 8.477680 -3.577620
v -15.273837 8.980780 -3.577421
v -15.293521 8.963164 -3.577910
v -15.312422 8.969059 -3.597172
v -15.312122 8.997364 -3.596856
v -15.283952 9.000679 -3.596762
v -15.593111 9.000681 -3.596762
v -15.564982 8.997331 -3.596858
v -15.563807 8.968471 -3.597172
v -15.583541 8.962801 -3.577548
v -15.603223 8.980782 -3.577421
v -15.358827 9.342572 -3.590168
v -15.399179 9.396067 -3.588430
v -15.404646 9.415555 -3.568674
v -15.379977 9.403399 -3.568934
v -15.497138 9.403459 -3.568937
v -15.472528 9.415555 -3.568788
v -15.477936 9.396163 -3.588428
v -15.518044 9.343464 -3.590138
v -15.518044 9.343464 -3.511515
v -15.477888 9.396070 -3.513224
v -15.472440 9.415555 -3.532980
v -15.497138 9.403459 -3.532717
v -15.379977 9.403399 -3.532719
v -15.404553 9.415555 -3.532864
v -15.399131 9.396160 -3.513226
v -15.358827 9.342572 -3.511485
v -15.189684 8.973742 -3.577224
v -15.183306 8.992208 -3.597172
v -15.164583 8.986621 -3.577224
v -15.164583 8.986621 -3.524431
v -15.183306 8.992208 -3.504482
v -15.189684 8.973742 -3.524431
v -15.246386 9.196833 -3.596664
v -15.239908 9.219160 -3.576486
v -15.223163 9.196543 -3.577003
v -15.223163 9.196543 -3.524652
v -15.240054 9.219354 -3.525525
v -15.246386 9.196833 -3.504990
v -15.711098 8.986666 -3.577219
v -15.692390 8.992327 -3.597172
v -15.685945 8.973874 -3.577219
v -15.685945 8.973874 -3.524435
v -15.692390 8.992327 -3.504482
v -15.711098 8.986666 -3.524435
v -15.632581 9.196483 -3.504978
v -15.639033 9.218723 -3.525156
v -15.655712 9.196055 -3.524645
v -15.655712 9.196055 -3.577010
v -15.638887 9.218915 -3.576143
v -15.632581 9.196483 -3.596676
v -15.744090 9.070607 -3.577251
v -15.731112 9.056078 -3.597172
v -15.745037 9.042451 -3.577251
v -15.745037 9.042451 -3.524403
v -15.731112 9.056078 -3.504482
v -15.744090 9.070607 -3.524403
v -15.131165 9.042478 -3.577254
v -15.145208 9.055974 -3.597172
v -15.132370 9.070621 -3.577254
v -15.132370 9.070621 -3.524400
v -15.145208 9.055974 -3.504482
v -15.131165 9.042478 -3.524400
v -15.449348 8.642377 -3.550210
v -15.448072 8.644883 -3.550210
v -15.446083 8.646873 -3.550210
v -15.443575 8.648149 -3.550210
v -15.440796 8.648589 -3.550210
v -15.438019 8.648149 -3.550210
v -15.435513 8.646873 -3.550210
v -15.433525 8.644883 -3.550210
v -15.432247 8.642377 -3.550210
v -15.431807 8.639599 -3.550210
v -15.432247 8.636821 -3.550210
v -15.433525 8.634315 -3.550210
v -15.435513 8.632325 -3.550210
v -15.438019 8.631048 -3.550210
v -15.440796 8.630609 -3.550210
v -15.443575 8.631048 -3.550210
v -15.446083 8.632325 -3.550210
v -15.448072 8.634315 -3.550210
v -15.449348 8.636821 -3.550210
v -15.449789 8.639599 -3.550210
v -15.449348 8.642377 -3.685453
v -15.448072 8.644883 -3.685453
v -15.446083 8.646873 -3.685453
v -15.443575 8.648149 -3.685453
v -15.440796 8.648589 -3.685453
v -15.438019 8.648149 -3.685453
v -15.435513 8.646873 -3.685453
v -15.433525 8.644883 -3.685453
v -15.432247 8.642377 -3.685453
v -15.431807 8.639599 -3.685453
v -15.432247 8.636821 -3.685453
v -15.433525 8.634315 -3.685453
v -15.435513 8.632325 -3.685452
v -15.438019 8.631048 -3.685453
v -15.440796 8.630609 -3.685453
v -15.443575 8.631048 -3.685453
v -15.446083 8.632325 -3.685452
v -15.448072 8.634315 -3.685453
v -15.449348 8.636821 -3.685453
v -15.449789 8.639599 -3.685453
v -15.440796 8.639599 -3.550210
v -15.440796 8.639599 -3.714440
v -15.449348 9.280770 -3.550210
v -15.448072 9.283277 -3.550210
v -15.446083 9.285266 -3.550210
v -15.443575 9.286543 -3.550210
v -15.440796 9.286983 -3.550210
v -15.438019 9.286543 -3.550210
v -15.435513 9.285266 -3.550210
v -15.433525 9.283277 -3.550210
v -15.432247 9.280770 -3.550210
v -15.431807 9.277992 -3.550210
v -15.432247 9.275214 -3.550210
v -15.433525 9.272708 -3.550210
v -15.435513 9.270719 -3.550210
v -15.438019 9.269442 -3.550210
v -15.440796 9.269002 -3.550210
v -15.443575 9.269442 -3.550210
v -15.446083 9.270719 -3.550210
v -15.448072 9.272708 -3.550210
v -15.449348 9.275214 -3.550210
v -15.449789 9.277992 -3.550210
v -15.449348 9.280770 -3.685453
v -15.448072 9.283277 -3.685453
v -15.446083 9.285266 -3.685453
v -15.443575 9.286543 -3.685453
v -15.440796 9.286983 -3.685453
v -15.438019 9.286543 -3.685453
v -15.435513 9.285266 -3.685453
v -15.433525 9.283277 -3.685453
v -15.432247 9.280770 -3.685453
v -15.431807 9.277992 -3.685453
v -15.432247 9.275214 -3.685453
v -15.433525 9.272708 -3.685453
v -15.435513 9.270719 -3.685452
v -15.438019 9.269442 -3.685453
v -15.440796 9.269002 -3.685453
v -15.443575 9.269442 -3.685453
v -15.446083 9.270719 -3.685452
v -15.448072 9.272708 -3.685453
v -15.449348 9.275214 -3.685453
v -15.449789 9.277992 -3.685453
v -15.440796 9.277992 -3.550210
v -15.440796 9.277992 -3.714440
vt 0.384599 0.203439
vt 0.372609 0.222639
vt 0.335158 0.204074
vt 0.333164 0.190575
vt 0.027153 0.629110
vt 0.427931 0.002441
vt 0.091958 0.408899
vt 0.027926 0.645946
vt 0.180450 0.637647
vt 0.179975 0.653141
vt 0.437535 0.732361
vt 0.017642 0.934881
vt 0.344052 0.986763
vt 0.408731 0.718966
vt 0.354487 0.258452
vt 0.400709 0.494827
vt 0.198329 0.634999
vt 0.263271 0.622064
vt 0.265030 0.636741
vt 0.196099 0.658144
vt 0.375508 0.473777
vt 0.385564 0.460810
vt 0.161722 0.925994
vt 0.149654 0.927653
vt 0.123202 0.429639
vt 0.144393 0.455221
vt 0.017179 0.950193
vt 0.312665 0.970981
vt 0.327067 0.964911
vt 0.159543 0.944588
vt 0.185340 0.920311
vt 0.189490 0.931417
vt 0.315955 0.956743
vt 0.394846 0.709374
vt 0.197386 0.920319
vt 0.381093 0.440782
vt 0.341888 0.275755
vt 0.316844 0.231567
vt 0.325841 0.225244
vt 0.347016 0.291421
vt 0.365038 0.442888
vt 0.134048 0.366502
vt 0.157114 0.343108
vt 0.361372 0.460257
vt 0.355397 0.521866
vt 0.344134 0.516555
vt 0.176756 0.422128
vt 0.150165 0.403957
vt 0.118607 0.361325
vt 0.208980 0.267612
vt 0.225549 0.273825
vt 0.120860 0.377749
vt 0.138642 0.406513
vt 0.103935 0.395882
vt 0.103316 0.347706
vt 0.146642 0.414715
vt 0.247694 0.478432
vt 0.232121 0.485815
vt 0.134876 0.426311
vt 0.127046 0.417130
vt 0.213587 0.506480
vt 0.208360 0.522608
vt 0.363999 0.087235
vt 0.188017 0.247071
vt 0.315988 0.217887
vt 0.322748 0.195942
vt 0.285349 0.216509
vt 0.289396 0.204453
vt 0.291265 0.177438
vt 0.267480 0.167490
vt 0.219441 0.257708
vt 0.277304 0.206536
vt 0.198905 0.235517
vt 0.270888 0.182879
vt 0.343666 0.533174
vt 0.280782 0.622742
vt 0.309933 0.545386
vt 0.307391 0.532146
vt 0.278196 0.579338
vt 0.298363 0.577450
vt 0.223803 0.516218
vt 0.285022 0.566842
vt 0.242482 0.494635
vt 0.297597 0.541881
vt 0.089403 0.389835
vt 0.068528 0.433600
vt 0.316591 0.997559
vt 0.002441 0.936958
vt 0.002441 0.637361
vt 0.011998 0.649243
vt 0.012227 0.623606
vt 0.182477 0.229480
vt 0.304724 0.163478
vt 0.114019 0.310558
vt 0.351862 0.558419
vt 0.370284 0.543675
vt 0.362990 0.288309
vt 0.247364 0.659684
vt 0.229211 0.660893
vt 0.367167 0.266966
vt 0.409807 0.482271
vt 0.209248 0.648361
vt 0.384950 0.232090
vt 0.354760 0.081756
vt 0.354651 0.081772
vt 0.354409 0.075601
vt 0.354540 0.075606
vt 0.354541 0.081793
vt 0.354278 0.075592
vt 0.354431 0.081820
vt 0.354147 0.075580
vt 0.354319 0.081854
vt 0.354017 0.075564
vt 0.354207 0.081895
vt 0.353887 0.075544
vt 0.354094 0.081943
vt 0.353758 0.075520
vt 0.353981 0.081998
vt 0.353630 0.075492
vt 0.353866 0.082061
vt 0.353503 0.075459
vt 0.356100 0.081998
vt 0.355983 0.081943
vt 0.355974 0.075425
vt 0.356100 0.075386
vt 0.355867 0.081896
vt 0.355846 0.075461
vt 0.355753 0.081855
vt 0.355718 0.075492
vt 0.355640 0.081820
vt 0.355589 0.075519
vt 0.355527 0.081792
vt 0.355459 0.075542
vt 0.355416 0.081771
vt 0.355329 0.075562
vt 0.355306 0.081755
vt 0.355198 0.075578
vt 0.355196 0.081745
vt 0.355066 0.075590
vt 0.355087 0.081740
vt 0.354935 0.075599
vt 0.354978 0.081741
vt 0.354803 0.075605
vt 0.354869 0.081746
vt 0.354672 0.075607
vt 0.354989 0.082192
vt 0.354765 0.074200
vt 0.354760 0.081756
vt 0.354651 0.081772
vt 0.354409 0.075601
vt 0.354540 0.075606
vt 0.354541 0.081793
vt 0.354278 0.075592
vt 0.354431 0.081820
vt 0.354147 0.075580
vt 0.354319 0.081854
vt 0.354017 0.075564
vt 0.354207 0.081895
vt 0.353887 0.075544
vt 0.354094 0.081943
vt 0.353758 0.075520
vt 0.353981 0.081998
vt 0.353630 0.075492
vt 0.353866 0.082061
vt 0.353503 0.075459
vt 0.356100 0.081998
vt 0.355983 0.081943
vt 0.355974 0.075425
vt 0.356100 0.075386
vt 0.355867 0.081896
vt 0.355846 0.075461
vt 0.355753 0.081855
vt 0.355718 0.075492
vt 0.355640 0.081820
vt 0.355589 0.075519
vt 0.355527 0.081792
vt 0.355459 0.075542
vt 0.355416 0.081771
vt 0.355329 0.075562
vt 0.355306 0.081755
vt 0.355198 0.075578
vt 0.355196 0.081745
vt 0.355066 0.075590
vt 0.355087 0.081740
vt 0.354935 0.075599
vt 0.354978 0.081741
vt 0.354803 0.075605
vt 0.354869 0.081746
vt 0.354672 0.075607
vt 0.354989 0.082192
vt 0.354765 0.074200
vn -0.060973 -0.717052 0.694348
vn -0.060973 -0.717052 0.694348
vn -0.028582 -0.723763 0.689456
vn 0.260323 -0.622321 0.738206
vn -0.001630 0.019705 0.999804
vn -0.020407 0.007871 0.999761
vn -0.014717 0.013877 0.999795
vn -0.000404 0.021009 0.999779
vn 0.000001 0.000622 1.000000
vn 0.001601 0.019699 0.999805
vn 0.000001 0.000615 1.000000
vn 0.683032 -0.034930 0.729553
vn 0.679911 -0.039490 0.732230
vn 0.706167 0.000182 0.708045
vn 0.706167 0.000182 0.708045
vn 0.670663 -0.741758 -0.002509
vn 0.670663 -0.741758 -0.002509
vn 0.670663 -0.741758 -0.002509
vn 0.670663 -0.741758 -0.002509
vn 0.060925 -0.717125 0.694277
vn 0.060925 -0.717125 0.694277
vn -0.262147 -0.622474 0.737432
vn 0.028302 -0.723951 0.689271
vn -0.670750 -0.741679 0.002530
vn -0.670750 -0.741679 0.002530
vn -0.670750 -0.741679 0.002530
vn -0.670750 -0.741679 0.002530
vn -0.710346 -0.000683 0.703853
vn -0.710346 -0.000683 0.703853
vn -0.710346 -0.000683 0.703853
vn -0.710346 -0.000683 0.703853
vn 0.020349 0.008020 0.999761
vn 0.000408 0.021010 0.999779
vn 0.014575 0.013939 0.999797
vn 0.707142 -0.707072 0.000000
vn 0.707142 -0.707072 0.000000
vn 0.707142 -0.707072 0.000000
vn 0.707142 -0.707072 0.000000
vn 0.000000 -0.707115 0.707098
vn 0.000000 -0.707115 0.707098
vn 0.000000 -0.707115 0.707098
vn 0.000000 -0.707115 0.707098
vn -0.707102 -0.707112 0.000000
vn -0.707102 -0.707112 0.000000
vn -0.707102 -0.707112 0.000000
vn -0.707102 -0.707112 0.000000
vn 0.710372 -0.000681 -0.703826
vn 0.710372 -0.000681 -0.703826
vn 0.710372 -0.000681 -0.703826
vn 0.710372 -0.000681 -0.703826
vn 0.000000 -0.707120 -0.707094
vn 0.000000 -0.707120 -0.707094
vn 0.000000 -0.707120 -0.707094
vn 0.000000 -0.707120 -0.707094
vn -0.706146 0.000185 -0.708066
vn -0.706146 0.000185 -0.708066
vn -0.683014 -0.034930 -0.729570
vn -0.679895 -0.039489 -0.732246
vn -0.060977 -0.717042 -0.694358
vn -0.060977 -0.717042 -0.694358
vn 0.260330 -0.622312 -0.738212
vn -0.028588 -0.723754 -0.689465
vn -0.001628 0.019690 -0.999805
vn 0.000000 0.000616 -1.000000
vn 0.000000 0.000622 -1.000000
vn 0.001602 0.019715 -0.999804
vn -0.020402 0.007872 -0.999761
vn -0.000405 0.021009 -0.999779
vn -0.014690 0.013884 -0.999796
vn 0.060923 -0.717138 -0.694264
vn 0.060923 -0.717138 -0.694264
vn 0.028301 -0.723966 -0.689255
vn -0.262152 -0.622485 -0.737420
vn 0.020362 0.008017 -0.999761
vn 0.014606 0.013933 -0.999796
vn 0.000406 0.021010 -0.999779
vn 0.545469 0.450966 -0.706465
vn 0.523365 0.487752 -0.698704
vn 0.548050 0.448501 -0.706036
vn 0.565543 0.438296 -0.698611
vn 0.001002 0.711759 -0.702423
vn 0.001002 0.711759 -0.702423
vn 0.001002 0.711759 -0.702423
vn 0.001002 0.711759 -0.702423
vn 0.771725 0.635956 -0.000061
vn 0.130985 0.991384 -0.000170
vn 0.131527 0.991313 -0.000171
vn 0.771642 0.636057 -0.000061
vn -0.523996 0.490181 -0.696528
vn -0.546872 0.455317 -0.702579
vn -0.568219 0.438405 -0.696368
vn -0.549470 0.453066 -0.702007
vn -0.130854 0.991402 0.000162
vn -0.768768 0.639528 0.000070
vn -0.768850 0.639429 0.000070
vn -0.130338 0.991470 0.000161
vn -0.543553 0.453726 0.706175
vn -0.521011 0.489892 0.698966
vn -0.546344 0.451155 0.705668
vn -0.566512 0.437217 0.698502
vn -0.000984 0.711733 0.702449
vn -0.000984 0.711733 0.702449
vn -0.000984 0.711733 0.702449
vn -0.000984 0.711733 0.702449
vn 0.526337 0.487985 0.696305
vn 0.548819 0.452543 0.702853
vn 0.567239 0.439469 0.696496
vn 0.551206 0.450402 0.702360
vn 0.456492 -0.889728 0.000000
vn 0.456492 -0.889728 0.000000
vn 0.456492 -0.889728 0.000000
vn 0.456492 -0.889728 0.000000
vn 0.604012 -0.410588 -0.683072
vn 0.650823 0.193332 -0.734201
vn 0.648056 -0.336106 -0.683415
vn 0.604004 -0.410594 0.683075
vn 0.648047 -0.336112 0.683420
vn 0.650815 0.193333 0.734208
vn 0.587055 0.425517 -0.688695
vn 0.600570 0.409601 -0.686690
vn 0.810027 0.586393 0.000002
vn 0.797064 0.603895 -0.000009
vn 0.797059 0.603901 -0.000009
vn 0.810035 0.586382 0.000002
vn 0.586927 0.425923 0.688553
vn 0.600561 0.409606 0.686694
vn -0.453292 -0.891362 0.000000
vn -0.453292 -0.891362 0.000000
vn -0.453292 -0.891362 0.000000
vn -0.453292 -0.891362 0.000000
vn -0.601377 -0.414775 -0.682867
vn -0.645565 -0.341207 -0.683245
vn -0.653617 0.184341 -0.734032
vn -0.601367 -0.414772 0.682878
vn -0.653600 0.184337 0.734048
vn -0.645551 -0.341213 0.683255
vn -0.591702 0.419364 0.688493
vn -0.605232 0.402930 0.686543
vn -0.815690 0.578490 -0.000008
vn -0.794683 0.607025 0.000014
vn -0.794676 0.607034 0.000014
vn -0.815702 0.578473 -0.000008
vn -0.591602 0.419777 -0.688328
vn -0.605250 0.402930 -0.686527
vn -0.999434 0.033628 0.000000
vn -0.999434 0.033628 0.000000
vn -0.999434 0.033628 0.000000
vn -0.999434 0.033628 0.000000
vn 0.999084 0.042796 0.000000
vn 0.999084 0.042796 0.000000
vn 0.999084 0.042796 0.000000
vn 0.999084 0.042796 0.000000
vn 0.000000 0.000000 1.000000
vn 0.000000 0.000000 1.000000
vn 0.000000 -1.000000 0.000000
vn 0.000000 -1.000000 0.000000
vn 0.000000 -1.000000 0.000000
vn 0.000000 -1.000000 0.000000
vn 0.000001 0.000000 -1.000000
vn 0.000001 0.000000 -1.000000
vn -1.000000 0.000000 0.000000
vn -1.000000 0.000000 0.000000
vn -1.000000 0.000000 0.000000
vn -1.000000 0.000000 0.000000
vn 1.000000 -0.000000 0.000000
vn 1.000000 -0.000000 0.000000
vn 1.000000 -0.000000 0.000000
vn 1.000000 -0.000000 0.000000
vn -0.817500 0.575929 0.000000
vn -0.817499 0.575929 0.000000
vn 0.811139 0.584853 0.000000
vn 0.811139 0.584853 0.000000
vn -0.083333 -0.996522 0.000000
vn -0.083333 -0.996522 0.000000
vn -0.083333 -0.996522 0.000000
vn -0.083333 -0.996522 0.000000
vn -0.023093 0.005041 -0.999721
vn -0.023093 0.005041 -0.999721
vn -0.023093 0.005041 -0.999721
vn -0.023085 0.005043 0.999721
vn -0.023085 0.005043 0.999721
vn -0.023085 0.005043 0.999721
vn 0.083213 -0.996532 0.000000
vn 0.083213 -0.996532 0.000000
vn 0.083213 -0.996532 0.000000
vn 0.083213 -0.996532 0.000000
vn 0.023077 0.005222 0.999720
vn 0.023077 0.005222 0.999720
vn 0.023077 0.005222 0.999720
vn 0.023081 0.005222 -0.999720
vn 0.023081 0.005222 -0.999720
vn 0.023081 0.005222 -0.999720
vn -0.854312 -0.519761 0.000000
vn -0.854312 -0.519761 0.000000
vn -0.854312 -0.519761 0.000000
vn -0.854312 -0.519761 0.000000
vn 0.858142 -0.513413 0.000000
vn 0.858142 -0.513413 0.000000
vn 0.858142 -0.513413 0.000000
vn 0.858142 -0.513413 0.000000
vn 0.383404 -0.364445 0.848635
vn 0.383404 -0.364445 0.848635
vn 0.383404 -0.364445 0.848635
vn -0.384025 -0.361684 0.849535
vn -0.384025 -0.361684 0.849534
vn -0.384025 -0.361684 0.849534
vn -0.384025 -0.361684 0.849534
vn -0.384026 -0.361684 0.849535
vn 0.577410 -0.577320 0.577320
vn 0.577410 -0.577320 0.577320
vn 0.577410 -0.577320 0.577320
vn -0.577350 -0.577350 0.577350
vn -0.577350 -0.577350 0.577350
vn -0.577350 -0.577350 0.577350
vn 0.577380 -0.577380 -0.577290
vn 0.577380 -0.577380 -0.577290
vn 0.577380 -0.577380 -0.577290
vn -0.577350 -0.577350 -0.577350
vn -0.577350 -0.577350 -0.577350
vn -0.577350 -0.577350 -0.577350
vn 0.384012 -0.361664 -0.849549
vn 0.384012 -0.361664 -0.849549
vn 0.384012 -0.361664 -0.849549
vn 0.384012 -0.361664 -0.849549
vn 0.384012 -0.361665 -0.849549
vn -0.383423 -0.364471 -0.848615
vn -0.383423 -0.364471 -0.848615
vn -0.383423 -0.364471 -0.848615
vn 0.503117 0.519316 -0.690786
vn 0.503117 0.519316 -0.690786
vn -0.502214 0.521369 -0.689896
vn -0.502214 0.521369 -0.689896
vn -0.499713 0.521920 0.691294
vn -0.499713 0.521920 0.691294
vn 0.505586 0.518705 0.689440
vn 0.505586 0.518705 0.689440
vn -0.951145 0.308743 0.000000
vn -0.809135 0.587623 0.000000
vn -0.809135 0.587623 0.000000
vn -0.951145 0.308743 0.000000
vn -0.587513 0.809215 0.000000
vn -0.587513 0.809215 0.000000
vn -0.308820 0.951120 0.000000
vn -0.308820 0.951120 0.000000
vn 0.000000 1.000000 0.000000
vn 0.000000 1.000000 0.000000
vn 0.309007 0.951060 0.000000
vn 0.309007 0.951060 0.000000
vn 0.587966 0.808886 0.000000
vn 0.587966 0.808886 0.000000
vn 0.809135 0.587623 0.000000
vn 0.809135 0.587623 0.000000
vn 0.950959 0.309317 0.000000
vn 0.950959 0.309317 0.000000
vn 1.000000 -0.000004 0.000000
vn 1.000000 0.000000 0.000000
vn 0.950959 -0.309317 0.000000
vn 0.950959 -0.309317 0.000000
vn 0.809126 -0.587635 0.000000
vn 0.809129 -0.587632 0.000000
vn 0.587993 -0.808866 0.000000
vn 0.587993 -0.808866 0.000000
vn 0.308988 -0.951066 0.000000
vn 0.308984 -0.951067 0.000000
vn -0.000000 -1.000000 0.000000
vn 0.000000 -1.000000 0.000000
vn -0.308838 -0.951115 0.000000
vn -0.308834 -0.951116 0.000000
vn -0.587484 -0.809236 0.000000
vn -0.587484 -0.809236 0.000000
vn -0.808993 -0.587818 0.000000
vn -0.808996 -0.587814 0.000000
vn -0.951145 -0.308743 0.000000
vn -0.951145 -0.308743 0.000000
vn -1.000000 0.000313 0.000000
vn -1.000000 0.000317 0.000000
vn -0.000075 0.000000 1.000000
vn -0.000075 0.000000 1.000000
vn 0.000000 0.000009 1.000000
vn 0.000074 0.000000 1.000000
vn -0.000074 0.000000 1.000000
vn -0.000075 0.000000 1.000000
vn -0.000000 0.000000 1.000000
vn -0.000075 0.000000 1.000000
vn 0.000037 0.000000 1.000000
vn 0.000037 0.000000 1.000000
vn 0.000000 0.000043 1.000000
vn 0.000075 0.000008 1.000000
vn 0.000075 0.000000 1.000000
vn -0.000075 0.000021 1.000000
vn 0.000075 0.000000 1.000000
vn 0.000075 0.000027 1.000000
vn 0.000000 -0.000000 1.000000
vn 0.000075 0.000021 1.000000
vn -0.000037 -0.000000 1.000000
vn -0.000037 0.000008 1.000000
vn 0.000000 0.000043 1.000000
vn -0.908353 0.295140 -0.296289
vn -0.772729 0.561257 -0.296446
vn -0.000102 0.000003 -1.000000
vn -0.561283 0.772743 -0.296361
vn -0.294904 0.908481 -0.296131
vn -0.000002 0.955119 -0.296221
vn 0.295194 0.908353 -0.296235
vn 0.561478 0.772686 -0.296140
vn 0.772792 0.561319 -0.296164
vn 0.908402 0.295150 -0.296128
vn 0.955148 0.000000 -0.296128
vn 0.908402 -0.295150 -0.296128
vn 0.772781 -0.561313 -0.296205
vn 0.561474 -0.772652 -0.296237
vn 0.295219 -0.908352 -0.296213
vn -0.000002 -0.955119 -0.296221
vn -0.295005 -0.908424 -0.296206
vn -0.561288 -0.772747 -0.296341
vn -0.772592 -0.561519 -0.296307
vn -0.908377 -0.295147 -0.296209
vn -0.955123 0.000000 -0.296209
vn -0.951145 0.308743 0.000000
vn -0.809135 0.587623 0.000000
vn -0.809135 0.587623 0.000000
vn -0.951145 0.308743 0.000000
vn -0.587513 0.809215 0.000000
vn -0.587513 0.809215 0.000000
vn -0.308820 0.951120 0.000000
vn -0.308820 0.951120 0.000000
vn 0.000000 1.000000 0.000000
vn 0.000000 1.000000 0.000000
vn 0.309007 0.951060 0.000000
vn 0.309007 0.951060 0.000000
vn 0.587966 0.808886 0.000000
vn 0.587966 0.808886 0.000000
vn 0.809135 0.587623 0.000000
vn 0.809135 0.587623 0.000000
vn 0.950959 0.309317 0.000000
vn 0.950959 0.309317 0.000000
vn 1.000000 -0.000004 0.000000
vn 1.000000 0.000000 0.000000
vn 0.950959 -0.309317 0.000000
vn 0.950959 -0.309317 0.000000
vn 0.809126 -0.587635 0.000000
vn 0.809129 -0.587632 0.000000
vn 0.587993 -0.808866 0.000000
vn 0.587993 -0.808866 0.000000
vn 0.308988 -0.951066 0.000000
vn 0.308984 -0.951067 0.000000
vn -0.000000 -1.000000 0.000000
vn 0.000000 -1.000000 0.000000
vn -0.308838 -0.951115 0.000000
vn -0.308834 -0.951116 0.000000
vn -0.587484 -0.809236 0.000000
vn -0.587484 -0.809236 0.000000
vn -0.808993 -0.587818 0.000000
vn -0.808996 -0.587814 0.000000
vn -0.951145 -0.308743 0.000000
vn -0.951145 -0.308743 0.000000
vn -1.000000 0.000313 0.000000
vn -1.000000 0.000317 0.000000
vn -0.000075 0.000000 1.000000
vn -0.000075 0.000000 1.000000
vn -0.000000 0.000009 1.000000
vn 0.000074 0.000000 1.000000
vn -0.000075 0.000000 1.000000
vn -0.000075 0.000000 1.000000
vn 0.000000 0.000000 1.000000
vn -0.000075 0.000000 1.000000
vn 0.000037 0.000000 1.000000
vn 0.000037 0.000000 1.000000
vn 0.000000 0.000043 1.000000
vn 0.000075 0.000008 1.000000
vn 0.000075 0.000000 1.000000
vn -0.000075 0.000021 1.000000
vn 0.000075 0.000000 1.000000
vn 0.000075 0.000027 1.000000
vn 0.000000 -0.000000 1.000000
vn 0.000075 0.000021 1.000000
vn -0.000037 -0.000000 1.000000
vn -0.000037 0.000008 1.000000
vn 0.000000 0.000043 1.000000
vn -0.908401 0.295155 -0.296128
vn -0.772747 0.561275 -0.296366
vn -0.000118 0.000008 -1.000000
vn -0.561293 0.772751 -0.296321
vn -0.294909 0.908493 -0.296091
vn -0.000002 0.955126 -0.296201
vn 0.295197 0.908359 -0.296215
vn 0.561468 0.772678 -0.296180
vn 0.772763 0.561295 -0.296285
vn 0.908378 0.295143 -0.296209
vn 0.955173 0.000000 -0.296048
vn 0.908402 -0.295150 -0.296128
vn 0.772762 -0.561297 -0.296285
vn 0.561472 -0.772653 -0.296237
vn 0.295219 -0.908352 -0.296213
vn -0.000002 -0.955119 -0.296221
vn -0.295007 -0.908423 -0.296206
vn -0.561296 -0.772757 -0.296301
vn -0.772601 -0.561528 -0.296267
vn -0.908353 -0.295140 -0.296289
vn -0.955123 0.000000 -0.296209
f 1/1/1 5/2/2 54/3/3 53/4/4
f 2/5/5 1/91/6 48/86/7 47/7/8
f 3/8/9 2/5/5 9/9/10 8/10/11
f 4/90/12 3/8/13 12/12/14 11/88/15
f 5/2/16 4/103/17 24/100/18 23/15/19
f 6/102/20 10/17/21 65/18/22 64/19/23
f 7/101/24 6/16/25 32/21/26 31/22/27
f 8/10/28 7/20/29 16/23/30 15/24/31
f 10/17/32 9/9/10 42/25/33 41/26/34
f 11/13/35 13/87/36 18/28/37 17/29/38
f 13/27/39 12/12/40 15/24/41 14/30/42
f 14/30/43 16/23/44 22/31/45 21/32/46
f 17/29/47 19/33/48 25/34/49 24/14/50
f 19/33/51 18/28/52 21/32/53 20/35/54
f 20/35/55 22/31/56 31/99/57 30/98/58
f 23/15/59 27/37/60 50/38/61 49/39/62
f 26/40/63 25/97/64 30/36/65 29/41/66
f 27/37/67 26/40/63 34/42/68 33/43/69
f 28/44/70 32/21/71 63/45/72 62/46/73
f 29/41/66 28/44/74 40/47/75 39/48/76
f 33/43/77 36/49/78 56/50/79 55/51/80
f 35/52/81 34/42/82 39/48/83 38/53/84
f 36/49/85 35/52/86 46/54/87 45/85/88
f 37/56/89 40/47/90 72/57/91 71/58/92
f 38/53/93 37/56/94 44/59/95 43/60/96
f 41/26/97 44/59/98 68/61/99 67/62/100
f 43/60/101 42/25/102 47/7/103 46/54/104
f 45/55/105 48/94/106 60/92/107 59/64/108
f 49/39/109 51/65/110 52/66/111 54/3/112
f 51/65/113 50/38/61 80/67/114 79/68/115
f 53/4/4 52/66/116 84/69/117 83/93/118
f 55/51/80 57/71/119 81/72/120 80/67/114
f 57/71/121 56/50/122 59/64/123 58/73/124
f 58/73/125 60/92/107 83/70/118 82/74/126
f 61/75/127 63/45/128 64/96/129 66/95/130
f 62/46/73 61/75/131 75/77/132 74/78/133
f 66/76/134 65/18/22 77/79/135 76/80/136
f 67/62/100 69/81/137 78/82/138 77/79/135
f 69/81/139 68/61/140 71/58/141 70/83/142
f 70/83/143 72/57/91 74/78/133 73/84/144
f 73/84/145 75/77/146 76/80/147 78/82/148
f 79/68/149 81/72/150 82/74/151 84/69/152
f 3/8/9 8/10/11 15/24/153 12/12/154
f 13/87/155 14/30/156 21/32/157 18/28/158
f 19/33/159 20/35/160 30/98/65 25/34/64
f 35/52/86 38/53/93 43/60/96 46/54/87
f 7/20/161 31/99/162 22/31/163 16/23/164
f 24/14/165 4/11/166 11/13/167 17/29/168
f 26/40/63 29/41/66 39/48/76 34/42/68
f 73/84/169 78/82/170 69/81/139 70/83/142
f 9/9/10 2/5/5 47/7/8 42/25/33
f 82/74/171 81/72/172 57/71/121 58/73/124
f 5/2/173 23/15/174 49/39/175 54/3/176
f 27/37/67 33/43/69 55/51/177 80/67/178 50/38/179
f 36/49/85 45/55/88 59/64/123 56/50/122
f 48/6/7 1/1/6 53/4/180 83/93/181 60/63/182
f 32/21/183 6/16/184 64/96/185 63/45/186
f 10/17/32 41/26/34 67/62/187 77/79/188 65/18/189
f 44/59/95 37/56/94 71/58/141 68/61/140
f 40/47/75 28/44/74 62/46/190 74/78/191 72/57/192
f 75/77/193 61/75/194 66/95/195 76/80/196
f 51/65/197 79/68/198 84/69/199 52/66/200
f 1/91/201 2/5/202 3/8/13 4/90/12 5/89/203
f 6/102/204 7/20/205 8/10/206 9/9/207 10/17/208
f 11/88/209 12/12/210 13/27/211
f 14/30/212 15/24/213 16/23/214
f 17/29/215 18/28/216 19/33/217
f 20/35/218 21/32/219 22/31/220
f 23/15/221 24/100/222 25/97/223 26/40/224 27/37/225
f 28/44/226 29/41/227 30/36/58 31/22/57 32/21/228
f 33/43/77 34/42/229 35/52/230 36/49/78
f 37/56/89 38/53/231 39/48/232 40/47/90
f 41/26/97 42/25/233 43/60/234 44/59/98
f 45/85/105 46/54/235 47/7/236 48/86/106
f 49/39/62 50/38/61 51/65/113
f 52/66/116 53/4/4 54/3/3
f 55/51/80 56/50/79 57/71/119
f 58/73/125 59/64/108 60/92/107
f 61/75/131 62/46/73 63/45/72
f 64/19/23 65/18/22 66/76/134
f 67/62/100 68/61/99 69/81/137
f 70/83/143 71/58/92 72/57/91
f 73/84/144 74/78/133 75/77/132
f 76/80/136 77/79/135 78/82/138
f 79/68/115 80/67/114 81/72/120
f 82/74/126 83/70/118 84/69/117
f 85/104/237 86/105/238 106/106/239 105/107/240
f 86/105/238 87/108/241 107/109/242 106/106/239
f 87/108/241 88/110/243 108/111/244 107/109/242
f 88/110/243 89/112/245 109/113/246 108/111/244
f 89/112/245 90/114/247 110/115/248 109/113/246
f 90/114/247 91/116/249 111/117/250 110/115/248
f 91/116/249 92/118/251 112/119/252 111/117/250
f 92/118/251 93/120/253 113/121/254 112/119/252
f 93/122/253 94/123/255 114/124/256 113/125/254
f 94/123/255 95/126/257 115/127/258 114/124/256
f 95/126/257 96/128/259 116/129/260 115/127/258
f 96/128/259 97/130/261 117/131/262 116/129/260
f 97/130/261 98/132/263 118/133/264 117/131/262
f 98/132/263 99/134/265 119/135/266 118/133/264
f 99/134/265 100/136/267 120/137/268 119/135/266
f 100/136/267 101/138/269 121/139/270 120/137/268
f 101/138/269 102/140/271 122/141/272 121/139/270
f 102/140/271 103/142/273 123/143/274 122/141/272
f 103/142/273 104/144/275 124/145/276 123/143/274
f 104/144/275 85/104/237 105/107/240 124/145/276
f 86/105/277 85/104/278 125/146/279
f 87/108/280 86/105/277 125/146/279
f 88/110/281 87/108/280 125/146/279
f 89/112/282 88/110/281 125/146/279
f 90/114/283 89/112/282 125/146/279
f 91/116/284 90/114/283 125/146/279
f 92/118/285 91/116/284 125/146/279
f 93/120/286 92/118/285 125/146/279
f 94/123/287 93/122/286 125/146/279
f 95/126/288 94/123/287 125/146/279
f 96/128/289 95/126/288 125/146/279
f 97/130/290 96/128/289 125/146/279
f 98/132/291 97/130/290 125/146/279
f 99/134/292 98/132/291 125/146/279
f 100/136/293 99/134/292 125/146/279
f 101/138/294 100/136/293 125/146/279
f 102/140/295 101/138/294 125/146/279
f 103/142/296 102/140/295 125/146/279
f 104/144/297 103/142/296 125/146/279
f 85/104/278 104/144/297 125/146/279
f 105/107/298 106/106/299 126/147/300
f 106/106/299 107/109/301 126/147/300
f 107/109/301 108/111/302 126/147/300
f 108/111/302 109/113/303 126/147/300
f 109/113/303 110/115/304 126/147/300
f 110/115/304 111/117/305 126/147/300
f 111/117/305 112/119/306 126/147/300
f 112/119/306 113/121/307 126/147/300
f 113/125/307 114/124/308 126/147/300
f 114/124/308 115/127/309 126/147/300
f 115/127/309 116/129/310 126/147/300
f 116/129/310 117/131/311 126/147/300
f 117/131/311 118/133/312 126/147/300
f 118/133/312 119/135/313 126/147/300
f 119/135/313 120/137/314 126/147/300
f 120/137/314 121/139/315 126/147/300
f 121/139/315 122/141/316 126/147/300
f 122/141/316 123/143/317 126/147/300
f 123/143/317 124/145/318 126/147/300
f 124/145/318 105/107/298 126/147/300
f 127/148/319 128/149/320 148/150/321 147/151/322
f 128/149/320 129/152/323 149/153/324 148/150/321
f 129/152/323 130/154/325 150/155/326 149/153/324
f 130/154/325 131/156/327 151/157/328 150/155/326
f 131/156/327 132/158/329 152/159/330 151/157/328
f 132/158/329 133/160/331 153/161/332 152/159/330
f 133/160/331 134/162/333 154/163/334 153/161/332
f 134/162/333 135/164/335 155/165/336 154/163/334
f 135/166/335 136/167/337 156/168/338 155/169/336
f 136/167/337 137/170/339 157/171/340 156/168/338
f 137/170/339 138/172/341 158/173/342 157/171/340
f 138/172/341 139/174/343 159/175/344 158/173/342
f 139/174/343 140/176/345 160/177/346 159/175/344
f 140/176/345 141/178/347 161/179/348 160/177/346
f 141/178/347 142/180/349 162/181/350 161/179/348
f 142/180/349 143/182/351 163/183/352 162/181/350
f 143/182/351 144/184/353 164/185/354 163/183/352
f 144/184/353 145/186/355 165/187/356 164/185/354
f 145/186/355 146/188/357 166/189/358 165/187/356
f 146/188/357 127/148/319 147/151/322 166/189/358
f 128/149/359 127/148/360 167/190/361
f 129/152/362 128/149/359 167/190/361
f 130/154/363 129/152/362 167/190/361
f 131/156/364 130/154/363 167/190/361
f 132/158/365 131/156/364 167/190/361
f 133/160/366 132/158/365 167/190/361
f 134/162/367 133/160/366 167/190/361
f 135/164/368 134/162/367 167/190/361
f 136/167/369 135/166/368 167/190/361
f 137/170/370 136/167/369 167/190/361
f 138/172/371 137/170/370 167/190/361
f 139/174/372 138/172/371 167/190/361
f 140/176/373 139/174/372 167/190/361
f 141/178/374 140/176/373 167/190/361
f 142/180/375 141/178/374 167/190/361
f 143/182/376 142/180/375 167/190/361
f 144/184/377 143/182/376 167/190/361
f 145/186/378 144/184/377 167/190/361
f 146/188/379 145/186/378 167/190/361
f 127/148/360 146/188/379 167/190/361
f 147/151/380 148/150/381 168/191/382
f 148/150/381 149/153/383 168/191/382
f 149/153/383 150/155/384 168/191/382
f 150/155/384 151/157/385 168/191/382
f 151/157/385 152/159/386 168/191/382
f 152/159/386 153/161/387 168/191/382
f 153/161/387 154/163/388 168/191/382
f 154/163/388 155/165/389 168/191/382
f 155/169/389 156/168/390 168/191/382
f 156/168/390 157/171/391 168/191/382
f 157/171/391 158/173/392 168/191/382
f 158/173/392 159/175/393 168/191/382
f 159/175/393 160/177/394 168/191/382
f 160/177/394 161/179/395 168/191/382
f 161/179/395 162/181/396 168/191/382
f 162/181/396 163/183/397 168/191/382
f 163/183/397 164/185/398 168/191/382
f 164/185/398 165/187/399 168/191/382
f 165/187/399 166/189/400 168/191/382
f 166/189/400 147/151/380 168/191/382
